<svg width="253" height="266" viewBox="0 0 253 266" fill="none" xmlns="http://www.w3.org/2000/svg">
<path d="M45.4995 103L32.4995 262C21.8329 260.167 0.999534 250.4 2.99953 226V208L5 183.5L8 161.5L11.5 141.5L15.5 120.5L19.5 103.5L21.9995 97.5C24.0862 97.5549 26.9581 97.7365 30 98.0983L33 96.5L67.5 96L50.5 101L45.4995 103Z" fill="url(#paint0_linear)"/>
<path d="M45.4995 103L32.4995 262C21.8329 260.167 0.999534 250.4 2.99953 226V208L5 183.5L8 161.5L11.5 141.5L15.5 120.5L19.5 103.5L21.9995 97.5C24.0862 97.5549 26.9581 97.7365 30 98.0983M45.4995 103C43.0856 100.318 36.1907 98.8347 30 98.0983M45.4995 103L50.5 101L67.5 96L33 96.5L30 98.0983" stroke="black"/>
<path d="M74.5001 154.5C50.1001 159.7 45.0001 152.333 45.5001 148L42.5 143L39 176L36 231.5V261L54.5 259.5L239.5 239C248.3 242.2 250.833 220 251 208.5C252.6 204.9 245 162.333 241 141.5C239.333 142 234 143 226 143C216 143 194 148 183.5 151C175.1 153.4 174.667 171 175.5 179.5L171.5 204C169.5 210.833 164.4 225.6 160 230C155.6 234.4 147.833 232.833 144.5 231.5C138 231.5 126.5 213 126 197C125.6 184.2 121.167 169 119 163C114.333 158 98.9001 149.3 74.5001 154.5Z" fill="url(#paint1_radial)" stroke="url(#paint2_radial)"/>
<path d="M45.9996 102.5L44.4996 146.5C44.1663 145.833 43.9996 146.1 45.9996 152.5C47.9996 158.9 73.8329 156.167 86.4996 154C117.3 149.2 125 173.333 125 186C126.166 203.333 133.2 237.1 152 233.5C170.8 229.9 175.166 184.667 175 162.5C168.6 149.7 216 142.833 240.5 141C249.5 122.5 236 95.0001 231.5 92.5001C227.9 90.5001 194 91.6667 177.5 92.5001C158.666 94.5 119.7 98 114.5 96C108 93.5 89.4996 95.5 79.9996 96C72.3996 96.4 54.1663 100.5 45.9996 102.5Z" fill="url(#paint3_linear)" stroke="black"/>
<path d="M116 94.5L134.5 93C134.5 93 140.188 125.734 136.5 128.5C134.5 130 124.635 130.779 119.5 126.5C116.5 124 116 94.5 116 94.5Z" fill="url(#paint4_radial)"/>
<path d="M155 93.7781C155 93.7781 170.079 89.7774 176.171 93.7781C178.332 95.1967 186.109 117.422 179.196 126.138C177.78 127.924 164.19 129.508 159.753 125.461C157.16 123.097 155 93.7781 155 93.7781Z" fill="url(#paint5_radial)"/>
<path d="M133 94.0001C133 94.0001 150.45 89.7701 157.5 94.0002C160 95.5001 169 119 161 128.216C159.361 130.104 143.635 131.779 138.5 127.5C135.5 125 133 94.0001 133 94.0001Z" fill="url(#paint6_radial)"/>
<path d="M43.6695 99.7914L32.1243 97.9441L20.579 96.0967C9.03377 141.356 -9.53098 235.755 8.57196 251.273C26.6749 266.79 35.5109 266.051 37.6661 263.742L37.994 257.738L43.6695 153.826C40.8083 147.626 40.8708 132.758 41.7715 119.227L28.8917 257.738C20.0249 256.63 11.6507 249.271 8.57196 245.731C-5.28243 214.788 18.9649 102.562 22.4264 99.7914C25.1955 97.5746 37.51 100.715 43.3211 102.562C43.4388 101.582 43.5556 100.656 43.6695 99.7914Z" fill="black"/>
<path d="M37.6661 263.742C91.0821 258.046 207.335 245.453 245.019 240.65C258.688 226.98 249.175 169.806 242.71 142.927C241.832 143.772 240.86 144.127 239.939 144.127C246.096 173.377 255.271 232.799 242.71 236.494C230.148 240.189 100.999 252.196 37.994 257.738L37.6661 263.742Z" fill="black"/>
<path d="M77.2317 94.7112L71.84 94.8431L20.579 96.0967L32.1243 97.9441L64.9129 96.3909C68.9753 95.799 73.1347 95.2276 77.2317 94.7112Z" fill="black"/>
<path d="M81.0066 94.2494C86.8034 93.5626 92.3708 93.0107 97.2395 92.6953C95.3192 71.0241 96.1604 35.193 107.861 15.4251C109.211 13.1449 110.705 11.0785 112.356 9.27218C115.496 5.83715 119.203 3.3427 123.563 2.10776C126.492 1.27806 129.716 1.0169 133.261 1.42102C117.987 -0.474332 106.839 4.17129 98.8181 12.505C80.2589 31.788 78.4432 70.8167 81.0066 94.2494Z" fill="black"/>
<path d="M176.671 91.4784C177.972 91.3293 179.363 91.1778 180.827 91.0271C179.825 62.8518 168.908 5.48515 133.261 1.42102C129.716 1.0169 126.492 1.27806 123.563 2.10776C132.965 4.01381 149.045 14.4716 159.483 40.6768C164.546 53.39 168.281 69.8094 169.282 90.7568C171.767 90.6547 174.33 90.8281 176.671 91.4784Z" fill="black"/>
<path d="M77.2317 94.7112C78.4976 94.5517 79.7574 94.3974 81.0066 94.2494C78.4432 70.8167 80.2589 31.788 98.8181 12.505C74.589 19.3419 70.7372 70.2458 71.84 94.8431L77.2317 94.7112Z" fill="black"/>
<path d="M160.507 92.143C162.836 91.5098 165.992 90.892 169.282 90.7568C168.281 69.8094 164.546 53.39 159.483 40.6768C143.25 11.1195 121.301 7.42485 112.356 9.27218C110.705 11.0785 109.211 13.1449 107.861 15.4251C123.563 20.4368 156.074 42.7967 160.507 92.143Z" fill="black"/>
<path d="M133.261 92.8639C125.502 91.386 117.405 93.4797 114.327 94.7112C114.282 95.859 114.248 97.0994 114.227 98.4059C114.855 97.8754 115.832 97.2382 117.097 96.6518C120.238 95.1966 125.814 93.8926 130.952 95.6349C133.95 96.6518 137.417 124.823 135.57 127.04C133.261 129.811 121.715 131.514 118.945 125.192C116.728 120.135 116.789 104.058 117.097 96.6518C115.832 97.2382 114.855 97.8754 114.227 98.4059C114.025 110.767 114.943 129.043 118.945 130.734C122.613 132.284 132.353 132.817 138.341 130.734L138.348 130.631C138.399 129.964 138.443 129.226 138.48 128.425C138.517 127.617 138.547 126.745 138.565 125.821C138.566 125.765 138.567 125.71 138.568 125.654C138.712 117.846 138.09 106.372 135.141 97.4822C134.878 96.6905 134.597 95.9193 134.297 95.1731C133.974 94.3729 133.629 93.6014 133.261 92.8639Z" fill="black"/>
<path d="M158.198 92.8639C151.179 90.2776 138.648 91.7863 133.261 92.8639C133.629 93.6014 133.974 94.3729 134.297 95.1731C134.906 95.0538 135.275 94.8374 136.032 94.7112C136.515 94.6307 137.81 94.3289 138.341 94.2494C143.75 93.4394 151.018 93.0075 155.571 94.1508C156.679 94.4291 157.484 95.3259 157.824 96.4166C160.083 103.664 163.262 116.646 162.337 124.655C162.165 126.138 160.979 127.243 159.51 127.51C155.479 128.242 149.541 129.036 144.344 128.984C143.732 128.978 143.129 128.96 142.542 128.929C141.074 128.851 139.698 128.691 138.48 128.425C138.443 129.226 138.399 129.964 138.348 130.631C140.65 130.734 153.119 131.658 163.278 129.349C163.397 128.739 163.5 128.123 163.588 127.501C165.225 115.929 161.744 102.423 159.098 95.1731C158.783 94.3101 158.48 93.5358 158.198 92.8639Z" fill="black"/>
<path d="M138.565 125.821C138.547 126.745 138.517 127.617 138.48 128.425C139.698 128.691 141.074 128.851 142.542 128.929C139.44 128.572 138.589 126.871 138.565 125.821Z" fill="black"/>
<path d="M136.032 94.7112C135.275 94.8374 134.906 95.0538 134.297 95.1731C134.597 95.9193 134.878 96.6905 135.141 97.4822C134.936 95.9339 135.256 95.0645 136.032 94.7112Z" fill="black"/>
<path d="M163.278 129.349C166.973 129.349 175.655 129.072 180.827 127.963C184.764 117.333 180.981 102.469 177.82 94.2494C177.422 93.2128 177.033 92.2818 176.671 91.4784C174.33 90.8281 171.767 90.6547 169.282 90.7568C165.992 90.892 162.836 91.5098 160.507 92.143C159.598 92.3902 158.815 92.6398 158.198 92.8639C158.48 93.5358 158.783 94.3101 159.098 95.1731C161.335 93.9187 167.111 91.8316 173.668 92.5443C174.977 92.6867 176.064 93.582 176.532 94.8132C179.094 101.551 182.398 113.893 180.469 123.428C180.187 124.823 179.053 125.856 177.656 126.129C173.762 126.893 167.713 127.803 163.588 127.501C163.5 128.123 163.397 128.739 163.278 129.349Z" fill="black"/>
<path fill-rule="evenodd" clip-rule="evenodd" d="M43.3211 102.562C43.4388 101.582 43.5556 100.656 43.6695 99.7914C49.6343 98.7456 57.094 97.5302 64.9129 96.3909C68.9753 95.799 73.1347 95.2276 77.2317 94.7112C78.4976 94.5517 79.7574 94.3974 81.0066 94.2494C86.8034 93.5626 92.3708 93.0107 97.2395 92.6953C107.367 92.0393 114.471 92.4067 114.327 94.7112C114.282 95.859 114.248 97.0994 114.227 98.4059C113.644 96.8664 106.383 94.5265 81.9998 97.4822C79.0157 97.844 76.2972 98.1614 73.8204 98.4506C50.9999 101.116 48.7043 101.384 48.2877 111.799C48.2267 113.324 48.1173 115.196 47.9947 117.295C47.1894 131.079 45.8135 154.627 53.8294 153.826C55.3699 153.672 57.4113 153.402 59.8251 153.083C71.8844 151.49 93.2392 148.669 107.861 152.902C115.573 155.135 119.807 158.527 122.287 162.569C122.213 166.573 122.742 170.936 123.563 175.532C124.196 179.078 125.489 182.589 127.404 185.704C127.459 186.37 127.514 187.063 127.571 187.78C128.728 202.304 130.658 226.537 148.962 231.876C153.272 231.722 162.724 227.811 166.049 213.402C166.457 211.636 166.86 209.915 167.254 208.229C168.341 203.589 169.364 199.219 170.242 194.939C170.973 191.373 171.604 187.869 172.087 184.321C172.736 179.553 173.119 174.707 173.119 169.528C173.12 167.725 173.074 165.881 172.976 163.986C172.124 147.372 192.883 144.434 201.546 143.207C202.275 143.104 202.918 143.013 203.456 142.927C205.57 142.589 209.405 142.397 213.832 142.175C223.909 141.67 237.051 141.011 239.939 138.123C244.095 133.967 239.015 101.721 233.012 95.6349C228.209 90.7663 194.216 92.6827 177.82 94.2494C177.422 93.2128 177.033 92.2818 176.671 91.4784C177.972 91.3293 179.363 91.1778 180.827 91.0271C201.023 88.9481 235.101 87.0112 237.168 93.3257C248.58 126.363 246.524 139.258 242.71 142.927C241.832 143.772 240.86 144.127 239.939 144.127C191.607 146.01 179.067 152.026 177.52 163.986C177.297 165.708 177.302 167.554 177.461 169.528C177.497 169.983 177.542 170.445 177.594 170.914C177.568 174.388 177.456 177.692 177.266 180.833C177.016 184.986 176.632 188.855 176.135 192.455C171.729 224.36 158.466 235.209 151.271 236.494C127.792 231.183 125.629 210.307 123.689 191.581C122.424 179.368 121.254 168.07 114.326 162.601C105.12 155.332 87.6505 156.58 72.3225 157.675C58.4343 158.667 46.3038 159.534 43.6695 153.826C40.8083 147.626 40.8708 132.758 41.7715 119.227C42.1803 113.085 42.7619 107.218 43.3211 102.562Z" fill="black"/>
<path d="M136.493 151.055C139.176 148.616 141.858 146.306 145.901 146.097C148.429 145.966 151.489 146.657 155.413 148.652C157.097 149.508 158.94 150.604 160.969 151.978C162.338 152.435 163.707 151.989 158.396 146.635C158.331 146.569 158.265 146.503 158.198 146.436C156.143 144.38 153.68 142.853 150.991 141.891C144.622 139.612 136.985 140.504 130.49 145.051C124.536 149.219 122.42 155.305 122.287 162.569C122.321 162.624 122.355 162.68 122.388 162.736C125.457 167.858 125.771 174.004 126.795 180.15C127.042 181.63 127.223 183.522 127.404 185.704C132.471 193.948 141.894 199.413 154.966 195.391C155.897 195.104 156.767 194.75 157.578 194.336C161.375 192.4 163.895 189.151 165.502 185.335C168.864 177.354 168.239 166.89 166.973 160.753L152.657 162.601V167.681C155.428 165.68 160.969 163.986 160.969 173.223C160.969 176.684 159.807 180.229 157.918 183.197C155.781 186.555 152.713 189.175 149.347 190.101C145.764 191.087 141.842 190.155 138.341 186.154C128.643 175.07 131.413 155.673 136.493 151.055Z" fill="black"/>
<path d="M122.388 162.736C122.355 162.68 122.321 162.624 122.287 162.569C122.213 166.573 122.742 170.936 123.563 175.532C124.196 179.078 125.489 182.589 127.404 185.704C127.223 183.522 127.042 181.63 126.795 180.15C125.771 174.004 125.457 167.858 122.388 162.736Z" fill="black"/>
<path d="M150.991 141.891C153.68 142.853 156.143 144.38 158.198 146.436C158.265 146.503 158.331 146.569 158.396 146.635C162.505 144.668 167.459 145.059 171.591 146.436C178.518 148.746 185.277 152.902 174.824 142.927C170.193 138.508 159.053 137.353 150.991 141.891Z" fill="black"/>
<path d="M177.266 180.833C177.016 184.986 176.632 188.855 176.135 192.455C185.214 186.328 186.376 172.131 185.445 163.986H177.52C177.297 165.708 177.302 167.554 177.461 169.528H179.904C179.904 174.081 178.391 178.429 177.266 180.833Z" fill="black"/>
<path d="M173.119 169.528C173.12 167.725 173.074 165.881 172.976 163.986H171.591V169.528H173.119Z" fill="black"/>
<path d="M165.502 185.335C163.895 189.151 161.375 192.4 157.578 194.336C159.682 194.924 162.034 195.292 164.664 195.391C166.704 195.468 168.559 195.305 170.242 194.939C170.973 191.373 171.604 187.869 172.087 184.321C169.908 185.101 167.704 185.439 165.502 185.335Z" fill="black"/>
<path d="M155.413 148.652C151.489 146.657 148.429 145.966 145.901 146.097C141.706 151.083 140.493 157.762 140.188 162.736C139.854 168.173 140.003 182.322 149.347 190.101C152.713 189.175 155.781 186.555 157.918 183.197C157.238 182.841 156.561 182.442 155.889 181.998C146.76 175.965 148.039 163.986 151.733 154.288C152.655 151.867 153.922 150.022 155.413 148.652Z" fill="black"/>
<path d="M20.579 96.0967C9.03377 141.356 -9.53098 235.755 8.57196 251.273C26.6749 266.79 35.5109 266.051 37.6661 263.742M20.579 96.0967L32.1243 97.9441M20.579 96.0967L71.84 94.8431M43.6695 99.7914C43.5556 100.656 43.4388 101.582 43.3211 102.562M43.6695 99.7914L32.1243 97.9441M43.6695 99.7914C49.6343 98.7456 57.094 97.5302 64.9129 96.3909M43.6695 153.826C40.8083 147.626 40.8708 132.758 41.7715 119.227M43.6695 153.826L37.994 257.738M43.6695 153.826C46.3038 159.534 58.4343 158.667 72.3225 157.675C87.6505 156.58 105.12 155.332 114.326 162.601C121.254 168.07 122.424 179.368 123.689 191.581C125.629 210.307 127.792 231.183 151.271 236.494C158.466 235.209 171.729 224.36 176.135 192.455M239.939 144.127C240.86 144.127 241.832 143.772 242.71 142.927M239.939 144.127C246.096 173.377 255.271 232.799 242.71 236.494C230.148 240.189 100.999 252.196 37.994 257.738M239.939 144.127C191.607 146.01 179.067 152.026 177.52 163.986M37.6661 263.742C91.0821 258.046 207.335 245.453 245.019 240.65C258.688 226.98 249.175 169.806 242.71 142.927M37.6661 263.742L37.994 257.738M242.71 142.927C246.524 139.258 248.58 126.363 237.168 93.3257C235.101 87.0112 201.023 88.9481 180.827 91.0271M114.327 94.7112C117.405 93.4797 125.502 91.386 133.261 92.8639M114.327 94.7112C114.282 95.859 114.248 97.0994 114.227 98.4059M114.327 94.7112C114.471 92.4067 107.367 92.0393 97.2395 92.6953M133.261 92.8639C138.648 91.7863 151.179 90.2776 158.198 92.8639M133.261 92.8639C133.629 93.6014 133.974 94.3729 134.297 95.1731M158.198 92.8639C158.815 92.6398 159.598 92.3902 160.507 92.143M158.198 92.8639C158.48 93.5358 158.783 94.3101 159.098 95.1731M176.671 91.4784C177.033 92.2818 177.422 93.2128 177.82 94.2494M176.671 91.4784C177.972 91.3293 179.363 91.1778 180.827 91.0271M176.671 91.4784C174.33 90.8281 171.767 90.6547 169.282 90.7568M138.341 130.734C132.353 132.817 122.613 132.284 118.945 130.734C114.943 129.043 114.025 110.767 114.227 98.4059M138.341 130.734C138.343 130.7 138.346 130.665 138.348 130.631M138.341 130.734L138.348 130.631M138.348 130.631C140.65 130.734 153.119 131.658 163.278 129.349M138.348 130.631C138.399 129.964 138.443 129.226 138.48 128.425M163.278 129.349C166.973 129.349 175.655 129.072 180.827 127.963C184.764 117.333 180.981 102.469 177.82 94.2494M163.278 129.349C163.397 128.739 163.5 128.123 163.588 127.501M114.227 98.4059C113.644 96.8664 106.383 94.5265 81.9998 97.4822C79.0157 97.844 76.2972 98.1614 73.8204 98.4506C50.9999 101.116 48.7043 101.384 48.2877 111.799C48.2267 113.324 48.1173 115.196 47.9947 117.295C47.1894 131.079 45.8135 154.627 53.8294 153.826C55.3699 153.672 57.4113 153.402 59.8251 153.083C71.8844 151.49 93.2392 148.669 107.861 152.902C115.573 155.135 119.807 158.527 122.287 162.569M114.227 98.4059C114.855 97.8754 115.832 97.2382 117.097 96.6518M172.976 163.986C172.124 147.372 192.883 144.434 201.546 143.207C202.275 143.104 202.918 143.013 203.456 142.927C205.57 142.589 209.405 142.397 213.832 142.175C223.909 141.67 237.051 141.011 239.939 138.123C244.095 133.967 239.015 101.721 233.012 95.6349C228.209 90.7663 194.216 92.6827 177.82 94.2494M172.976 163.986C173.074 165.881 173.12 167.725 173.119 169.528M172.976 163.986H171.591M43.3211 102.562C37.51 100.715 25.1955 97.5746 22.4264 99.7914C18.9649 102.562 -5.28243 214.788 8.57196 245.731C11.6507 249.271 20.0249 256.63 28.8917 257.738L41.7715 119.227M43.3211 102.562L41.7715 119.227M43.3211 102.562C42.7619 107.218 42.1803 113.085 41.7715 119.227M77.2317 94.7112C73.1347 95.2276 68.9753 95.799 64.9129 96.3909M77.2317 94.7112C78.4976 94.5517 79.7574 94.3974 81.0066 94.2494M77.2317 94.7112L71.84 94.8431M32.1243 97.9441L64.9129 96.3909M97.2395 92.6953C92.3708 93.0107 86.8034 93.5626 81.0066 94.2494M97.2395 92.6953C95.3192 71.0241 96.1604 35.193 107.861 15.4251M133.261 1.42102C168.908 5.48515 179.825 62.8518 180.827 91.0271M133.261 1.42102C129.716 1.0169 126.492 1.27806 123.563 2.10776M133.261 1.42102C117.987 -0.474332 106.839 4.17129 98.8181 12.505M81.0066 94.2494C78.4432 70.8167 80.2589 31.788 98.8181 12.505M123.563 2.10776C119.203 3.3427 115.496 5.83715 112.356 9.27218M123.563 2.10776C132.965 4.01381 149.045 14.4716 159.483 40.6768M169.282 90.7568C165.992 90.892 162.836 91.5098 160.507 92.143M169.282 90.7568C168.281 69.8094 164.546 53.39 159.483 40.6768M71.84 94.8431C70.7372 70.2458 74.589 19.3419 98.8181 12.505M107.861 15.4251C123.563 20.4368 156.074 42.7967 160.507 92.143M107.861 15.4251C109.211 13.1449 110.705 11.0785 112.356 9.27218M112.356 9.27218C121.301 7.42485 143.25 11.1195 159.483 40.6768M117.097 96.6518C120.238 95.1966 125.814 93.8926 130.952 95.6349C133.95 96.6518 137.417 124.823 135.57 127.04C133.261 129.811 121.715 131.514 118.945 125.192C116.728 120.135 116.789 104.058 117.097 96.6518ZM134.297 95.1731C134.597 95.9193 134.878 96.6905 135.141 97.4822M134.297 95.1731C134.906 95.0538 135.275 94.8374 136.032 94.7112M138.48 128.425C138.517 127.617 138.547 126.745 138.565 125.821M138.48 128.425C139.698 128.691 141.074 128.851 142.542 128.929M138.568 125.654C138.565 125.707 138.564 125.763 138.565 125.821M138.568 125.654C138.567 125.71 138.566 125.765 138.565 125.821M138.568 125.654C138.712 117.846 138.09 106.372 135.141 97.4822M144.344 128.984C149.541 129.036 155.479 128.242 159.51 127.51C160.979 127.243 162.165 126.138 162.337 124.655C163.262 116.646 160.083 103.664 157.824 96.4166C157.484 95.3259 156.679 94.4291 155.571 94.1508C151.018 93.0075 143.75 93.4394 138.341 94.2494C137.81 94.3289 136.515 94.6307 136.032 94.7112M144.344 128.984C143.732 128.978 143.129 128.96 142.542 128.929M144.344 128.984C143.672 129.012 143.074 128.99 142.542 128.929M138.565 125.821C138.589 126.871 139.44 128.572 142.542 128.929M135.141 97.4822C134.936 95.9339 135.256 95.0645 136.032 94.7112M159.098 95.1731C161.335 93.9187 167.111 91.8316 173.668 92.5443C174.977 92.6867 176.064 93.582 176.532 94.8132C179.094 101.551 182.398 113.893 180.469 123.428C180.187 124.823 179.053 125.856 177.656 126.129C173.762 126.893 167.713 127.803 163.588 127.501M159.098 95.1731C161.744 102.423 165.225 115.929 163.588 127.501M122.287 162.569C122.321 162.624 122.355 162.68 122.388 162.736C125.457 167.858 125.771 174.004 126.795 180.15C127.042 181.63 127.223 183.522 127.404 185.704M122.287 162.569C122.213 166.573 122.742 170.936 123.563 175.532C124.196 179.078 125.489 182.589 127.404 185.704M122.287 162.569C122.42 155.305 124.536 149.219 130.49 145.051C136.985 140.504 144.622 139.612 150.991 141.891M127.404 185.704C127.459 186.37 127.514 187.063 127.571 187.78C128.728 202.304 130.658 226.537 148.962 231.876C153.272 231.722 162.724 227.811 166.049 213.402C166.457 211.636 166.86 209.915 167.254 208.229C168.341 203.589 169.364 199.219 170.242 194.939M127.404 185.704C132.471 193.948 141.894 199.413 154.966 195.391C155.897 195.104 156.767 194.75 157.578 194.336M179.903 169.528H177.461M179.903 169.528C179.903 174.081 178.391 178.429 177.266 180.833M179.903 169.528C179.496 169.528 178.576 169.528 177.461 169.528M171.591 169.528V163.986M171.591 169.528H173.119M171.591 169.528C172.024 169.528 172.547 169.528 173.119 169.528M171.591 163.986H177.52M150.991 141.891C153.68 142.853 156.143 144.38 158.198 146.436C158.265 146.503 158.331 146.569 158.396 146.635M150.991 141.891C159.053 137.353 170.193 138.508 174.824 142.927C185.277 152.902 178.518 148.746 171.591 146.436C167.459 145.059 162.505 144.668 158.396 146.635M150.991 141.891C150.29 142.286 149.611 142.724 148.962 143.207C147.797 144.075 146.783 145.048 145.901 146.097M158.396 146.635C163.707 151.989 162.338 152.435 160.969 151.978C158.94 150.604 157.097 149.508 155.413 148.652M158.396 146.635C157.336 147.142 156.332 147.807 155.413 148.652M177.266 180.833C177.016 184.986 176.632 188.855 176.135 192.455M177.266 180.833C177.049 181.298 176.846 181.691 176.671 181.998C175.163 182.994 173.631 183.769 172.087 184.321M177.266 180.833C177.456 177.692 177.568 174.388 177.594 170.914C177.542 170.445 177.497 169.983 177.461 169.528M176.135 192.455C185.214 186.328 186.376 172.131 185.445 163.986H177.52M176.135 192.455C174.454 193.589 172.502 194.447 170.242 194.939M177.52 163.986C177.297 165.708 177.302 167.554 177.461 169.528M177.461 169.528C176.112 169.528 174.478 169.528 173.119 169.528M173.119 169.528C173.119 174.707 172.736 179.553 172.087 184.321M165.502 185.335C163.895 189.151 161.375 192.4 157.578 194.336M165.502 185.335C167.704 185.439 169.908 185.101 172.087 184.321M165.502 185.335C168.864 177.354 168.239 166.89 166.973 160.753L152.657 162.601V167.681C155.428 165.68 160.969 163.986 160.969 173.223C160.969 176.684 159.807 180.229 157.918 183.197M165.502 185.335C162.955 185.215 160.411 184.502 157.918 183.197M157.578 194.336C159.682 194.924 162.034 195.292 164.664 195.391C166.704 195.468 168.559 195.305 170.242 194.939M157.578 194.336C154.25 193.408 151.544 191.931 149.347 190.101M170.242 194.939C170.973 191.373 171.604 187.869 172.087 184.321M155.413 148.652C151.489 146.657 148.429 145.966 145.901 146.097M155.413 148.652C153.922 150.022 152.655 151.867 151.733 154.288C148.039 163.986 146.76 175.965 155.889 181.998C156.561 182.442 157.238 182.841 157.918 183.197M145.901 146.097C141.706 151.083 140.493 157.762 140.188 162.736C139.854 168.173 140.003 182.322 149.347 190.101M145.901 146.097C141.858 146.306 139.176 148.616 136.493 151.055C131.413 155.673 128.643 175.07 138.341 186.154C141.842 190.155 145.764 191.087 149.347 190.101M149.347 190.101C152.713 189.175 155.781 186.555 157.918 183.197" stroke="black" stroke-width="0.1"/>
<defs>
<linearGradient id="paint0_linear" x1="-5.5" y1="155" x2="48" y2="161" gradientUnits="userSpaceOnUse">
<stop offset="0.14375" stop-color="#301D00"/>
<stop offset="1" stop-color="#6B4203"/>
</linearGradient>
<radialGradient id="paint1_radial" cx="0" cy="0" r="1" gradientUnits="userSpaceOnUse" gradientTransform="translate(156 164.5) rotate(99.8135) scale(93.8736 169.065)">
<stop stop-color="#895200"/>
<stop offset="1" stop-color="#553300"/>
</radialGradient>
<radialGradient id="paint2_radial" cx="0" cy="0" r="1" gradientUnits="userSpaceOnUse" gradientTransform="translate(143.609 201.25) rotate(90) scale(59.75 107.609)">
<stop/>
<stop offset="1" stop-opacity="0"/>
</radialGradient>
<linearGradient id="paint3_linear" x1="134.5" y1="97.5" x2="143.911" y2="233.766" gradientUnits="userSpaceOnUse">
<stop stop-color="#683F01"/>
<stop offset="1" stop-color="#C67803"/>
</linearGradient>
<radialGradient id="paint4_radial" cx="0" cy="0" r="1" gradientUnits="userSpaceOnUse" gradientTransform="translate(126.872 111.346) rotate(87.7732) scale(16.1661 10.3797)">
<stop stop-color="#FFD600"/>
<stop offset="1" stop-color="#BC6600"/>
</radialGradient>
<radialGradient id="paint5_radial" cx="0" cy="0" r="1" gradientUnits="userSpaceOnUse" gradientTransform="translate(168.826 108.91) rotate(85.5219) scale(16.6015 8.88437)">
<stop stop-color="#FFD600"/>
<stop offset="1" stop-color="#BC6600"/>
</radialGradient>
<radialGradient id="paint6_radial" cx="0" cy="0" r="1" gradientUnits="userSpaceOnUse" gradientTransform="translate(149 110) rotate(85.1009) scale(17.5642 10.275)">
<stop stop-color="#FFD600"/>
<stop offset="1" stop-color="#BC6600"/>
</radialGradient>
</defs>
</svg>
