<svg width="197" height="270" viewBox="0 0 197 270" fill="none" xmlns="http://www.w3.org/2000/svg">
<path d="M194 170.5C194 222.691 161 268.5 99.5 265C47.3091 265 -0.499952 230 3.50005 173C7.15358 120.937 47.3091 76 99.5 76C151.691 76 194 118.309 194 170.5Z" fill="url(#paint0_radial)"/>
<path d="M39.4997 129.5L61.9997 95H46C41.1667 82.6666 35.8 54.9 53 42.5C74.5 27 114 25.5 138 28C162 30.5 155.5 51 155.5 69.5C155.5 84.3 139.5 88 131.5 88C144.3 116 173.167 128 186 130.5L181 117C181.333 99.8333 181 60.9 177 42.5C172 19.5 168.5 20.5 158 9.99998C149.6 1.59998 127.167 1.49998 117 2.49998C108.667 3.49998 89.1 5.69998 77.5 6.49998C63 7.49998 49.5 14 43.5 16C37.5 18 23 33 19.5 37.5C16 42 13.9997 57.5 11.9997 67.5C10.3997 75.5 11.333 103.833 11.9997 117L17.4997 150L39.4997 129.5Z" fill="url(#paint1_radial)"/>
<path d="M168 202C168 220.778 154.345 236 137.5 236C112 238 107 220.778 107 202C107 183.222 120.655 168 137.5 168C166 168 168 183.222 168 202Z" fill="url(#paint2_radial)"/>
<path d="M130.898 87.3808C132.526 87.3342 134.657 87.0408 136.934 86.3808C142.812 84.6769 149.668 80.5301 151.398 71.8808C154.398 56.8808 153.398 37.3808 148.398 33.8808C143.398 30.3808 113.398 24.3808 76.3976 33.8808C39.3976 43.3808 43.8976 62.8808 46.8976 93.3808C47.731 94.3808 51.8976 96.0808 61.8976 94.8808C55.5643 97.2141 42.6976 99.9808 41.8976 92.3808C40.8976 82.8808 21.8315 31.8808 98.8976 24.3808C118.186 22.5037 142.924 24.3392 148.398 27.8808C165.398 38.8808 167.898 94.8808 130.898 87.3808Z" fill="black"/>
<path d="M13.8976 153.881C23.8976 149.081 35.0643 135.214 39.3976 128.881C33.8139 133.881 21.6967 144.381 17.8976 146.381C12.8976 118.381 6.79758 57.2808 22.3976 36.8808C41.8976 11.3808 65.8976 8.88076 83.3976 7.88076C100.898 6.88076 128.898 -1.11924 148.398 7.88076C167.898 16.8808 180.398 19.8808 178.398 115.881C202.143 160.631 188.635 235.588 151.398 252.381C125.898 263.881 77.8976 273.881 31.8976 237.881C-4.90242 209.081 3.33067 160.881 12.0472 140.381C11.6172 136.741 11.213 132.887 10.8529 128.881C0.367788 152.714 -10.7024 209.081 28.8976 243.881C78.3976 287.381 144.898 262.881 156.398 255.881C167.898 248.881 196.898 221.881 196.898 176.381C196.898 139.981 187.564 124.547 182.898 121.381C182.898 63.3808 185.398 42.8808 172.898 20.8808C160.053 -1.72511 130.898 -0.119241 104.898 2.38076C78.8976 4.88076 52.8976 2.88076 25.3976 27.8808C7.94038 43.751 7.58892 92.5735 10.8529 128.881C11.213 132.887 11.6172 136.741 12.0472 140.381C12.6314 145.326 13.2633 149.877 13.8976 153.881Z" fill="black"/>
<path d="M98.8976 74.3808C73.2976 73.5808 53.3134 85.0474 46.6467 90.8808C46.7309 91.7057 46.8148 92.5391 46.8976 93.3808C60.5884 82.8808 97.7629 66.7808 136.934 86.3808C137.99 86.0747 139.077 85.6898 140.161 85.2141C137.161 82.0474 124.498 75.1808 98.8976 74.3808Z" fill="black"/>
<path fill-rule="evenodd" clip-rule="evenodd" d="M140.398 165.881C130.898 166.626 104.998 170.681 105.398 201.881C105.898 240.881 129.398 237.881 140.398 237.381C151.398 236.881 171.302 218.613 170.398 199.881C169.544 182.194 165.898 163.881 140.398 165.881ZM107.898 202.881C108.698 173.281 130.898 168.881 140.398 168.881C156.581 168.881 167.898 174.381 167.898 199.881C167.898 225.381 147.898 231.881 141.398 233.381C134.898 234.881 106.898 239.881 107.898 202.881Z" fill="black"/>
<path d="M129.398 188.55C129.398 194.05 130.398 194.55 142.898 193.55C140.251 200.02 127.573 212.712 135.923 214.05C137.263 214.264 139.398 214.05 139.398 214.05C139.398 214.05 150.398 191.217 150.898 186.05C136.452 186.05 130.545 187.717 129.398 188.55Z" fill="black"/>
<path d="M46.8976 93.3808C43.8976 62.8808 39.3976 43.3808 76.3976 33.8808C113.398 24.3808 143.398 30.3808 148.398 33.8808C153.398 37.3808 154.398 56.8808 151.398 71.8808C149.668 80.5301 142.812 84.6769 136.934 86.3808M46.8976 93.3808C47.731 94.3808 51.8976 96.0808 61.8976 94.8808C55.5643 97.2141 42.6976 99.9808 41.8976 92.3808C40.8976 82.8808 21.8315 31.8808 98.8976 24.3808C118.186 22.5037 142.924 24.3392 148.398 27.8808C165.398 38.8808 167.898 94.8808 130.898 87.3808C132.526 87.3342 134.657 87.0408 136.934 86.3808M46.8976 93.3808C60.5884 82.8808 97.7629 66.7808 136.934 86.3808M46.8976 93.3808C46.8148 92.5391 46.7309 91.7057 46.6467 90.8808C53.3134 85.0474 73.2976 73.5808 98.8976 74.3808C124.498 75.1808 137.161 82.0474 140.161 85.2141C139.077 85.6898 137.99 86.0747 136.934 86.3808M10.8529 128.881C7.58892 92.5736 7.94038 43.751 25.3976 27.8808C52.8976 2.88076 78.8976 4.88076 104.898 2.38076C130.898 -0.119241 160.053 -1.72511 172.898 20.8808C185.398 42.8808 182.898 63.3808 182.898 121.381C187.564 124.547 196.898 139.981 196.898 176.381C196.898 221.881 167.898 248.881 156.398 255.881C144.898 262.881 78.3976 287.381 28.8976 243.881C-10.7024 209.081 0.367788 152.714 10.8529 128.881ZM10.8529 128.881C11.213 132.887 11.6172 136.741 12.0472 140.381M12.0472 140.381C12.6314 145.326 13.2633 149.877 13.8976 153.881C23.8976 149.081 35.0643 135.214 39.3976 128.881C33.8139 133.881 21.6967 144.381 17.8976 146.381C12.8976 118.381 6.79758 57.2808 22.3976 36.8808C41.8976 11.3808 65.8976 8.88076 83.3976 7.88076C100.898 6.88076 128.898 -1.11924 148.398 7.88076C167.898 16.8808 180.398 19.8808 178.398 115.881C202.143 160.631 188.635 235.588 151.398 252.381C125.898 263.881 77.8976 273.881 31.8976 237.881C-4.90242 209.081 3.33067 160.881 12.0472 140.381ZM140.398 168.881C130.898 168.881 108.698 173.281 107.898 202.881C106.898 239.881 134.898 234.881 141.398 233.381C147.898 231.881 167.898 225.381 167.898 199.881C167.898 174.381 156.581 168.881 140.398 168.881ZM140.398 165.881C130.898 166.626 104.998 170.681 105.398 201.881C105.898 240.881 129.398 237.881 140.398 237.381C151.398 236.881 171.302 218.613 170.398 199.881C169.544 182.194 165.898 163.881 140.398 165.881ZM129.398 188.55C129.398 194.05 130.398 194.55 142.898 193.55C140.251 200.02 127.573 212.712 135.923 214.05C137.263 214.264 139.398 214.05 139.398 214.05C139.398 214.05 150.398 191.217 150.898 186.05C136.452 186.05 130.545 187.717 129.398 188.55Z" stroke="black" stroke-width="0.2"/>
<defs>
<radialGradient id="paint0_radial" cx="0" cy="0" r="1" gradientUnits="userSpaceOnUse" gradientTransform="translate(118.5 167.5) rotate(101.148) scale(99.5669 99.7309)">
<stop stop-color="#15006B"/>
<stop offset="1" stop-color="#0F0149"/>
</radialGradient>
<radialGradient id="paint1_radial" cx="0" cy="0" r="1" gradientUnits="userSpaceOnUse" gradientTransform="translate(93.5 76) rotate(87.6785) scale(74.0608 150.047)">
<stop offset="0.650733" stop-color="#10014A"/>
<stop offset="1" stop-color="#1B0476"/>
</radialGradient>
<radialGradient id="paint2_radial" cx="0" cy="0" r="1" gradientUnits="userSpaceOnUse" gradientTransform="translate(137.5 202.079) rotate(89.3403) scale(43.4236 38.8628)">
<stop offset="0.200269" stop-color="white"/>
<stop offset="0.576042" stop-color="#F3F3F3"/>
<stop offset="1" stop-color="#C4C4C4"/>
</radialGradient>
</defs>
</svg>
