<svg width="151" height="146" viewBox="0 0 151 146" fill="none" xmlns="http://www.w3.org/2000/svg">
<path d="M17 6.5L4 17.5L1.5 32L5.5 62.5L15 95.5L23 119.5L18 130L17 139.5L26 131L36 114.5L38 115.5L69.5 116.5L96.5 110.5L118.5 99.5L141.5 73L149 49V35L145.5 26L137 13L112 4.5L63 2.5L28 4L17 6.5Z" fill="#F2F2F2" stroke="black"/>
<path fill-rule="evenodd" clip-rule="evenodd" d="M17.7225 109.465C18.4193 106.681 -22.4993 12.4537 17.7225 4.72959C44.9012 -0.489752 99.6066 -2.57749 128.527 4.72959C169.095 14.9794 150.479 94.1545 106.575 109.465C71.4524 121.713 44.5526 119.671 35.4931 117.12C32.3571 126.282 21.9038 144.887 5.17858 146C20.5101 134.587 19.9293 116.888 17.7225 109.465ZM17.7225 136.953C27.7576 126.654 24.9237 114.336 22.2524 109.465C-24.439 -6.40499 35.4108 4.7296 41.7652 4.7296C64.0655 4.72959 124.695 3.84632 137.935 18.2999C161.736 44.2807 137.725 83.0199 106.575 102.853C81.656 118.72 48.8041 115.96 35.4931 112.596C32.9842 121.504 22.6006 132.546 17.7225 136.953Z" fill="black"/>
<path d="M35.4931 35.6977C24.5201 64.1193 72.0234 82.0284 75.7717 84.6465C72.7836 81.067 127.902 31.4444 105.879 25.259C88.0384 20.2485 72.6604 40.5691 70.6859 54.8354C64.7624 41.845 44.4132 12.5934 35.4931 35.6977Z" fill="black"/>
<path d="M37.5304 40.4894C28.1672 62.5 71.5842 79.6892 75.0784 81.9043C72.2928 78.8757 122 36 103.144 31.6574C86.4195 27.8056 74.0004 48.5001 70.3374 56.6815C64.8154 45.6905 45.8461 20.9413 37.5304 40.4894Z" fill="#C70909"/>
</svg>
