<svg width="190" height="260" viewBox="0 0 190 260" fill="none" xmlns="http://www.w3.org/2000/svg">
<path d="M139.534 84.5793C139.469 86.5876 137.715 88.5963 134.206 90.4661C130.735 92.3155 125.714 93.9366 119.488 95.2393C107.044 97.8431 89.9011 99.1528 71.014 98.5413C52.1268 97.9298 35.1045 95.5138 22.8551 92.1105C16.7266 90.4077 11.8205 88.4653 8.47654 86.3952C5.09586 84.3023 3.47526 82.1843 3.54029 80.1761C3.60531 78.1678 5.35952 76.1591 8.8685 74.2893C12.3393 72.4399 17.3608 70.8189 23.5867 69.5161C36.0306 66.9123 53.1735 65.6026 72.0607 66.2141C90.9478 66.8257 107.97 69.2416 120.219 72.6449C126.348 74.3477 131.254 76.2901 134.598 78.3602C137.979 80.4531 139.599 82.5711 139.534 84.5793Z" fill="#CBF2FE" stroke="black"/>
<path d="M137 83.5C79.4 112.7 23.3333 92.3333 2.5 78.5V96.5L5 137L12.5 194L28 242.5C58 269.3 98.5 253.667 115 242.5C133 207.7 137.167 122 137 83.5Z" fill="#B0ECFF" stroke="black"/>
<path d="M75 109L63 119L94 124.5L105 114L75 109Z" fill="#5D9DCB" stroke="black"/>
<path d="M60 147L61 120L93.5 125V153.5L60 147Z" fill="url(#paint0_linear)" stroke="black"/>
<path d="M105.5 115L94 125.5L95.5 153L113 134L105.5 115Z" fill="url(#paint1_linear)" stroke="black"/>
<path d="M71.34 178.394L78.6491 189.265L52.401 186.405L46.0144 175.366L71.34 178.394Z" fill="#5D9DCB" stroke="black"/>
<path d="M2.5 81L3.5 53L32.5 45.5L67.5 42L101 45L139.5 53L138 80.5L133.5 77.5L128.5 75.5L122 73L111.5 70L98 68L88 67L73 66H59L42 66.5L26 69L15.5 71.5L8.5 74.5L4.5 77.5L2.5 81Z" fill="#E1EAED"/>
<path d="M74.4815 212.51L80.0241 190.54L52.6861 186.925L45.9859 209.867L74.4815 212.51Z" fill="url(#paint2_linear)" stroke="black"/>
<path d="M121 79L111.5 64.5L141 49.5L132.5 78.5L131 79H121Z" fill="url(#paint3_radial)" stroke="black"/>
<path d="M99.5001 24C98.5001 29.3333 96.7001 40.1 97.5001 40.5L109 64L126.5 59L139 53V88L155 86.5C159.5 85.1667 168.8 82.5 170 82.5C171.2 82.5 175.833 75.5 178 72L182 66L185.5 51.5L184.5 44.5V39L182 27L174.5 22L170 13.5L156 6L142.5 4L132.5 2.5C127.333 5.16667 116.9 10.7 116.5 11.5C116 12.5 112.5 15 112 16C111.5 17 108.5 16.5 106.5 17.5C104.9 18.3 101.167 22.1667 99.5001 24Z" fill="url(#paint4_radial)" stroke="black"/>
<path d="M45.3772 176.054L52.1663 187.21L44.4937 208.995L34.8729 189.586L45.3772 176.054Z" fill="url(#paint5_linear)" stroke="black"/>
<path d="M94.6448 41.9104C97.3895 42.269 100.103 42.6716 102.762 43.1051C102.972 42.3923 103.299 41.7028 103.758 41.0457C103.667 40.7826 103.577 40.5086 103.49 40.2248C101.478 33.6661 100.76 21.8796 111.543 19.2504C112.184 19.0939 112.866 18.9699 113.591 18.8814C114.06 18.115 114.63 17.2824 115.294 16.4187C120.226 10.0087 130.356 1.88019 142.682 6.31852C143.224 6.51373 143.771 6.73325 144.321 6.9783C144.706 6.90747 145.117 6.84507 145.55 6.79322C152.296 5.98631 164.504 7.73699 169.418 20.1127C169.678 20.7667 169.917 21.4504 170.134 22.165C170.646 22.3752 171.197 22.6268 171.773 22.9181C177.192 25.6597 184.753 31.9137 181.197 40.2248C181.607 41.0651 182.014 42.0376 182.381 43.1051C184.602 49.5665 185.367 59.5095 176.69 64.6903C175.829 65.2041 174.876 65.6711 173.822 66.0832C174.038 66.9264 174.183 67.905 174.209 68.9563C174.34 74.2156 171.482 81.2963 159.481 82.3701C158.701 82.4399 157.882 82.4843 157.023 82.5012C156.376 82.7824 155.537 83.104 154.564 83.4234C150.805 84.6578 145.044 85.8578 140.624 84.5534C140.594 86.432 140.557 88.3484 140.511 90.2997C195.702 95.2251 184.475 49.2547 188.572 37.3516C192.669 25.4486 166.447 5.74695 148.418 2.05289C130.39 -1.64116 122.605 4.5156 102.938 18.4709C94.9295 24.1539 93.3755 33.1058 94.6448 41.9104Z" fill="black"/>
<path d="M102.938 63.9103C106.327 63.1639 109.621 62.3439 112.772 61.484C109.379 58.6709 104.191 53.1345 102.809 47.8149C102.389 46.1974 102.321 44.5999 102.762 43.1051C100.103 42.6716 97.3895 42.269 94.6448 41.9104C94.885 43.5769 95.2264 45.2382 95.6444 46.871C97.3561 53.5585 100.351 59.7689 102.938 63.9103Z" fill="black"/>
<path d="M115.294 16.4187C114.63 17.2824 114.06 18.115 113.591 18.8814C112.866 18.9699 112.184 19.0939 111.543 19.2504L140.224 43.1051L115.294 16.4187Z" fill="black"/>
<path d="M144.321 6.9783C143.771 6.73325 143.224 6.51373 142.682 6.31852V43.1051L145.55 6.79322C145.117 6.84507 144.706 6.90747 144.321 6.9783Z" fill="black"/>
<path d="M170.134 22.165C169.917 21.4504 169.678 20.7667 169.418 20.1127L144.321 44.7397L171.773 22.9181C171.197 22.6268 170.646 22.3752 170.134 22.165Z" fill="black"/>
<path d="M181.197 40.2248L145.55 45.9711L182.381 43.1051C182.014 42.0376 181.607 41.0651 181.197 40.2248Z" fill="black"/>
<path d="M103.758 41.0457C103.299 41.7028 102.972 42.3923 102.762 43.1051L138.995 45.9711L103.49 40.2248C103.577 40.5086 103.667 40.7826 103.758 41.0457Z" fill="black"/>
<path d="M154.564 83.4234C155.537 83.104 156.376 82.7824 157.023 82.5012C157.882 82.4843 158.701 82.4399 159.481 82.3701L144.321 49.2547L154.564 83.4234Z" fill="black"/>
<path d="M173.822 66.0832C174.876 65.6711 175.829 65.2041 176.69 64.6903L146.37 48.4338L174.209 68.9563C174.183 67.905 174.038 66.9264 173.822 66.0832Z" fill="black"/>
<path d="M112.772 61.484C109.621 62.3439 106.327 63.1639 102.938 63.9103C103.594 64.824 104.387 65.8766 105.289 67.0162C110.777 73.9463 120.332 84.0928 127.932 85.7848L132.439 78.3967C124.442 77.8442 117.817 70.0472 114.371 64.3924C113.721 63.3257 113.184 62.3353 112.772 61.484Z" fill="black"/>
<path d="M2.96426 51.7174C-0.859887 84.6902 -1.70666 169.517 25.4994 245.04C39.4302 255.574 77.2073 270.323 116.869 245.04C133.852 196.919 139.462 134.589 140.511 90.2997C140.557 88.3484 140.594 86.432 140.624 84.5534C140.826 71.4621 140.627 60.2055 140.224 51.7174C138.945 52.3344 137.396 53.0273 135.614 53.7696C129.966 56.1228 121.973 58.9735 112.772 61.484C113.184 62.3353 113.721 63.3257 114.371 64.3924C123.951 61.465 132.393 58.3964 137.765 56.2323C137.629 102.203 132.439 203.666 112.772 241.756C110.723 241.756 71.3892 271.308 31.2356 245.04C18.9437 210.972 2.96426 189.218 4.60315 56.2323C17.7145 62.1155 49.3457 73.7175 70.9794 73.0608C81.1482 72.7521 93.586 70.1945 105.289 67.0162C104.387 65.8766 103.594 64.824 102.938 63.9103C92.3479 66.2427 80.8202 67.8566 69.7503 67.725C46.0683 67.4432 19.7963 59.3359 7.206 53.7696C5.53994 53.0331 4.11345 52.341 2.96426 51.7174Z" fill="black"/>
<path fill-rule="evenodd" clip-rule="evenodd" d="M105.289 112.464L75.4865 108.77L59.0973 119.852L92.2854 125.188L105.289 112.464ZM66.0627 118.621L75.4865 110.001L102.529 115.165L94.6448 122.879L66.0627 118.621Z" fill="black"/>
<path fill-rule="evenodd" clip-rule="evenodd" d="M63.1946 120.511L59.0973 119.852V147.763L94.6448 155.151L114.371 133.807L105.289 112.464L102.529 115.165L94.6448 122.879L92.2854 125.188L91.466 151.867L60.7362 146.531L63.1946 120.511ZM94.6448 126.419L105.289 116.569L111.543 133.807L96.7924 150.636L94.6448 126.419Z" fill="black"/>
<path fill-rule="evenodd" clip-rule="evenodd" d="M45.2703 174.853L70.9615 176.454L81.6324 190.5L53.2483 187.858L45.2703 174.853ZM76.1741 188.046L70.2648 179.107L46.9638 177.613L51.8008 185.498L76.1741 188.046Z" fill="black"/>
<path fill-rule="evenodd" clip-rule="evenodd" d="M78.1282 190.174L81.6324 190.5L77.1524 215.898L42.8112 209.966L33.2843 190.195L45.2703 174.853L46.9638 177.613L51.8008 185.498L53.2483 187.858L49.2274 208.772L74.6259 211.714L78.1282 190.174ZM51.0496 188.359L44.3994 178.169L35.6065 190.788L44.1175 204.991L51.0496 188.359Z" fill="black"/>
<path d="M69.7503 40.2248C43.2877 40.4566 11.8417 47.2024 2.96426 51.7174C4.11345 52.341 5.53994 53.0331 7.206 53.7696C17.4838 50.3492 44.4845 43.7547 70.2648 44.7397C78.6663 45.0608 87.3596 45.8555 95.6444 46.871C95.2264 45.2382 94.885 43.5769 94.6448 41.9104C86.4013 40.8334 77.8802 40.1536 69.7503 40.2248Z" fill="black"/>
<path d="M2.96426 51.7174C-0.859887 84.6902 -1.70666 169.517 25.4994 245.04C39.4302 255.574 77.2073 270.323 116.869 245.04C133.852 196.919 139.462 134.589 140.511 90.2997M2.96426 51.7174C11.8417 47.2024 43.2877 40.4566 69.7503 40.2248C77.8802 40.1536 86.4013 40.8334 94.6448 41.9104M2.96426 51.7174C4.11345 52.341 5.53994 53.0331 7.206 53.7696M102.938 63.9103C92.3479 66.2427 80.8202 67.8566 69.7503 67.725C46.0683 67.4432 19.7963 59.3359 7.206 53.7696M102.938 63.9103C106.327 63.1639 109.621 62.3439 112.772 61.484M102.938 63.9103C103.594 64.824 104.387 65.8766 105.289 67.0162M102.938 63.9103C100.351 59.7689 97.3561 53.5585 95.6444 46.871M140.511 90.2997C195.702 95.2251 184.475 49.2547 188.572 37.3516C192.669 25.4486 166.447 5.74695 148.418 2.05289C130.39 -1.64116 122.605 4.5156 102.938 18.4709C94.9295 24.1539 93.3755 33.1058 94.6448 41.9104M140.511 90.2997C140.557 88.3484 140.594 86.432 140.624 84.5534M112.772 61.484C113.184 62.3353 113.721 63.3257 114.371 64.3924M112.772 61.484C121.973 58.9735 129.966 56.1228 135.614 53.7696C137.396 53.0273 138.945 52.3344 140.224 51.7174C140.627 60.2055 140.826 71.4621 140.624 84.5534M112.772 61.484C109.379 58.6709 104.191 53.1345 102.809 47.8149M181.197 40.2248C184.753 31.9137 177.192 25.6597 171.773 22.9181M181.197 40.2248L145.55 45.9711L182.381 43.1051M181.197 40.2248C181.607 41.0651 182.014 42.0376 182.381 43.1051M140.624 84.5534C145.044 85.8578 150.805 84.6578 154.564 83.4234M94.6448 41.9104C97.3895 42.269 100.103 42.6716 102.762 43.1051M94.6448 41.9104C94.885 43.5769 95.2264 45.2382 95.6444 46.871M102.762 43.1051C102.972 42.3923 103.299 41.7028 103.758 41.0457C103.667 40.7826 103.577 40.5086 103.49 40.2248M102.762 43.1051L138.995 45.9711L103.49 40.2248M102.762 43.1051C102.321 44.5999 102.389 46.1974 102.809 47.8149M142.682 6.31852C143.224 6.51373 143.771 6.73325 144.321 6.9783C144.706 6.90747 145.117 6.84507 145.55 6.79322M142.682 6.31852V43.1051L145.55 6.79322M142.682 6.31852C130.356 1.88019 120.226 10.0087 115.294 16.4187M145.55 6.79322C152.296 5.98631 164.504 7.73699 169.418 20.1127M169.418 20.1127C169.678 20.7667 169.917 21.4504 170.134 22.165C170.646 22.3752 171.197 22.6268 171.773 22.9181M169.418 20.1127L144.321 44.7397L171.773 22.9181M115.294 16.4187C114.63 17.2824 114.06 18.115 113.591 18.8814C112.866 18.9699 112.184 19.0939 111.543 19.2504M115.294 16.4187L140.224 43.1051L111.543 19.2504M111.543 19.2504C100.76 21.8796 101.478 33.6661 103.49 40.2248M182.381 43.1051C184.602 49.5665 185.367 59.5095 176.69 64.6903M154.564 83.4234C155.537 83.104 156.376 82.7824 157.023 82.5012C157.882 82.4843 158.701 82.4399 159.481 82.3701M154.564 83.4234L144.321 49.2547L159.481 82.3701M159.481 82.3701C171.482 81.2963 174.34 74.2156 174.209 68.9563M176.69 64.6903C175.829 65.2041 174.876 65.6711 173.822 66.0832C174.038 66.9264 174.183 67.905 174.209 68.9563M176.69 64.6903L146.37 48.4338L174.209 68.9563M114.371 64.3924C123.951 61.465 132.393 58.3964 137.765 56.2323C137.629 102.203 132.439 203.666 112.772 241.756C110.723 241.756 71.3892 271.308 31.2356 245.04C18.9437 210.972 2.96426 189.218 4.60315 56.2323C17.7145 62.1155 49.3457 73.7175 70.9794 73.0608C81.1482 72.7521 93.586 70.1945 105.289 67.0162M114.371 64.3924C111.432 65.2903 108.386 66.175 105.289 67.0162M114.371 64.3924C117.817 70.0472 124.442 77.8442 132.439 78.3967L127.932 85.7848C120.332 84.0928 110.777 73.9463 105.289 67.0162M105.289 112.464L75.4865 108.77L59.0973 119.852M105.289 112.464L92.2854 125.188M105.289 112.464L114.371 133.807L94.6448 155.151L59.0973 147.763V119.852M105.289 112.464L102.529 115.165M59.0973 119.852L92.2854 125.188M59.0973 119.852L63.1946 120.511M92.2854 125.188L91.466 151.867L60.7362 146.531L63.1946 120.511M92.2854 125.188L63.1946 120.511M92.2854 125.188L94.6448 122.879M94.6448 122.879L66.0627 118.621L75.4865 110.001L102.529 115.165M94.6448 122.879L102.529 115.165M45.2703 174.853L70.9615 176.454L81.6324 190.5M45.2703 174.853L53.2483 187.858M45.2703 174.853L33.2843 190.195L42.8112 209.966L77.1524 215.898L81.6324 190.5M45.2703 174.853L46.9638 177.613M81.6324 190.5L53.2483 187.858M81.6324 190.5L78.1282 190.174L74.6259 211.714L49.2274 208.772L53.2483 187.858M53.2483 187.858L51.8008 185.498M51.8008 185.498L76.1741 188.046L70.2648 179.107L46.9638 177.613M51.8008 185.498L46.9638 177.613M7.206 53.7696C17.4838 50.3492 44.4845 43.7547 70.2648 44.7397C78.6663 45.0608 87.3596 45.8555 95.6444 46.871M95.6444 46.871C98.0736 47.1688 100.468 47.4856 102.809 47.8149M105.289 116.569L94.6448 126.419L96.7924 150.636L111.543 133.807L105.289 116.569ZM44.3994 178.169L51.0496 188.359L44.1175 204.991L35.6065 190.788L44.3994 178.169Z" stroke="black" stroke-width="0.1"/>
<path fill-rule="evenodd" clip-rule="evenodd" d="M27.5632 82.6507C29.0562 81.6057 30.9712 81.8313 32.148 83.2416C33.2915 84.6118 33.2765 86.4869 32.148 87.8704C30.6709 89.6813 27.264 89.2399 26.3215 87.0825C25.6039 85.4399 26.1176 83.6624 27.5632 82.6507ZM27.5632 84.7188C27.8721 83.3615 29.4689 82.7009 30.7153 83.2416C32.0914 83.8385 32.6128 85.9759 31.5749 87.0825C30.5811 88.1422 28.7476 87.8102 27.9453 86.5901C27.5388 85.972 27.3978 85.4459 27.5632 84.7188Z" fill="black"/>
<path fill-rule="evenodd" clip-rule="evenodd" d="M31.2493 109.108C29.8536 107.937 29.5758 106.029 30.6334 104.527C31.661 103.068 33.4761 102.597 35.1045 103.329C37.236 104.287 37.6915 107.692 35.8515 109.161C34.4506 110.279 32.6008 110.243 31.2493 109.108ZM33.247 108.573C31.856 108.626 30.8046 107.254 31.0042 105.911C31.2247 104.427 33.1543 103.37 34.4918 104.086C35.7726 104.772 35.9264 106.629 34.9556 107.72C34.4637 108.272 33.9921 108.545 33.247 108.573Z" fill="black"/>
<path fill-rule="evenodd" clip-rule="evenodd" d="M101.035 96.8949C99.6397 95.7233 99.3619 93.8151 100.42 92.3134C101.447 90.8542 103.262 90.3834 104.891 91.1153C107.022 92.0734 107.478 95.4785 105.638 96.9473C104.237 98.0655 102.387 98.0294 101.035 96.8949ZM103.033 96.3596C101.642 96.4125 100.591 95.0411 100.79 93.6973C101.011 92.2135 102.94 91.1568 104.278 91.8728C105.559 92.5585 105.713 94.4155 104.742 95.5062C104.25 96.0588 103.778 96.3312 103.033 96.3596Z" fill="black"/>
<path fill-rule="evenodd" clip-rule="evenodd" d="M55.3971 89.9322C54.7906 89.4231 54.6699 88.5939 55.1295 87.9413C55.576 87.3073 56.3647 87.1027 57.0723 87.4208C57.9985 87.8371 58.1965 89.3167 57.3969 89.9549C56.7882 90.4409 55.9844 90.4252 55.3971 89.9322ZM56.2652 89.6996C55.6607 89.7226 55.2039 89.1267 55.2906 88.5427C55.3864 87.898 56.2249 87.4388 56.8061 87.7499C57.3626 88.0479 57.4295 88.8548 57.0076 89.3288C56.7939 89.5689 56.5889 89.6873 56.2652 89.6996Z" fill="black"/>
<path fill-rule="evenodd" clip-rule="evenodd" d="M37.8844 129.996C37.2779 129.487 37.1572 128.658 37.6168 128.005C38.0633 127.371 38.852 127.167 39.5596 127.485C40.4859 127.901 40.6838 129.381 39.8842 130.019C39.2755 130.505 38.4717 130.489 37.8844 129.996ZM38.7525 129.763C38.148 129.786 37.6912 129.19 37.7779 128.607C37.8737 127.962 38.7122 127.503 39.2934 127.814C39.8499 128.112 39.9168 128.919 39.4949 129.393C39.2812 129.633 39.0762 129.751 38.7525 129.763Z" fill="black"/>
<path fill-rule="evenodd" clip-rule="evenodd" d="M86.3559 91.7529C86.4248 92.5418 85.9239 93.2134 85.1374 93.3499C84.3733 93.4825 83.671 93.0694 83.3955 92.3442C83.035 91.3949 83.9413 90.2087 84.9579 90.3227C85.732 90.4096 86.2893 90.9891 86.3559 91.7529ZM85.5776 91.3036C86.0213 91.7147 85.923 92.4592 85.4487 92.8107C84.9251 93.1989 84.0075 92.9307 83.8165 92.2997C83.6337 91.6955 84.157 91.0776 84.7904 91.0408C85.1114 91.0221 85.34 91.0834 85.5776 91.3036Z" fill="black"/>
<path fill-rule="evenodd" clip-rule="evenodd" d="M18.8844 101.996C18.2779 101.487 18.1572 100.658 18.6168 100.005C19.0633 99.3711 19.852 99.1666 20.5596 99.4846C21.4859 99.9009 21.6838 101.381 20.8842 102.019C20.2755 102.505 19.4717 102.489 18.8844 101.996ZM19.7525 101.763C19.148 101.786 18.6912 101.19 18.7779 100.607C18.8737 99.9618 19.7122 99.5026 20.2934 99.8138C20.8499 100.112 20.9168 100.919 20.4949 101.393C20.2812 101.633 20.0762 101.751 19.7525 101.763Z" fill="black"/>
<defs>
<linearGradient id="paint0_linear" x1="76.75" y1="120" x2="76.75" y2="153.5" gradientUnits="userSpaceOnUse">
<stop stop-color="#5D9DCB"/>
<stop offset="1" stop-color="#1D72B0"/>
</linearGradient>
<linearGradient id="paint1_linear" x1="103.5" y1="115" x2="103.5" y2="153" gradientUnits="userSpaceOnUse">
<stop stop-color="#5296C7"/>
<stop offset="1" stop-color="#005DA0"/>
</linearGradient>
<linearGradient id="paint2_linear" x1="67.3453" y1="186.838" x2="59.4696" y2="213.805" gradientUnits="userSpaceOnUse">
<stop stop-color="#5D9DCB"/>
<stop offset="1" stop-color="#1D72B0"/>
</linearGradient>
<radialGradient id="paint3_radial" cx="0" cy="0" r="1" gradientUnits="userSpaceOnUse" gradientTransform="translate(138 53) rotate(114.319) scale(28.5318)">
<stop stop-color="#FFE89D"/>
<stop offset="1" stop-color="#AE926D"/>
</radialGradient>
<radialGradient id="paint4_radial" cx="0" cy="0" r="1" gradientUnits="userSpaceOnUse" gradientTransform="translate(141.4 45.25) rotate(90) scale(42.75 44.0996)">
<stop stop-color="#FFD950"/>
<stop offset="1" stop-color="#AF5F00"/>
</radialGradient>
<linearGradient id="paint5_linear" x1="46.9872" y1="176.524" x2="38.0536" y2="207.114" gradientUnits="userSpaceOnUse">
<stop stop-color="#5296C7"/>
<stop offset="1" stop-color="#005DA0"/>
</linearGradient>
</defs>
</svg>
