<svg width="311" height="197" viewBox="0 0 311 197" fill="none" xmlns="http://www.w3.org/2000/svg">
<path d="M70.5 48.5C50.5 49.7 16.8333 65.6667 2.5 73.5L6.5 74.5C17.5 79 19.5 85 29 92C38.5 99 46 119.5 50.5 123C54.1 125.8 56 150.833 56.5 163C57.7 160.6 81 156.667 92.5 155C128.5 150.6 158.833 155.5 169.5 158.5C187.9 158.9 232.833 182.333 253 194C256 191 261 165 261.5 127C261.9 96.6 253 68.3333 248.5 58C242.5 52 203.667 44.8333 185 42L133 38.5C120.5 41.3333 90.5 47.3 70.5 48.5Z" fill="url(#paint0_radial)" stroke="black"/>
<path d="M47.5 73.5C47.9 76.7 45.6667 83.8333 44.5 87L66.5 137C69.3 137 77.3333 142 81 144.5L116.5 133.5L125 127.5L224.5 162C225.3 158.4 236.833 152.833 242.5 150.5C248.9 127.3 239.833 105.5 234.5 97.5C213.3 95.9 209.667 78.5 210.5 70C203.667 68.1667 188.9 64.2 184.5 63C180.1 61.8 151.667 61.8333 138 62L106 57C86.6667 62.3333 47.9 73.1 47.5 73.5Z" fill="url(#paint1_radial)"/>
<path d="M40.5 39C28.8333 49.8333 5.3 71.7 4.5 72.5C6.33333 70.7845 13.9 65.8828 29.5 60C49 52.6465 84.5 43.5 138.5 39C181.7 35.4 231.5 50.5 251 58.5L298 22L259.5 9L225.5 3.5L180 1.5C167.833 2.66667 142.5 5 138.5 5C133.5 5 97 12.5 93.5 13.5C90.7 14.3 66.6667 21.8333 55 25.5L40.5 39Z" fill="url(#paint2_linear)"/>
<path d="M297.5 23.5L251 58.5C251 59 251.4 61.4 253 67C255 74 261 108.5 262 124C262.8 136.4 259 173.5 257 190.5L295.5 163.5C315.1 80.7 305 35.6667 297.5 23.5Z" fill="url(#paint3_linear)"/>
<path d="M124 7L95.5 41.5L147 39L181 1L124 7Z" fill="url(#paint4_linear)" stroke="black"/>
<path d="M168 101C172 112.5 153 132.5 127.5 129C111.985 126.87 88 116.464 88 101C88 85.536 105.685 73 127.5 73C149.315 73 168 85.536 168 101Z" fill="url(#paint5_radial)"/>
<path d="M146 38L90 44L98.5 88C101.833 101 108.5 127.2 108.5 128C108.5 128.8 114.833 145.333 118 153.5L153 155C148.5 143 146 105.5 142.5 77.5C139.7 55.1 143.667 41.8333 146 38Z" fill="url(#paint6_linear)" stroke="black"/>
<path d="M26.9652 50.3231C28.5281 49.5612 30.4815 48.6573 32.7424 47.6677L41.0529 39.9873C39.372 40.582 37.726 41.2261 36.1342 41.9231L26.9652 50.3231Z" fill="black"/>
<path d="M41.0529 39.9873L32.7424 47.6677C44.227 42.641 63.6461 35.4035 80.1251 33.3394C72.714 33.3943 55.5781 34.848 41.0529 39.9873Z" fill="black"/>
<path d="M53.9303 25.6196L36.1342 41.9231C37.726 41.2261 39.372 40.582 41.0529 39.9873L55.4712 26.662L58.5529 23.8139C57.0141 24.4029 55.4732 25.0047 53.9303 25.6196Z" fill="black"/>
<path d="M26.9652 50.3231L0 75.0266C1.93191 74.1143 3.98881 73.1805 6.16347 72.2318L9.82188 68.8507L32.7424 47.6677C30.4815 48.6573 28.5281 49.5612 26.9652 50.3231Z" fill="black"/>
<path d="M120.326 9.24805L123.269 5.74462C102.432 9.50968 80.7067 15.334 58.5529 23.8139L55.4712 26.662C69.9248 20.7916 92.6814 13.9477 120.326 9.24805Z" fill="black"/>
<path d="M184.904 0.00829488C183.372 0.0187116 181.832 0.0389995 180.281 0.0694975C163.75 0.394759 146.181 1.88134 127.892 4.94043C126.356 5.19732 124.815 5.4653 123.269 5.74462L120.326 9.24805C121.858 8.9875 123.406 8.73354 124.968 8.4867C140.982 5.95622 158.514 4.17425 176.936 3.71322C178.478 3.67465 180.026 3.64532 181.58 3.62557L184.904 0.00829488Z" fill="black"/>
<path d="M297.387 19.4437C276.966 10.3818 236.196 -0.340561 184.904 0.00829488L181.58 3.62557C217.529 3.16874 256.622 7.84356 294.306 21.8051L297.387 19.4437Z" fill="black"/>
<path d="M6.16347 72.2318C25.661 63.7259 54.624 54.0234 87.8294 47.9262L94.731 39.7117C55.086 45.8117 25.3398 58.6418 9.82188 68.8507L6.16347 72.2318Z" fill="black"/>
<path d="M99.8346 38.9718L93.2389 46.9718C108.742 44.3482 125.086 42.545 141.76 42.0318L147.09 36.226C130.215 35.9287 114.396 36.9891 99.8346 38.9718Z" fill="black"/>
<path d="M94.731 39.7117L87.8294 47.9262C89.6205 47.5974 91.4239 47.279 93.2389 46.9718L99.8346 38.9718C98.1158 39.2058 96.4145 39.4527 94.731 39.7117Z" fill="black"/>
<path d="M124.968 8.4867C123.406 8.73354 121.858 8.9875 120.326 9.24805L94.731 39.7117C96.4145 39.4527 98.1158 39.2058 99.8346 38.9718L124.968 8.4867Z" fill="black"/>
<path d="M151.518 36.3348L181.58 3.62557C180.026 3.64532 178.478 3.67465 176.936 3.71322L147.09 36.226C148.558 36.2519 150.034 36.288 151.518 36.3348Z" fill="black"/>
<path d="M146.382 41.9231C179.465 41.3869 213.654 46.0643 244.998 59.5869L251.161 54.8642C215.423 42.6509 181.831 37.2889 151.518 36.3348L146.382 41.9231Z" fill="black"/>
<path d="M141.76 42.0318C143.298 41.9845 144.839 41.9481 146.382 41.9231L151.518 36.3348C150.034 36.288 148.558 36.2519 147.09 36.226L141.76 42.0318Z" fill="black"/>
<path d="M273.208 37.9713C253.864 30.5603 225.796 26.6489 214.181 25.6196C228.941 28.8412 260.35 36.634 267.908 42.0318L273.208 37.9713Z" fill="black"/>
<path d="M285.06 28.8892C270.268 22.8586 242.943 18.0209 231.13 16.3558C244.524 18.7717 273.302 25.242 281.267 31.7955L285.06 28.8892Z" fill="black"/>
<path d="M297.387 19.4437L294.306 21.8051C295.132 23.7456 295.984 26.1136 296.818 28.8892C303.529 51.2197 309.112 99.9291 291.555 164.615L298.928 159.725C308.98 116.556 320.828 37.0598 297.387 19.4437Z" fill="black"/>
<path d="M275.815 108.994C280.08 132.498 275.43 161.547 271.437 177.956L277.838 173.711C283.542 150.318 279.084 121.473 275.815 108.994Z" fill="black"/>
<path d="M269.652 184.648L275.815 180.531C276.598 178.327 277.269 176.046 277.838 173.711L271.437 177.956C270.814 180.518 270.207 182.772 269.652 184.648Z" fill="black"/>
<path d="M275.815 180.531L289.683 171.267C290.334 169.031 290.958 166.814 291.555 164.615L277.838 173.711C277.269 176.046 276.598 178.327 275.815 180.531Z" fill="black"/>
<path d="M297.387 166.121C297.893 164.095 298.408 161.959 298.928 159.725L291.555 164.615C290.958 166.814 290.334 169.031 289.683 171.267L297.387 166.121Z" fill="black"/>
<path d="M251.161 197L269.652 184.648C270.207 182.772 270.814 180.518 271.437 177.956L262.07 184.169L252.702 190.381C252.187 192.747 251.67 194.96 251.161 197Z" fill="black"/>
<path d="M0 75.0266C17.9768 79.6585 53.9303 104.362 53.9303 166.121C55.3667 165.517 56.9093 164.915 58.5529 164.321C58.7604 162.776 58.9172 161.244 59.0258 159.725C62.1442 116.111 25.5205 83.4115 6.16347 72.2318C3.98881 73.1805 1.93191 74.1143 0 75.0266Z" fill="black"/>
<path d="M90.2663 59.5869L44.6851 71.9386C45.7124 75.5412 46.5342 83.364 41.6034 85.8343L64.7164 138.329C66.4722 138.354 72.0121 140.242 80.1251 147.593L110.207 138.329C109.719 136.848 109.225 135.302 108.727 133.697L80.1251 141.417C77.6597 137.236 70.8799 135.558 67.7981 135.241L46.226 85.8343C48.2926 82.1288 49.1416 77.0852 49.3077 75.0266L90.9307 62.6748C90.7044 61.6288 90.4828 60.5989 90.2663 59.5869Z" fill="black"/>
<path d="M87.8294 47.9262C88.5387 51.4125 89.3582 55.3423 90.2663 59.5869C90.4828 60.5989 90.7044 61.6288 90.9307 62.6748C92.2805 68.9143 93.799 75.7283 95.4242 82.7464C95.6617 83.7717 95.9014 84.8014 96.1432 85.8343C98.6958 96.7385 101.48 107.999 104.269 118.258C104.841 120.362 105.414 122.425 105.984 124.434C106.906 127.679 107.823 130.783 108.727 133.697C109.225 135.302 109.719 136.848 110.207 138.329C112.131 144.16 113.971 148.969 115.645 152.25C116.148 153.236 116.636 154.084 117.106 154.78C118.743 154.762 120.399 154.761 122.071 154.78C121.346 154.172 120.609 153.308 119.863 152.215C109.486 137.017 97.4571 77.6291 92.452 47.9262L93.2389 46.9718C91.4239 47.279 89.6205 47.5974 87.8294 47.9262Z" fill="black"/>
<path d="M146.532 59.5869C146.428 53.0443 146.382 47.0401 146.382 41.9231C144.839 41.9481 143.298 41.9845 141.76 42.0318C135.118 52.2368 144.532 118.971 150.538 153.925C150.719 154.984 150.898 156.013 151.073 157.011C152.583 157.227 154.101 157.459 155.628 157.709C155.158 156.812 154.711 155.693 154.285 154.376C153.039 150.524 151.976 144.981 151.073 138.329C150.806 136.362 150.553 134.299 150.314 132.153C150.201 131.142 150.09 130.112 149.983 129.065C149.88 128.051 149.778 127.021 149.68 125.977C148.268 111.004 147.405 93.1186 146.917 76.5705C146.902 76.0545 146.887 75.5398 146.873 75.0266C146.784 71.8748 146.709 68.7769 146.646 65.7628C146.602 63.66 146.565 61.598 146.532 59.5869Z" fill="black"/>
<path d="M214.181 68.8507C195.69 60.2045 161.377 59.0722 146.532 59.5869C146.565 61.598 146.602 63.66 146.646 65.7628C167.702 60.8221 196.333 67.8214 208.017 71.9386C208.017 95.044 225.48 101.123 234.212 101.274C244.073 111.155 241.403 138.329 238.834 150.681C232.671 150.526 225.994 156.646 223.426 159.725L150.314 132.153C150.553 134.299 150.806 136.362 151.073 138.329L224.967 166.121C225.48 163.317 230.206 157.709 244.998 157.709C251.161 138.629 242.43 108.018 237.294 95.0981C215.105 96.3333 212.64 78.1145 214.181 68.8507Z" fill="black"/>
<path d="M155.628 157.709C185.55 162.611 218.57 174.239 251.161 197C251.67 194.96 252.187 192.747 252.702 190.381C221.033 168.886 186.241 158.457 154.285 154.376C154.711 155.693 155.158 156.812 155.628 157.709Z" fill="black"/>
<path d="M119.863 152.215C120.609 153.308 121.346 154.172 122.071 154.78C131.264 154.884 140.978 155.57 151.073 157.011C150.898 156.013 150.719 154.984 150.538 153.925C139.892 152.72 129.592 152.21 119.863 152.215Z" fill="black"/>
<path d="M117.106 154.78C116.636 154.084 116.148 153.236 115.645 152.25C91.893 152.628 71.8683 156.031 59.0258 159.725C58.9172 161.244 58.7604 162.776 58.5529 164.321C72.1221 159.418 92.5838 155.058 117.106 154.78Z" fill="black"/>
<path d="M146.917 76.5705C162.292 85.8343 184.368 108.685 149.68 125.977C149.778 127.021 149.88 128.051 149.983 129.065C190.102 107.782 164.626 84.1715 146.873 75.0266C146.887 75.5398 146.902 76.0545 146.917 76.5705Z" fill="black"/>
<path d="M104.269 118.258C81.6728 107.141 89.4367 92.0102 96.1432 85.8343C95.9014 84.8014 95.6617 83.7717 95.4242 82.7464C87.019 89.9516 77.3636 108.376 105.984 124.434C105.414 122.425 104.841 120.362 104.269 118.258Z" fill="black"/>
<path fill-rule="evenodd" clip-rule="evenodd" d="M218.803 108.994C209.722 104.893 200 110.804 195.69 119.802C189.419 132.893 208.467 155.914 220.344 147.593C226.755 143.102 228.03 136.904 228.048 129.065C228.069 120.432 226.658 112.541 218.803 108.994ZM198.772 129.065C197.77 119.701 209.211 108.765 217.262 113.626C221.418 116.134 222.603 119.643 223.426 124.434C224.62 131.389 223.608 141.444 217.262 144.505C209.443 148.277 199.696 137.712 198.772 129.065Z" fill="black"/>
<path d="M244.998 59.5869C266.872 93.0409 259.984 156.931 252.702 190.381L262.07 184.169C270.205 151.57 260.013 92.1748 252.702 61.1587C252.171 58.9034 251.654 56.7981 251.161 54.8642L244.998 59.5869Z" fill="black"/>
<path fill-rule="evenodd" clip-rule="evenodd" d="M78.5842 104.362C72.7878 103.124 67.1317 105.115 64.7164 110.538C61.4171 117.946 70.6687 127.679 78.5842 125.977C84.9482 124.609 88.8204 114.928 87.8294 112.082C86.2814 107.635 83.1808 105.343 78.5842 104.362ZM67.7981 110.538C70.3787 107.148 74.8378 106.973 78.5842 108.994C81.2333 110.423 82.9761 112.164 83.2068 115.17C83.5332 119.421 79.7486 122.614 75.5025 122.89C69.8375 123.257 64.3552 115.061 67.7981 110.538Z" fill="black"/>
<path fill-rule="evenodd" clip-rule="evenodd" d="M276.755 43.5647C282.779 54.7221 290.176 76.8837 288.142 107.45C288.142 78.7409 278.847 57.7133 271.831 47.1665L276.755 43.5647Z" fill="black"/>
<path d="M294.306 21.8051L285.06 28.8892L281.267 31.7955L273.208 37.9713C274.259 39.3232 275.476 41.196 276.755 43.5647L296.818 28.8892C295.984 26.1136 295.132 23.7456 294.306 21.8051Z" fill="black"/>
<path d="M273.208 37.9713L267.908 42.0318C269.054 43.2883 270.395 45.0079 271.831 47.1665L276.755 43.5647C275.476 41.196 274.259 39.3232 273.208 37.9713Z" fill="black"/>
<path d="M267.908 42.0318L251.161 54.8642C251.654 56.7981 252.171 58.9034 252.702 61.1587L271.831 47.1665C270.395 45.0079 269.054 43.2883 267.908 42.0318Z" fill="black"/>
<ellipse cx="75.5" cy="115" rx="9.5" ry="9" fill="url(#paint7_radial)"/>
<path d="M226 128.5C226 138.717 220.404 147 213.5 147C206.596 147 197.5 138.717 197.5 128.5C197.5 118.283 206.596 110 213.5 110C220.404 110 226 118.283 226 128.5Z" fill="url(#paint8_radial)"/>
<defs>
<radialGradient id="paint0_radial" cx="0" cy="0" r="1" gradientUnits="userSpaceOnUse" gradientTransform="translate(132.007 116.25) rotate(90) scale(77.75 129.507)">
<stop offset="0.794792" stop-color="#02720D"/>
<stop offset="1" stop-color="#035A0C"/>
</radialGradient>
<radialGradient id="paint1_radial" cx="0" cy="0" r="1" gradientUnits="userSpaceOnUse" gradientTransform="translate(145 103) rotate(93.2705) scale(35.0571 88.4812)">
<stop stop-color="#00BD14"/>
<stop offset="1" stop-color="#00A307"/>
</radialGradient>
<linearGradient id="paint2_linear" x1="151.25" y1="1.5" x2="148.5" y2="68" gradientUnits="userSpaceOnUse">
<stop stop-color="#004907"/>
<stop offset="1" stop-color="#028D10"/>
</linearGradient>
<linearGradient id="paint3_linear" x1="248" y1="107" x2="318.5" y2="91" gradientUnits="userSpaceOnUse">
<stop stop-color="#036C0E"/>
<stop offset="1" stop-color="#013F07"/>
</linearGradient>
<linearGradient id="paint4_linear" x1="122.5" y1="-11" x2="118" y2="42" gradientUnits="userSpaceOnUse">
<stop stop-color="#C4C4C4"/>
<stop offset="0.0001" stop-color="#9E7200"/>
<stop offset="1" stop-color="#DB9E00"/>
</linearGradient>
<radialGradient id="paint5_radial" cx="0" cy="0" r="1" gradientUnits="userSpaceOnUse" gradientTransform="translate(128.267 101.203) rotate(90) scale(28.2026 40.2666)">
<stop offset="0.195833" stop-color="#5B9600"/>
<stop offset="1" stop-color="#2D5900"/>
</radialGradient>
<linearGradient id="paint6_linear" x1="109.5" y1="79.5" x2="121.5" y2="155" gradientUnits="userSpaceOnUse">
<stop stop-color="#D79B00"/>
<stop offset="1" stop-color="#9F7300"/>
</linearGradient>
<radialGradient id="paint7_radial" cx="0" cy="0" r="1" gradientUnits="userSpaceOnUse" gradientTransform="translate(75.5 115) rotate(90) scale(9 9.5)">
<stop stop-color="#65A300"/>
<stop offset="1" stop-color="#2D5800"/>
</radialGradient>
<radialGradient id="paint8_radial" cx="0" cy="0" r="1" gradientUnits="userSpaceOnUse" gradientTransform="translate(213.5 128.5) rotate(90) scale(18.5 12.5)">
<stop stop-color="#65A300"/>
<stop offset="1" stop-color="#2D5800"/>
</radialGradient>
</defs>
</svg>
