<svg width="748" height="329" viewBox="0 0 748 329" fill="none" xmlns="http://www.w3.org/2000/svg">
<path d="M610.5 311L607.5 317L603.5 298L602 280L601.5 261.5L603 246L604 240.5L605.5 234L607 238.5L606.5 243L604.5 253L604 268L605 278L606.5 290L607.5 298.5L610.5 311Z" fill="url(#paint0_linear)"/>
<path d="M602.5 226C602.5 224.8 590.833 182.167 585 161L568.5 99V94L570 94.5L567.5 74.5L569 63.5H572L577 42.5L580 41.5L584.5 45.5L587 31.5L589 30L592 32.5L602.5 14V25L603.5 40.5L607.5 36.5L606.5 46L604.5 53L609 52L610.5 56.5L609.5 68.5L613.5 67.5L617 72L617.5 78.5L613.5 100.5L619.5 95.5L616 110.5L611.5 120.5C609.197 134.154 604.621 161.186 604.502 161.502C604.572 161.933 606.185 180.544 607 190V211.5L602.5 226Z" fill="url(#paint1_angular)"/>
<path d="M602 204L601.5 231L603 232.5L613 227L632.5 215L649.5 196L665 170L658 171.5L668 161L676.5 147.5L671 147C675.667 140.333 685.1 126.9 685.5 126.5C685.9 126.1 685.333 122.667 685 121L676.5 123.5L677.5 122.5L685 111.5L689.5 100L685 98.5L688.5 89L691 76.5L685.5 77L694 55L688 54.5L691.5 45L695.5 33L682.5 47.5V43.5L676.5 42.5L657 66.5L654.5 60L645 71L634 87.5V86.5L633 82.5H630.5L621 99L616.5 106L608.5 137L604.5 140C604.833 147.333 605.5 162.1 605.5 162.5C605.5 162.9 602.5 160.667 601 159.5L605.5 186L602 185.5L606 203L602 204Z" fill="url(#paint2_angular)"/>
<path d="M570 202L601.5 231.5L602.5 231L601.5 217.5L600 208.5L596.5 189.5L594 193.5L592.5 176.5L590 159.5L587 157.5L583 162.5L576 127L572 122.5L568 124L566.5 118.5L564.5 113.5L560 110.5L554.5 111L544 92L540.5 88.5L537.5 95L530 79L526 75L525 77.5L506.5 55L509.5 67.5L513 91.5L509.5 91L519.5 119L514 120L524 143L517.5 145.5L521.5 152L543.5 173L542 175.5L566.5 191.5V194.5L570 202Z" fill="url(#paint3_angular)"/>
<path d="M635 215L603 232.5L603.5 233.5L611.5 236L618.5 237.5H630L647.5 236.5L650.5 234.5H661.5L664 232.5L673 230.5L687 227L684 223.5L695 220L711 210.5H703.5L719.5 199L727.5 188L725.5 183L732.5 177L737.5 170L733.5 166L739.5 162.5L742.5 156L740 155L745.5 139L739.5 142L730 146L729 142.5L725.5 141.5L708 154L709 151L708.5 148.5L701 152L684.5 164V159.5L683.5 158.5L678.5 161C671 169 655.8 185.1 655 185.5C654.2 185.9 653.333 191.667 653 194.5L637.5 204.5L635 215Z" fill="url(#paint4_angular)"/>
<path d="M606.5 245L603.5 237L604 233.5L610.5 235.5L619.5 237.5H633.5C633.9 237.5 644.667 239.833 650 241L652.5 244.5L651.5 246.5L654.5 247L668 251.5L667 252.5L664 253.5L663.5 254L672 256L677.5 257.5L675 259L676.5 261L680.5 264L687 268L695.5 271.5L691 273.5L683.5 274H678.5C678.1 274 679 275.333 679.5 276L662.5 275L660.5 276.5H658L644.5 271.5V275L634.5 270L619.5 258.5L618 260.5L611 252L606.5 245Z" fill="url(#paint5_angular)"/>
<path d="M604.5 239L605.5 233.5V232L603.5 230L601.5 231V232L580.5 237.5L571.5 239.5L572 245L562 246L555 248.5L556 250.5L548 253L543 256L544.5 257L538 261.5V264.5L533 268V270L528 273L523.5 277L520 283L525 281L532 279L537.5 279.5L536 281L542 280.5L543 281.5L557 277L559.5 278.5L573 271.5L574 273.5L579 268.5L587.5 259C587.833 259.833 588.6 261.5 589 261.5C589.4 261.5 592.833 256.167 594.5 253.5L604.5 239Z" fill="url(#paint6_angular)"/>
<path d="M576 208.5L603.5 233L593.5 234.5L572.5 235.5L555 236.5L545 236V234H539L521.5 229.5L522.5 226.5L512 222L500 215L503.5 213.5L493.5 204L489 195.5L492 193.5L484 185L479.5 175H485L478 161.5L481.5 159L472.5 138L494.5 153L499.5 150.5L502.5 156.5L504 153.5H506.5L513 163.5L514.5 161L518.5 163L527 176.5L529.5 174L546 196L549.5 193L561.5 209L563.5 205.5L576 208.5Z" fill="url(#paint7_angular)"/>
<path d="M587.5 261.5C585.5 271 590.5 260.5 603.5 241.5C600.5 256 597.3 292.5 608.5 322.5C608.333 319.833 608.8 314.4 612 314C607.667 299 601.3 263.8 606.5 247C612.833 255.667 623.4 271.2 619 260C630.333 269 651.4 284.3 645 273.5C653 276.833 667.8 282 663 276C672.5 277 689.1 278.1 679.5 274.5C683.667 275 693.4 275.1 699 271.5C693.667 270.333 681.7 266.4 676.5 260C679.318 258.39 685.364 259.313 675.5 256.5C674.454 256.202 672.279 255.6 670.876 255.216C669.076 254.725 666.965 254.157 664.5 253.5C666.833 252 682.5 252.5 652.5 246C654.167 244.5 655 240.532 645 238.932C651.785 239.219 663.084 238.934 654 235.5C689.2 238.3 675.333 235.333 664 233.5C707.6 225.9 697.5 224.667 687 225C723.8 209.4 716.333 207.833 708 209C739.2 188.6 733.667 184.5 727 185C745 172.2 740.833 167.333 736.5 166.5C748.9 158.1 745.333 152.667 742 151C746.8 145.8 748 138.5 748 135.5C742 141.5 734.833 143 732 143C735.2 133 718.667 144.167 710 151C716.4 141.4 696.333 153.667 685.5 161C686.3 152.6 674.452 163.167 668.428 169.5C669.75 166.072 665.515 167.401 661.5 169.5C686.7 143.1 679.667 143.5 673 147C697.4 115.4 687.167 117.5 679 122.5C697.8 96.1 692.833 93.5 688 95.5C698.4 71.5 692.333 70.8333 688 73.5C701.6 47.9 696 46.8333 691.5 49.5C691.5 39.5 702.5 26.6667 708 21.5C700.8 22.7 690.333 35.6667 686 42C684.8 28.4 667.833 49.6667 659.5 62C659.5 45.6 643.167 70.8333 635 85.5C633.13 74.5895 626.481 85.847 621.351 97.5C626.031 75.9 619.4 86.1667 615.5 94C623.9 67.2 616 64.5 611 66.5C614.6 42.5 609.5 46.1667 606.5 51C612.1 30.6 607.833 32.1667 605 35.5C602.2 29.9 603.167 16.1667 604 10L592 30.5C587.2 21.7 585 35.5 584.5 43.5C576.1 30.7 572.333 49.5 571.5 60.5C563.1 53.7 566.333 79 569 92.5C561.4 86.1 569.341 109.667 574.262 122C572.056 119.616 570.156 120.617 569 123C566.6 105 559 106.833 555.5 110C542 78.5 539.167 84 537.5 91C528.3 68.6 524 70 523 73.5L504.5 51L512 88C500.5 83 515.667 107.833 517.5 118.5C504.5 113 517.167 132.667 521 143.5C503 140 528.833 162.833 542 174C532.4 174 555 186.5 566.5 193C561.281 192.051 564.841 197.667 571.572 205.47C577.535 209.073 586.253 216.359 598.677 229.338C585.113 215.011 558.919 189.626 569.21 191.495C558.452 185.422 537.31 173.742 546.29 173.742C533.973 163.307 509.806 141.972 526.645 145.242C523.059 135.12 511.21 116.743 523.371 121.882C521.656 111.915 504.468 88.7112 515.226 93.3832L508.21 58.8104L525.516 79.8344C526.452 76.564 529.394 77.5694 538 98.5C539.559 91.9592 541.371 84.5664 554 114C557.274 111.041 565.255 109.181 567.5 126C568.581 123.773 571.824 123.772 573.887 126C576.586 128.913 579.243 148.396 582 170C584.027 159.41 590.132 146.921 593.5 198.5C595.371 188.533 597.5 192.5 601.952 223.265C601.938 222.438 601.948 221.578 601.98 220.7C602.089 210.144 602.099 202.099 602.98 200.973C599.804 196.634 600.834 205.02 601 215C598.572 162.181 594.672 182.262 594.5 192.5C592.675 145.971 587.737 146.928 585.178 156.782C585.153 157.105 585.094 157.347 585 157.5C585.058 157.256 585.118 157.016 585.178 156.782C585.815 148.741 564 90.5 571.548 97.588C569.054 84.9736 566.029 61.3333 573.887 67.6872C574.667 57.4088 577.142 36.5397 585 48.5C585.468 41.0248 587.51 26.2773 592 34.5L602 17.5C601.22 23.2621 600.881 38.7674 603.5 44C605 35.5 608.239 37.9382 603 57C605.806 52.4837 611.4 49.5744 608.032 72C616.919 60 618.358 82.4581 610.5 107.5C620 101 619.6 87.6 618 96C616 106.5 604.887 114 606.29 130.5C603.296 131.536 598.345 137.896 602.5 155.054C599.833 153.869 596.1 157.5 602.5 181.5C602.002 181.435 601.466 181.963 601.238 183.59C600.879 186.157 601.287 191.462 603.823 201.5C603.481 200.851 603.208 200.695 602.988 200.963L603 201L602.98 200.973C602.099 202.099 602.089 210.144 601.98 220.7C602.311 211.664 604.965 200.753 607.694 204.5C605.199 196.713 601.332 183.414 607.694 189.02C604.575 178.119 599.929 157.998 606.29 164.726C605.823 153.824 605.916 134.171 610.032 142.767C611.747 131.554 615.006 110.894 618 116.5C623.097 99.1981 633.29 69.885 633.29 91.0472C640.93 77.3427 656.21 53.7646 656.21 69.0888C664.005 57.5645 679.877 37.693 681 50.4008C683.833 46.9339 690.1 40 692.5 40C687.199 44.8277 685.771 48.0648 686.145 57.4088C690.355 54.9171 695.594 55.9138 682.871 79.8344C686.925 77.3427 692.6 77.9656 682.871 100.391C687.392 98.5224 692.039 100.952 674.452 125.62C682.091 120.948 691.665 118.986 668.839 148.513C675.075 145.242 679.074 148.832 655.5 173.5C659.256 171.539 662.737 170.297 661.5 173.5C660.478 176.147 658.965 177.868 647.79 188.692C650.441 189.159 650.971 192.71 631.887 203.175C636.409 203.798 633.945 214.762 608.5 229.338C623.382 224.083 655.161 207.2 642.645 206C651.22 200.449 666.313 189.282 658.081 189.02C666.968 181.871 682.216 167.966 672.113 169.537C676.742 163.858 685.5 154.5 683.5 162.5L682.5 166.734C693.5 157.322 713.7 142 706.5 156C714.608 149.615 731.026 138.431 728.032 147.775C730.683 147.775 737.387 146.374 743 140.767C743 143.57 741.877 150.392 737.387 155.25C740.505 156.808 742.842 158.885 731.242 166.734C735.296 167.512 739.194 172.06 722.355 184.02C728.591 183.553 729.187 192.938 700 212C707.796 210.91 714.426 209.423 680 224C689.823 223.689 683 232 652.5 228C663.102 229.713 668.5 238 645 232C646.091 234.647 649.474 237.561 630.016 231.207C631.263 233.543 623.842 239.111 608.5 235C619.64 240.239 645.6 247.034 636 240C643.441 240.512 656.59 242.633 649.661 247.018C677.726 253.092 663.07 252.625 660.887 254.026C667.5 255.251 679.003 257.58 672.113 257.1C676.977 263.08 688.172 270.755 693.161 271.846C687.923 275.209 678.817 273.116 674.919 272.649C683.9 276.013 668.371 273.985 659.484 273.05C663.899 278.563 650.587 273.021 643.026 269.873L642.645 269.714C648.632 279.806 627.102 262.436 616.5 254.026C620.616 264.492 611.618 250.985 605.694 242.887C600.829 258.585 605.446 294.984 609.5 309C606.506 309.374 607.844 313.008 608 315.5C600 282 602.194 250.049 605 236.5C592.839 254.254 587.629 263.877 589.5 255C583.887 261.385 572.755 275.728 575 269C568.608 272.738 556.506 279.485 559.5 275C552.796 277.025 541.303 282.18 545.419 279.19C542.301 279.968 536.906 280.778 540.274 277.788C535.909 278.099 524.119 277.141 521.5 282C522.747 277.639 529.423 271.341 536.532 269.846C534.194 269.534 531.668 268.07 540.274 264.706C538.559 263.616 537.561 260.502 547.29 256.764C543.86 256.453 541.21 254.802 558.048 250.69C555.242 248.977 554.916 247.121 574 246C570.882 244.443 574.5 238 596.806 234.01C581 234.01 535.029 238.122 548.5 234.01C536.806 231.986 515.794 228.495 526.645 227C516.199 222.172 495.4 213.752 507 214.5C498.892 207.959 484.274 194.252 495.5 195C487.704 187.213 474.403 173.884 487.5 176.5C483.446 172.295 475.526 158.604 483.758 159.726L475 140.5L494 155.054C495.403 152.562 499.568 150.382 502.936 159.726L502.949 159.628C503.425 156.293 504.583 148.18 513 166.5C513.624 163.074 517.771 161.56 527.5 179.5C527.5 175.139 532.445 176.458 546.29 201.5C545.199 196.205 548.281 192.822 562.5 214.5C561.618 207.892 567.619 201.609 598.677 229.338C586.253 216.359 577.535 209.073 571.572 205.47C564.65 201.287 560.983 200.57 560 203.175C545.308 180.934 544.347 187.902 545.5 193.5C530.7 166.7 527 169.333 527 174C516.6 154.8 512.667 157.333 512 161C506 147 503.5 150.5 503 154C499.4 144 495.5 146.833 494 149.5L469 134L480.5 159C471.7 157.8 478.167 166.5 482.5 171C468.5 168.2 481.667 184.167 490 192.5C478 191.7 492.333 205.5 501 212.5C488.6 211.7 507.833 221.833 519 227C507.4 228.6 529.5 233.333 542 235.5C529.309 239.378 556.852 236.679 579.998 235.414C582.524 235.194 585.502 235.049 589 235C586.152 235.099 583.115 235.243 579.998 235.414C561.725 237.007 567.072 242.536 570 244C549.6 245.2 550.5 249.167 553.5 251C535.5 255.4 538.333 257.167 542 257.5C531.6 261.5 532.667 264.833 534.5 266C525.3 269.6 528 271.167 530.5 271.5C522.9 273.1 518.333 282.833 517 287.5C519.8 282.3 529.833 280.333 534.5 280C530.9 283.2 536.667 282.333 540 281.5C535.6 284.7 548.833 281.167 556 279C552.8 283.8 565.667 277 572.5 273C570.1 280.2 581.5 268.333 587.5 261.5Z" fill="black"/>
<path d="M510.5 301L507.5 307L503.5 288L502 270L501.5 251.5L503 236L504 230.5L505.5 224L507 228.5L506.5 233L504.5 243L504 258L505 268L506.5 280L507.5 288.5L510.5 301Z" fill="url(#paint8_linear)"/>
<path d="M502.5 216C502.5 214.8 490.833 172.167 485 151L468.5 89V84L470 84.5L467.5 64.5L469 53.5H472L477 32.5L480 31.5L484.5 35.5L487 21.5L489 20L492 22.5L502.5 4V15L503.5 30.5L507.5 26.5L506.5 36L504.5 43L509 42L510.5 46.5L509.5 58.5L513.5 57.5L517 62L517.5 68.5L513.5 90.5L519.5 85.5L516 100.5L511.5 110.5C509.197 124.154 504.621 151.186 504.502 151.502C504.572 151.933 506.185 170.544 507 180V201.5L502.5 216Z" fill="url(#paint9_angular)"/>
<path d="M502 194L501.5 221L503 222.5L513 217L532.5 205L549.5 186L565 160L558 161.5L568 151L576.5 137.5L571 137C575.667 130.333 585.1 116.9 585.5 116.5C585.9 116.1 585.333 112.667 585 111L576.5 113.5L577.5 112.5L585 101.5L589.5 90L585 88.5L588.5 79L591 66.5L585.5 67L594 45L588 44.5L591.5 35L595.5 23L582.5 37.5V33.5L576.5 32.5L557 56.5L554.5 50L545 61L534 77.5V76.5L533 72.5H530.5L521 89L516.5 96L508.5 127L504.5 130C504.833 137.333 505.5 152.1 505.5 152.5C505.5 152.9 502.5 150.667 501 149.5L505.5 176L502 175.5L506 193L502 194Z" fill="url(#paint10_angular)"/>
<path d="M470 192L501.5 221.5L502.5 221L501.5 207.5L500 198.5L496.5 179.5L494 183.5L492.5 166.5L490 149.5L487 147.5L483 152.5L476 117L472 112.5L468 114L466.5 108.5L464.5 103.5L460 100.5L454.5 101L444 82L440.5 78.5L437.5 85L430 69L426 65L425 67.5L406.5 45L409.5 57.5L413 81.5L409.5 81L419.5 109L414 110L424 133L417.5 135.5L421.5 142L443.5 163L442 165.5L466.5 181.5V184.5L470 192Z" fill="url(#paint11_angular)"/>
<path d="M535 205L503 222.5L503.5 223.5L511.5 226L518.5 227.5H530L547.5 226.5L550.5 224.5H561.5L564 222.5L573 220.5L587 217L584 213.5L595 210L611 200.5H603.5L619.5 189L627.5 178L625.5 173L632.5 167L637.5 160L633.5 156L639.5 152.5L642.5 146L640 145L645.5 129L639.5 132L630 136L629 132.5L625.5 131.5L608 144L609 141L608.5 138.5L601 142L584.5 154V149.5L583.5 148.5L578.5 151C571 159 555.8 175.1 555 175.5C554.2 175.9 553.333 181.667 553 184.5L537.5 194.5L535 205Z" fill="url(#paint12_angular)"/>
<path d="M506.5 235L503.5 227L504 223.5L510.5 225.5L519.5 227.5H533.5C533.9 227.5 544.667 229.833 550 231L552.5 234.5L551.5 236.5L554.5 237L568 241.5L567 242.5L564 243.5L563.5 244L572 246L577.5 247.5L575 249L576.5 251L580.5 254L587 258L595.5 261.5L591 263.5L583.5 264H578.5C578.1 264 579 265.333 579.5 266L562.5 265L560.5 266.5H558L544.5 261.5V265L534.5 260L519.5 248.5L518 250.5L511 242L506.5 235Z" fill="url(#paint13_angular)"/>
<path d="M504.5 229L505.5 223.5V222L503.5 220L501.5 221V222L480.5 227.5L471.5 229.5L472 235L462 236L455 238.5L456 240.5L448 243L443 246L444.5 247L438 251.5V254.5L433 258V260L428 263L423.5 267L420 273L425 271L432 269L437.5 269.5L436 271L442 270.5L443 271.5L457 267L459.5 268.5L473 261.5L474 263.5L479 258.5L487.5 249C487.833 249.833 488.6 251.5 489 251.5C489.4 251.5 492.833 246.167 494.5 243.5L504.5 229Z" fill="url(#paint14_angular)"/>
<path d="M476 198.5L503.5 223L493.5 224.5L472.5 225.5L455 226.5L445 226V224H439L421.5 219.5L422.5 216.5L412 212L400 205L403.5 203.5L393.5 194L389 185.5L392 183.5L384 175L379.5 165H385L378 151.5L381.5 149L372.5 128L394.5 143L399.5 140.5L402.5 146.5L404 143.5H406.5L413 153.5L414.5 151L418.5 153L427 166.5L429.5 164L446 186L449.5 183L461.5 199L463.5 195.5L476 198.5Z" fill="url(#paint15_angular)"/>
<path d="M487.5 251.5C485.5 261 490.5 250.5 503.5 231.5C500.5 246 497.3 282.5 508.5 312.5C508.333 309.833 508.8 304.4 512 304C507.667 289 501.3 253.8 506.5 237C512.833 245.667 523.4 261.2 519 250C530.333 259 551.4 274.3 545 263.5C553 266.833 567.8 272 563 266C572.5 267 589.1 268.1 579.5 264.5C583.667 265 593.4 265.1 599 261.5C593.667 260.333 581.7 256.4 576.5 250C579.318 248.39 585.364 249.313 575.5 246.5C574.454 246.202 572.279 245.6 570.876 245.216C569.076 244.725 566.965 244.157 564.5 243.5C566.833 242 582.5 242.5 552.5 236C554.167 234.5 555 230.532 545 228.932C551.785 229.219 563.084 228.934 554 225.5C589.2 228.3 575.333 225.333 564 223.5C607.6 215.9 597.5 214.667 587 215C623.8 199.4 616.333 197.833 608 199C639.2 178.6 633.667 174.5 627 175C645 162.2 640.833 157.333 636.5 156.5C648.9 148.1 645.333 142.667 642 141C646.8 135.8 648 128.5 648 125.5C642 131.5 634.833 133 632 133C635.2 123 618.667 134.167 610 141C616.4 131.4 596.333 143.667 585.5 151C586.3 142.6 574.452 153.167 568.428 159.5C569.75 156.072 565.515 157.401 561.5 159.5C586.7 133.1 579.667 133.5 573 137C597.4 105.4 587.167 107.5 579 112.5C597.8 86.1 592.833 83.5 588 85.5C598.4 61.5 592.333 60.8333 588 63.5C601.6 37.9 596 36.8333 591.5 39.5C591.5 29.5 602.5 16.6667 608 11.5C600.8 12.7 590.333 25.6667 586 32C584.8 18.4 567.833 39.6667 559.5 52C559.5 35.6 543.167 60.8333 535 75.5C533.13 64.5895 526.481 75.847 521.351 87.5C526.031 65.9 519.4 76.1667 515.5 84C523.9 57.2 516 54.5 511 56.5C514.6 32.5 509.5 36.1667 506.5 41C512.1 20.6 507.833 22.1667 505 25.5C502.2 19.9 503.167 6.16667 504 0L492 20.5C487.2 11.7 485 25.5 484.5 33.5C476.1 20.7 472.333 39.5 471.5 50.5C463.1 43.7 466.333 69 469 82.5C461.4 76.1 469.341 99.6667 474.262 112C472.056 109.616 470.156 110.617 469 113C466.6 95 459 96.8333 455.5 100C442 68.5 439.167 74 437.5 81C428.3 58.6 424 60 423 63.5L404.5 41L412 78C400.5 73 415.667 97.8333 417.5 108.5C404.5 103 417.167 122.667 421 133.5C403 130 428.833 152.833 442 164C432.4 164 455 176.5 466.5 183C461.281 182.051 464.841 187.667 471.572 195.47C477.535 199.073 486.253 206.359 498.677 219.338C485.113 205.011 458.919 179.626 469.21 181.495C458.452 175.422 437.31 163.742 446.29 163.742C433.973 153.307 409.806 131.972 426.645 135.242C423.059 125.12 411.21 106.743 423.371 111.882C421.656 101.915 404.468 78.7112 415.226 83.3832L408.21 48.8104L425.516 69.8344C426.452 66.564 429.394 67.5694 438 88.5C439.559 81.9592 441.371 74.5664 454 104C457.274 101.041 465.255 99.1808 467.5 116C468.581 113.773 471.824 113.772 473.887 116C476.586 118.913 479.243 138.396 482 160C484.027 149.41 490.132 136.921 493.5 188.5C495.371 178.533 497.5 182.5 501.952 213.265C501.938 212.438 501.948 211.578 501.98 210.7C502.089 200.144 502.099 192.099 502.98 190.973C499.804 186.634 500.834 195.02 501 205C498.572 152.181 494.672 172.262 494.5 182.5C492.675 135.971 487.737 136.928 485.178 146.782C485.153 147.105 485.094 147.347 485 147.5C485.058 147.256 485.118 147.016 485.178 146.782C485.815 138.741 464 80.5 471.548 87.588C469.054 74.9736 466.029 51.3333 473.887 57.6872C474.667 47.4088 477.142 26.5397 485 38.5C485.468 31.0248 487.51 16.2773 492 24.5L502 7.5C501.22 13.2621 500.881 28.7674 503.5 34C505 25.5 508.239 27.9382 503 47C505.806 42.4837 511.4 39.5744 508.032 62C516.919 50 518.358 72.4581 510.5 97.5C520 91 519.6 77.6 518 86C516 96.5 504.887 104 506.29 120.5C503.296 121.536 498.345 127.896 502.5 145.054C499.833 143.869 496.1 147.5 502.5 171.5C502.002 171.435 501.466 171.963 501.238 173.59C500.879 176.157 501.287 181.462 503.823 191.5C503.481 190.851 503.208 190.695 502.988 190.963L503 191L502.98 190.973C502.099 192.099 502.089 200.144 501.98 210.7C502.311 201.664 504.965 190.753 507.694 194.5C505.199 186.713 501.332 173.414 507.694 179.02C504.575 168.119 499.929 147.998 506.29 154.726C505.823 143.824 505.916 124.171 510.032 132.767C511.747 121.554 515.006 100.894 518 106.5C523.097 89.1981 533.29 59.885 533.29 81.0472C540.93 67.3427 556.21 43.7646 556.21 59.0888C564.005 47.5645 579.877 27.693 581 40.4008C583.833 36.9339 590.1 30 592.5 30C587.199 34.8277 585.771 38.0648 586.145 47.4088C590.355 44.9171 595.594 45.9138 582.871 69.8344C586.925 67.3427 592.6 67.9656 582.871 90.3912C587.392 88.5224 592.039 90.9518 574.452 115.62C582.091 110.948 591.665 108.986 568.839 138.513C575.075 135.242 579.074 138.832 555.5 163.5C559.256 161.539 562.737 160.297 561.5 163.5C560.478 166.147 558.965 167.868 547.79 178.692C550.441 179.159 550.971 182.71 531.887 193.175C536.409 193.798 533.945 204.762 508.5 219.338C523.382 214.083 555.161 197.2 542.645 196C551.22 190.449 566.313 179.282 558.081 179.02C566.968 171.871 582.216 157.966 572.113 159.537C576.742 153.858 585.5 144.5 583.5 152.5L582.5 156.734C593.5 147.322 613.7 132 606.5 146C614.608 139.615 631.026 128.431 628.032 137.775C630.683 137.775 637.387 136.374 643 130.767C643 133.57 641.877 140.392 637.387 145.25C640.505 146.808 642.842 148.885 631.242 156.734C635.296 157.512 639.194 162.06 622.355 174.02C628.591 173.553 629.187 182.938 600 202C607.796 200.91 614.426 199.423 580 214C589.823 213.689 583 222 552.5 218C563.102 219.713 568.5 228 545 222C546.091 224.647 549.474 227.561 530.016 221.207C531.263 223.543 523.842 229.111 508.5 225C519.64 230.239 545.6 237.034 536 230C543.441 230.512 556.59 232.633 549.661 237.018C577.726 243.092 563.07 242.625 560.887 244.026C567.5 245.251 579.003 247.58 572.113 247.1C576.977 253.08 588.172 260.755 593.161 261.846C587.923 265.209 578.817 263.116 574.919 262.649C583.9 266.013 568.371 263.985 559.484 263.05C563.899 268.563 550.587 263.021 543.026 259.873L542.645 259.714C548.632 269.806 527.102 252.436 516.5 244.026C520.616 254.492 511.618 240.985 505.694 232.887C500.829 248.585 505.446 284.984 509.5 299C506.506 299.374 507.844 303.008 508 305.5C500 272 502.194 240.049 505 226.5C492.839 244.254 487.629 253.877 489.5 245C483.887 251.385 472.755 265.728 475 259C468.608 262.738 456.506 269.485 459.5 265C452.796 267.025 441.303 272.18 445.419 269.19C442.301 269.968 436.906 270.778 440.274 267.788C435.909 268.099 424.119 267.141 421.5 272C422.747 267.639 429.423 261.341 436.532 259.846C434.194 259.534 431.668 258.07 440.274 254.706C438.559 253.616 437.561 250.502 447.29 246.764C443.86 246.453 441.21 244.802 458.048 240.69C455.242 238.977 454.916 237.121 474 236C470.882 234.443 474.5 228 496.806 224.01C481 224.01 435.029 228.122 448.5 224.01C436.806 221.986 415.794 218.495 426.645 217C416.199 212.172 395.4 203.752 407 204.5C398.892 197.959 384.274 184.252 395.5 185C387.704 177.213 374.403 163.884 387.5 166.5C383.446 162.295 375.526 148.604 383.758 149.726L375 130.5L394 145.054C395.403 142.562 399.568 140.382 402.936 149.726L402.949 149.628C403.425 146.293 404.583 138.18 413 156.5C413.624 153.074 417.771 151.56 427.5 169.5C427.5 165.139 432.445 166.458 446.29 191.5C445.199 186.205 448.281 182.822 462.5 204.5C461.618 197.892 467.619 191.609 498.677 219.338C486.253 206.359 477.535 199.073 471.572 195.47C464.65 191.287 460.983 190.57 460 193.175C445.308 170.934 444.347 177.902 445.5 183.5C430.7 156.7 427 159.333 427 164C416.6 144.8 412.667 147.333 412 151C406 137 403.5 140.5 403 144C399.4 134 395.5 136.833 394 139.5L369 124L380.5 149C371.7 147.8 378.167 156.5 382.5 161C368.5 158.2 381.667 174.167 390 182.5C378 181.7 392.333 195.5 401 202.5C388.6 201.7 407.833 211.833 419 217C407.4 218.6 429.5 223.333 442 225.5C429.309 229.378 456.852 226.679 479.998 225.414C482.524 225.194 485.502 225.049 489 225C486.152 225.099 483.115 225.243 479.998 225.414C461.725 227.007 467.072 232.536 470 234C449.6 235.2 450.5 239.167 453.5 241C435.5 245.4 438.333 247.167 442 247.5C431.6 251.5 432.667 254.833 434.5 256C425.3 259.6 428 261.167 430.5 261.5C422.9 263.1 418.333 272.833 417 277.5C419.8 272.3 429.833 270.333 434.5 270C430.9 273.2 436.667 272.333 440 271.5C435.6 274.7 448.833 271.167 456 269C452.8 273.8 465.667 267 472.5 263C470.1 270.2 481.5 258.333 487.5 251.5Z" fill="black"/>
<path d="M382.5 308L379.5 314L375.5 295L374 277L373.5 258.5L375 243L376 237.5L377.5 231L379 235.5L378.5 240L376.5 250L376 265L377 275L378.5 287L379.5 295.5L382.5 308Z" fill="url(#paint16_linear)"/>
<path d="M374.5 223C374.5 221.8 362.833 179.167 357 158L340.5 96V91L342 91.5L339.5 71.5L341 60.5H344L349 39.5L352 38.5L356.5 42.5L359 28.5L361 27L364 29.5L374.5 11V22L375.5 37.5L379.5 33.5L378.5 43L376.5 50L381 49L382.5 53.5L381.5 65.5L385.5 64.5L389 69L389.5 75.5L385.5 97.5L391.5 92.5L388 107.5L383.5 117.5C381.197 131.154 376.621 158.186 376.502 158.502C376.572 158.933 378.185 177.544 379 187V208.5L374.5 223Z" fill="url(#paint17_angular)"/>
<path d="M374 201L373.5 228L375 229.5L385 224L404.5 212L421.5 193L437 167L430 168.5L440 158L448.5 144.5L443 144C447.667 137.333 457.1 123.9 457.5 123.5C457.9 123.1 457.333 119.667 457 118L448.5 120.5L449.5 119.5L457 108.5L461.5 97L457 95.5L460.5 86L463 73.5L457.5 74L466 52L460 51.5L463.5 42L467.5 30L454.5 44.5V40.5L448.5 39.5L429 63.5L426.5 57L417 68L406 84.5V83.5L405 79.5H402.5L393 96L388.5 103L380.5 134L376.5 137C376.833 144.333 377.5 159.1 377.5 159.5C377.5 159.9 374.5 157.667 373 156.5L377.5 183L374 182.5L378 200L374 201Z" fill="url(#paint18_angular)"/>
<path d="M342 199L373.5 228.5L374.5 228L373.5 214.5L372 205.5L368.5 186.5L366 190.5L364.5 173.5L362 156.5L359 154.5L355 159.5L348 124L344 119.5L340 121L338.5 115.5L336.5 110.5L332 107.5L326.5 108L316 89L312.5 85.5L309.5 92L302 76L298 72L297 74.5L278.5 52L281.5 64.5L285 88.5L281.5 88L291.5 116L286 117L296 140L289.5 142.5L293.5 149L315.5 170L314 172.5L338.5 188.5V191.5L342 199Z" fill="url(#paint19_angular)"/>
<path d="M407 212L375 229.5L375.5 230.5L383.5 233L390.5 234.5H402L419.5 233.5L422.5 231.5H433.5L436 229.5L445 227.5L459 224L456 220.5L467 217L483 207.5H475.5L491.5 196L499.5 185L497.5 180L504.5 174L509.5 167L505.5 163L511.5 159.5L514.5 153L512 152L517.5 136L511.5 139L502 143L501 139.5L497.5 138.5L480 151L481 148L480.5 145.5L473 149L456.5 161V156.5L455.5 155.5L450.5 158C443 166 427.8 182.1 427 182.5C426.2 182.9 425.333 188.667 425 191.5L409.5 201.5L407 212Z" fill="url(#paint20_angular)"/>
<path d="M378.5 242L375.5 234L376 230.5L382.5 232.5L391.5 234.5H405.5C405.9 234.5 416.667 236.833 422 238L424.5 241.5L423.5 243.5L426.5 244L440 248.5L439 249.5L436 250.5L435.5 251L444 253L449.5 254.5L447 256L448.5 258L452.5 261L459 265L467.5 268.5L463 270.5L455.5 271H450.5C450.1 271 451 272.333 451.5 273L434.5 272L432.5 273.5H430L416.5 268.5V272L406.5 267L391.5 255.5L390 257.5L383 249L378.5 242Z" fill="url(#paint21_angular)"/>
<path d="M376.5 236L377.5 230.5V229L375.5 227L373.5 228V229L352.5 234.5L343.5 236.5L344 242L334 243L327 245.5L328 247.5L320 250L315 253L316.5 254L310 258.5V261.5L305 265V267L300 270L295.5 274L292 280L297 278L304 276L309.5 276.5L308 278L314 277.5L315 278.5L329 274L331.5 275.5L345 268.5L346 270.5L351 265.5L359.5 256C359.833 256.833 360.6 258.5 361 258.5C361.4 258.5 364.833 253.167 366.5 250.5L376.5 236Z" fill="url(#paint22_angular)"/>
<path d="M348 205.5L375.5 230L365.5 231.5L344.5 232.5L327 233.5L317 233V231H311L293.5 226.5L294.5 223.5L284 219L272 212L275.5 210.5L265.5 201L261 192.5L264 190.5L256 182L251.5 172H257L250 158.5L253.5 156L244.5 135L266.5 150L271.5 147.5L274.5 153.5L276 150.5H278.5L285 160.5L286.5 158L290.5 160L299 173.5L301.5 171L318 193L321.5 190L333.5 206L335.5 202.5L348 205.5Z" fill="url(#paint23_angular)"/>
<path d="M359.5 258.5C357.5 268 362.5 257.5 375.5 238.5C372.5 253 369.3 289.5 380.5 319.5C380.333 316.833 380.8 311.4 384 311C379.667 296 373.3 260.8 378.5 244C384.833 252.667 395.4 268.2 391 257C402.333 266 423.4 281.3 417 270.5C425 273.833 439.8 279 435 273C444.5 274 461.1 275.1 451.5 271.5C455.667 272 465.4 272.1 471 268.5C465.667 267.333 453.7 263.4 448.5 257C451.318 255.39 457.364 256.313 447.5 253.5C446.454 253.202 444.279 252.6 442.876 252.216C441.076 251.725 438.965 251.157 436.5 250.5C438.833 249 454.5 249.5 424.5 243C426.167 241.5 427 237.532 417 235.932C423.785 236.219 435.084 235.934 426 232.5C461.2 235.3 447.333 232.333 436 230.5C479.6 222.9 469.5 221.667 459 222C495.8 206.4 488.333 204.833 480 206C511.2 185.6 505.667 181.5 499 182C517 169.2 512.833 164.333 508.5 163.5C520.9 155.1 517.333 149.667 514 148C518.8 142.8 520 135.5 520 132.5C514 138.5 506.833 140 504 140C507.2 130 490.667 141.167 482 148C488.4 138.4 468.333 150.667 457.5 158C458.3 149.6 446.452 160.167 440.428 166.5C441.75 163.072 437.515 164.401 433.5 166.5C458.7 140.1 451.667 140.5 445 144C469.4 112.4 459.167 114.5 451 119.5C469.8 93.1 464.833 90.5 460 92.5C470.4 68.5 464.333 67.8333 460 70.5C473.6 44.9 468 43.8333 463.5 46.5C463.5 36.5 474.5 23.6667 480 18.5C472.8 19.7 462.333 32.6667 458 39C456.8 25.4 439.833 46.6667 431.5 59C431.5 42.6 415.167 67.8333 407 82.5C405.13 71.5895 398.481 82.847 393.351 94.5C398.031 72.9 391.4 83.1667 387.5 91C395.9 64.2 388 61.5 383 63.5C386.6 39.5 381.5 43.1667 378.5 48C384.1 27.6 379.833 29.1667 377 32.5C374.2 26.9 375.167 13.1667 376 7L364 27.5C359.2 18.7 357 32.5 356.5 40.5C348.1 27.7 344.333 46.5 343.5 57.5C335.1 50.7 338.333 76 341 89.5C333.4 83.1 341.341 106.667 346.262 119C344.056 116.616 342.156 117.617 341 120C338.6 102 331 103.833 327.5 107C314 75.5 311.167 81 309.5 88C300.3 65.6 296 67 295 70.5L276.5 48L284 85C272.5 80 287.667 104.833 289.5 115.5C276.5 110 289.167 129.667 293 140.5C275 137 300.833 159.833 314 171C304.4 171 327 183.5 338.5 190C333.281 189.051 336.841 194.667 343.572 202.47C349.535 206.073 358.253 213.359 370.677 226.338C357.113 212.011 330.919 186.626 341.21 188.495C330.452 182.422 309.31 170.742 318.29 170.742C305.973 160.307 281.806 138.972 298.645 142.242C295.059 132.12 283.21 113.743 295.371 118.882C293.656 108.915 276.468 85.7112 287.226 90.3832L280.21 55.8104L297.516 76.8344C298.452 73.564 301.394 74.5694 310 95.5C311.559 88.9592 313.371 81.5664 326 111C329.274 108.041 337.255 106.181 339.5 123C340.581 120.773 343.824 120.772 345.887 123C348.586 125.913 351.243 145.396 354 167C356.027 156.41 362.132 143.921 365.5 195.5C367.371 185.533 369.5 189.5 373.952 220.265C373.938 219.438 373.948 218.578 373.98 217.7C374.089 207.144 374.099 199.099 374.98 197.973C371.804 193.634 372.834 202.02 373 212C370.572 159.181 366.672 179.262 366.5 189.5C364.675 142.971 359.737 143.928 357.178 153.782C357.153 154.105 357.094 154.347 357 154.5C357.058 154.256 357.118 154.016 357.178 153.782C357.815 145.741 336 87.5 343.548 94.588C341.054 81.9736 338.029 58.3333 345.887 64.6872C346.667 54.4088 349.142 33.5397 357 45.5C357.468 38.0248 359.51 23.2773 364 31.5L374 14.5C373.22 20.2621 372.881 35.7674 375.5 41C377 32.5 380.239 34.9382 375 54C377.806 49.4837 383.4 46.5744 380.032 69C388.919 57 390.358 79.4581 382.5 104.5C392 98 391.6 84.6 390 93C388 103.5 376.887 111 378.29 127.5C375.296 128.536 370.345 134.896 374.5 152.054C371.833 150.869 368.1 154.5 374.5 178.5C374.002 178.435 373.466 178.963 373.238 180.59C372.879 183.157 373.287 188.462 375.823 198.5C375.481 197.851 375.208 197.695 374.988 197.963L375 198L374.98 197.973C374.099 199.099 374.089 207.144 373.98 217.7C374.311 208.664 376.965 197.753 379.694 201.5C377.199 193.713 373.332 180.414 379.694 186.02C376.575 175.119 371.929 154.998 378.29 161.726C377.823 150.824 377.916 131.171 382.032 139.767C383.747 128.554 387.006 107.894 390 113.5C395.097 96.1981 405.29 66.885 405.29 88.0472C412.93 74.3427 428.21 50.7646 428.21 66.0888C436.005 54.5645 451.877 34.693 453 47.4008C455.833 43.9339 462.1 37 464.5 37C459.199 41.8277 457.771 45.0648 458.145 54.4088C462.355 51.9171 467.594 52.9138 454.871 76.8344C458.925 74.3427 464.6 74.9656 454.871 97.3912C459.392 95.5224 464.039 97.9518 446.452 122.62C454.091 117.948 463.665 115.986 440.839 145.513C447.075 142.242 451.074 145.832 427.5 170.5C431.256 168.539 434.737 167.297 433.5 170.5C432.478 173.147 430.965 174.868 419.79 185.692C422.441 186.159 422.971 189.71 403.887 200.175C408.409 200.798 405.945 211.762 380.5 226.338C395.382 221.083 427.161 204.2 414.645 203C423.22 197.449 438.313 186.282 430.081 186.02C438.968 178.871 454.216 164.966 444.113 166.537C448.742 160.858 457.5 151.5 455.5 159.5L454.5 163.734C465.5 154.322 485.7 139 478.5 153C486.608 146.615 503.026 135.431 500.032 144.775C502.683 144.775 509.387 143.374 515 137.767C515 140.57 513.877 147.392 509.387 152.25C512.505 153.808 514.842 155.885 503.242 163.734C507.296 164.512 511.194 169.06 494.355 181.02C500.591 180.553 501.187 189.938 472 209C479.796 207.91 486.426 206.423 452 221C461.823 220.689 455 229 424.5 225C435.102 226.713 440.5 235 417 229C418.091 231.647 421.474 234.561 402.016 228.207C403.263 230.543 395.842 236.111 380.5 232C391.64 237.239 417.6 244.034 408 237C415.441 237.512 428.59 239.633 421.661 244.018C449.726 250.092 435.07 249.625 432.887 251.026C439.5 252.251 451.003 254.58 444.113 254.1C448.977 260.08 460.172 267.755 465.161 268.846C459.923 272.209 450.817 270.116 446.919 269.649C455.9 273.013 440.371 270.985 431.484 270.05C435.899 275.563 422.587 270.021 415.026 266.873L414.645 266.714C420.632 276.806 399.102 259.436 388.5 251.026C392.616 261.492 383.618 247.985 377.694 239.887C372.829 255.585 377.446 291.984 381.5 306C378.506 306.374 379.844 310.008 380 312.5C372 279 374.194 247.049 377 233.5C364.839 251.254 359.629 260.877 361.5 252C355.887 258.385 344.755 272.728 347 266C340.608 269.738 328.506 276.485 331.5 272C324.796 274.025 313.303 279.18 317.419 276.19C314.301 276.968 308.906 277.778 312.274 274.788C307.909 275.099 296.119 274.141 293.5 279C294.747 274.639 301.423 268.341 308.532 266.846C306.194 266.534 303.668 265.07 312.274 261.706C310.559 260.616 309.561 257.502 319.29 253.764C315.86 253.453 313.21 251.802 330.048 247.69C327.242 245.977 326.916 244.121 346 243C342.882 241.443 346.5 235 368.806 231.01C353 231.01 307.029 235.122 320.5 231.01C308.806 228.986 287.794 225.495 298.645 224C288.199 219.172 267.4 210.752 279 211.5C270.892 204.959 256.274 191.252 267.5 192C259.704 184.213 246.403 170.884 259.5 173.5C255.446 169.295 247.526 155.604 255.758 156.726L247 137.5L266 152.054C267.403 149.562 271.568 147.382 274.936 156.726L274.949 156.628C275.425 153.293 276.583 145.18 285 163.5C285.624 160.074 289.771 158.56 299.5 176.5C299.5 172.139 304.445 173.458 318.29 198.5C317.199 193.205 320.281 189.822 334.5 211.5C333.618 204.892 339.619 198.609 370.677 226.338C358.253 213.359 349.535 206.073 343.572 202.47C336.65 198.287 332.983 197.57 332 200.175C317.308 177.934 316.347 184.902 317.5 190.5C302.7 163.7 299 166.333 299 171C288.6 151.8 284.667 154.333 284 158C278 144 275.5 147.5 275 151C271.4 141 267.5 143.833 266 146.5L241 131L252.5 156C243.7 154.8 250.167 163.5 254.5 168C240.5 165.2 253.667 181.167 262 189.5C250 188.7 264.333 202.5 273 209.5C260.6 208.7 279.833 218.833 291 224C279.4 225.6 301.5 230.333 314 232.5C301.309 236.378 328.852 233.679 351.998 232.414C354.524 232.194 357.502 232.049 361 232C358.152 232.099 355.115 232.243 351.998 232.414C333.725 234.007 339.072 239.536 342 241C321.6 242.2 322.5 246.167 325.5 248C307.5 252.4 310.333 254.167 314 254.5C303.6 258.5 304.667 261.833 306.5 263C297.3 266.6 300 268.167 302.5 268.5C294.9 270.1 290.333 279.833 289 284.5C291.8 279.3 301.833 277.333 306.5 277C302.9 280.2 308.667 279.333 312 278.5C307.6 281.7 320.833 278.167 328 276C324.8 280.8 337.667 274 344.5 270C342.1 277.2 353.5 265.333 359.5 258.5Z" fill="black"/>
<path d="M254.5 317L251.5 323L247.5 304L246 286L245.5 267.5L247 252L248 246.5L249.5 240L251 244.5L250.5 249L248.5 259L248 274L249 284L250.5 296L251.5 304.5L254.5 317Z" fill="url(#paint24_linear)"/>
<path d="M246.5 232C246.5 230.8 234.833 188.167 229 167L212.5 105V100L214 100.5L211.5 80.5L213 69.5H216L221 48.5L224 47.5L228.5 51.5L231 37.5L233 36L236 38.5L246.5 20V31L247.5 46.5L251.5 42.5L250.5 52L248.5 59L253 58L254.5 62.5L253.5 74.5L257.5 73.5L261 78L261.5 84.5L257.5 106.5L263.5 101.5L260 116.5L255.5 126.5C253.197 140.154 248.621 167.186 248.502 167.502C248.572 167.933 250.185 186.544 251 196V217.5L246.5 232Z" fill="url(#paint25_angular)"/>
<path d="M246 210L245.5 237L247 238.5L257 233L276.5 221L293.5 202L309 176L302 177.5L312 167L320.5 153.5L315 153C319.667 146.333 329.1 132.9 329.5 132.5C329.9 132.1 329.333 128.667 329 127L320.5 129.5L321.5 128.5L329 117.5L333.5 106L329 104.5L332.5 95L335 82.5L329.5 83L338 61L332 60.5L335.5 51L339.5 39L326.5 53.5V49.5L320.5 48.5L301 72.5L298.5 66L289 77L278 93.5V92.5L277 88.5H274.5L265 105L260.5 112L252.5 143L248.5 146C248.833 153.333 249.5 168.1 249.5 168.5C249.5 168.9 246.5 166.667 245 165.5L249.5 192L246 191.5L250 209L246 210Z" fill="url(#paint26_angular)"/>
<path d="M214 208L245.5 237.5L246.5 237L245.5 223.5L244 214.5L240.5 195.5L238 199.5L236.5 182.5L234 165.5L231 163.5L227 168.5L220 133L216 128.5L212 130L210.5 124.5L208.5 119.5L204 116.5L198.5 117L188 98L184.5 94.5L181.5 101L174 85L170 81L169 83.5L150.5 61L153.5 73.5L157 97.5L153.5 97L163.5 125L158 126L168 149L161.5 151.5L165.5 158L187.5 179L186 181.5L210.5 197.5V200.5L214 208Z" fill="url(#paint27_angular)"/>
<path d="M279 221L247 238.5L247.5 239.5L255.5 242L262.5 243.5H274L291.5 242.5L294.5 240.5H305.5L308 238.5L317 236.5L331 233L328 229.5L339 226L355 216.5H347.5L363.5 205L371.5 194L369.5 189L376.5 183L381.5 176L377.5 172L383.5 168.5L386.5 162L384 161L389.5 145L383.5 148L374 152L373 148.5L369.5 147.5L352 160L353 157L352.5 154.5L345 158L328.5 170V165.5L327.5 164.5L322.5 167C315 175 299.8 191.1 299 191.5C298.2 191.9 297.333 197.667 297 200.5L281.5 210.5L279 221Z" fill="url(#paint28_angular)"/>
<path d="M250.5 251L247.5 243L248 239.5L254.5 241.5L263.5 243.5H277.5C277.9 243.5 288.667 245.833 294 247L296.5 250.5L295.5 252.5L298.5 253L312 257.5L311 258.5L308 259.5L307.5 260L316 262L321.5 263.5L319 265L320.5 267L324.5 270L331 274L339.5 277.5L335 279.5L327.5 280H322.5C322.1 280 323 281.333 323.5 282L306.5 281L304.5 282.5H302L288.5 277.5V281L278.5 276L263.5 264.5L262 266.5L255 258L250.5 251Z" fill="url(#paint29_angular)"/>
<path d="M248.5 245L249.5 239.5V238L247.5 236L245.5 237V238L224.5 243.5L215.5 245.5L216 251L206 252L199 254.5L200 256.5L192 259L187 262L188.5 263L182 267.5V270.5L177 274V276L172 279L167.5 283L164 289L169 287L176 285L181.5 285.5L180 287L186 286.5L187 287.5L201 283L203.5 284.5L217 277.5L218 279.5L223 274.5L231.5 265C231.833 265.833 232.6 267.5 233 267.5C233.4 267.5 236.833 262.167 238.5 259.5L248.5 245Z" fill="url(#paint30_angular)"/>
<path d="M220 214.5L247.5 239L237.5 240.5L216.5 241.5L199 242.5L189 242V240H183L165.5 235.5L166.5 232.5L156 228L144 221L147.5 219.5L137.5 210L133 201.5L136 199.5L128 191L123.5 181H129L122 167.5L125.5 165L116.5 144L138.5 159L143.5 156.5L146.5 162.5L148 159.5H150.5L157 169.5L158.5 167L162.5 169L171 182.5L173.5 180L190 202L193.5 199L205.5 215L207.5 211.5L220 214.5Z" fill="url(#paint31_angular)"/>
<path d="M231.5 267.5C229.5 277 234.5 266.5 247.5 247.5C244.5 262 241.3 298.5 252.5 328.5C252.333 325.833 252.8 320.4 256 320C251.667 305 245.3 269.8 250.5 253C256.833 261.667 267.4 277.2 263 266C274.333 275 295.4 290.3 289 279.5C297 282.833 311.8 288 307 282C316.5 283 333.1 284.1 323.5 280.5C327.667 281 337.4 281.1 343 277.5C337.667 276.333 325.7 272.4 320.5 266C323.318 264.39 329.364 265.313 319.5 262.5C318.454 262.202 316.279 261.6 314.876 261.216C313.076 260.725 310.965 260.157 308.5 259.5C310.833 258 326.5 258.5 296.5 252C298.167 250.5 299 246.532 289 244.932C295.785 245.219 307.084 244.934 298 241.5C333.2 244.3 319.333 241.333 308 239.5C351.6 231.9 341.5 230.667 331 231C367.8 215.4 360.333 213.833 352 215C383.2 194.6 377.667 190.5 371 191C389 178.2 384.833 173.333 380.5 172.5C392.9 164.1 389.333 158.667 386 157C390.8 151.8 392 144.5 392 141.5C386 147.5 378.833 149 376 149C379.2 139 362.667 150.167 354 157C360.4 147.4 340.333 159.667 329.5 167C330.3 158.6 318.452 169.167 312.428 175.5C313.75 172.072 309.515 173.401 305.5 175.5C330.7 149.1 323.667 149.5 317 153C341.4 121.4 331.167 123.5 323 128.5C341.8 102.1 336.833 99.5 332 101.5C342.4 77.5 336.333 76.8333 332 79.5C345.6 53.9 340 52.8333 335.5 55.5C335.5 45.5 346.5 32.6667 352 27.5C344.8 28.7 334.333 41.6667 330 48C328.8 34.4 311.833 55.6667 303.5 68C303.5 51.6 287.167 76.8333 279 91.5C277.13 80.5895 270.481 91.847 265.351 103.5C270.031 81.9 263.4 92.1667 259.5 100C267.9 73.2 260 70.5 255 72.5C258.6 48.5 253.5 52.1667 250.5 57C256.1 36.6 251.833 38.1667 249 41.5C246.2 35.9 247.167 22.1667 248 16L236 36.5C231.2 27.7 229 41.5 228.5 49.5C220.1 36.7 216.333 55.5 215.5 66.5C207.1 59.7 210.333 85 213 98.5C205.4 92.1 213.341 115.667 218.262 128C216.056 125.616 214.156 126.617 213 129C210.6 111 203 112.833 199.5 116C186 84.5 183.167 90 181.5 97C172.3 74.6 168 76 167 79.5L148.5 57L156 94C144.5 89 159.667 113.833 161.5 124.5C148.5 119 161.167 138.667 165 149.5C147 146 172.833 168.833 186 180C176.4 180 199 192.5 210.5 199C205.281 198.051 208.841 203.667 215.572 211.47C221.535 215.073 230.253 222.359 242.677 235.338C229.113 221.011 202.919 195.626 213.21 197.495C202.452 191.422 181.31 179.742 190.29 179.742C177.973 169.307 153.806 147.972 170.645 151.242C167.059 141.12 155.21 122.743 167.371 127.882C165.656 117.915 148.468 94.7112 159.226 99.3832L152.21 64.8104L169.516 85.8344C170.452 82.564 173.394 83.5694 182 104.5C183.559 97.9592 185.371 90.5664 198 120C201.274 117.041 209.255 115.181 211.5 132C212.581 129.773 215.824 129.772 217.887 132C220.586 134.913 223.243 154.396 226 176C228.027 165.41 234.132 152.921 237.5 204.5C239.371 194.533 241.5 198.5 245.952 229.265C245.938 228.438 245.948 227.578 245.98 226.7C246.089 216.144 246.099 208.099 246.98 206.973C243.804 202.634 244.834 211.02 245 221C242.572 168.181 238.672 188.262 238.5 198.5C236.675 151.971 231.737 152.928 229.178 162.782C229.153 163.105 229.094 163.347 229 163.5C229.058 163.256 229.118 163.016 229.178 162.782C229.815 154.741 208 96.5 215.548 103.588C213.054 90.9736 210.029 67.3333 217.887 73.6872C218.667 63.4088 221.142 42.5397 229 54.5C229.468 47.0248 231.51 32.2773 236 40.5L246 23.5C245.22 29.2621 244.881 44.7674 247.5 50C249 41.5 252.239 43.9382 247 63C249.806 58.4837 255.4 55.5744 252.032 78C260.919 66 262.358 88.4581 254.5 113.5C264 107 263.6 93.6 262 102C260 112.5 248.887 120 250.29 136.5C247.296 137.536 242.345 143.896 246.5 161.054C243.833 159.869 240.1 163.5 246.5 187.5C246.002 187.435 245.466 187.963 245.238 189.59C244.879 192.157 245.287 197.462 247.823 207.5C247.481 206.851 247.208 206.695 246.988 206.963L247 207L246.98 206.973C246.099 208.099 246.089 216.144 245.98 226.7C246.311 217.664 248.965 206.753 251.694 210.5C249.199 202.713 245.332 189.414 251.694 195.02C248.575 184.119 243.929 163.998 250.29 170.726C249.823 159.824 249.916 140.171 254.032 148.767C255.747 137.554 259.006 116.894 262 122.5C267.097 105.198 277.29 75.885 277.29 97.0472C284.93 83.3427 300.21 59.7646 300.21 75.0888C308.005 63.5645 323.877 43.693 325 56.4008C327.833 52.9339 334.1 46 336.5 46C331.199 50.8277 329.771 54.0648 330.145 63.4088C334.355 60.9171 339.594 61.9138 326.871 85.8344C330.925 83.3427 336.6 83.9656 326.871 106.391C331.392 104.522 336.039 106.952 318.452 131.62C326.091 126.948 335.665 124.986 312.839 154.513C319.075 151.242 323.074 154.832 299.5 179.5C303.256 177.539 306.737 176.297 305.5 179.5C304.478 182.147 302.965 183.868 291.79 194.692C294.441 195.159 294.971 198.71 275.887 209.175C280.409 209.798 277.945 220.762 252.5 235.338C267.382 230.083 299.161 213.2 286.645 212C295.22 206.449 310.313 195.282 302.081 195.02C310.968 187.871 326.216 173.966 316.113 175.537C320.742 169.858 329.5 160.5 327.5 168.5L326.5 172.734C337.5 163.322 357.7 148 350.5 162C358.608 155.615 375.026 144.431 372.032 153.775C374.683 153.775 381.387 152.374 387 146.767C387 149.57 385.877 156.392 381.387 161.25C384.505 162.808 386.842 164.885 375.242 172.734C379.296 173.512 383.194 178.06 366.355 190.02C372.591 189.553 373.187 198.938 344 218C351.796 216.91 358.426 215.423 324 230C333.823 229.689 327 238 296.5 234C307.102 235.713 312.5 244 289 238C290.091 240.647 293.474 243.561 274.016 237.207C275.263 239.543 267.842 245.111 252.5 241C263.64 246.239 289.6 253.034 280 246C287.441 246.512 300.59 248.633 293.661 253.018C321.726 259.092 307.07 258.625 304.887 260.026C311.5 261.251 323.003 263.58 316.113 263.1C320.977 269.08 332.172 276.755 337.161 277.846C331.923 281.209 322.817 279.116 318.919 278.649C327.9 282.013 312.371 279.985 303.484 279.05C307.899 284.563 294.587 279.021 287.026 275.873L286.645 275.714C292.632 285.806 271.102 268.436 260.5 260.026C264.616 270.492 255.618 256.985 249.694 248.887C244.829 264.585 249.446 300.984 253.5 315C250.506 315.374 251.844 319.008 252 321.5C244 288 246.194 256.049 249 242.5C236.839 260.254 231.629 269.877 233.5 261C227.887 267.385 216.755 281.728 219 275C212.608 278.738 200.506 285.485 203.5 281C196.796 283.025 185.303 288.18 189.419 285.19C186.301 285.968 180.906 286.778 184.274 283.788C179.909 284.099 168.119 283.141 165.5 288C166.747 283.639 173.423 277.341 180.532 275.846C178.194 275.534 175.668 274.07 184.274 270.706C182.559 269.616 181.561 266.502 191.29 262.764C187.86 262.453 185.21 260.802 202.048 256.69C199.242 254.977 198.916 253.121 218 252C214.882 250.443 218.5 244 240.806 240.01C225 240.01 179.029 244.122 192.5 240.01C180.806 237.986 159.794 234.495 170.645 233C160.199 228.172 139.4 219.752 151 220.5C142.892 213.959 128.274 200.252 139.5 201C131.704 193.213 118.403 179.884 131.5 182.5C127.446 178.295 119.526 164.604 127.758 165.726L119 146.5L138 161.054C139.403 158.562 143.568 156.382 146.936 165.726L146.949 165.628C147.425 162.293 148.583 154.18 157 172.5C157.624 169.074 161.771 167.56 171.5 185.5C171.5 181.139 176.445 182.458 190.29 207.5C189.199 202.205 192.281 198.822 206.5 220.5C205.618 213.892 211.619 207.609 242.677 235.338C230.253 222.359 221.535 215.073 215.572 211.47C208.65 207.287 204.983 206.57 204 209.175C189.308 186.934 188.347 193.902 189.5 199.5C174.7 172.7 171 175.333 171 180C160.6 160.8 156.667 163.333 156 167C150 153 147.5 156.5 147 160C143.4 150 139.5 152.833 138 155.5L113 140L124.5 165C115.7 163.8 122.167 172.5 126.5 177C112.5 174.2 125.667 190.167 134 198.5C122 197.7 136.333 211.5 145 218.5C132.6 217.7 151.833 227.833 163 233C151.4 234.6 173.5 239.333 186 241.5C173.309 245.378 200.852 242.679 223.998 241.414C226.524 241.194 229.502 241.049 233 241C230.152 241.099 227.115 241.243 223.998 241.414C205.725 243.007 211.072 248.536 214 250C193.6 251.2 194.5 255.167 197.5 257C179.5 261.4 182.333 263.167 186 263.5C175.6 267.5 176.667 270.833 178.5 272C169.3 275.6 172 277.167 174.5 277.5C166.9 279.1 162.333 288.833 161 293.5C163.8 288.3 173.833 286.333 178.5 286C174.9 289.2 180.667 288.333 184 287.5C179.6 290.7 192.833 287.167 200 285C196.8 289.8 209.667 283 216.5 279C214.1 286.2 225.5 274.333 231.5 267.5Z" fill="black"/>
<path d="M141.5 317L138.5 323L134.5 304L133 286L132.5 267.5L134 252L135 246.5L136.5 240L138 244.5L137.5 249L135.5 259L135 274L136 284L137.5 296L138.5 304.5L141.5 317Z" fill="url(#paint32_linear)"/>
<path d="M133.5 232C133.5 230.8 121.833 188.167 116 167L99.5 105V100L101 100.5L98.5 80.5L100 69.5H103L108 48.5L111 47.5L115.5 51.5L118 37.5L120 36L123 38.5L133.5 20V31L134.5 46.5L138.5 42.5L137.5 52L135.5 59L140 58L141.5 62.5L140.5 74.5L144.5 73.5L148 78L148.5 84.5L144.5 106.5L150.5 101.5L147 116.5L142.5 126.5C140.197 140.154 135.621 167.186 135.502 167.502C135.572 167.933 137.185 186.544 138 196V217.5L133.5 232Z" fill="url(#paint33_angular)"/>
<path d="M133 210L132.5 237L134 238.5L144 233L163.5 221L180.5 202L196 176L189 177.5L199 167L207.5 153.5L202 153C206.667 146.333 216.1 132.9 216.5 132.5C216.9 132.1 216.333 128.667 216 127L207.5 129.5L208.5 128.5L216 117.5L220.5 106L216 104.5L219.5 95L222 82.5L216.5 83L225 61L219 60.5L222.5 51L226.5 39L213.5 53.5V49.5L207.5 48.5L188 72.5L185.5 66L176 77L165 93.5V92.5L164 88.5H161.5L152 105L147.5 112L139.5 143L135.5 146C135.833 153.333 136.5 168.1 136.5 168.5C136.5 168.9 133.5 166.667 132 165.5L136.5 192L133 191.5L137 209L133 210Z" fill="url(#paint34_angular)"/>
<path d="M101 208L132.5 237.5L133.5 237L132.5 223.5L131 214.5L127.5 195.5L125 199.5L123.5 182.5L121 165.5L118 163.5L114 168.5L107 133L103 128.5L99 130L97.5 124.5L95.5 119.5L91 116.5L85.5 117L75 98L71.5 94.5L68.5 101L61 85L57 81L56 83.5L37.5 61L40.5 73.5L44 97.5L40.5 97L50.5 125L45 126L55 149L48.5 151.5L52.5 158L74.5 179L73 181.5L97.5 197.5V200.5L101 208Z" fill="url(#paint35_angular)"/>
<path d="M166 221L134 238.5L134.5 239.5L142.5 242L149.5 243.5H161L178.5 242.5L181.5 240.5H192.5L195 238.5L204 236.5L218 233L215 229.5L226 226L242 216.5H234.5L250.5 205L258.5 194L256.5 189L263.5 183L268.5 176L264.5 172L270.5 168.5L273.5 162L271 161L276.5 145L270.5 148L261 152L260 148.5L256.5 147.5L239 160L240 157L239.5 154.5L232 158L215.5 170V165.5L214.5 164.5L209.5 167C202 175 186.8 191.1 186 191.5C185.2 191.9 184.333 197.667 184 200.5L168.5 210.5L166 221Z" fill="url(#paint36_angular)"/>
<path d="M137.5 251L134.5 243L135 239.5L141.5 241.5L150.5 243.5H164.5C164.9 243.5 175.667 245.833 181 247L183.5 250.5L182.5 252.5L185.5 253L199 257.5L198 258.5L195 259.5L194.5 260L203 262L208.5 263.5L206 265L207.5 267L211.5 270L218 274L226.5 277.5L222 279.5L214.5 280H209.5C209.1 280 210 281.333 210.5 282L193.5 281L191.5 282.5H189L175.5 277.5V281L165.5 276L150.5 264.5L149 266.5L142 258L137.5 251Z" fill="url(#paint37_angular)"/>
<path d="M135.5 245L136.5 239.5V238L134.5 236L132.5 237V238L111.5 243.5L102.5 245.5L103 251L93 252L86 254.5L87 256.5L79 259L74 262L75.5 263L69 267.5V270.5L64 274V276L59 279L54.5 283L51 289L56 287L63 285L68.5 285.5L67 287L73 286.5L74 287.5L88 283L90.5 284.5L104 277.5L105 279.5L110 274.5L118.5 265C118.833 265.833 119.6 267.5 120 267.5C120.4 267.5 123.833 262.167 125.5 259.5L135.5 245Z" fill="url(#paint38_angular)"/>
<path d="M107 214.5L134.5 239L124.5 240.5L103.5 241.5L86 242.5L76 242V240H70L52.5 235.5L53.5 232.5L43 228L31 221L34.5 219.5L24.5 210L20 201.5L23 199.5L15 191L10.5 181H16L9 167.5L12.5 165L3.5 144L25.5 159L30.5 156.5L33.5 162.5L35 159.5H37.5L44 169.5L45.5 167L49.5 169L58 182.5L60.5 180L77 202L80.5 199L92.5 215L94.5 211.5L107 214.5Z" fill="url(#paint39_angular)"/>
<path d="M118.5 267.5C116.5 277 121.5 266.5 134.5 247.5C131.5 262 128.3 298.5 139.5 328.5C139.333 325.833 139.8 320.4 143 320C138.667 305 132.3 269.8 137.5 253C143.833 261.667 154.4 277.2 150 266C161.333 275 182.4 290.3 176 279.5C184 282.833 198.8 288 194 282C203.5 283 220.1 284.1 210.5 280.5C214.667 281 224.4 281.1 230 277.5C224.667 276.333 212.7 272.4 207.5 266C210.318 264.39 216.364 265.313 206.5 262.5C205.454 262.202 203.279 261.6 201.876 261.216C200.076 260.725 197.965 260.157 195.5 259.5C197.833 258 213.5 258.5 183.5 252C185.167 250.5 186 246.532 176 244.932C182.785 245.219 194.084 244.934 185 241.5C220.2 244.3 206.333 241.333 195 239.5C238.6 231.9 228.5 230.667 218 231C254.8 215.4 247.333 213.833 239 215C270.2 194.6 264.667 190.5 258 191C276 178.2 271.833 173.333 267.5 172.5C279.9 164.1 276.333 158.667 273 157C277.8 151.8 279 144.5 279 141.5C273 147.5 265.833 149 263 149C266.2 139 249.667 150.167 241 157C247.4 147.4 227.333 159.667 216.5 167C217.3 158.6 205.452 169.167 199.428 175.5C200.75 172.072 196.515 173.401 192.5 175.5C217.7 149.1 210.667 149.5 204 153C228.4 121.4 218.167 123.5 210 128.5C228.8 102.1 223.833 99.5 219 101.5C229.4 77.5 223.333 76.8333 219 79.5C232.6 53.9 227 52.8333 222.5 55.5C222.5 45.5 233.5 32.6667 239 27.5C231.8 28.7 221.333 41.6667 217 48C215.8 34.4 198.833 55.6667 190.5 68C190.5 51.6 174.167 76.8333 166 91.5C164.13 80.5895 157.481 91.847 152.351 103.5C157.031 81.9 150.4 92.1667 146.5 100C154.9 73.2 147 70.5 142 72.5C145.6 48.5 140.5 52.1667 137.5 57C143.1 36.6 138.833 38.1667 136 41.5C133.2 35.9 134.167 22.1667 135 16L123 36.5C118.2 27.7 116 41.5 115.5 49.5C107.1 36.7 103.333 55.5 102.5 66.5C94.1 59.7 97.3333 85 100 98.5C92.4 92.1 100.341 115.667 105.262 128C103.056 125.616 101.156 126.617 100 129C97.6 111 90 112.833 86.5 116C73 84.5 70.1667 90 68.5 97C59.3 74.6 55 76 54 79.5L35.5 57L43 94C31.5 89 46.6667 113.833 48.5 124.5C35.5 119 48.1667 138.667 52 149.5C34 146 59.8333 168.833 73 180C63.4 180 86 192.5 97.5 199C92.2813 198.051 95.8407 203.667 102.572 211.47C108.535 215.073 117.253 222.359 129.677 235.338C116.113 221.011 89.9194 195.626 100.21 197.495C89.4516 191.422 68.3097 179.742 77.2903 179.742C64.9731 169.307 40.8064 147.972 57.6452 151.242C54.0591 141.12 42.2097 122.743 54.371 127.882C52.6559 117.915 35.4677 94.7112 46.2258 99.3832L39.2097 64.8104L56.5161 85.8344C57.4516 82.564 60.3935 83.5694 69 104.5C70.5591 97.9592 72.371 90.5664 85 120C88.2742 117.041 96.2548 115.181 98.5 132C99.581 129.773 102.824 129.772 104.887 132C107.586 134.913 110.243 154.396 113 176C115.027 165.41 121.132 152.921 124.5 204.5C126.371 194.533 128.5 198.5 132.952 229.265C132.938 228.438 132.948 227.578 132.98 226.7C133.089 216.144 133.099 208.099 133.98 206.973C130.804 202.634 131.834 211.02 132 221C129.572 168.181 125.672 188.262 125.5 198.5C123.675 151.971 118.737 152.928 116.178 162.782C116.153 163.105 116.094 163.347 116 163.5C116.058 163.256 116.118 163.016 116.178 162.782C116.815 154.741 95 96.5 102.548 103.588C100.054 90.9736 97.029 67.3333 104.887 73.6872C105.667 63.4088 108.142 42.5397 116 54.5C116.468 47.0248 118.51 32.2773 123 40.5L133 23.5C132.22 29.2621 131.881 44.7674 134.5 50C136 41.5 139.239 43.9382 134 63C136.806 58.4837 142.4 55.5744 139.032 78C147.919 66 149.358 88.4581 141.5 113.5C151 107 150.6 93.6 149 102C147 112.5 135.887 120 137.29 136.5C134.296 137.536 129.345 143.896 133.5 161.054C130.833 159.869 127.1 163.5 133.5 187.5C133.002 187.435 132.466 187.963 132.238 189.59C131.879 192.157 132.287 197.462 134.823 207.5C134.481 206.851 134.208 206.695 133.988 206.963L134 207L133.98 206.973C133.099 208.099 133.089 216.144 132.98 226.7C133.311 217.664 135.965 206.753 138.694 210.5C136.199 202.713 132.332 189.414 138.694 195.02C135.575 184.119 130.929 163.998 137.29 170.726C136.823 159.824 136.916 140.171 141.032 148.767C142.747 137.554 146.006 116.894 149 122.5C154.097 105.198 164.29 75.885 164.29 97.0472C171.93 83.3427 187.21 59.7646 187.21 75.0888C195.005 63.5645 210.877 43.693 212 56.4008C214.833 52.9339 221.1 46 223.5 46C218.199 50.8277 216.771 54.0648 217.145 63.4088C221.355 60.9171 226.594 61.9138 213.871 85.8344C217.925 83.3427 223.6 83.9656 213.871 106.391C218.392 104.522 223.039 106.952 205.452 131.62C213.091 126.948 222.665 124.986 199.839 154.513C206.075 151.242 210.074 154.832 186.5 179.5C190.256 177.539 193.737 176.297 192.5 179.5C191.478 182.147 189.965 183.868 178.79 194.692C181.441 195.159 181.971 198.71 162.887 209.175C167.409 209.798 164.945 220.762 139.5 235.338C154.382 230.083 186.161 213.2 173.645 212C182.22 206.449 197.313 195.282 189.081 195.02C197.968 187.871 213.216 173.966 203.113 175.537C207.742 169.858 216.5 160.5 214.5 168.5L213.5 172.734C224.5 163.322 244.7 148 237.5 162C245.608 155.615 262.026 144.431 259.032 153.775C261.683 153.775 268.387 152.374 274 146.767C274 149.57 272.877 156.392 268.387 161.25C271.505 162.808 273.842 164.885 262.242 172.734C266.296 173.512 270.194 178.06 253.355 190.02C259.591 189.553 260.187 198.938 231 218C238.796 216.91 245.426 215.423 211 230C220.823 229.689 214 238 183.5 234C194.102 235.713 199.5 244 176 238C177.091 240.647 180.474 243.561 161.016 237.207C162.263 239.543 154.842 245.111 139.5 241C150.64 246.239 176.6 253.034 167 246C174.441 246.512 187.59 248.633 180.661 253.018C208.726 259.092 194.07 258.625 191.887 260.026C198.5 261.251 210.003 263.58 203.113 263.1C207.977 269.08 219.172 276.755 224.161 277.846C218.923 281.209 209.817 279.116 205.919 278.649C214.9 282.013 199.371 279.985 190.484 279.05C194.899 284.563 181.587 279.021 174.026 275.873L173.645 275.714C179.632 285.806 158.102 268.436 147.5 260.026C151.616 270.492 142.618 256.985 136.694 248.887C131.829 264.585 136.446 300.984 140.5 315C137.506 315.374 138.844 319.008 139 321.5C131 288 133.194 256.049 136 242.5C123.839 260.254 118.629 269.877 120.5 261C114.887 267.385 103.755 281.728 106 275C99.6075 278.738 87.5065 285.485 90.5 281C83.7957 283.025 72.3032 288.18 76.4194 285.19C73.3011 285.968 67.9065 286.778 71.2742 283.788C66.9086 284.099 55.1194 283.141 52.5 288C53.7473 283.639 60.4226 277.341 67.5323 275.846C65.1935 275.534 62.6677 274.07 71.2742 270.706C69.5591 269.616 68.5613 266.502 78.2903 262.764C74.8602 262.453 72.2097 260.802 89.0484 256.69C86.242 254.977 85.9161 253.121 105 252C101.882 250.443 105.5 244 127.806 240.01C112 240.01 66.029 244.122 79.5 240.01C67.8064 237.986 46.7935 234.495 57.6452 233C47.1989 228.172 26.4 219.752 38 220.5C29.8925 213.959 15.2742 200.252 26.5 201C18.7043 193.213 5.40323 179.884 18.5 182.5C14.4462 178.295 6.52584 164.604 14.7581 165.726L6 146.5L25 161.054C26.4032 158.562 30.5678 156.382 33.9355 165.726L33.9494 165.628C34.4253 162.293 35.5829 154.18 44 172.5C44.6237 169.074 48.771 167.56 58.5 185.5C58.5 181.139 63.4452 182.458 77.2903 207.5C76.1989 202.205 79.2806 198.822 93.5 220.5C92.6183 213.892 98.6194 207.609 129.677 235.338C117.253 222.359 108.535 215.073 102.572 211.47C95.6496 207.287 91.9835 206.57 91 209.175C76.3082 186.934 75.3474 193.902 76.5 199.5C61.7 172.7 58 175.333 58 180C47.6 160.8 43.6667 163.333 43 167C37 153 34.5 156.5 34 160C30.4 150 26.5 152.833 25 155.5L0 140L11.5 165C2.70003 163.8 9.16671 172.5 13.5 177C-0.499952 174.2 12.6667 190.167 21 198.5C9.00004 197.7 23.3334 211.5 32 218.5C19.6 217.7 38.8334 227.833 50 233C38.4 234.6 60.5 239.333 73 241.5C60.309 245.378 87.8523 242.679 110.998 241.414C113.524 241.194 116.502 241.049 120 241C117.152 241.099 114.115 241.243 110.998 241.414C92.7247 243.007 98.0715 248.536 101 250C80.6 251.2 81.5 255.167 84.5 257C66.5 261.4 69.3333 263.167 73 263.5C62.6 267.5 63.6667 270.833 65.5 272C56.3 275.6 59 277.167 61.5 277.5C53.9 279.1 49.3334 288.833 48 293.5C50.8 288.3 60.8333 286.333 65.5 286C61.9 289.2 67.6667 288.333 71 287.5C66.6 290.7 79.8333 287.167 87 285C83.8 289.8 96.6667 283 103.5 279C101.1 286.2 112.5 274.333 118.5 267.5Z" fill="black"/>
<defs>
<linearGradient id="paint0_linear" x1="599.5" y1="269.5" x2="604.5" y2="269.5" gradientUnits="userSpaceOnUse">
<stop stop-color="#115000"/>
<stop offset="1" stop-color="#187200"/>
</linearGradient>
<radialGradient id="paint1_angular" cx="0" cy="0" r="1" gradientUnits="userSpaceOnUse" gradientTransform="translate(593.5 120) rotate(90) scale(106 19.6768)">
<stop stop-color="#0E3F01"/>
<stop offset="0.510673" stop-color="#1A8200"/>
</radialGradient>
<radialGradient id="paint2_angular" cx="0" cy="0" r="1" gradientUnits="userSpaceOnUse" gradientTransform="translate(640.5 144.5) rotate(114.053) scale(96.9149 28.2157)">
<stop offset="0.507016" stop-color="#2ACF00"/>
<stop offset="0.998338" stop-color="#146500"/>
</radialGradient>
<radialGradient id="paint3_angular" cx="0" cy="0" r="1" gradientUnits="userSpaceOnUse" gradientTransform="translate(560.5 158) rotate(-119.004) scale(110.338 37.3797)">
<stop offset="0.0107105" stop-color="#26BC00"/>
<stop offset="0.481697" stop-color="#136000"/>
</radialGradient>
<radialGradient id="paint4_angular" cx="0" cy="0" r="1" gradientUnits="userSpaceOnUse" gradientTransform="translate(679.5 192) rotate(147.665) scale(64.5019 18.9526)">
<stop stop-color="#146000"/>
<stop offset="0.479482" stop-color="#2ACC00"/>
</radialGradient>
<radialGradient id="paint5_angular" cx="0" cy="0" r="1" gradientUnits="userSpaceOnUse" gradientTransform="translate(649.5 255) rotate(-157.335) scale(49.3077 10.7792)">
<stop stop-color="#105000"/>
<stop offset="0.482292" stop-color="#2AC900"/>
</radialGradient>
<radialGradient id="paint6_angular" cx="0" cy="0" r="1" gradientUnits="userSpaceOnUse" gradientTransform="translate(574 257) rotate(-37.875) scale(34.2053 10.8913)">
<stop stop-color="#156600"/>
<stop offset="0.591667" stop-color="#29C300"/>
</radialGradient>
<radialGradient id="paint7_angular" cx="0" cy="0" r="1" gradientUnits="userSpaceOnUse" gradientTransform="translate(535.5 205) rotate(26.0954) scale(54.5619 18.9345)">
<stop stop-color="#146200"/>
<stop offset="0.59349" stop-color="#2ACC00"/>
</radialGradient>
<linearGradient id="paint8_linear" x1="499.5" y1="259.5" x2="504.5" y2="259.5" gradientUnits="userSpaceOnUse">
<stop stop-color="#115000"/>
<stop offset="1" stop-color="#187200"/>
</linearGradient>
<radialGradient id="paint9_angular" cx="0" cy="0" r="1" gradientUnits="userSpaceOnUse" gradientTransform="translate(493.5 110) rotate(90) scale(106 19.6768)">
<stop stop-color="#0E3F01"/>
<stop offset="0.510673" stop-color="#1A8200"/>
</radialGradient>
<radialGradient id="paint10_angular" cx="0" cy="0" r="1" gradientUnits="userSpaceOnUse" gradientTransform="translate(540.5 134.5) rotate(114.053) scale(96.9149 28.2157)">
<stop offset="0.507016" stop-color="#2ACF00"/>
<stop offset="0.998338" stop-color="#146500"/>
</radialGradient>
<radialGradient id="paint11_angular" cx="0" cy="0" r="1" gradientUnits="userSpaceOnUse" gradientTransform="translate(460.5 148) rotate(-119.004) scale(110.338 37.3797)">
<stop offset="0.0107105" stop-color="#26BC00"/>
<stop offset="0.481697" stop-color="#136000"/>
</radialGradient>
<radialGradient id="paint12_angular" cx="0" cy="0" r="1" gradientUnits="userSpaceOnUse" gradientTransform="translate(579.5 182) rotate(147.665) scale(64.5019 18.9526)">
<stop stop-color="#146000"/>
<stop offset="0.479482" stop-color="#2ACC00"/>
</radialGradient>
<radialGradient id="paint13_angular" cx="0" cy="0" r="1" gradientUnits="userSpaceOnUse" gradientTransform="translate(549.5 245) rotate(-157.335) scale(49.3077 10.7792)">
<stop stop-color="#105000"/>
<stop offset="0.482292" stop-color="#2AC900"/>
</radialGradient>
<radialGradient id="paint14_angular" cx="0" cy="0" r="1" gradientUnits="userSpaceOnUse" gradientTransform="translate(474 247) rotate(-37.875) scale(34.2053 10.8913)">
<stop stop-color="#156600"/>
<stop offset="0.591667" stop-color="#29C300"/>
</radialGradient>
<radialGradient id="paint15_angular" cx="0" cy="0" r="1" gradientUnits="userSpaceOnUse" gradientTransform="translate(435.5 195) rotate(26.0954) scale(54.5619 18.9345)">
<stop stop-color="#146200"/>
<stop offset="0.59349" stop-color="#2ACC00"/>
</radialGradient>
<linearGradient id="paint16_linear" x1="371.5" y1="266.5" x2="376.5" y2="266.5" gradientUnits="userSpaceOnUse">
<stop stop-color="#115000"/>
<stop offset="1" stop-color="#187200"/>
</linearGradient>
<radialGradient id="paint17_angular" cx="0" cy="0" r="1" gradientUnits="userSpaceOnUse" gradientTransform="translate(365.5 117) rotate(90) scale(106 19.6768)">
<stop stop-color="#0E3F01"/>
<stop offset="0.510673" stop-color="#1A8200"/>
</radialGradient>
<radialGradient id="paint18_angular" cx="0" cy="0" r="1" gradientUnits="userSpaceOnUse" gradientTransform="translate(412.5 141.5) rotate(114.053) scale(96.9149 28.2157)">
<stop offset="0.507016" stop-color="#2ACF00"/>
<stop offset="0.998338" stop-color="#146500"/>
</radialGradient>
<radialGradient id="paint19_angular" cx="0" cy="0" r="1" gradientUnits="userSpaceOnUse" gradientTransform="translate(332.5 155) rotate(-119.004) scale(110.338 37.3797)">
<stop offset="0.0107105" stop-color="#26BC00"/>
<stop offset="0.481697" stop-color="#136000"/>
</radialGradient>
<radialGradient id="paint20_angular" cx="0" cy="0" r="1" gradientUnits="userSpaceOnUse" gradientTransform="translate(451.5 189) rotate(147.665) scale(64.5019 18.9526)">
<stop stop-color="#146000"/>
<stop offset="0.479482" stop-color="#2ACC00"/>
</radialGradient>
<radialGradient id="paint21_angular" cx="0" cy="0" r="1" gradientUnits="userSpaceOnUse" gradientTransform="translate(421.5 252) rotate(-157.335) scale(49.3077 10.7792)">
<stop stop-color="#105000"/>
<stop offset="0.482292" stop-color="#2AC900"/>
</radialGradient>
<radialGradient id="paint22_angular" cx="0" cy="0" r="1" gradientUnits="userSpaceOnUse" gradientTransform="translate(346 254) rotate(-37.875) scale(34.2053 10.8913)">
<stop stop-color="#156600"/>
<stop offset="0.591667" stop-color="#29C300"/>
</radialGradient>
<radialGradient id="paint23_angular" cx="0" cy="0" r="1" gradientUnits="userSpaceOnUse" gradientTransform="translate(307.5 202) rotate(26.0954) scale(54.5619 18.9345)">
<stop stop-color="#146200"/>
<stop offset="0.59349" stop-color="#2ACC00"/>
</radialGradient>
<linearGradient id="paint24_linear" x1="243.5" y1="275.5" x2="248.5" y2="275.5" gradientUnits="userSpaceOnUse">
<stop stop-color="#115000"/>
<stop offset="1" stop-color="#187200"/>
</linearGradient>
<radialGradient id="paint25_angular" cx="0" cy="0" r="1" gradientUnits="userSpaceOnUse" gradientTransform="translate(237.5 126) rotate(90) scale(106 19.6768)">
<stop stop-color="#0E3F01"/>
<stop offset="0.510673" stop-color="#1A8200"/>
</radialGradient>
<radialGradient id="paint26_angular" cx="0" cy="0" r="1" gradientUnits="userSpaceOnUse" gradientTransform="translate(284.5 150.5) rotate(114.053) scale(96.9149 28.2157)">
<stop offset="0.507016" stop-color="#2ACF00"/>
<stop offset="0.998338" stop-color="#146500"/>
</radialGradient>
<radialGradient id="paint27_angular" cx="0" cy="0" r="1" gradientUnits="userSpaceOnUse" gradientTransform="translate(204.5 164) rotate(-119.004) scale(110.338 37.3797)">
<stop offset="0.0107105" stop-color="#26BC00"/>
<stop offset="0.481697" stop-color="#136000"/>
</radialGradient>
<radialGradient id="paint28_angular" cx="0" cy="0" r="1" gradientUnits="userSpaceOnUse" gradientTransform="translate(323.5 198) rotate(147.665) scale(64.5019 18.9526)">
<stop stop-color="#146000"/>
<stop offset="0.479482" stop-color="#2ACC00"/>
</radialGradient>
<radialGradient id="paint29_angular" cx="0" cy="0" r="1" gradientUnits="userSpaceOnUse" gradientTransform="translate(293.5 261) rotate(-157.335) scale(49.3077 10.7792)">
<stop stop-color="#105000"/>
<stop offset="0.482292" stop-color="#2AC900"/>
</radialGradient>
<radialGradient id="paint30_angular" cx="0" cy="0" r="1" gradientUnits="userSpaceOnUse" gradientTransform="translate(218 263) rotate(-37.875) scale(34.2053 10.8913)">
<stop stop-color="#156600"/>
<stop offset="0.591667" stop-color="#29C300"/>
</radialGradient>
<radialGradient id="paint31_angular" cx="0" cy="0" r="1" gradientUnits="userSpaceOnUse" gradientTransform="translate(179.5 211) rotate(26.0954) scale(54.5619 18.9345)">
<stop stop-color="#146200"/>
<stop offset="0.59349" stop-color="#2ACC00"/>
</radialGradient>
<linearGradient id="paint32_linear" x1="130.5" y1="275.5" x2="135.5" y2="275.5" gradientUnits="userSpaceOnUse">
<stop stop-color="#115000"/>
<stop offset="1" stop-color="#187200"/>
</linearGradient>
<radialGradient id="paint33_angular" cx="0" cy="0" r="1" gradientUnits="userSpaceOnUse" gradientTransform="translate(124.5 126) rotate(90) scale(106 19.6768)">
<stop stop-color="#0E3F01"/>
<stop offset="0.510673" stop-color="#1A8200"/>
</radialGradient>
<radialGradient id="paint34_angular" cx="0" cy="0" r="1" gradientUnits="userSpaceOnUse" gradientTransform="translate(171.5 150.5) rotate(114.053) scale(96.9149 28.2157)">
<stop offset="0.507016" stop-color="#2ACF00"/>
<stop offset="0.998338" stop-color="#146500"/>
</radialGradient>
<radialGradient id="paint35_angular" cx="0" cy="0" r="1" gradientUnits="userSpaceOnUse" gradientTransform="translate(91.5 164) rotate(-119.004) scale(110.338 37.3797)">
<stop offset="0.0107105" stop-color="#26BC00"/>
<stop offset="0.481697" stop-color="#136000"/>
</radialGradient>
<radialGradient id="paint36_angular" cx="0" cy="0" r="1" gradientUnits="userSpaceOnUse" gradientTransform="translate(210.5 198) rotate(147.665) scale(64.5019 18.9526)">
<stop stop-color="#146000"/>
<stop offset="0.479482" stop-color="#2ACC00"/>
</radialGradient>
<radialGradient id="paint37_angular" cx="0" cy="0" r="1" gradientUnits="userSpaceOnUse" gradientTransform="translate(180.5 261) rotate(-157.335) scale(49.3077 10.7792)">
<stop stop-color="#105000"/>
<stop offset="0.482292" stop-color="#2AC900"/>
</radialGradient>
<radialGradient id="paint38_angular" cx="0" cy="0" r="1" gradientUnits="userSpaceOnUse" gradientTransform="translate(105 263) rotate(-37.875) scale(34.2053 10.8913)">
<stop stop-color="#156600"/>
<stop offset="0.591667" stop-color="#29C300"/>
</radialGradient>
<radialGradient id="paint39_angular" cx="0" cy="0" r="1" gradientUnits="userSpaceOnUse" gradientTransform="translate(66.5 211) rotate(26.0954) scale(54.5619 18.9345)">
<stop stop-color="#146200"/>
<stop offset="0.59349" stop-color="#2ACC00"/>
</radialGradient>
</defs>
</svg>
