<svg width="1920" height="83" viewBox="0 0 1920 83" fill="none" xmlns="http://www.w3.org/2000/svg">
<rect width="1920" height="83" fill="#E7B38E"/>
<path d="M52.028 29.436V45.92H54.394V52.888H52.158V48H39.392V52.888H37.156V45.92H38.586C39.21 44.8453 39.7993 43.6407 40.354 42.306C40.926 40.9713 41.4287 39.576 41.862 38.12C42.2953 36.6467 42.6507 35.1733 42.928 33.7C43.2053 32.2267 43.3787 30.8053 43.448 29.436H52.028ZM45.502 31.542C45.4327 32.5473 45.2593 33.6827 44.982 34.948C44.722 36.2133 44.384 37.5133 43.968 38.848C43.5693 40.1653 43.1187 41.4393 42.616 42.67C42.1307 43.9007 41.6107 44.984 41.056 45.92H49.714V31.542H45.502ZM59.3446 42.566C59.3446 42.774 59.3359 43.086 59.3186 43.502C59.3012 43.918 59.2752 44.334 59.2406 44.75C59.2232 45.166 59.2059 45.4953 59.1886 45.738L66.6506 34.064H69.4586V48H67.3266V39.784C67.3266 39.5067 67.3266 39.1427 67.3266 38.692C67.3439 38.2413 67.3612 37.7993 67.3786 37.366C67.3959 36.9153 67.4132 36.5773 67.4306 36.352L60.0206 48H57.1866V34.064H59.3446V42.566ZM77.5596 33.804C79.1543 33.804 80.4196 34.1247 81.3556 34.766C82.3089 35.39 82.7856 36.2913 82.7856 37.47C82.7856 38.3193 82.5516 38.9953 82.0836 39.498C81.6156 39.9833 80.9743 40.3387 80.1596 40.564V40.668C80.7143 40.824 81.2256 41.0407 81.6936 41.318C82.1616 41.5953 82.5343 41.9593 82.8116 42.41C83.1063 42.8607 83.2536 43.4413 83.2536 44.152C83.2536 45.3133 82.7683 46.2927 81.7976 47.09C80.8443 47.87 79.3449 48.26 77.2996 48.26C76.2943 48.26 75.3843 48.1733 74.5696 48C73.7549 47.844 73.0789 47.6273 72.5416 47.35V45.296C73.1309 45.5733 73.8243 45.8247 74.6216 46.05C75.4363 46.2753 76.3203 46.388 77.2736 46.388C78.3136 46.388 79.1889 46.2147 79.8996 45.868C80.6276 45.504 80.9916 44.8887 80.9916 44.022C80.9916 42.462 79.6656 41.682 77.0136 41.682H75.1416V39.81H76.6496C77.8456 39.81 78.7989 39.654 79.5096 39.342C80.2376 39.0127 80.6016 38.458 80.6016 37.678C80.6016 37.0193 80.3243 36.5253 79.7696 36.196C79.2323 35.8667 78.4523 35.702 77.4296 35.702C76.6669 35.702 75.9909 35.78 75.4016 35.936C74.8296 36.0747 74.1969 36.2913 73.5036 36.586L72.6976 34.766C74.1536 34.1247 75.7743 33.804 77.5596 33.804ZM91.9177 33.83C93.6164 33.83 94.873 34.2027 95.6877 34.948C96.5024 35.6933 96.9097 36.8807 96.9097 38.51V48H95.2457L94.8037 46.024H94.6997C94.093 46.7867 93.4517 47.35 92.7757 47.714C92.117 48.078 91.1984 48.26 90.0197 48.26C88.7544 48.26 87.7057 47.9307 86.8737 47.272C86.0417 46.596 85.6257 45.5473 85.6257 44.126C85.6257 42.7393 86.1717 41.6733 87.2637 40.928C88.3557 40.1653 90.037 39.7493 92.3077 39.68L94.6737 39.602V38.77C94.6737 37.6087 94.4224 36.8027 93.9197 36.352C93.417 35.9013 92.7064 35.676 91.7877 35.676C91.0597 35.676 90.3664 35.7887 89.7077 36.014C89.049 36.222 88.4337 36.4647 87.8617 36.742L87.1597 35.026C87.7664 34.6967 88.4857 34.4193 89.3177 34.194C90.1497 33.9513 91.0164 33.83 91.9177 33.83ZM92.5937 41.266C90.8604 41.3353 89.6557 41.6127 88.9797 42.098C88.321 42.5833 87.9917 43.268 87.9917 44.152C87.9917 44.932 88.2257 45.504 88.6937 45.868C89.179 46.232 89.7944 46.414 90.5397 46.414C91.7184 46.414 92.6977 46.0933 93.4777 45.452C94.2577 44.7933 94.6477 43.788 94.6477 42.436V41.188L92.5937 41.266ZM112.498 28.292C112.377 29.592 111.935 30.58 111.172 31.256C110.427 31.9147 109.231 32.244 107.584 32.244C105.885 32.244 104.681 31.9147 103.97 31.256C103.277 30.5973 102.887 29.6093 102.8 28.292H104.932C105.019 29.228 105.261 29.8607 105.66 30.19C106.076 30.502 106.735 30.658 107.636 30.658C108.433 30.658 109.057 30.4933 109.508 30.164C109.976 29.8173 110.253 29.1933 110.34 28.292H112.498ZM103.372 42.566C103.372 42.774 103.363 43.086 103.346 43.502C103.329 43.918 103.303 44.334 103.268 44.75C103.251 45.166 103.233 45.4953 103.216 45.738L110.678 34.064H113.486V48H111.354V39.784C111.354 39.5067 111.354 39.1427 111.354 38.692C111.371 38.2413 111.389 37.7993 111.406 37.366C111.423 36.9153 111.441 36.5773 111.458 36.352L104.048 48H101.214V34.064H103.372V42.566ZM120.209 34.064V39.862H127.775V34.064H130.063V48H127.775V41.786H120.209V48H117.921V34.064H120.209ZM153.672 48L151.436 42.254H144.078L141.868 48H139.502L146.756 29.358H148.862L156.09 48H153.672ZM148.654 34.558C148.602 34.4193 148.515 34.168 148.394 33.804C148.273 33.44 148.151 33.0673 148.03 32.686C147.926 32.2873 147.839 31.984 147.77 31.776C147.649 32.3133 147.51 32.842 147.354 33.362C147.198 33.8647 147.068 34.2633 146.964 34.558L144.858 40.174H150.734L148.654 34.558ZM160.605 34.064V39.862H168.171V34.064H170.459V48H168.171V41.786H160.605V48H158.317V34.064H160.605ZM180.15 33.83C181.849 33.83 183.105 34.2027 183.92 34.948C184.735 35.6933 185.142 36.8807 185.142 38.51V48H183.478L183.036 46.024H182.932C182.325 46.7867 181.684 47.35 181.008 47.714C180.349 48.078 179.431 48.26 178.252 48.26C176.987 48.26 175.938 47.9307 175.106 47.272C174.274 46.596 173.858 45.5473 173.858 44.126C173.858 42.7393 174.404 41.6733 175.496 40.928C176.588 40.1653 178.269 39.7493 180.54 39.68L182.906 39.602V38.77C182.906 37.6087 182.655 36.8027 182.152 36.352C181.649 35.9013 180.939 35.676 180.02 35.676C179.292 35.676 178.599 35.7887 177.94 36.014C177.281 36.222 176.666 36.4647 176.094 36.742L175.392 35.026C175.999 34.6967 176.718 34.4193 177.55 34.194C178.382 33.9513 179.249 33.83 180.15 33.83ZM180.826 41.266C179.093 41.3353 177.888 41.6127 177.212 42.098C176.553 42.5833 176.224 43.268 176.224 44.152C176.224 44.932 176.458 45.504 176.926 45.868C177.411 46.232 178.027 46.414 178.772 46.414C179.951 46.414 180.93 46.0933 181.71 45.452C182.49 44.7933 182.88 43.788 182.88 42.436V41.188L180.826 41.266ZM191.734 34.064V39.862H199.3V34.064H201.588V48H199.3V41.786H191.734V48H189.446V34.064H191.734ZM212.423 39.784C216.046 39.784 217.857 41.1013 217.857 43.736C217.857 45.036 217.415 46.076 216.531 46.856C215.647 47.6187 214.243 48 212.319 48H206.001V34.064H208.289V39.784H212.423ZM215.569 43.866C215.569 43.0167 215.266 42.4447 214.659 42.15C214.07 41.838 213.238 41.682 212.163 41.682H208.289V46.154H212.215C213.186 46.154 213.983 45.9807 214.607 45.634C215.248 45.2873 215.569 44.698 215.569 43.866ZM226.821 33.804C228.017 33.804 229.039 34.064 229.889 34.584C230.755 35.104 231.414 35.8407 231.865 36.794C232.333 37.73 232.567 38.8307 232.567 40.096V41.474H223.025C223.059 43.0513 223.458 44.256 224.221 45.088C225.001 45.9027 226.084 46.31 227.471 46.31C228.355 46.31 229.135 46.232 229.811 46.076C230.504 45.9027 231.215 45.66 231.943 45.348V47.35C231.232 47.662 230.53 47.8873 229.837 48.026C229.143 48.182 228.32 48.26 227.367 48.26C226.049 48.26 224.879 47.9913 223.857 47.454C222.851 46.9167 222.063 46.1193 221.491 45.062C220.936 43.9873 220.659 42.6787 220.659 41.136C220.659 39.6107 220.91 38.302 221.413 37.21C221.933 36.118 222.652 35.2773 223.571 34.688C224.507 34.0987 225.59 33.804 226.821 33.804ZM226.795 35.676C225.703 35.676 224.836 36.0313 224.195 36.742C223.571 37.4353 223.198 38.406 223.077 39.654H230.175C230.157 38.4753 229.88 37.522 229.343 36.794C228.805 36.0487 227.956 35.676 226.795 35.676ZM247.32 37.574C247.32 38.4407 247.06 39.1167 246.54 39.602C246.02 40.0873 245.353 40.4167 244.538 40.59V40.694C245.405 40.8153 246.159 41.1273 246.8 41.63C247.442 42.1153 247.762 42.878 247.762 43.918C247.762 45.0967 247.32 46.076 246.436 46.856C245.57 47.6187 244.131 48 242.12 48H236.114V34.064H242.094C243.082 34.064 243.966 34.1767 244.746 34.402C245.544 34.61 246.168 34.974 246.618 35.494C247.086 35.9967 247.32 36.69 247.32 37.574ZM245.006 37.86C245.006 37.2013 244.764 36.7247 244.278 36.43C243.81 36.118 243.039 35.962 241.964 35.962H238.402V39.784H241.548C243.854 39.784 245.006 39.1427 245.006 37.86ZM245.396 43.918C245.396 43.1207 245.093 42.5487 244.486 42.202C243.88 41.8553 242.987 41.682 241.808 41.682H238.402V46.154H241.86C243.004 46.154 243.88 45.9893 244.486 45.66C245.093 45.3133 245.396 44.7327 245.396 43.918ZM263.211 41.006C263.211 43.3113 262.621 45.0967 261.443 46.362C260.281 47.6273 258.704 48.26 256.711 48.26C255.48 48.26 254.379 47.9827 253.409 47.428C252.455 46.856 251.701 46.0327 251.147 44.958C250.592 43.866 250.315 42.5487 250.315 41.006C250.315 38.7007 250.895 36.924 252.057 35.676C253.218 34.428 254.795 33.804 256.789 33.804C258.054 33.804 259.163 34.09 260.117 34.662C261.087 35.2167 261.841 36.0313 262.379 37.106C262.933 38.1633 263.211 39.4633 263.211 41.006ZM252.681 41.006C252.681 42.6527 253.001 43.9613 253.643 44.932C254.301 45.8853 255.341 46.362 256.763 46.362C258.167 46.362 259.198 45.8853 259.857 44.932C260.515 43.9613 260.845 42.6527 260.845 41.006C260.845 39.3593 260.515 38.068 259.857 37.132C259.198 36.196 258.158 35.728 256.737 35.728C255.315 35.728 254.284 36.196 253.643 37.132C253.001 38.068 252.681 39.3593 252.681 41.006ZM278.121 28.292C278 29.592 277.558 30.58 276.795 31.256C276.05 31.9147 274.854 32.244 273.207 32.244C271.508 32.244 270.304 31.9147 269.593 31.256C268.9 30.5973 268.51 29.6093 268.423 28.292H270.555C270.642 29.228 270.884 29.8607 271.283 30.19C271.699 30.502 272.358 30.658 273.259 30.658C274.056 30.658 274.68 30.4933 275.131 30.164C275.599 29.8173 275.876 29.1933 275.963 28.292H278.121ZM268.995 42.566C268.995 42.774 268.986 43.086 268.969 43.502C268.952 43.918 268.926 44.334 268.891 44.75C268.874 45.166 268.856 45.4953 268.839 45.738L276.301 34.064H279.109V48H276.977V39.784C276.977 39.5067 276.977 39.1427 276.977 38.692C276.994 38.2413 277.012 37.7993 277.029 37.366C277.046 36.9153 277.064 36.5773 277.081 36.352L269.671 48H266.837V34.064H268.995V42.566ZM302.74 48L300.504 42.254H293.146L290.936 48H288.57L295.824 29.358H297.93L305.158 48H302.74ZM297.722 34.558C297.67 34.4193 297.584 34.168 297.462 33.804C297.341 33.44 297.22 33.0673 297.098 32.686C296.994 32.2873 296.908 31.984 296.838 31.776C296.717 32.3133 296.578 32.842 296.422 33.362C296.266 33.8647 296.136 34.2633 296.032 34.558L293.926 40.174H299.802L297.722 34.558ZM309.674 34.064V39.862H317.24V34.064H319.528V48H317.24V41.786H309.674V48H307.386V34.064H309.674ZM329.218 33.83C330.917 33.83 332.174 34.2027 332.988 34.948C333.803 35.6933 334.21 36.8807 334.21 38.51V48H332.546L332.104 46.024H332C331.394 46.7867 330.752 47.35 330.076 47.714C329.418 48.078 328.499 48.26 327.32 48.26C326.055 48.26 325.006 47.9307 324.174 47.272C323.342 46.596 322.926 45.5473 322.926 44.126C322.926 42.7393 323.472 41.6733 324.564 40.928C325.656 40.1653 327.338 39.7493 329.608 39.68L331.974 39.602V38.77C331.974 37.6087 331.723 36.8027 331.22 36.352C330.718 35.9013 330.007 35.676 329.088 35.676C328.36 35.676 327.667 35.7887 327.008 36.014C326.35 36.222 325.734 36.4647 325.162 36.742L324.46 35.026C325.067 34.6967 325.786 34.4193 326.618 34.194C327.45 33.9513 328.317 33.83 329.218 33.83ZM329.894 41.266C328.161 41.3353 326.956 41.6127 326.28 42.098C325.622 42.5833 325.292 43.268 325.292 44.152C325.292 44.932 325.526 45.504 325.994 45.868C326.48 46.232 327.095 46.414 327.84 46.414C329.019 46.414 329.998 46.0933 330.778 45.452C331.558 44.7933 331.948 43.788 331.948 42.436V41.188L329.894 41.266ZM344.105 48.26C342.874 48.26 341.773 48.0087 340.803 47.506C339.849 47.0033 339.095 46.2233 338.541 45.166C338.003 44.1087 337.735 42.7567 337.735 41.11C337.735 39.394 338.021 37.9987 338.593 36.924C339.165 35.8493 339.936 35.0607 340.907 34.558C341.895 34.0553 343.013 33.804 344.261 33.804C344.971 33.804 345.656 33.882 346.315 34.038C346.973 34.1767 347.511 34.35 347.927 34.558L347.225 36.456C346.809 36.3 346.323 36.1527 345.769 36.014C345.214 35.8753 344.694 35.806 344.209 35.806C341.47 35.806 340.101 37.5653 340.101 41.084C340.101 42.7653 340.43 44.0567 341.089 44.958C341.765 45.842 342.761 46.284 344.079 46.284C344.841 46.284 345.509 46.206 346.081 46.05C346.67 45.894 347.207 45.7033 347.693 45.478V47.506C347.225 47.7487 346.705 47.9307 346.133 48.052C345.578 48.1907 344.902 48.26 344.105 48.26ZM360.627 35.988H356.077V48H353.815V35.988H349.317V34.064H360.627V35.988ZM368.65 33.83C370.349 33.83 371.605 34.2027 372.42 34.948C373.235 35.6933 373.642 36.8807 373.642 38.51V48H371.978L371.536 46.024H371.432C370.825 46.7867 370.184 47.35 369.508 47.714C368.849 48.078 367.931 48.26 366.752 48.26C365.487 48.26 364.438 47.9307 363.606 47.272C362.774 46.596 362.358 45.5473 362.358 44.126C362.358 42.7393 362.904 41.6733 363.996 40.928C365.088 40.1653 366.769 39.7493 369.04 39.68L371.406 39.602V38.77C371.406 37.6087 371.155 36.8027 370.652 36.352C370.149 35.9013 369.439 35.676 368.52 35.676C367.792 35.676 367.099 35.7887 366.44 36.014C365.781 36.222 365.166 36.4647 364.594 36.742L363.892 35.026C364.499 34.6967 365.218 34.4193 366.05 34.194C366.882 33.9513 367.749 33.83 368.65 33.83ZM369.326 41.266C367.593 41.3353 366.388 41.6127 365.712 42.098C365.053 42.5833 364.724 43.268 364.724 44.152C364.724 44.932 364.958 45.504 365.426 45.868C365.911 46.232 366.527 46.414 367.272 46.414C368.451 46.414 369.43 46.0933 370.21 45.452C370.99 44.7933 371.38 43.788 371.38 42.436V41.188L369.326 41.266ZM383.536 48.26C382.306 48.26 381.205 48.0087 380.234 47.506C379.281 47.0033 378.527 46.2233 377.972 45.166C377.435 44.1087 377.166 42.7567 377.166 41.11C377.166 39.394 377.452 37.9987 378.024 36.924C378.596 35.8493 379.368 35.0607 380.338 34.558C381.326 34.0553 382.444 33.804 383.692 33.804C384.403 33.804 385.088 33.882 385.746 34.038C386.405 34.1767 386.942 34.35 387.358 34.558L386.656 36.456C386.24 36.3 385.755 36.1527 385.2 36.014C384.646 35.8753 384.126 35.806 383.64 35.806C380.902 35.806 379.532 37.5653 379.532 41.084C379.532 42.7653 379.862 44.0567 380.52 44.958C381.196 45.842 382.193 46.284 383.51 46.284C384.273 46.284 384.94 46.206 385.512 46.05C386.102 45.894 386.639 45.7033 387.124 45.478V47.506C386.656 47.7487 386.136 47.9307 385.564 48.052C385.01 48.1907 384.334 48.26 383.536 48.26ZM392.597 42.566C392.597 42.774 392.588 43.086 392.571 43.502C392.553 43.918 392.527 44.334 392.493 44.75C392.475 45.166 392.458 45.4953 392.441 45.738L399.903 34.064H402.711V48H400.579V39.784C400.579 39.5067 400.579 39.1427 400.579 38.692C400.596 38.2413 400.613 37.7993 400.631 37.366C400.648 36.9153 400.665 36.5773 400.683 36.352L393.273 48H390.439V34.064H392.597V42.566ZM409.304 42.566C409.304 42.774 409.295 43.086 409.278 43.502C409.26 43.918 409.234 44.334 409.2 44.75C409.182 45.166 409.165 45.4953 409.148 45.738L416.61 34.064H419.418V48H417.286V39.784C417.286 39.5067 417.286 39.1427 417.286 38.692C417.303 38.2413 417.32 37.7993 417.338 37.366C417.355 36.9153 417.372 36.5773 417.39 36.352L409.98 48H407.146V34.064H409.304V42.566Z" fill="black"/>
</svg>
