<svg width="212" height="131" viewBox="0 0 212 131" fill="none" xmlns="http://www.w3.org/2000/svg">
<path d="M155.278 129.3L0.816628 129.3L0.816628 41.7381L31.8979 21.7191L62.9792 1.70014L211.247 1.70011L211.247 82.3609L155.278 129.3Z" fill="#F5A649"/>
<path d="M0.816628 41.7381L155.277 41.7381M0.816628 41.7381L0.816628 129.3L155.277 129.3M0.816628 41.7381L31.8979 21.7191M155.277 41.7381L155.277 129.3M155.277 41.7381L183.633 22.9473M155.277 129.3L211.247 82.3609L211.247 1.70011M211.247 1.70011L62.9792 1.70014L31.8979 21.7191M211.247 1.70011L183.633 22.9473M183.633 22.9473L31.8979 21.7191" stroke="black"/>
<path d="M211.262 2.07324L155.009 41.6604V129.276L211.262 82.1207V2.07324Z" fill="url(#paint0_linear)" stroke="black"/>
<path d="M155.009 41.6604H0.625V129.567H155.009V41.6604Z" fill="url(#paint1_linear)" stroke="black"/>
<rect x="58.25" y="46.8408" width="91.7857" height="46.8571" fill="#C4C4C4" stroke="black" stroke-width="0.5"/>
<rect x="144.214" y="51.448" width="1.21429" height="38.8571" fill="black"/>
<rect x="140.571" y="51.448" width="2.42857" height="38.8571" fill="black"/>
<rect x="111.429" y="51.448" width="2.42857" height="38.8571" fill="black"/>
<rect x="107.786" y="51.448" width="2.42857" height="38.8571" fill="black"/>
<rect x="136.929" y="51.448" width="2.42857" height="38.8571" fill="black"/>
<rect x="135.714" y="51.448" width="2.42857" height="38.8571" fill="black"/>
<rect x="133.286" y="51.448" width="1.21429" height="38.8571" fill="black"/>
<rect x="130.857" y="51.448" width="1.21429" height="38.8571" fill="black"/>
<line x1="129.893" y1="51.448" x2="129.893" y2="90.3051" stroke="black" stroke-width="0.5"/>
<line x1="128.679" y1="51.448" x2="128.679" y2="90.3051" stroke="black" stroke-width="0.5"/>
<line x1="120.179" y1="51.448" x2="120.179" y2="90.3051" stroke="black" stroke-width="0.5"/>
<line x1="118" y1="51.448" x2="118" y2="90.3051" stroke="black"/>
<line x1="116.536" y1="51.448" x2="116.536" y2="90.3051" stroke="black" stroke-width="0.5"/>
<line x1="115.321" y1="51.448" x2="115.321" y2="90.3051" stroke="black" stroke-width="0.5"/>
<line x1="127.464" y1="51.448" x2="127.464" y2="90.3051" stroke="black" stroke-width="0.5"/>
<line x1="125.286" y1="51.448" x2="125.286" y2="90.3051" stroke="black"/>
<line x1="105.857" y1="51.448" x2="105.857" y2="90.3051" stroke="black"/>
<line x1="103.429" y1="51.448" x2="103.429" y2="90.3051" stroke="black"/>
<line x1="122.143" y1="51.448" x2="122.143" y2="90.3051" stroke="black" stroke-width="2"/>
<path d="M4 103H15C15 103 14.8395 114.768 9.80187 115.221L10.25 115.234V125.021H12V126H7.25V125.021H9V115.197C4.15622 114.458 4 103 4 103Z" fill="black"/>
<path d="M9 115.197C9.16141 115.221 9.32802 115.234 9.5 115.234C14.8332 115.234 15 103 15 103H4C4 103 4.15622 114.458 9 115.197ZM9 115.197V125.021H10.25V115.234L9 115.197ZM7.25 125.021H12V126H7.25V125.021Z" stroke="black"/>
<path fill-rule="evenodd" clip-rule="evenodd" d="M15 113.825C16.6084 109.095 22.2667 105.602 29 105.602C35.7334 105.602 41.3918 109.096 43.0001 113.825C42.3532 112.814 41.087 112.127 39.6308 112.127C38.5054 112.127 37.4934 112.537 36.7931 113.191C35.8594 112.537 34.5101 112.127 33.0095 112.127C31.4006 112.127 29.9656 112.599 29.0303 113.336C28.095 112.599 26.66 112.127 25.0511 112.127C23.5318 112.127 22.1676 112.548 21.2328 113.215C20.5317 112.548 19.5085 112.127 18.3691 112.127C16.913 112.127 15.6469 112.814 15 113.825Z" fill="black"/>
<path d="M24.9902 122.775C24.9902 124.004 25.8878 125 26.9949 125C28.1021 125 28.9996 124.004 28.9996 122.775V104" stroke="black" stroke-width="2" stroke-linecap="round"/>
<path d="M89.572 85H71.26V80.254C74.284 78.182 76.944 75.886 79.24 73.366C81.564 70.846 82.726 68.62 82.726 66.688C82.726 65.512 82.376 64.588 81.676 63.916C80.976 63.216 79.912 62.866 78.484 62.866C76.104 62.866 73.85 63.748 71.722 65.512V59.59C72.646 58.918 73.85 58.344 75.334 57.868C76.818 57.392 78.274 57.154 79.702 57.154C82.558 57.154 84.826 57.91 86.506 59.422C88.214 60.906 89.068 62.992 89.068 65.68C89.068 70.524 85.988 75.228 79.828 79.792H89.572V85Z" fill="black"/>
<defs>
<linearGradient id="paint0_linear" x1="158.759" y1="119.379" x2="204.673" y2="1.78236" gradientUnits="userSpaceOnUse">
<stop stop-color="#703C00"/>
<stop offset="1" stop-color="#EF9F40" stop-opacity="0.95"/>
</linearGradient>
<linearGradient id="paint1_linear" x1="114.694" y1="154.309" x2="11.1036" y2="32.8661" gradientUnits="userSpaceOnUse">
<stop stop-color="#B56A10"/>
<stop offset="1" stop-color="#E9993B"/>
</linearGradient>
</defs>
</svg>
