<svg width="486" height="83" viewBox="0 0 486 83" fill="none" xmlns="http://www.w3.org/2000/svg">
<path d="M355.967 81.9232L1.87288 81.9232L1.87288 26.4448L73.1253 13.761L144.378 1.07719L484.275 1.07717L484.275 52.1829L355.967 81.9232Z" fill="#F5A649"/>
<path d="M1.87288 26.4448L355.967 26.4448M1.87288 26.4448L1.87288 81.9232L355.967 81.9232M1.87288 26.4448L73.1253 13.761M355.967 26.4448L355.967 81.9232M355.967 26.4448L420.971 14.5391M355.967 81.9232L484.275 52.1829L484.275 1.07717M484.275 1.07717L144.378 1.07719L73.1253 13.761M484.275 1.07717L420.971 14.5391M420.971 14.5391L73.1253 13.761" stroke="black"/>
<path d="M484.309 1.31348L355.351 26.3954V81.9076L484.309 52.0306V1.31348Z" fill="url(#paint0_linear)" stroke="black"/>
<path d="M355.351 26.3955H1.43262V82.0921H355.351V26.3955Z" fill="url(#paint1_linear)" stroke="black"/>
<rect x="272.25" y="31.2539" width="78.2143" height="39.8929" fill="#C4C4C4" stroke="black" stroke-width="0.5"/>
<rect x="345.536" y="35.1467" width="1.03571" height="33.1429" fill="black"/>
<rect x="342.429" y="35.1467" width="2.07143" height="33.1429" fill="black"/>
<rect x="317.571" y="35.1467" width="2.07143" height="33.1429" fill="black"/>
<rect x="314.464" y="35.1467" width="2.07143" height="33.1429" fill="black"/>
<rect x="339.321" y="35.1467" width="2.07143" height="33.1429" fill="black"/>
<rect x="338.286" y="35.1467" width="2.07143" height="33.1429" fill="black"/>
<rect x="336.214" y="35.1467" width="1.03571" height="33.1429" fill="black"/>
<rect x="334.143" y="35.1467" width="1.03571" height="33.1429" fill="black"/>
<line x1="333.357" y1="35.1467" x2="333.357" y2="68.2896" stroke="black" stroke-width="0.5"/>
<line x1="332.321" y1="35.1467" x2="332.321" y2="68.2896" stroke="black" stroke-width="0.5"/>
<line x1="325.071" y1="35.1467" x2="325.071" y2="68.2896" stroke="black" stroke-width="0.5"/>
<line x1="323.25" y1="35.1467" x2="323.25" y2="68.2896" stroke="black"/>
<line x1="321.964" y1="35.1467" x2="321.964" y2="68.2896" stroke="black" stroke-width="0.5"/>
<line x1="320.929" y1="35.1467" x2="320.929" y2="68.2896" stroke="black" stroke-width="0.5"/>
<line x1="331.286" y1="35.1467" x2="331.286" y2="68.2896" stroke="black" stroke-width="0.5"/>
<line x1="329.464" y1="35.1467" x2="329.464" y2="68.2896" stroke="black"/>
<line x1="312.893" y1="35.1467" x2="312.893" y2="68.2896" stroke="black"/>
<line x1="310.821" y1="35.1467" x2="310.821" y2="68.2896" stroke="black"/>
<line x1="326.857" y1="35.1467" x2="326.857" y2="68.2896" stroke="black" stroke-width="2"/>
<path d="M5 56H16C16 56 15.8395 67.7682 10.8019 68.2207L11.25 68.234V78.0213H13V79H8.25V78.0213H10V68.1967C5.15622 67.4577 5 56 5 56Z" fill="black"/>
<path d="M10 68.1967C10.1614 68.2213 10.328 68.234 10.5 68.234C15.8332 68.234 16 56 16 56H5C5 56 5.15622 67.4577 10 68.1967ZM10 68.1967V78.0213H11.25V68.234L10 68.1967ZM8.25 78.0213H13V79H8.25V78.0213Z" stroke="black"/>
<path d="M301.368 57.62C301.368 59.916 300.493 61.761 298.744 63.155C297.022 64.5217 294.644 65.205 291.61 65.205C288.603 65.205 286.143 64.7403 284.23 63.811V58.071C286.417 59.2737 288.672 59.875 290.995 59.875C292.334 59.875 293.373 59.588 294.111 59.014C294.876 58.44 295.259 57.7157 295.259 56.841C295.259 54.8457 293.414 53.848 289.724 53.848H288.289V48.928H289.724C291.173 48.928 292.362 48.682 293.291 48.19C294.22 47.698 294.685 46.96 294.685 45.976C294.685 44.09 293.455 43.147 290.995 43.147C289.109 43.147 287.209 43.7347 285.296 44.91V39.334C287.319 38.3227 289.355 37.817 291.405 37.817C294.302 37.817 296.598 38.514 298.293 39.908C299.988 41.2747 300.835 43.065 300.835 45.279C300.835 48.313 299.455 50.404 296.694 51.552C299.81 52.29 301.368 54.3127 301.368 57.62Z" fill="black"/>
<defs>
<linearGradient id="paint0_linear" x1="363.948" y1="75.6371" x2="373.107" y2="-9.24062" gradientUnits="userSpaceOnUse">
<stop stop-color="#703C00"/>
<stop offset="1" stop-color="#EF9F40" stop-opacity="0.95"/>
</linearGradient>
<linearGradient id="paint1_linear" x1="262.931" y1="97.7683" x2="233.242" y2="-28.1628" gradientUnits="userSpaceOnUse">
<stop stop-color="#B56A10"/>
<stop offset="1" stop-color="#E9993B"/>
</linearGradient>
</defs>
</svg>
