<svg width="235" height="175" viewBox="0 0 235 175" fill="none" xmlns="http://www.w3.org/2000/svg">
<path d="M172.141 171.761L0.905175 171.701L0.873444 55.425L35.323 28.8534L69.7725 2.28176L234.143 2.33958L234.172 109.451L172.141 171.761Z" fill="#F5A649"/>
<path d="M0.873444 55.425L172.109 55.4852M0.873444 55.425L0.905175 171.701L172.141 171.761M0.873444 55.425L35.323 28.8534M172.109 55.4852L172.141 171.761M172.109 55.4852L203.537 30.5435M172.141 171.761L234.172 109.451L234.143 2.33958M234.143 2.33958L69.7725 2.28176L35.323 28.8534M234.143 2.33958L203.537 30.5435M203.537 30.5435L35.323 28.8534" stroke="black"/>
<path d="M234.161 2.75317L171.798 55.3216V171.668L234.161 109.05V2.75317Z" fill="url(#paint0_linear)" stroke="black"/>
<path d="M171.798 55.3215H0.646484V172.054H171.798V55.3215Z" fill="url(#paint1_linear)" stroke="black"/>
<rect x="88.25" y="60.2539" width="78.2143" height="39.8929" fill="#C4C4C4" stroke="black" stroke-width="0.5"/>
<rect x="161.536" y="64.1467" width="1.03571" height="33.1429" fill="black"/>
<rect x="158.429" y="64.1467" width="2.07143" height="33.1429" fill="black"/>
<rect x="133.571" y="64.1467" width="2.07143" height="33.1429" fill="black"/>
<rect x="130.464" y="64.1467" width="2.07143" height="33.1429" fill="black"/>
<rect x="155.321" y="64.1467" width="2.07143" height="33.1429" fill="black"/>
<rect x="154.286" y="64.1467" width="2.07143" height="33.1429" fill="black"/>
<rect x="152.214" y="64.1467" width="1.03571" height="33.1429" fill="black"/>
<rect x="150.143" y="64.1467" width="1.03571" height="33.1429" fill="black"/>
<line x1="149.357" y1="64.1467" x2="149.357" y2="97.2896" stroke="black" stroke-width="0.5"/>
<line x1="148.321" y1="64.1467" x2="148.321" y2="97.2896" stroke="black" stroke-width="0.5"/>
<line x1="141.071" y1="64.1467" x2="141.071" y2="97.2896" stroke="black" stroke-width="0.5"/>
<line x1="139.25" y1="64.1467" x2="139.25" y2="97.2896" stroke="black"/>
<line x1="137.964" y1="64.1467" x2="137.964" y2="97.2896" stroke="black" stroke-width="0.5"/>
<line x1="136.929" y1="64.1467" x2="136.929" y2="97.2896" stroke="black" stroke-width="0.5"/>
<line x1="147.286" y1="64.1467" x2="147.286" y2="97.2896" stroke="black" stroke-width="0.5"/>
<line x1="145.464" y1="64.1467" x2="145.464" y2="97.2896" stroke="black"/>
<line x1="128.893" y1="64.1467" x2="128.893" y2="97.2896" stroke="black"/>
<line x1="126.821" y1="64.1467" x2="126.821" y2="97.2896" stroke="black"/>
<line x1="142.857" y1="64.1467" x2="142.857" y2="97.2896" stroke="black" stroke-width="2"/>
<path d="M6 119H28C28 119 27.6791 143.048 17.6037 143.973L18.5 144V164H22V166H12.5V164H16V143.924C6.31244 142.414 6 119 6 119Z" fill="black"/>
<path d="M16 143.924C16.3228 143.974 16.656 144 17 144C27.6664 144 28 119 28 119H6C6 119 6.31244 142.414 16 143.924ZM16 143.924V164H18.5V144L16 143.924ZM12.5 164H22V166H12.5V164Z" stroke="black"/>
<path d="M117.391 94H99.5152V89.367C102.467 87.3443 105.064 85.103 107.305 82.643C109.574 80.183 110.708 78.01 110.708 76.124C110.708 74.976 110.366 74.074 109.683 73.418C109 72.7347 107.961 72.393 106.567 72.393C104.244 72.393 102.043 73.254 99.9662 74.976V69.195C100.868 68.539 102.043 67.9787 103.492 67.514C104.941 67.0493 106.362 66.817 107.756 66.817C110.544 66.817 112.758 67.555 114.398 69.031C116.065 70.4797 116.899 72.516 116.899 75.14C116.899 79.8687 113.892 84.4607 107.879 88.916H117.391V94Z" fill="black"/>
<defs>
<linearGradient id="paint0_linear" x1="175.955" y1="158.526" x2="245.016" y2="10.8595" gradientUnits="userSpaceOnUse">
<stop stop-color="#703C00"/>
<stop offset="1" stop-color="#EF9F40" stop-opacity="0.95"/>
</linearGradient>
<linearGradient id="paint1_linear" x1="127.105" y1="204.91" x2="-12.1655" y2="68.6032" gradientUnits="userSpaceOnUse">
<stop stop-color="#B56A10"/>
<stop offset="1" stop-color="#E9993B"/>
</linearGradient>
</defs>
</svg>
