<svg width="704" height="83" viewBox="0 0 704 83" fill="none" xmlns="http://www.w3.org/2000/svg">
<path d="M515.639 81.9232L2.71267 81.9232L2.71267 26.4448L105.926 13.761L209.139 1.07719L701.501 1.07717L701.501 52.1829L515.639 81.9232Z" fill="#F5A649"/>
<path d="M2.71267 26.4448L515.639 26.4448M2.71267 26.4448L2.71267 81.9232L515.639 81.9232M2.71267 26.4448L105.926 13.761M515.639 26.4448L515.639 81.9232M515.639 26.4448L609.801 14.5391M515.639 81.9232L701.501 52.1829L701.501 1.07717M701.501 1.07717L209.139 1.07719L105.926 13.761M701.501 1.07717L609.801 14.5391M609.801 14.5391L105.926 13.761" stroke="black"/>
<path d="M701.551 1.31348L514.747 26.3954V81.9076L701.551 52.0306V1.31348Z" fill="url(#paint0_linear)" stroke="black"/>
<path d="M514.747 26.3955H2.0752V82.0921H514.747V26.3955Z" fill="url(#paint1_linear)" stroke="black"/>
<rect x="419.25" y="31.2539" width="90.1845" height="39.8929" fill="#C4C4C4" stroke="black" stroke-width="0.5"/>
<rect x="503.718" y="35.1467" width="1.19322" height="33.1429" fill="black"/>
<rect x="500.139" y="35.1467" width="2.38643" height="33.1429" fill="black"/>
<rect x="471.501" y="35.1467" width="2.38643" height="33.1429" fill="black"/>
<rect x="467.922" y="35.1467" width="2.38643" height="33.1429" fill="black"/>
<rect x="496.56" y="35.1467" width="2.38643" height="33.1429" fill="black"/>
<rect x="495.365" y="35.1467" width="2.38643" height="33.1429" fill="black"/>
<rect x="492.979" y="35.1467" width="1.19322" height="33.1429" fill="black"/>
<rect x="490.594" y="35.1467" width="1.19322" height="33.1429" fill="black"/>
<line x1="489.649" y1="35.1467" x2="489.649" y2="68.2896" stroke="black" stroke-width="0.5"/>
<line x1="488.456" y1="35.1467" x2="488.456" y2="68.2896" stroke="black" stroke-width="0.5"/>
<line x1="480.104" y1="35.1467" x2="480.104" y2="68.2896" stroke="black" stroke-width="0.5"/>
<line x1="477.968" y1="35.1467" x2="477.968" y2="68.2896" stroke="black"/>
<line x1="476.523" y1="35.1467" x2="476.523" y2="68.2896" stroke="black" stroke-width="0.5"/>
<line x1="475.331" y1="35.1467" x2="475.331" y2="68.2896" stroke="black" stroke-width="0.5"/>
<line x1="487.264" y1="35.1467" x2="487.264" y2="68.2896" stroke="black" stroke-width="0.5"/>
<line x1="485.128" y1="35.1467" x2="485.128" y2="68.2896" stroke="black"/>
<line x1="466.035" y1="35.1467" x2="466.035" y2="68.2896" stroke="black"/>
<line x1="463.649" y1="35.1467" x2="463.649" y2="68.2896" stroke="black"/>
<line x1="482.048" y1="35.1467" x2="482.048" y2="68.2896" stroke="black" stroke-width="2"/>
<path fill-rule="evenodd" clip-rule="evenodd" d="M5 66.825C6.60842 62.0954 12.2667 58.6016 19 58.6016C25.7334 58.6016 31.3918 62.0955 33.0001 66.8253C32.3532 65.814 31.087 65.127 29.6308 65.127C28.5054 65.127 27.4934 65.5374 26.7931 66.1907C25.8594 65.5374 24.5101 65.127 23.0095 65.127C21.4006 65.127 19.9656 65.5988 19.0303 66.3359C18.095 65.5988 16.66 65.127 15.0511 65.127C13.5318 65.127 12.1676 65.5476 11.2328 66.2152C10.5317 65.5476 9.50855 65.127 8.36909 65.127C6.91304 65.127 5.64691 65.8139 5 66.825Z" fill="black"/>
<path d="M14.9902 75.7754C14.9902 77.004 15.8878 78 16.9949 78C18.1021 78 18.9996 77.004 18.9996 75.7754V57" stroke="black" stroke-width="2" stroke-linecap="round"/>
<path d="M451.106 65H433.23V60.367C436.182 58.3443 438.779 56.103 441.02 53.643C443.289 51.183 444.423 49.01 444.423 47.124C444.423 45.976 444.081 45.074 443.398 44.418C442.715 43.7347 441.676 43.393 440.282 43.393C437.959 43.393 435.758 44.254 433.681 45.976V40.195C434.583 39.539 435.758 38.9787 437.207 38.514C438.656 38.0493 440.077 37.817 441.471 37.817C444.259 37.817 446.473 38.555 448.113 40.031C449.78 41.4797 450.614 43.516 450.614 46.14C450.614 50.8687 447.607 55.4607 441.594 59.916H451.106V65Z" fill="black"/>
<defs>
<linearGradient id="paint0_linear" x1="527.201" y1="75.6371" x2="533.562" y2="-9.7551" gradientUnits="userSpaceOnUse">
<stop stop-color="#703C00"/>
<stop offset="1" stop-color="#EF9F40" stop-opacity="0.95"/>
</linearGradient>
<linearGradient id="paint1_linear" x1="380.871" y1="97.7683" x2="359.795" y2="-31.7318" gradientUnits="userSpaceOnUse">
<stop stop-color="#B56A10"/>
<stop offset="1" stop-color="#E9993B"/>
</linearGradient>
</defs>
</svg>
