<svg width="107" height="225" viewBox="0 0 107 225" fill="none" xmlns="http://www.w3.org/2000/svg">
<path d="M77.9066 221.116L1.40478 221.116L1.40478 71.3762L16.7988 37.1418L32.1928 2.9074L105.627 2.90735L105.627 140.845L77.9066 221.116Z" fill="#F5A649"/>
<path d="M1.40478 71.3762L77.9066 71.3762M1.40478 71.3762L1.40478 221.116L77.9066 221.116M1.40478 71.3762L16.7988 37.1418M77.9066 71.3762L77.9066 221.116M77.9066 71.3762L91.9506 39.2421M77.9066 221.116L105.627 140.845L105.627 2.90735M105.627 2.90735L32.1928 2.9074L16.7988 37.1418M105.627 2.90735L91.9506 39.2421M91.9506 39.2421L16.7988 37.1418" stroke="black"/>
<path d="M105.635 3.54541L77.7734 71.2432V221.074L105.635 140.434V3.54541Z" fill="url(#paint0_linear)" stroke="black"/>
<path d="M77.7734 71.2434H1.30957V221.572H77.7734V71.2434Z" fill="url(#paint1_linear)" stroke="black"/>
<rect x="16.25" y="76.373" width="56.7116" height="30.1429" fill="#C4C4C4" stroke="black" stroke-width="0.5"/>
<rect x="69.4473" y="79.2659" width="0.752785" height="25.1429" fill="black"/>
<rect x="67.1895" y="79.2659" width="1.50557" height="25.1429" fill="black"/>
<rect x="49.1221" y="79.2659" width="1.50557" height="25.1429" fill="black"/>
<rect x="46.8643" y="79.2659" width="1.50557" height="25.1429" fill="black"/>
<rect x="64.9307" y="79.2659" width="1.50557" height="25.1429" fill="black"/>
<rect x="64.1777" y="79.2659" width="1.50557" height="25.1429" fill="black"/>
<rect x="62.6729" y="79.2659" width="0.752785" height="25.1429" fill="black"/>
<rect x="61.167" y="79.2659" width="0.752785" height="25.1429" fill="black"/>
<line x1="60.6641" y1="79.2659" x2="60.6641" y2="104.409" stroke="black" stroke-width="0.5"/>
<line x1="59.9111" y1="79.2659" x2="59.9111" y2="104.409" stroke="black" stroke-width="0.5"/>
<line x1="54.6416" y1="79.2659" x2="54.6416" y2="104.409" stroke="black" stroke-width="0.5"/>
<line x1="53.3867" y1="79.2659" x2="53.3867" y2="104.409" stroke="black"/>
<line x1="52.3838" y1="79.2659" x2="52.3838" y2="104.409" stroke="black" stroke-width="0.5"/>
<line x1="51.6309" y1="79.2659" x2="51.6309" y2="104.409" stroke="black" stroke-width="0.5"/>
<line x1="59.1582" y1="79.2659" x2="59.1582" y2="104.409" stroke="black" stroke-width="0.5"/>
<line x1="57.9033" y1="79.2659" x2="57.9033" y2="104.409" stroke="black"/>
<line x1="45.8584" y1="79.2659" x2="45.8584" y2="104.409" stroke="black"/>
<line x1="44.3525" y1="79.2659" x2="44.3525" y2="104.409" stroke="black"/>
<line x1="56.1445" y1="79.2659" x2="56.1445" y2="104.409" stroke="black" stroke-width="2"/>
<path d="M33.7186 104H28.6436V86.605L22.8686 90.07V84.855L29.3086 81.11H33.7186V104Z" fill="black"/>
<defs>
<linearGradient id="paint0_linear" x1="79.6309" y1="204.15" x2="190.526" y2="121.889" gradientUnits="userSpaceOnUse">
<stop stop-color="#703C00"/>
<stop offset="1" stop-color="#EF9F40" stop-opacity="0.95"/>
</linearGradient>
<linearGradient id="paint1_linear" x1="57.8061" y1="263.883" x2="-51.4226" y2="226.796" gradientUnits="userSpaceOnUse">
<stop stop-color="#B56A10"/>
<stop offset="1" stop-color="#E9993B"/>
</linearGradient>
</defs>
</svg>
