<svg width="272" height="152" viewBox="0 0 272 152" fill="none" xmlns="http://www.w3.org/2000/svg">
<path d="M199.224 149.427L1.04821 149.427L1.04821 48.2351L40.9261 25.0999L80.804 1.96478L271.035 1.96475L271.035 95.1812L199.224 149.427Z" fill="#F5A649"/>
<path d="M1.04821 48.2351L199.224 48.2351M1.04821 48.2351L1.04821 149.427L199.224 149.427M1.04821 48.2351L40.9261 25.0999M199.224 48.2351L199.224 149.427M199.224 48.2351L235.605 26.5193M199.224 149.427L271.035 95.1812L271.035 1.96475M271.035 1.96475L80.804 1.96478L40.9261 25.0999M271.035 1.96475L235.605 26.5193M235.605 26.5193L40.9261 25.0999" stroke="black"/>
<path d="M271.054 2.396L198.88 48.1453V149.399L271.054 94.9037V2.396Z" fill="url(#paint0_linear)" stroke="black"/>
<path d="M198.879 48.1453H0.801758V149.736H198.879V48.1453Z" fill="url(#paint1_linear)" stroke="black"/>
<rect x="93.25" y="53.8413" width="99.9286" height="51.0357" fill="#C4C4C4" stroke="black" stroke-width="0.5"/>
<rect x="186.821" y="58.877" width="1.32143" height="42.2857" fill="black"/>
<rect x="182.857" y="58.877" width="2.64286" height="42.2857" fill="black"/>
<rect x="151.143" y="58.877" width="2.64286" height="42.2857" fill="black"/>
<rect x="147.179" y="58.877" width="2.64286" height="42.2857" fill="black"/>
<rect x="178.893" y="58.877" width="2.64286" height="42.2857" fill="black"/>
<rect x="177.571" y="58.877" width="2.64286" height="42.2857" fill="black"/>
<rect x="174.929" y="58.877" width="1.32143" height="42.2857" fill="black"/>
<rect x="172.286" y="58.877" width="1.32143" height="42.2857" fill="black"/>
<line x1="171.214" y1="58.877" x2="171.214" y2="101.163" stroke="black" stroke-width="0.5"/>
<line x1="169.893" y1="58.877" x2="169.893" y2="101.163" stroke="black" stroke-width="0.5"/>
<line x1="160.643" y1="58.877" x2="160.643" y2="101.163" stroke="black" stroke-width="0.5"/>
<line x1="158.25" y1="58.877" x2="158.25" y2="101.163" stroke="black"/>
<line x1="156.679" y1="58.877" x2="156.679" y2="101.163" stroke="black" stroke-width="0.5"/>
<line x1="155.357" y1="58.877" x2="155.357" y2="101.163" stroke="black" stroke-width="0.5"/>
<line x1="168.571" y1="58.877" x2="168.571" y2="101.163" stroke="black" stroke-width="0.5"/>
<line x1="166.179" y1="58.877" x2="166.179" y2="101.163" stroke="black"/>
<line x1="145.035" y1="58.877" x2="145.035" y2="101.163" stroke="black"/>
<line x1="142.393" y1="58.877" x2="142.393" y2="101.163" stroke="black"/>
<line x1="162.715" y1="58.877" x2="162.715" y2="101.163" stroke="black" stroke-width="2"/>
<path d="M6 97H28C28 97 27.6791 121.048 17.6037 121.973L18.5 122V142H22V144H12.5V142H16V121.924C6.31244 120.414 6 97 6 97Z" fill="black"/>
<path d="M16 121.924C16.3228 121.974 16.656 122 17 122C27.6664 122 28 97 28 97H6C6 97 6.31244 120.414 16 121.924ZM16 121.924V142H18.5V122L16 121.924ZM12.5 142H22V144H12.5V142Z" stroke="black"/>
<path d="M130.803 96H108.131V90.124C111.875 87.5587 115.169 84.716 118.011 81.596C120.889 78.476 122.327 75.72 122.327 73.328C122.327 71.872 121.894 70.728 121.027 69.896C120.161 69.0293 118.843 68.596 117.075 68.596C114.129 68.596 111.338 69.688 108.703 71.872V64.54C109.847 63.708 111.338 62.9973 113.175 62.408C115.013 61.8187 116.815 61.524 118.583 61.524C122.119 61.524 124.927 62.46 127.007 64.332C129.122 66.1693 130.179 68.752 130.179 72.08C130.179 78.0773 126.366 83.9013 118.739 89.552H130.803V96Z" fill="black"/>
<defs>
<linearGradient id="paint0_linear" x1="203.691" y1="137.962" x2="252.709" y2="-1.41877" gradientUnits="userSpaceOnUse">
<stop stop-color="#703C00"/>
<stop offset="1" stop-color="#EF9F40" stop-opacity="0.95"/>
</linearGradient>
<linearGradient id="paint1_linear" x1="147.155" y1="178.329" x2="30.0143" y2="25.8669" gradientUnits="userSpaceOnUse">
<stop stop-color="#B56A10"/>
<stop offset="1" stop-color="#E9993B"/>
</linearGradient>
</defs>
</svg>
