<svg width="159" height="110" viewBox="0 0 159 110" fill="none" xmlns="http://www.w3.org/2000/svg">
<path d="M116.726 108.153L1.60918 108.153L1.60918 34.9116L24.7735 18.1668L47.9379 1.42207L158.439 1.42205L158.44 68.8903L116.726 108.153Z" fill="#F5A649"/>
<path d="M1.60918 34.9116L116.726 34.9116M1.60918 34.9116L1.60918 108.153L116.726 108.153M1.60918 34.9116L24.7735 18.1668M116.726 34.9116L116.726 108.153M116.726 34.9116L137.859 19.1941M116.726 108.153L158.44 68.8903L158.439 1.42205M158.439 1.42205L47.9379 1.42207L24.7735 18.1668M158.439 1.42205L137.859 19.1941M137.859 19.1941L24.7735 18.1668" stroke="black"/>
<path d="M158.45 1.73413L116.525 34.8465V108.132L158.45 68.6894V1.73413Z" fill="url(#paint0_linear)" stroke="black"/>
<path d="M116.526 34.8467H1.46582V108.376H116.526V34.8467Z" fill="url(#paint1_linear)" stroke="black"/>
<rect x="45.25" y="40.5605" width="66" height="33.625" fill="#C4C4C4" stroke="black" stroke-width="0.5"/>
<rect x="107.125" y="43.8105" width="0.875" height="28" fill="black"/>
<rect x="104.5" y="43.8105" width="1.75" height="28" fill="black"/>
<rect x="83.5" y="43.8105" width="1.75" height="28" fill="black"/>
<rect x="80.875" y="43.8105" width="1.75" height="28" fill="black"/>
<rect x="101.875" y="43.8105" width="1.75" height="28" fill="black"/>
<rect x="101" y="43.8105" width="1.75" height="28" fill="black"/>
<rect x="99.25" y="43.8105" width="0.875" height="28" fill="black"/>
<rect x="97.5" y="43.8105" width="0.875" height="28" fill="black"/>
<line x1="96.875" y1="43.8105" x2="96.875" y2="71.8105" stroke="black" stroke-width="0.5"/>
<line x1="96" y1="43.8105" x2="96" y2="71.8105" stroke="black" stroke-width="0.5"/>
<line x1="89.875" y1="43.8105" x2="89.875" y2="71.8105" stroke="black" stroke-width="0.5"/>
<line x1="88.375" y1="43.8105" x2="88.375" y2="71.8105" stroke="black"/>
<line x1="87.25" y1="43.8105" x2="87.25" y2="71.8105" stroke="black" stroke-width="0.5"/>
<line x1="86.375" y1="43.8105" x2="86.375" y2="71.8105" stroke="black" stroke-width="0.5"/>
<line x1="95.125" y1="43.8105" x2="95.125" y2="71.8105" stroke="black" stroke-width="0.5"/>
<line x1="93.625" y1="43.8105" x2="93.625" y2="71.8105" stroke="black"/>
<line x1="79.625" y1="43.8105" x2="79.625" y2="71.8105" stroke="black"/>
<line x1="77.875" y1="43.8105" x2="77.875" y2="71.8105" stroke="black"/>
<line x1="91.5" y1="43.8105" x2="91.5" y2="71.8105" stroke="black" stroke-width="2"/>
<path fill-rule="evenodd" clip-rule="evenodd" d="M4 92.825C5.60842 88.0954 11.2667 84.6016 18 84.6016C24.7334 84.6016 30.3918 88.0955 32.0001 92.8253C31.3532 91.814 30.087 91.127 28.6308 91.127C27.5054 91.127 26.4934 91.5374 25.7931 92.1907C24.8594 91.5374 23.5101 91.127 22.0095 91.127C20.4006 91.127 18.9656 91.5988 18.0303 92.3359C17.095 91.5988 15.66 91.127 14.0511 91.127C12.5318 91.127 11.1676 91.5476 10.2328 92.2152C9.53169 91.5476 8.50855 91.127 7.36909 91.127C5.91304 91.127 4.64691 91.8139 4 92.825Z" fill="black"/>
<path d="M13.9902 101.775C13.9902 103.004 14.8878 104 15.9949 104C17.1021 104 17.9996 103.004 17.9996 101.775V83" stroke="black" stroke-width="2" stroke-linecap="round"/>
<path d="M68.446 68H54.93V64.497C57.162 62.9677 59.1253 61.273 60.82 59.413C62.5353 57.553 63.393 55.91 63.393 54.484C63.393 53.616 63.1347 52.934 62.618 52.438C62.1013 51.9213 61.316 51.663 60.262 51.663C58.5053 51.663 56.8417 52.314 55.271 53.616V49.245C55.953 48.749 56.8417 48.3253 57.937 47.974C59.0323 47.6227 60.107 47.447 61.161 47.447C63.269 47.447 64.943 48.005 66.183 49.121C67.4437 50.2163 68.074 51.756 68.074 53.74C68.074 57.3153 65.8007 60.7873 61.254 64.156H68.446V68Z" fill="black"/>
<defs>
<linearGradient id="paint0_linear" x1="119.32" y1="99.854" x2="160.992" y2="4.75637" gradientUnits="userSpaceOnUse">
<stop stop-color="#885416"/>
<stop offset="1" stop-color="#EF9F40" stop-opacity="0.95"/>
</linearGradient>
<linearGradient id="paint1_linear" x1="86.4796" y1="129.071" x2="-1.18228" y2="37.5022" gradientUnits="userSpaceOnUse">
<stop stop-color="#B56A10"/>
<stop offset="1" stop-color="#E9993B"/>
</linearGradient>
</defs>
</svg>
