<svg width="280" height="108" viewBox="0 0 280 108" fill="none" xmlns="http://www.w3.org/2000/svg">
<path d="M204.863 106.148L1.07801 106.148L1.07801 34.2644L42.0845 17.8301L83.0909 1.39571L278.705 1.39568L278.705 67.6132L204.863 106.148Z" fill="#F5A649"/>
<path d="M1.07801 34.2644L204.863 34.2644M1.07801 34.2644L1.07801 106.148L204.863 106.148M1.07801 34.2644L42.0845 17.8301M204.863 34.2644L204.863 106.148M204.863 34.2644L242.273 18.8383M204.863 106.148L278.705 67.6132L278.705 1.39568M278.705 1.39568L83.0909 1.39571L42.0845 17.8301M278.705 1.39568L242.273 18.8383M242.273 18.8383L42.0845 17.8301" stroke="black"/>
<path d="M278.723 1.7019L204.507 34.2005V106.127L278.723 67.4159V1.7019Z" fill="url(#paint0_linear)" stroke="black"/>
<path d="M204.509 34.2006H0.825195V106.367H204.509V34.2006Z" fill="url(#paint1_linear)" stroke="black"/>
<rect x="92.5195" y="38.6095" width="88.4307" height="40.572" fill="#C4C4C4" stroke="black" stroke-width="0.5"/>
<rect x="175.349" y="42.572" width="1.17014" height="33.7001" fill="black"/>
<rect x="171.839" y="42.572" width="2.34028" height="33.7001" fill="black"/>
<rect x="143.756" y="42.572" width="2.34028" height="33.7001" fill="black"/>
<rect x="140.245" y="42.572" width="2.34028" height="33.7001" fill="black"/>
<rect x="168.328" y="42.572" width="2.34028" height="33.7001" fill="black"/>
<rect x="167.158" y="42.572" width="2.34028" height="33.7001" fill="black"/>
<rect x="164.818" y="42.572" width="1.17014" height="33.7001" fill="black"/>
<rect x="162.478" y="42.572" width="1.17014" height="33.7001" fill="black"/>
<line x1="161.557" y1="42.572" x2="161.557" y2="76.2721" stroke="black" stroke-width="0.5"/>
<line x1="160.388" y1="42.572" x2="160.388" y2="76.2721" stroke="black" stroke-width="0.5"/>
<line x1="152.196" y1="42.572" x2="152.196" y2="76.2721" stroke="black" stroke-width="0.5"/>
<line x1="150.106" y1="42.572" x2="150.106" y2="76.2721" stroke="black"/>
<line x1="148.687" y1="42.572" x2="148.687" y2="76.2721" stroke="black" stroke-width="0.5"/>
<line x1="147.515" y1="42.572" x2="147.515" y2="76.2721" stroke="black" stroke-width="0.5"/>
<line x1="159.217" y1="42.572" x2="159.217" y2="76.2721" stroke="black" stroke-width="0.5"/>
<line x1="157.128" y1="42.572" x2="157.128" y2="76.2721" stroke="black"/>
<line x1="138.405" y1="42.572" x2="138.405" y2="76.2721" stroke="black"/>
<line x1="136.064" y1="42.572" x2="136.064" y2="76.2721" stroke="black"/>
<line x1="154.115" y1="42.572" x2="154.115" y2="76.2721" stroke="black" stroke-width="2"/>
<path d="M125.024 65.16C125.024 67.288 124.213 68.998 122.592 70.29C120.996 71.5567 118.792 72.19 115.98 72.19C113.193 72.19 110.913 71.7593 109.14 70.898V65.578C111.167 66.6927 113.257 67.25 115.41 67.25C116.651 67.25 117.614 66.984 118.298 66.452C119.007 65.92 119.362 65.2487 119.362 64.438C119.362 62.5887 117.652 61.664 114.232 61.664H112.902V57.104H114.232C115.575 57.104 116.677 56.876 117.538 56.42C118.399 55.964 118.83 55.28 118.83 54.368C118.83 52.62 117.69 51.746 115.41 51.746C113.662 51.746 111.901 52.2907 110.128 53.38V48.212C112.003 47.2747 113.89 46.806 115.79 46.806C118.475 46.806 120.603 47.452 122.174 48.744C123.745 50.0107 124.53 51.67 124.53 53.722C124.53 56.534 123.251 58.472 120.692 59.536C123.58 60.22 125.024 62.0947 125.024 65.16Z" fill="black"/>
<defs>
<linearGradient id="paint0_linear" x1="209.455" y1="98.0028" x2="234.977" y2="-7.05293" gradientUnits="userSpaceOnUse">
<stop stop-color="#703C00"/>
<stop offset="1" stop-color="#EF9F40" stop-opacity="0.95"/>
</linearGradient>
<linearGradient id="paint1_linear" x1="151.32" y1="126.678" x2="79.9952" y2="-7.70218" gradientUnits="userSpaceOnUse">
<stop stop-color="#B56A10"/>
<stop offset="1" stop-color="#E9993B"/>
</linearGradient>
</defs>
</svg>
