<svg width="311" height="232" viewBox="0 0 311 232" fill="none" xmlns="http://www.w3.org/2000/svg">
<path d="M66.5004 56C78.5004 36 66.8338 18 59.5004 11.5C63.5003 12.3333 72 14.5 74 16.5C76 18.5 155.167 20.3333 194.5 21C257.437 39.5663 288.603 35.006 301.144 27.4282C303.134 25.3608 305.25 23.2194 307.5 21C306.576 23.0974 304.544 25.3737 301.144 27.4282C237.239 93.8259 304.047 83.8135 289.5 126C276.224 164.5 288 204.333 296 217C252 175.4 189.667 187 164 198L134 200.5L109 195C96.3333 189 70.1001 176.5 66.5004 174.5C62.9008 172.5 30.6669 179 15 182.5C32.1668 177.333 63.6004 159.3 52.0004 128.5C37.5004 90 51.5004 81 66.5004 56Z" fill="url(#paint0_radial)" stroke="black"/>
<path d="M46.1974 179.976C77.2041 176.587 94.1357 194.44 122.171 200.763C116.014 198.787 110.249 195.268 105.106 191.093C99.5637 188.266 93.3919 184.605 86.1974 179.976C78.6974 174.809 57.4974 166.976 32.6974 176.976C46.3641 166.976 70.4974 140.276 57.6974 113.476C41.6974 79.9758 64.6974 73.9758 72.1974 53.9758C78.1974 37.9758 72.6974 23.5353 69.1974 18.3151C71.3641 21.4222 91.3974 26.7043 154.197 22.9758C158.447 22.7235 162.61 22.5547 166.684 22.4617C172.99 20.1279 180.573 18.4235 189.197 18.3151C145.041 15.2022 103.43 16.6386 86.1974 15.9758C60.1974 14.9758 49.6974 -4.52423 49.6974 0.975779C49.6974 13.7278 67.5345 21.3327 69.1974 33.9758C72.0464 55.6377 51.7961 63.8569 46.1974 84.9758C39.7769 109.194 48.2471 124.792 41.6974 148.976C35.1974 172.976 23.6974 175.476 3.69739 184.476C-12.4712 191.752 28.5721 181.902 46.1974 179.976Z" fill="black"/>
<path d="M166.684 22.4617C157.197 25.9726 150.601 30.9079 147.697 33.9758C152.216 30.8778 161.438 25.8261 172.479 22.3792C170.568 22.3899 168.636 22.4171 166.684 22.4617Z" fill="black"/>
<path d="M99.6974 94.9758C110.197 109.309 141.797 134.076 184.197 118.476C187.531 116.976 195.997 112.576 203.197 106.976C155.755 133.756 114.43 110.134 99.6974 94.9758Z" fill="black"/>
<path d="M105.106 191.093C115.347 196.317 123.439 198.692 131.864 199.067C109.959 192.16 91.9223 175.861 84.1974 166.476C87.9426 173.053 95.4224 183.234 105.106 191.093Z" fill="black"/>
<path d="M282.426 108.42C282.096 106.48 281.713 104.521 281.288 102.545C270.589 90.5934 255.009 84.6883 245.697 82.9758C255.605 86.3526 272.041 94.9565 282.426 108.42Z" fill="black"/>
<path d="M305.197 229.476C324.264 241.052 287.881 194.175 285.697 171.976C283.833 153.025 289.347 149.913 291.972 134C291.771 124.133 287.956 115.587 282.426 108.42C284.711 121.811 284.547 134.277 279.197 144.976C271.325 160.72 276.064 190.951 291 209C274.065 194.4 239.812 176.389 197.697 185.976C164.156 193.611 147.441 199.759 131.864 199.067C138.974 201.309 146.492 202.562 154.197 202.267C184.475 198.776 207.334 183.672 240.697 192.976C268.576 200.75 291.197 220.976 305.197 229.476Z" fill="black"/>
<path d="M292.697 128.476C291.695 117.741 287.249 109.205 281.288 102.545C281.713 104.521 282.096 106.48 282.426 108.42C287.956 115.587 291.771 124.133 291.972 134C292.25 132.314 292.496 130.484 292.697 128.476Z" fill="black"/>
<path d="M105.106 191.093C110.249 195.268 116.014 198.787 122.171 200.763C125.508 201.516 129.003 202.105 132.697 202.476C140.362 203.245 147.463 203.043 154.197 202.267C146.492 202.562 138.974 201.309 131.864 199.067C123.439 198.692 115.347 196.317 105.106 191.093Z" fill="black"/>
<path d="M310.197 15.9758C307.697 -0.524193 317.697 41.7546 255.697 27.4758C236.277 23.0031 214.942 20.3022 194 18.6713C186.586 18.779 179.196 20.2821 172.479 22.3792C225.512 22.0834 234.558 45.1121 275.197 41.4758C279.239 41.1141 292.5 35 292.5 35C292.5 35 261.963 61.4934 267 78C269.34 85.6687 279.709 95.2111 281.288 102.545C287.249 109.205 291.695 117.741 292.697 128.476C295.481 100.687 276.227 83.2423 284.197 56.4758C289.917 37.2657 312.697 32.4758 310.197 15.9758Z" fill="black"/>
<path d="M189.197 18.3151C180.573 18.4235 172.99 20.1279 166.684 22.4617C168.636 22.4171 170.568 22.3899 172.479 22.3792C179.196 20.2821 186.586 18.779 194 18.6713C192.396 18.5464 190.795 18.4278 189.197 18.3151Z" fill="black"/>
<defs>
<radialGradient id="paint0_radial" cx="0" cy="0" r="1" gradientUnits="userSpaceOnUse" gradientTransform="translate(161 88) rotate(89.889) scale(129 183.613)">
<stop offset="0.253125" stop-color="#FFBBBB"/>
<stop offset="0.891933" stop-color="#EF0606"/>
</radialGradient>
</defs>
</svg>
