<svg width="595" height="184" viewBox="0 0 595 184" fill="none" xmlns="http://www.w3.org/2000/svg">
<path d="M113.245 61.9216L103.258 70.1983L103.044 77.1592L107.827 85.1356L115.082 89.812L121.314 89.1775L125.87 83.4993L129.745 74.2805L129.692 66.6649L128.209 61.1603L122.29 59.7573L113.245 61.9216Z" fill="url(#paint0_linear)" stroke="black"/>
<path d="M20.0345 55.2863L37.9716 38.4188L49.9028 35.8403L72.7027 38.3727C79.0668 40.8668 92.0327 46.0635 92.984 46.8972C93.9353 47.731 99.6107 55.6486 102.33 59.5032L101.735 77.6938L90.8788 93.1986L75.6541 103.613L55.8668 109.398L44.1762 108.823L33.1136 104.173L23.4541 93.6048L15.8522 76.8503L20.0345 55.2863Z" fill="url(#paint1_radial)" stroke="black"/>
<path fill-rule="evenodd" clip-rule="evenodd" d="M104.897 65.2841C105.554 55.9784 97.9714 36.3394 62.384 32.229C17.8997 27.0909 12.4411 63.3049 12.4476 73.6126C12.4541 83.9204 20.6703 113.408 53.4842 111.471C79.7352 109.922 96.7642 91.5154 101.997 82.506C107.774 88.5496 117.743 96.5708 124.557 88.1914C126.291 86.0586 128.279 83.302 129.807 80.093C232.449 94.4893 247.622 92.1888 241.336 85.2077C236.307 79.6228 166.554 72.5791 132.306 69.7554C132.298 66.8729 131.671 63.8346 130.142 60.7086C126.676 53.6216 111.346 61.1246 104.897 65.2841ZM30.897 50.089C23.0118 58.5261 11.3524 79.2977 27.7964 94.8873C48.3514 114.374 91.015 103.198 98.3144 76.7984C104.154 55.6789 93.8316 49.1822 87.9405 48.5737C86.0441 49.6444 82.3725 54.0785 82.8564 63.2503C83.4613 74.7151 70.2972 69.9037 74.5595 59.763C77.9693 51.6505 81.1644 46.6296 82.3357 45.1332L74.0388 41.6459C71.2441 45.7142 65.7041 55.2817 65.9018 61.0054C66.1488 68.16 59.4401 61.0267 59.4486 58.293C59.4688 51.7931 60.7515 47.4509 67.1982 39.8555C65.4107 39.2849 61.516 38.4434 60.2373 39.6416C58.6389 41.1392 52.1204 52.501 52.1002 59.001C52.0801 65.501 40.944 59.7356 44.6251 50.9778C47.5699 43.9715 50.2613 40.1491 51.2389 39.1136C48.6759 38.7595 43.1864 38.6579 41.7327 41.0841C39.9156 44.117 38.7142 50.8465 40.133 56.5036C41.5519 62.1606 30.7097 60.8577 30.897 50.089ZM125.203 63.151C120.511 59.4983 109.506 68.6664 104.4 73.9326C105.609 80.9492 113.667 93.5185 121.288 85.3697C130.987 74.9995 129.427 66.4393 125.203 63.151Z" fill="black"/>
<path d="M162.397 58.7746L174.29 72.3691L168.758 84.2705L159.874 98.7732L150.69 103.663L140.585 99.869L135.258 94.1577L138.743 82.5021L129.389 72.7555L132.432 68.6035L141.182 63.1553L139.448 60.9208L135.984 52.4208L141.387 45.5426L148.828 46.4807L162.397 58.7746Z" fill="url(#paint2_angular)" stroke="black"/>
<path d="M206.951 93.1176L190.436 52.2306L204.96 40.9588L209.787 50.6387L217.703 71.795L225.498 89.9124L221.521 97.4743L208.931 97.3989L206.951 93.1176Z" fill="url(#paint3_linear)" stroke="black"/>
<path d="M231.856 59.4685L228.83 47.496L217.67 44.0732L209.358 46.0489L213.189 59.6348L217.765 71.2989L223.147 84.5763C224.674 87.1207 227.678 92.6062 227.478 94.1936C227.278 95.7811 231.363 95.3554 233.431 94.9442L246.462 87.5159L245.416 79.8247L236.558 70.1405L231.856 59.4685Z" fill="url(#paint4_linear)" stroke="black"/>
<path d="M193.588 63.2107L187.969 52.6666L180.49 52.6015L177.592 58.1705L175.229 64.9279L174.165 73.3611L178.063 82.4198C179.498 84.6485 193.37 86.6372 190.148 90.4949C189.254 91.5642 201.872 94.5741 203.787 94.2305L204.614 87.6762L203.588 80.9647L197.981 72.3319L193.588 63.2107Z" fill="url(#paint5_linear)" stroke="black"/>
<path d="M289.655 60.7082L298.91 47.2603L284.099 36.8256L270.884 41.711L262.871 53.2997L261.245 66.1976L281.817 82.9021L300.789 88.3178L304.77 76.7248L289.655 60.7082Z" fill="url(#paint6_angular)" stroke="black"/>
<path d="M245.508 51.1107L254.496 55.7716L258.639 66.8771L253.603 78.8411L247.771 81.1296L240.214 73.1213L233.59 61.703L233.974 50.6644L245.508 51.1107Z" fill="url(#paint7_linear)" stroke="black"/>
<path fill-rule="evenodd" clip-rule="evenodd" d="M260.387 56.2311C263.871 45.9192 275.363 27.781 293.462 37.723C316.085 50.1505 287.921 57.6867 293.682 63.9566C299.443 70.2265 314.137 73.591 305.749 88.1562C299.039 99.8084 272.536 81.113 260.124 70.3088C257.735 81.2626 246.532 102.965 220.833 102.144C195.134 101.323 178.802 86.4296 173.848 79.0856C170.115 90.038 159.203 110.5 145.417 104.731C128.184 97.5183 135.012 91.3238 134.337 84.6872C133.662 78.0506 126.467 79.1593 127.838 72.2768C129.21 65.3943 136.714 65.8364 137.277 61.3718C137.839 56.9071 131.824 56.6527 134.684 49.9578C137.544 43.263 144.37 33.088 172.994 65.875C172.572 54.5667 179.801 33.4719 212.093 39.5591C244.385 45.6463 257.744 53.2101 260.387 56.2311ZM286.325 42.3667C271.297 36.8436 265.623 50.6757 264.664 58.2822C264.12 62.2117 264.081 64.4367 266.885 68.6415C283.426 85.3417 304.757 88.0311 302.844 79.2226C300.931 70.4141 284.748 66.8619 286.182 59.4834C287.617 52.1048 305.109 49.2706 286.325 42.3667ZM254.675 61.5585C252.451 53.6179 242.385 52.4496 237.63 52.858C237.022 64.0701 245.008 74.2825 249.076 77.9872C251.869 75.8195 256.899 69.4991 254.675 61.5585ZM241.256 84.0566C231.391 75.959 226.296 57.4766 224.982 49.2475C222.42 48.2525 216.675 46.3859 214.194 46.8794C211.092 47.4963 221.354 78.0197 233.001 89.5674C237.07 89.274 240.2 85.7713 241.256 84.0566ZM220.037 92.4684C219.754 78.725 207.919 56.6715 202.038 47.3626C199.474 47.7113 194.246 49.2025 193.846 52.3773C193.446 55.5522 205.598 81.7447 211.724 94.4441C215.693 94.9445 218.92 93.3355 220.037 92.4684ZM199.823 88.9119C200.523 83.3559 192.034 65.4197 187.701 57.1461C184.062 58.0312 176.768 62.3192 176.708 72.3908C176.648 82.4623 192.093 87.6014 199.823 88.9119ZM140.762 49.7162C145.781 41.8825 162.518 61.0265 170.259 71.5777C162.033 108.841 143.683 102.496 138.914 96.3513C134.145 90.2066 143.758 89.9067 143.95 84.3873C144.142 78.868 132.424 75.8787 133.049 70.918C133.675 65.9572 144.713 66.3411 144.222 62.2474C143.73 58.1537 134.488 59.5083 140.762 49.7162Z" fill="black"/>
<path d="M361.205 65.9216L371.192 74.1983L371.406 81.1592L366.623 89.1356L359.369 93.812L353.136 93.1775L348.58 87.4993L344.705 78.2805L344.758 70.6649L346.241 65.1603L352.16 63.7573L361.205 65.9216Z" fill="url(#paint8_linear)" stroke="black"/>
<path d="M454.416 59.2863L436.479 42.4188L424.547 39.8403L401.748 42.3727C395.383 44.8668 382.417 50.0635 381.466 50.8972C380.515 51.731 374.839 59.6486 372.121 63.5032L372.716 81.6938L383.571 97.1986L398.796 107.613L418.583 113.398L430.274 112.823L441.337 108.173L450.996 97.6048L458.598 80.8503L454.416 59.2863Z" fill="url(#paint9_radial)" stroke="black"/>
<path fill-rule="evenodd" clip-rule="evenodd" d="M369.553 69.2841C368.896 59.9784 376.479 40.3394 412.066 36.229C456.55 31.0909 462.009 67.3049 462.003 77.6126C461.996 87.9204 453.78 117.408 420.966 115.471C394.715 113.922 377.686 95.5154 372.453 86.506C366.677 92.5496 356.707 100.571 349.893 92.1914C348.159 90.0586 346.171 87.302 344.643 84.093C242.001 98.4893 226.828 96.1888 233.114 89.2077C238.143 83.6228 307.897 76.5791 342.145 73.7554C342.153 70.8729 342.779 67.8346 344.308 64.7086C347.774 57.6216 363.104 65.1246 369.553 69.2841ZM443.553 54.089C451.438 62.5261 463.098 83.2977 446.654 98.8873C426.099 118.374 383.435 107.198 376.136 80.7984C370.296 59.6789 380.619 53.1822 386.51 52.5737C388.406 53.6444 392.078 58.0785 391.594 67.2503C390.989 78.7151 404.153 73.9037 399.891 63.763C396.481 55.6505 393.286 50.6296 392.114 49.1332L400.411 45.6459C403.206 49.7142 408.746 59.2817 408.548 65.0054C408.301 72.16 415.01 65.0267 415.002 62.293C414.981 55.7931 413.699 51.4509 407.252 43.8555C409.04 43.2849 412.934 42.4434 414.213 43.6416C415.811 45.1392 422.33 56.501 422.35 63.001C422.37 69.501 433.506 63.7356 429.825 54.9778C426.88 47.9715 424.189 44.1491 423.211 43.1136C425.774 42.7595 431.264 42.6579 432.717 45.0841C434.535 48.117 435.736 54.8465 434.317 60.5036C432.898 66.1606 443.74 64.8577 443.553 54.089ZM349.247 67.151C353.939 63.4983 364.944 72.6664 370.05 77.9326C368.841 84.9492 360.783 97.5185 353.162 89.3697C343.464 78.9995 345.023 70.4393 349.247 67.151Z" fill="black"/>
<path d="M443.397 70.7746L455.29 84.3691L449.758 96.2705L440.874 110.773L431.69 115.663L421.585 111.869L416.258 106.158L419.743 94.5021L410.389 84.7555L413.432 80.6035L422.182 75.1553L420.448 72.9208L416.984 64.4208L422.387 57.5426L429.828 58.4807L443.397 70.7746Z" fill="url(#paint10_angular)" stroke="black"/>
<path d="M487.951 105.118L471.436 64.2306L485.96 52.9588L490.787 62.6387L498.703 83.795L506.498 101.912L502.521 109.474L489.931 109.399L487.951 105.118Z" fill="url(#paint11_linear)" stroke="black"/>
<path d="M512.856 71.4685L509.83 59.496L498.67 56.0732L490.358 58.0489L494.189 71.6348L498.765 83.2989L504.147 96.5763C505.674 99.1207 508.678 104.606 508.478 106.194C508.278 107.781 512.363 107.355 514.431 106.944L527.462 99.5159L526.416 91.8247L517.558 82.1405L512.856 71.4685Z" fill="url(#paint12_linear)" stroke="black"/>
<path d="M474.588 75.2107L468.969 64.6666L461.49 64.6015L458.592 70.1705L456.229 76.9279L455.165 85.3611L459.063 94.4198C460.498 96.6485 474.37 98.6372 471.148 102.495C470.254 103.564 482.872 106.574 484.787 106.23L485.614 99.6762L484.588 92.9647L478.981 84.3319L474.588 75.2107Z" fill="url(#paint13_linear)" stroke="black"/>
<path d="M570.655 72.7082L579.91 59.2603L565.099 48.8256L551.884 53.711L543.871 65.2997L542.245 78.1976L562.817 94.9021L581.789 100.318L585.77 88.7248L570.655 72.7082Z" fill="url(#paint14_angular)" stroke="black"/>
<path d="M526.508 63.1107L535.496 67.7716L539.639 78.8771L534.603 90.8411L528.771 93.1296L521.214 85.1213L514.59 73.703L514.974 62.6644L526.508 63.1107Z" fill="url(#paint15_linear)" stroke="black"/>
<path fill-rule="evenodd" clip-rule="evenodd" d="M541.387 68.2311C544.871 57.9192 556.363 39.781 574.462 49.723C597.085 62.1505 568.921 69.6867 574.682 75.9566C580.443 82.2265 595.137 85.591 586.749 100.156C580.039 111.808 553.536 93.113 541.124 82.3088C538.735 93.2626 527.532 114.965 501.833 114.144C476.134 113.323 459.802 98.4296 454.848 91.0856C451.115 102.038 440.203 122.5 426.417 116.731C409.184 109.518 416.012 103.324 415.337 96.6872C414.662 90.0506 407.467 91.1593 408.838 84.2768C410.21 77.3943 417.714 77.8364 418.277 73.3718C418.839 68.9071 412.824 68.6527 415.684 61.9578C418.544 55.263 425.37 45.088 453.994 77.875C453.572 66.5667 460.801 45.4719 493.093 51.5591C525.385 57.6463 538.744 65.2101 541.387 68.2311ZM567.325 54.3667C552.297 48.8436 546.623 62.6757 545.664 70.2822C545.12 74.2117 545.081 76.4367 547.885 80.6415C564.426 97.3417 585.757 100.031 583.844 91.2226C581.931 82.4141 565.748 78.8619 567.182 71.4834C568.617 64.1048 586.109 61.2706 567.325 54.3667ZM535.675 73.5585C533.451 65.6179 523.385 64.4496 518.63 64.858C518.022 76.0701 526.008 86.2825 530.076 89.9872C532.869 87.8195 537.899 81.4991 535.675 73.5585ZM522.256 96.0566C512.391 87.959 507.296 69.4766 505.982 61.2475C503.42 60.2525 497.675 58.3859 495.194 58.8794C492.092 59.4963 502.354 90.0197 514.001 101.567C518.07 101.274 521.2 97.7713 522.256 96.0566ZM501.037 104.468C500.754 90.725 488.919 68.6715 483.038 59.3626C480.474 59.7113 475.246 61.2025 474.846 64.3773C474.446 67.5522 486.598 93.7447 492.724 106.444C496.693 106.944 499.92 105.335 501.037 104.468ZM480.823 100.912C481.523 95.3559 473.034 77.4197 468.701 69.1461C465.062 70.0312 457.768 74.3192 457.708 84.3908C457.648 94.4623 473.093 99.6014 480.823 100.912ZM421.762 61.7162C426.781 53.8825 443.518 73.0265 451.259 83.5777C443.033 120.841 424.683 114.496 419.914 108.351C415.145 102.207 424.758 101.907 424.95 96.3873C425.142 90.868 413.424 87.8787 414.049 82.918C414.675 77.9572 425.713 78.3411 425.222 74.2474C424.73 70.1537 415.488 71.5083 421.762 61.7162Z" fill="black"/>
<defs>
<linearGradient id="paint0_linear" x1="104.13" y1="68.1241" x2="128.098" y2="78.1985" gradientUnits="userSpaceOnUse">
<stop stop-color="#EA4AF8"/>
<stop offset="1" stop-color="#400045"/>
</linearGradient>
<radialGradient id="paint1_radial" cx="0" cy="0" r="1" gradientUnits="userSpaceOnUse" gradientTransform="translate(56.3285 72.1681) rotate(23.3052) scale(44.0017 39.9268)">
<stop stop-color="#F14EFF"/>
<stop offset="0.263542" stop-color="#E144EF"/>
<stop offset="0.544792" stop-color="#CA36D7"/>
<stop offset="0.794792" stop-color="#AB22B7"/>
<stop offset="1" stop-color="#760181"/>
</radialGradient>
<radialGradient id="paint2_angular" cx="0" cy="0" r="1" gradientUnits="userSpaceOnUse" gradientTransform="translate(152.15 72.0975) rotate(178.967) scale(22.7335 28.8639)">
<stop offset="0.48954" stop-color="#FB0101"/>
<stop offset="0.992635" stop-color="#18E80A"/>
</radialGradient>
<linearGradient id="paint3_linear" x1="217.49" y1="97.47" x2="196.706" y2="46.4696" gradientUnits="userSpaceOnUse">
<stop offset="0.0447915" stop-color="#792703"/>
<stop offset="0.51875" stop-color="#FB1E04"/>
<stop offset="0.95625" stop-color="#792703"/>
</linearGradient>
<linearGradient id="paint4_linear" x1="238.954" y1="91.105" x2="216.12" y2="44.3816" gradientUnits="userSpaceOnUse">
<stop offset="0.0916665" stop-color="#63590D"/>
<stop offset="0.26875" stop-color="#4C870C"/>
<stop offset="0.492708" stop-color="#1EE30A"/>
<stop offset="0.773958" stop-color="#4C870C"/>
<stop offset="1" stop-color="#63590D"/>
</linearGradient>
<linearGradient id="paint5_linear" x1="193.866" y1="92.9796" x2="187.014" y2="48.0367" gradientUnits="userSpaceOnUse">
<stop offset="0.0916665" stop-color="#63590D"/>
<stop offset="0.26875" stop-color="#4C870C"/>
<stop offset="0.451042" stop-color="#1EE30A"/>
<stop offset="0.690625" stop-color="#4C870C"/>
<stop offset="1" stop-color="#63590D"/>
</linearGradient>
<radialGradient id="paint6_angular" cx="0" cy="0" r="1" gradientUnits="userSpaceOnUse" gradientTransform="translate(279.979 61.5042) rotate(-171.223) scale(18.0069 18.1856)">
<stop stop-color="#FF0000"/>
<stop offset="0.376691" stop-color="#00FF0A"/>
</radialGradient>
<linearGradient id="paint7_linear" x1="253.979" y1="75.8647" x2="241.169" y2="49.5557" gradientUnits="userSpaceOnUse">
<stop stop-color="#8A3500"/>
<stop offset="0.445833" stop-color="#FF1D04"/>
<stop offset="1" stop-color="#8A3500"/>
</linearGradient>
<linearGradient id="paint8_linear" x1="370.321" y1="72.1241" x2="346.352" y2="82.1985" gradientUnits="userSpaceOnUse">
<stop stop-color="#EA4AF8"/>
<stop offset="1" stop-color="#400045"/>
</linearGradient>
<radialGradient id="paint9_radial" cx="0" cy="0" r="1" gradientUnits="userSpaceOnUse" gradientTransform="translate(418.122 76.1681) rotate(156.695) scale(44.0017 39.9268)">
<stop stop-color="#F14EFF"/>
<stop offset="0.263542" stop-color="#E144EF"/>
<stop offset="0.544792" stop-color="#CA36D7"/>
<stop offset="0.794792" stop-color="#AB22B7"/>
<stop offset="1" stop-color="#760181"/>
</radialGradient>
<radialGradient id="paint10_angular" cx="0" cy="0" r="1" gradientUnits="userSpaceOnUse" gradientTransform="translate(433.15 84.0975) rotate(178.967) scale(22.7335 28.8639)">
<stop offset="0.48954" stop-color="#FB0101"/>
<stop offset="0.992635" stop-color="#18E80A"/>
</radialGradient>
<linearGradient id="paint11_linear" x1="498.49" y1="109.47" x2="477.706" y2="58.4696" gradientUnits="userSpaceOnUse">
<stop offset="0.0447915" stop-color="#792703"/>
<stop offset="0.51875" stop-color="#FB1E04"/>
<stop offset="0.95625" stop-color="#792703"/>
</linearGradient>
<linearGradient id="paint12_linear" x1="519.954" y1="103.105" x2="497.12" y2="56.3816" gradientUnits="userSpaceOnUse">
<stop offset="0.0916665" stop-color="#63590D"/>
<stop offset="0.26875" stop-color="#4C870C"/>
<stop offset="0.492708" stop-color="#1EE30A"/>
<stop offset="0.773958" stop-color="#4C870C"/>
<stop offset="1" stop-color="#63590D"/>
</linearGradient>
<linearGradient id="paint13_linear" x1="474.866" y1="104.98" x2="468.014" y2="60.0367" gradientUnits="userSpaceOnUse">
<stop offset="0.0916665" stop-color="#63590D"/>
<stop offset="0.26875" stop-color="#4C870C"/>
<stop offset="0.451042" stop-color="#1EE30A"/>
<stop offset="0.690625" stop-color="#4C870C"/>
<stop offset="1" stop-color="#63590D"/>
</linearGradient>
<radialGradient id="paint14_angular" cx="0" cy="0" r="1" gradientUnits="userSpaceOnUse" gradientTransform="translate(560.979 73.5042) rotate(-171.223) scale(18.0069 18.1856)">
<stop stop-color="#FF0000"/>
<stop offset="0.376691" stop-color="#00FF0A"/>
</radialGradient>
<linearGradient id="paint15_linear" x1="534.979" y1="87.8647" x2="522.169" y2="61.5557" gradientUnits="userSpaceOnUse">
<stop stop-color="#8A3500"/>
<stop offset="0.445833" stop-color="#FF1D04"/>
<stop offset="1" stop-color="#8A3500"/>
</linearGradient>
</defs>
</svg>
