<svg width="250" height="130" viewBox="0 0 250 130" fill="none" xmlns="http://www.w3.org/2000/svg">
<path d="M24.0533 53.1358C21.199 52.1913 15.2268 50.189 14.1729 49.7356L21.7479 66.453C23.2849 74.1034 26.227 89.5175 25.7001 89.9708C25.0414 90.5375 26.0294 108.672 26.3588 112.355C26.6881 116.039 41.1795 117.455 44.473 118.589C47.1078 119.496 59.6231 113.677 65.5514 110.655L92.558 86.854C91.1308 76.2757 87.7495 52.9091 85.6417 44.0687C83.5338 35.2283 77.0786 31.1292 74.1145 30.1847L76.0905 44.0687L67.8568 35.0016L55.3415 60.2194L39.8621 46.3354L24.0533 53.1358Z" fill="url(#paint0_linear)" stroke="black"/>
<path d="M89.9247 63.9028L91.2421 82.037V91.6708C91.2421 92.8042 128.129 104.705 130.435 105.271C132.74 105.838 170.615 95.3543 172.591 93.9376C174.568 92.5208 213.101 72.6866 214.419 71.2698C215.473 70.1365 215.517 47.3743 215.407 36.1349L187.083 23.6676C185.875 24.8955 183.394 27.3511 183.131 27.3511C182.867 27.3511 180.166 25.4622 178.849 24.5177C177.641 25.0844 174.963 26.6144 173.909 28.2012C172.855 29.7879 171.274 28.2956 170.615 27.3511L167.322 21.6842C165.236 24.5177 161.064 30.4113 161.064 31.318C161.064 32.2247 156.673 27.1622 154.477 24.5177L144.926 40.6684L130.435 32.4514L109.686 43.5019L105.075 36.1349L106.063 24.5177L95.1943 31.318C92.34 34.5292 86.4995 41.2351 85.9725 42.3685C85.4456 43.5019 88.3877 57.197 89.9247 63.9028Z" fill="url(#paint1_linear)" stroke="black"/>
<path d="M247.683 76.6535C228.251 93.3709 189.256 126.976 188.729 127.656L188.07 78.3535L189.058 63.0528L190.376 58.8026L188.07 55.1191L189.058 53.7024L196.304 40.9518L212.442 53.7024V17.1507L229.239 22.8176C230.82 16.4707 239.998 7.328 244.389 3.55005C243.401 6.10017 241.227 14.3172 240.437 26.7845C239.646 39.2517 244.938 65.2252 247.683 76.6535Z" fill="url(#paint2_radial)" stroke="black"/>
<path d="M151.843 84.8705C151.579 85.3239 150.635 87.8929 150.196 89.1207L134.387 78.6369C132.191 82.0371 127.734 88.8941 127.471 89.1207C127.207 89.3474 122.75 87.1373 120.554 86.0039L112.979 89.6874L106.722 74.1034L98.1586 86.854L87.2901 80.9037H73.7868L65.553 93.9376L55.6725 88.8374L41.1812 105.555L21.4202 98.4712L23.3963 106.688L21.4202 120.006L19.7734 127.939H79.3857H187.742V82.3204L189.388 58.5193V56.5359V51.719L170.616 74.1034C167.651 72.97 161.591 70.6465 161.064 70.4198C160.406 70.1365 151.843 72.6866 151.843 73.2533C151.843 73.82 152.172 84.3038 151.843 84.8705Z" fill="url(#paint3_radial)" stroke="black"/>
<path d="M192.681 58.8027C188.771 58.8027 188.73 65.8474 188.729 126.806C188.729 127.461 188.729 128.122 188.729 128.789H18.4555C18.7494 127.841 19.0564 126.77 19.3612 125.608L20.7609 126.806H187.082C185.765 76.7101 187.631 60.0305 188.729 57.9527L187.082 55.9692L170.944 75.5202L161.723 72.6867L154.477 75.5202L150.854 90.8208L134.057 80.3371L127.8 91.6709L119.566 87.4207L112.32 91.6709L105.074 76.9369L99.1461 88.8374L85.6428 81.4704H74.1155L66.8699 95.6377L55.672 89.9708L41.8393 107.255L24.3838 101.305C29.1264 108.332 23.9446 121.233 20.7609 126.806L19.3612 125.608C21.225 118.502 23.0047 107.991 21.188 101.305C20.6385 99.2824 19.7601 97.6101 18.4555 96.4877L24.3838 98.6063L27.348 99.6656L39.8632 104.138L55.672 87.4207L64.5644 91.6709L73.1275 80.3371H86.9602L89.6773 81.4704L92.3944 82.6038L97.8287 84.8706L107.05 72.6867L116.437 87.4207L118.907 84.5873L122.201 81.4704L124.835 87.4207L134.057 76.9369L150.854 87.4207V72.6867L161.723 68.4365L167.98 72.6867L170.944 69.6969L172.194 68.4365L187.082 53.4191L189.882 56.1109L192.681 58.8027Z" fill="black"/>
<path d="M249 76.9369L188.729 128.789L188.729 126.806L246.365 76.9369C237.407 38.4018 239.998 14.034 242.413 6.66693C239.515 8.36615 232.862 19.6533 229.898 25.0845L215.407 20.8343C218.568 29.9013 215.407 48.0355 213.43 55.9692L196.304 42.3686L189.882 56.1109L187.082 53.4191L196.304 39.2518L211.454 50.5856V38.1184V32.7348V14.884L227.922 21.6843C235.826 6.04357 245.267 1.3778 249 1C235.299 12.7873 243.291 56.536 249 76.9369Z" fill="black"/>
<path d="M24.3838 98.6063C24.6033 81.7494 20.234 46.9021 0.999996 42.3686C4.67772 42.6519 13.4988 44.692 19.3612 50.5856L39.8632 45.4854L55.672 57.9527L66.8699 32.1681L74.1155 39.2518C73.4568 35.9461 72.3371 29.3347 73.1275 29.3347C73.711 29.3347 80.3247 28.9394 85.6428 39.8202C86.4366 41.4444 87.2016 43.3199 87.9134 45.4854C90.5075 53.3782 92.3944 65.1245 92.3944 82.6038L89.6773 81.4704C87.5036 41.5753 79.2754 32.1681 75.433 32.4515L78.0678 48.0355L67.5286 38.1184C64.2351 45.4854 57.2529 60.4461 55.672 61.3528C54.0911 62.2595 44.4741 52.8524 39.8632 48.0355L22.7371 55.9692L18.4555 53.4191C23.725 61.1261 26.5794 87.4613 27.348 99.6656L24.3838 98.6063Z" fill="black"/>
<path d="M85.6428 39.8202C91.1869 34.0582 103.691 22.3643 109.356 21.6843C106.996 24.8956 103.691 33.5282 109.356 42.3686C110.673 41.6886 123.518 34.3404 129.776 30.7514L144.926 39.8202C148.109 33.2082 154.477 20.1542 154.477 20.8343C154.477 21.5143 158.429 26.0289 160.405 28.2013L167.98 18.5675L172.194 26.7845L179.178 20.8343L182.801 26.7845L187.082 21.6843L211.454 32.7348V38.1184L187.082 25.0845L182.801 29.3347L176.873 26.7845L173.579 30.7514L166.333 25.0845L161.723 33.8682L154.477 26.7845L144.926 42.3686L130.105 33.8682L109.356 45.4854C103.691 41.4052 103.043 31.3181 103.428 26.7845C93.4155 32.4515 88.913 41.613 87.9134 45.4854C87.2016 43.3199 86.4366 41.4444 85.6428 39.8202Z" fill="black"/>
<path d="M188.729 128.789H18.4555C18.7494 127.841 19.0564 126.77 19.3612 125.608M188.729 128.789L249 76.9369C243.291 56.536 235.299 12.7873 249 1C245.267 1.3778 235.826 6.04357 227.922 21.6843L211.454 14.884V32.7348M188.729 128.789C188.729 128.122 188.729 127.461 188.729 126.806M188.729 128.789L188.729 126.806M187.082 53.4191L172.194 68.4365L170.944 69.6969L167.98 72.6867L161.723 68.4365L150.854 72.6867V87.4207L134.057 76.9369L124.835 87.4207L122.201 81.4704L118.907 84.5873L116.437 87.4207M187.082 53.4191L196.304 39.2518L211.454 50.5856V38.1184M187.082 53.4191L189.882 56.1109M113.967 89.9708L116.437 87.4207M116.437 87.4207L107.05 72.6867L97.8287 84.8706L92.3944 82.6038M20.7609 126.806H187.082C185.765 76.7101 187.631 60.0305 188.729 57.9527L187.082 55.9692L170.944 75.5202L161.723 72.6867L154.477 75.5202L150.854 90.8208L134.057 80.3371L127.8 91.6709L119.566 87.4207L112.32 91.6709L105.074 76.9369L99.1461 88.8374L85.6428 81.4704H74.1155L66.8699 95.6377L55.672 89.9708L41.8393 107.255L24.3838 101.305C29.1264 108.332 23.9446 121.233 20.7609 126.806ZM20.7609 126.806L19.3612 125.608M19.3612 125.608C21.225 118.502 23.0047 107.991 21.188 101.305C20.6385 99.2824 19.7601 97.6101 18.4555 96.4877L24.3838 98.6063M189.882 56.1109L192.681 58.8027C188.771 58.8027 188.73 65.8474 188.729 126.806M189.882 56.1109L196.304 42.3686L213.43 55.9692C215.407 48.0355 218.568 29.9013 215.407 20.8343L229.898 25.0845C232.862 19.6533 239.515 8.36615 242.413 6.66693C239.998 14.034 237.407 38.4018 246.365 76.9369L188.729 126.806M24.3838 98.6063C24.6033 81.7494 20.234 46.9021 0.999996 42.3686C4.67772 42.6519 13.4988 44.692 19.3612 50.5856L39.8632 45.4854L55.672 57.9527L66.8699 32.1681L74.1155 39.2518C73.4568 35.9461 72.3371 29.3347 73.1275 29.3347C73.711 29.3347 80.3247 28.9394 85.6428 39.8202M24.3838 98.6063L27.348 99.6656M92.3944 82.6038L89.6773 81.4704M92.3944 82.6038C92.3944 65.1245 90.5075 53.3782 87.9134 45.4854M85.6428 39.8202C91.1869 34.0582 103.691 22.3643 109.356 21.6843C106.996 24.8956 103.691 33.5282 109.356 42.3686C110.673 41.6886 123.518 34.3404 129.776 30.7514L144.926 39.8202C148.109 33.2082 154.477 20.1542 154.477 20.8343C154.477 21.5143 158.429 26.0289 160.405 28.2013L167.98 18.5675L172.194 26.7845L179.178 20.8343L182.801 26.7845L187.082 21.6843L211.454 32.7348M85.6428 39.8202C86.4366 41.4444 87.2016 43.3199 87.9134 45.4854M211.454 32.7348V38.1184M27.348 99.6656L39.8632 104.138L55.672 87.4207L64.5644 91.6709L73.1275 80.3371H86.9602L89.6773 81.4704M27.348 99.6656C26.5794 87.4613 23.725 61.1261 18.4555 53.4191L22.7371 55.9692L39.8632 48.0355C44.4741 52.8524 54.0911 62.2595 55.672 61.3528C57.2529 60.4461 64.2351 45.4854 67.5286 38.1184L78.0678 48.0355L75.433 32.4515C79.2754 32.1681 87.5036 41.5753 89.6773 81.4704M87.9134 45.4854C88.913 41.613 93.4155 32.4515 103.428 26.7845C103.043 31.3181 103.691 41.4052 109.356 45.4854L130.105 33.8682L144.926 42.3686L154.477 26.7845L161.723 33.8682L166.333 25.0845L173.579 30.7514L176.873 26.7845L182.801 29.3347L187.082 25.0845L211.454 38.1184" stroke="black" stroke-width="0.2"/>
<defs>
<linearGradient id="paint0_linear" x1="51.7187" y1="49.1689" x2="72.6753" y2="111.387" gradientUnits="userSpaceOnUse">
<stop stop-color="#563700"/>
<stop offset="1" stop-color="#211600"/>
</linearGradient>
<linearGradient id="paint1_linear" x1="150.679" y1="21.6842" x2="150.679" y2="105.294" gradientUnits="userSpaceOnUse">
<stop stop-color="#5D3C00"/>
<stop offset="1" stop-color="#0B0700"/>
</linearGradient>
<radialGradient id="paint2_radial" cx="0" cy="0" r="1" gradientUnits="userSpaceOnUse" gradientTransform="translate(208.49 44.6353) rotate(122.792) scale(86.9611 38.5868)">
<stop stop-color="#473000"/>
<stop offset="1" stop-color="#834F03"/>
</radialGradient>
<radialGradient id="paint3_radial" cx="0" cy="0" r="1" gradientUnits="userSpaceOnUse" gradientTransform="translate(127.141 75.8034) rotate(170.37) scale(143.978 37.6741)">
<stop stop-color="#211500"/>
<stop offset="0.184529" stop-color="#563800"/>
<stop offset="1" stop-color="#834F02"/>
</radialGradient>
</defs>
</svg>
