<svg width="410" height="295" viewBox="0 0 410 295" fill="none" xmlns="http://www.w3.org/2000/svg">
<path d="M38.9278 120.539C34.232 118.373 24.4067 113.782 22.6729 112.743L35.135 151.073C37.6636 168.614 42.5039 203.956 41.637 204.996C40.5533 206.295 42.1788 247.874 42.7207 256.319C43.2625 264.765 67.1032 268.013 72.5215 270.612C76.8562 272.691 97.4458 259.351 107.199 252.421L151.629 197.849C149.281 173.595 143.718 120.019 140.251 99.7495C136.783 79.4799 126.163 70.0813 121.286 67.9158L124.537 99.7495L110.992 78.9601L90.402 136.781L64.9358 104.947L38.9278 120.539Z" fill="url(#paint0_linear)" stroke="black"/>
<path d="M147.295 145.226L149.462 186.805V208.894C149.462 211.492 210.148 238.778 213.941 240.078C217.733 241.377 280.044 217.339 283.295 214.091C286.546 210.843 349.941 165.366 352.108 162.118C353.842 159.519 353.914 107.329 353.733 81.5587L307.136 52.9733C305.149 55.7886 301.067 61.419 300.634 61.419C300.2 61.419 295.757 57.0879 293.59 54.9223C291.603 56.2217 287.196 59.7299 285.462 63.368C283.729 67.0062 281.128 63.5846 280.044 61.419L274.626 48.4257C271.194 54.9223 264.331 68.4354 264.331 70.5144C264.331 72.5933 257.107 60.9859 253.494 54.9223L237.781 91.9534L213.941 73.113L179.805 98.4501L172.219 81.5587L173.845 54.9223L155.964 70.5144C151.268 77.8773 141.66 93.2527 140.793 95.8514C139.926 98.4501 144.766 129.851 147.295 145.226Z" fill="url(#paint1_linear)" stroke="black"/>
<path d="M406.833 174.461C374.864 212.792 310.711 289.842 309.844 291.401L308.761 178.359L310.386 143.277L312.554 133.532L308.761 125.086L310.386 121.838L322.307 92.6031L348.856 121.838V38.031L376.49 51.0243C379.091 36.4718 394.19 15.5092 401.414 6.84692C399.789 12.6939 396.213 31.5343 394.912 60.1197C393.612 88.7051 402.317 148.258 406.833 174.461Z" fill="url(#paint2_radial)" stroke="black"/>
<path d="M249.16 193.302C248.726 194.341 247.173 200.231 246.451 203.047L220.443 179.009C216.83 186.805 209.498 202.527 209.064 203.047C208.631 203.566 201.298 198.499 197.686 195.9L185.224 204.346L174.929 168.614L160.841 197.849L142.961 184.206H120.745L107.2 214.091L90.9446 202.397L67.1039 240.727L34.5939 224.486L37.8449 243.326L34.5939 273.86L31.8848 292.051H129.957H308.22V187.455L310.929 132.883V128.335V117.291L280.044 168.614C275.168 166.016 265.198 160.688 264.331 160.169C263.247 159.519 249.16 165.366 249.16 166.665C249.16 167.965 249.702 192.002 249.16 193.302Z" fill="url(#paint3_radial)" stroke="black"/>
<path d="M316.347 133.532C309.914 133.532 309.845 149.685 309.845 289.452C309.845 290.954 309.845 292.47 309.845 294H29.7171C30.2006 291.826 30.7057 289.37 31.2071 286.706L33.5099 289.452H307.136C304.968 174.591 308.039 136.347 309.845 131.583L307.136 127.036L280.586 171.863L265.414 165.366L253.494 171.863L247.534 206.945L219.9 182.907L209.606 208.894L196.06 199.149L184.139 208.894L172.219 175.111L162.466 202.397L140.251 185.506H121.287L109.367 217.989L90.9442 204.996L68.1872 244.625L39.4701 230.982C47.2725 247.094 38.7476 276.676 33.5099 289.452L31.2071 286.706C34.2733 270.414 37.2013 246.313 34.2125 230.982C33.3085 226.346 31.8633 222.511 29.7171 219.938L39.4701 224.795L44.3466 227.224L64.9362 237.479L90.9442 199.149L105.574 208.894L119.661 182.907H142.418L146.888 185.506L151.359 188.104L160.299 193.302L175.47 165.366L190.912 199.149L194.976 192.652L200.394 185.506L204.729 199.149L219.9 175.111L247.534 199.149V165.366L265.414 155.621L275.709 165.366L280.586 158.511L282.642 155.621L307.136 121.189L311.741 127.36L316.347 133.532Z" fill="black"/>
<path d="M409 175.111L309.845 294L309.845 289.452L404.666 175.111C389.928 86.7563 394.19 30.8848 398.164 13.9934C393.395 17.8894 382.45 43.769 377.574 56.2218L353.733 46.4767C358.935 67.2661 353.733 108.845 350.482 127.036L322.307 95.8515L311.741 127.36L307.136 121.189L322.307 88.7052L347.231 114.692V86.1065V73.7628V32.8337L374.323 48.4257C387.327 12.5641 402.859 1.86622 409 1C386.46 28.0264 399.608 128.335 409 175.111Z" fill="black"/>
<path d="M39.4701 224.795C39.8313 186.145 32.643 106.246 0.999983 95.8515C7.05043 96.5012 21.5625 101.179 31.2071 114.692L64.9362 102.998L90.9442 131.583L109.367 72.4635L121.287 88.7052C120.203 81.1257 118.361 65.9668 119.661 65.9668C120.621 65.9668 131.502 65.0605 140.251 90.0084C141.557 93.7324 142.816 98.0326 143.986 102.998C148.254 121.095 151.359 148.027 151.359 188.104L146.888 185.506C143.312 94.0325 129.776 72.4635 123.454 73.1131L127.789 108.845L110.45 86.1065C105.032 102.998 93.5451 137.3 90.9442 139.379C88.3434 141.458 72.5219 119.889 64.9362 108.845L36.761 127.036L29.7171 121.189C38.3863 138.86 43.0823 199.242 44.3466 227.224L39.4701 224.795Z" fill="black"/>
<path d="M140.251 90.0084C149.372 76.7972 169.944 49.985 179.263 48.4257C175.38 55.7887 169.944 75.5819 179.263 95.8515C181.43 94.2923 202.562 77.4442 212.857 69.2151L237.781 90.0084C243.019 74.8482 253.494 44.9175 253.494 46.4767C253.494 48.0359 259.996 58.3873 263.247 63.3681L275.709 41.2794L282.642 60.1198L294.132 46.4767L300.092 60.1198L307.136 48.4257L347.231 73.7628V86.1065L307.136 56.2218L300.092 65.9668L290.339 60.1198L284.92 69.2151L273 56.2218L265.414 76.3615L253.494 60.1198L237.781 95.8515L213.399 76.3615L179.263 102.998C169.944 93.6426 168.878 70.5145 169.51 60.1198C153.038 73.1131 145.631 94.1191 143.986 102.998C142.816 98.0326 141.557 93.7324 140.251 90.0084Z" fill="black"/>
<path d="M309.845 294H29.7171C30.2006 291.826 30.7057 289.37 31.2071 286.706M309.845 294L409 175.111C399.608 128.335 386.46 28.0264 409 1C402.859 1.86622 387.327 12.5641 374.323 48.4257L347.231 32.8337V73.7628M309.845 294C309.845 292.47 309.845 290.954 309.845 289.452M309.845 294L309.845 289.452M307.136 121.189L282.642 155.621L280.586 158.511L275.709 165.366L265.414 155.621L247.534 165.366V199.149L219.9 175.111L204.729 199.149L200.394 185.506L194.976 192.652L190.912 199.149M307.136 121.189L322.307 88.7052L347.231 114.692V86.1065M307.136 121.189L311.741 127.36M186.849 204.996L190.912 199.149M190.912 199.149L175.47 165.366L160.299 193.302L151.359 188.104M33.5099 289.452H307.136C304.968 174.591 308.039 136.347 309.845 131.583L307.136 127.036L280.586 171.863L265.414 165.366L253.494 171.863L247.534 206.945L219.9 182.907L209.606 208.894L196.06 199.149L184.139 208.894L172.219 175.111L162.466 202.397L140.251 185.506H121.287L109.367 217.989L90.9442 204.996L68.1872 244.625L39.4701 230.982C47.2725 247.094 38.7476 276.676 33.5099 289.452ZM33.5099 289.452L31.2071 286.706M31.2071 286.706C34.2733 270.414 37.2013 246.313 34.2125 230.982C33.3085 226.346 31.8633 222.511 29.7171 219.938L39.4701 224.795M311.741 127.36L316.347 133.532C309.914 133.532 309.845 149.685 309.845 289.452M311.741 127.36L322.307 95.8515L350.482 127.036C353.733 108.845 358.935 67.2661 353.733 46.4767L377.574 56.2218C382.45 43.769 393.395 17.8894 398.164 13.9934C394.19 30.8848 389.928 86.7563 404.666 175.111L309.845 289.452M39.4701 224.795C39.8313 186.145 32.643 106.246 0.999983 95.8515C7.05043 96.5012 21.5625 101.179 31.2071 114.692L64.9362 102.998L90.9442 131.583L109.367 72.4635L121.287 88.7052C120.203 81.1257 118.361 65.9668 119.661 65.9668C120.621 65.9668 131.502 65.0605 140.251 90.0084M39.4701 224.795L44.3466 227.224M151.359 188.104L146.888 185.506M151.359 188.104C151.359 148.027 148.254 121.095 143.986 102.998M140.251 90.0084C149.372 76.7972 169.944 49.985 179.263 48.4257C175.38 55.7887 169.944 75.5819 179.263 95.8515C181.43 94.2923 202.562 77.4442 212.857 69.2151L237.781 90.0084C243.019 74.8482 253.494 44.9175 253.494 46.4767C253.494 48.0359 259.996 58.3873 263.247 63.3681L275.709 41.2794L282.642 60.1198L294.132 46.4767L300.092 60.1198L307.136 48.4257L347.231 73.7628M140.251 90.0084C141.557 93.7324 142.816 98.0326 143.986 102.998M347.231 73.7628V86.1065M44.3466 227.224L64.9362 237.479L90.9442 199.149L105.574 208.894L119.661 182.907H142.418L146.888 185.506M44.3466 227.224C43.0823 199.242 38.3863 138.86 29.7171 121.189L36.761 127.036L64.9362 108.845C72.5219 119.889 88.3434 141.458 90.9442 139.379C93.5451 137.3 105.032 102.998 110.45 86.1065L127.789 108.845L123.454 73.1131C129.776 72.4635 143.312 94.0325 146.888 185.506M143.986 102.998C145.631 94.1191 153.038 73.1131 169.51 60.1198C168.878 70.5145 169.944 93.6426 179.263 102.998L213.399 76.3615L237.781 95.8515L253.494 60.1198L265.414 76.3615L273 56.2218L284.92 69.2151L290.339 60.1198L300.092 65.9668L307.136 56.2218L347.231 86.1065" stroke="black" stroke-width="0.2"/>
<defs>
<linearGradient id="paint0_linear" x1="84.4418" y1="111.444" x2="145.542" y2="241.602" gradientUnits="userSpaceOnUse">
<stop stop-color="#563700"/>
<stop offset="1" stop-color="#211600"/>
</linearGradient>
<linearGradient id="paint1_linear" x1="247.246" y1="48.4257" x2="247.246" y2="240.128" gradientUnits="userSpaceOnUse">
<stop stop-color="#5D3C00"/>
<stop offset="1" stop-color="#0B0700"/>
</linearGradient>
<radialGradient id="paint2_radial" cx="0" cy="0" r="1" gradientUnits="userSpaceOnUse" gradientTransform="translate(342.354 101.049) rotate(114.809) scale(184.657 68.5458)">
<stop stop-color="#473000"/>
<stop offset="1" stop-color="#A46200"/>
</radialGradient>
<radialGradient id="paint3_radial" cx="0" cy="0" r="1" gradientUnits="userSpaceOnUse" gradientTransform="translate(208.522 172.512) rotate(166.696) scale(239.97 85.2638)">
<stop stop-color="#211500"/>
<stop offset="0.184529" stop-color="#563800"/>
<stop offset="1" stop-color="#A46200"/>
</radialGradient>
</defs>
</svg>
