<svg width="170" height="125" viewBox="0 0 170 125" fill="none" xmlns="http://www.w3.org/2000/svg">
<path d="M13.9231 57.7769C11.8751 60.1779 7.7793 65.0222 7.7793 65.1917C9.82722 70.0644 13.5417 80.6147 12.0164 83.8349C10.1097 87.8601 37.4388 98.4528 40.1929 100.783C42.947 103.114 94.2156 110.74 96.546 112.647C98.8764 114.554 131.502 97.3935 136.163 95.4868C139.891 93.9615 146.897 70.4175 149.933 58.8361L155.229 18.1602L162.221 10.9572L161.161 8.83864L149.933 3.75415L143.578 2.90674L142.095 22.1854L141.459 28.1173L127.053 27.6936L113.071 44.0064L96.546 25.5751L96.3342 27.6936C96.4048 29.106 96.546 31.9731 96.546 32.1426C96.546 32.312 97.2522 44.6419 97.6053 50.7857L88.4956 39.3456C86.0946 39.8399 81.2502 40.8709 81.0807 41.0404C80.9112 41.2099 78.7503 49.0202 77.691 52.9042L73.8777 41.2523L66.8865 53.7516L59.4716 45.4893C57 48.1022 51.972 53.4127 51.633 53.7516C51.294 54.0906 50.7856 52.9042 50.5737 52.2687L43.7944 41.2523L42.947 40.4048L44.2181 45.0656L46.1248 51.4212L46.5485 58.8361L37.4388 44.0064L29.6002 52.4805L22.3972 49.3027L13.9231 57.7769Z" fill="url(#paint0_linear)" stroke="black"/>
<path d="M9.89822 63.7087C7.42659 66.0391 2.44097 70.7846 2.27148 71.1236L3.75446 73.2421L4.81373 77.6911L5.66114 83.4111L6.2967 89.9786L6.93227 99.0883L7.35597 124.087H12.8642H22.6094H32.7784H43.3711L54.8112 124.299L66.8869 124.087L77.6914 123.875L88.0722 124.087C92.4505 124.016 101.165 123.918 100.995 124.087C100.826 124.257 110.811 124.016 115.825 123.875L113.707 115.825L112.647 107.351L109.258 76.4199L109.046 73.454L107.775 73.8777L102.055 80.0215L98.2412 73.6658L92.5212 62.8613L87.2248 69.4288L85.7418 70.6999L81.0811 61.3783H72.8188L68.5817 70.9117L64.7683 78.5385L63.7091 72.1829L62.0142 63.285L60.3194 56.7175L55.8705 69.0051L50.3623 64.768C49.7267 65.7566 48.4556 67.8187 48.4556 68.1576C48.4556 68.4966 44.2185 62.6494 42.1 59.6835L31.2954 67.0984L30.448 61.5902L30.8717 58.4124L28.7532 55.8701L24.9398 53.7516C23.3862 54.3871 20.2367 55.7006 20.0672 55.8701C19.8977 56.0396 13.2173 61.1665 9.89822 63.7087Z" fill="url(#paint1_radial)" stroke="black"/>
<path d="M112.012 102.69L108.834 73.242L110.741 71.3353L117.944 89.5548L119.427 84.894L120.91 73.4539V56.2937L131.502 65.8271L131.714 47.184L141.883 53.3278L145.061 29.3883L152.476 28.9646L150.781 17.9482L153.535 16.8889L161.374 10.1096C160.526 12.2988 158.789 16.7195 158.62 16.8889C158.45 17.0584 156.289 29.3883 155.23 35.5321L154.806 49.7263V66.4627L155.442 84.0466L115.825 123.875L113.918 117.943L112.012 102.69Z" fill="url(#paint2_radial)" stroke="black"/>
<path d="M116.264 124.837L156.077 85.1938C154.947 71.0702 151.628 9.77388 169 9.13832C168.493 9.13832 160.221 8.51332 159.678 9.13832C158.77 10.1851 155.036 13.2006 154.594 14.1734L150.357 17.3512L152.264 28.7913H144.425L142.095 49.9767L131.078 45.7396L130.231 64.3828L119.003 53.3664C122.392 57.095 119.85 85.7094 117.731 88.3222L112.223 68.8317C112.178 68.8768 112.134 68.9231 112.09 68.9706C111.324 69.8061 110.8 71.0025 110.466 72.4332L117.731 90.6526C121.121 89.4662 121.545 63.2529 121.969 57.8153L132.138 67.3487V48.7056L142.095 54.6375L145.484 30.0625L152.687 29.215L151.416 18.1986H153.323C154.001 17.8597 158.69 12.8104 158.831 13.1635C151.837 21.8495 154.1 73.8619 154.594 83.9227L115.682 122.459C115.878 123.327 116.075 124.128 116.264 124.837Z" fill="black"/>
<path d="M110.466 72.4332C110.8 71.0025 111.324 69.8061 112.09 68.9706C112.09 68.9706 109.676 71.4919 108.13 73.1074C107.267 77.5052 112.804 119.332 114.781 123.354L115.682 122.459C114.483 117.146 109.297 77.4324 110.466 72.4332Z" fill="black"/>
<path d="M1 71.3739C3.54224 71.3739 6.73595 77.8904 6.73595 124.837H116.264C116.075 124.128 115.878 123.327 115.682 122.459L114.781 123.354H7.79522C8.64264 85.8985 4.24842 72.292 3.54224 70.7384L4.60151 69.2554L18.3721 57.3916L24.304 55.273L28.9648 57.3916L31.2952 68.8317L42.0997 60.9931L48.2435 69.4672L51.4213 66.2894L56.0821 69.4672L60.7429 58.4509L64.5562 80.0599L73.2422 61.8405H80.6571L85.3179 72.4332L92.5209 63.9591L101.419 81.1192C101.419 81.1192 109.469 75.5725 108.13 73.1074C106.005 75.3261 102.69 78.7888 102.69 78.7888L92.5209 62.0524L86.8009 69.4672L81.2927 60.9931H72.3948L65.4036 77.094L60.1073 55.273L55.0228 68.1961L53.4339 66.2894L51.845 64.1709L49.7265 61.8405L48.0316 66.2894L42.0997 58.4509L31.2952 66.2894V55.273L24.304 52.0952L9.26229 63.5847L19.4313 53.0376L22.1855 50.1886L29.6004 53.0376L37.4389 44.8922L47.1841 60.6188C48.0855 50.082 45.512 47.8734 43.475 40.867L51.4212 55.3224L59.4717 47.4345L66.8866 55.273L73.2422 42.7737L77.6911 54.6375L81.0808 41.9263L88.2838 39.8077L98.6647 52.9427L96.3343 26.8847V48.2819L88.2838 38.5366L81.0808 40.0196L77.6911 50.8241L74.3015 40.0196L66.8866 52.0952L59.4717 44.2567L51.4212 52.0952L42.0997 38.586C42.0997 38.586 46.6193 52.5896 45.4894 56.3323L37.4389 43.1974L28.9648 52.0952L22.6092 48.2819L18.6275 52.0952L4.60151 67.3487L1 71.3739Z" fill="black"/>
<path d="M169 9.13832C167.658 8.85584 145.272 0.360571 142.73 1.0385C139.552 1.88592 142.518 19.6816 141.247 26.8847H126.206L112.435 41.7144L96.3343 24.7661V26.8847L112.647 46.1633L127.9 28.7913H142.095C142.73 -10.3522 146.544 7.8672 159.678 9.13832C160.221 8.51332 168.493 9.13832 169 9.13832Z" fill="black"/>
<path d="M116.264 124.837H6.73595C6.73595 77.8904 3.54224 71.3739 1 71.3739L4.60151 67.3487L18.6275 52.0952L22.6092 48.2819L28.9648 52.0952L37.4389 43.1974L45.4894 56.3323C46.6193 52.5896 42.0997 38.586 42.0997 38.586L51.4212 52.0952L59.4717 44.2567L66.8866 52.0952L74.3015 40.0196L77.6911 50.8241L81.0808 40.0196L88.2838 38.5366L96.3343 48.2819M116.264 124.837L156.077 85.1938C154.947 71.0702 151.628 9.77388 169 9.13832M116.264 124.837C116.075 124.128 115.878 123.327 115.682 122.459M112.223 68.8317L117.731 88.3222C119.85 85.7094 122.392 57.095 119.003 53.3664L130.231 64.3828L131.078 45.7396L142.095 49.9767L144.425 28.7913H152.264L150.357 17.3512L154.594 14.1734C155.036 13.2006 158.77 10.1851 159.678 9.13832M112.223 68.8317L112.09 68.9706M112.223 68.8317C112.178 68.8768 112.134 68.9231 112.09 68.9706M169 9.13832C167.658 8.85584 145.272 0.360571 142.73 1.0385C139.552 1.88592 142.518 19.6816 141.247 26.8847H126.206L112.435 41.7144L96.3343 24.7661M169 9.13832C168.493 9.13832 160.221 8.51332 159.678 9.13832M96.3343 48.2819V24.7661M96.3343 48.2819V26.8847M96.3343 24.7661V26.8847M114.781 123.354H7.79522C8.64264 85.8985 4.24842 72.292 3.54224 70.7384L4.60151 69.2554L18.3721 57.3916L24.304 55.273L28.9648 57.3916L31.2952 68.8317L42.0997 60.9931L48.2435 69.4672L51.4213 66.2894L56.0821 69.4672L60.7429 58.4509L64.5562 80.0599L73.2422 61.8405H80.6571L85.3179 72.4332L92.5209 63.9591L101.419 81.1192C101.419 81.1192 109.469 75.5725 108.13 73.1074M114.781 123.354L115.682 122.459M114.781 123.354C112.804 119.332 107.267 77.5052 108.13 73.1074M108.13 73.1074C106.005 75.3261 102.69 78.7888 102.69 78.7888L92.5209 62.0524L86.8009 69.4672L81.2927 60.9931H72.3948L65.4036 77.094L60.1073 55.273L55.0228 68.1961L53.4339 66.2894L51.845 64.1709L49.7265 61.8405L48.0316 66.2894L42.0997 58.4509L31.2952 66.2894V55.273L24.304 52.0952L9.26229 63.5847L19.4313 53.0376L22.1855 50.1886L29.6004 53.0376L37.4389 44.8922L47.1841 60.6188C48.0855 50.082 45.512 47.8734 43.475 40.867L51.4212 55.3224L59.4717 47.4345L66.8866 55.273L73.2422 42.7737L77.6911 54.6375L81.0808 41.9263L88.2838 39.8077L98.6647 52.9427L96.3343 26.8847M108.13 73.1074C109.676 71.4919 112.09 68.9706 112.09 68.9706M110.466 72.4332L117.731 90.6526C121.121 89.4662 121.545 63.2529 121.969 57.8153L132.138 67.3487V48.7056L142.095 54.6375L145.484 30.0625L152.687 29.215L151.416 18.1986H153.323C154.001 17.8597 158.69 12.8104 158.831 13.1635C151.837 21.8495 154.1 73.8619 154.594 83.9227L115.682 122.459M110.466 72.4332C109.297 77.4324 114.483 117.146 115.682 122.459M110.466 72.4332C110.8 71.0025 111.324 69.8061 112.09 68.9706M96.3343 26.8847L112.647 46.1633L127.9 28.7913H142.095C142.73 -10.3522 146.544 7.8672 159.678 9.13832" stroke="black" stroke-width="0.2"/>
<defs>
<linearGradient id="paint0_linear" x1="85" y1="2.90674" x2="85" y2="112.795" gradientUnits="userSpaceOnUse">
<stop stop-color="#4B3000"/>
<stop offset="1"/>
</linearGradient>
<radialGradient id="paint1_radial" cx="0" cy="0" r="1" gradientUnits="userSpaceOnUse" gradientTransform="translate(56.2942 71.971) rotate(86.9872) scale(52.4003 212.264)">
<stop stop-color="#302600"/>
<stop offset="1" stop-color="#7D4800"/>
</radialGradient>
<radialGradient id="paint2_radial" cx="0" cy="0" r="1" gradientUnits="userSpaceOnUse" gradientTransform="translate(125.782 58.4123) rotate(116.513) scale(104.881 56.3542)">
<stop offset="0.159375" stop-color="#302500"/>
<stop offset="1" stop-color="#B16000"/>
</radialGradient>
</defs>
</svg>
