<svg width="228" height="119" viewBox="0 0 228 119" fill="none" xmlns="http://www.w3.org/2000/svg">
<path d="M18.3849 55.0261C15.63 57.3107 10.1201 61.9204 10.1201 62.0817C12.8751 66.7182 17.8719 76.7574 15.82 79.8215C13.255 83.6517 50.0192 93.7312 53.7242 95.9487C57.4291 98.1662 126.398 105.423 129.532 107.238C132.667 109.052 176.556 92.7233 182.826 90.909C187.842 89.4575 197.266 67.0542 201.351 56.034L208.476 17.3289L217.881 10.4748L216.456 8.45895L201.351 3.62081L192.801 2.81445L190.806 21.1591L189.951 26.8036L170.572 26.4004L151.762 41.9228L129.532 24.3845L129.247 26.4004C129.342 27.7443 129.532 30.4725 129.532 30.6338C129.532 30.795 130.482 42.5275 130.957 48.3736L118.703 37.4878C115.473 37.9582 108.956 38.9392 108.728 39.1005C108.5 39.2618 105.593 46.6937 104.168 50.3895L99.0382 39.3021L89.6334 51.1959L79.6586 43.3339C76.3337 45.8202 69.5698 50.8733 69.1138 51.1959C68.6578 51.5184 67.9738 50.3895 67.6888 49.7847L58.569 39.3021L57.4291 38.4958L59.139 42.9307L61.704 48.9784L62.274 56.034L50.0192 41.9228L39.4745 49.9863L29.7847 46.9625L18.3849 55.0261Z" fill="url(#paint0_linear)" stroke="black"/>
<path d="M12.9707 60.6705C9.64578 62.888 2.93893 67.4036 2.71094 67.7261L4.70589 69.742L6.13086 73.9754L7.27084 79.4183L8.12582 85.6676L8.9808 94.3359L9.55079 118.123H16.9606H30.0703H43.75H57.9997L73.3894 118.325L89.634 118.123L104.169 117.922L118.133 118.123C124.023 118.056 135.746 117.962 135.518 118.123C135.29 118.285 148.723 118.056 155.468 117.922L152.618 110.261L151.193 102.198L146.633 72.7659L146.348 69.9436L144.638 70.3468L136.943 76.1929L131.813 70.1452L124.118 59.8641L116.993 66.1134L114.998 67.3229L108.729 58.453H97.6138L91.914 67.5245L86.7841 74.7817L85.3591 68.7341L83.0792 60.2673L80.7992 54.0181L74.8143 65.7102L67.4045 61.6784C66.5495 62.6192 64.8396 64.5813 64.8396 64.9039C64.8396 65.2264 59.1397 59.6625 56.2898 56.8403L41.7551 63.8959L40.6151 58.6546L41.1851 55.6308L38.3352 53.2117L33.2053 51.1958C31.1153 51.8006 26.8784 53.0504 26.6504 53.2117C26.4224 53.373 17.4356 58.2514 12.9707 60.6705Z" fill="url(#paint1_radial)" stroke="black"/>
<path d="M150.337 97.7627L146.062 69.7418L148.627 67.9275L158.317 85.2642L160.312 80.8292L162.307 69.9434V53.6147L176.557 62.6862L176.842 44.9463L190.522 50.7924L194.796 28.0128L204.771 27.6097L202.491 17.127L206.196 16.1191L216.741 9.66821C215.601 11.7513 213.264 15.9578 213.036 16.1191C212.808 16.2803 209.901 28.0128 208.476 33.8589L207.906 47.3654V63.291L208.761 80.0229L155.467 117.922L152.902 112.277L150.337 97.7627Z" fill="url(#paint2_radial)" stroke="black"/>
<path d="M156.058 118.837L209.616 81.1146C208.096 67.6753 203.631 9.34878 227 8.74401C226.318 8.74401 215.19 8.14929 214.46 8.74401C213.239 9.74011 208.215 12.6095 207.621 13.5352L201.921 16.559L204.486 27.4448H193.941L190.806 47.6037L175.986 43.572L174.846 61.3118L159.742 50.8292C164.302 54.3771 160.882 81.6051 158.032 84.0914L150.622 65.5452C150.561 65.5881 150.501 65.6322 150.443 65.6774C149.412 66.4724 148.707 67.6109 148.257 68.9722L158.032 86.3089C162.592 85.18 163.162 60.2367 163.732 55.0625L177.411 64.1341V46.3942L190.806 52.0387L195.366 28.6544L205.056 27.848L203.346 17.3654H205.911C206.823 17.0428 213.13 12.2382 213.32 12.5742C203.912 20.8394 206.956 70.3316 207.621 79.905L155.274 116.574C155.538 117.401 155.804 118.163 156.058 118.837Z" fill="black"/>
<path d="M148.257 68.9722C148.707 67.6109 149.412 66.4724 150.443 65.6774C150.443 65.6774 147.196 68.0765 145.115 69.6137C143.955 73.7985 151.404 113.599 154.063 117.426L155.274 116.574C153.661 111.518 146.685 73.7292 148.257 68.9722Z" fill="black"/>
<path d="M1 67.9643C4.41992 67.9643 8.71623 74.165 8.71623 118.837H156.058C155.804 118.163 155.538 117.401 155.274 116.574L154.063 117.426H10.1412C11.2812 81.7851 5.3699 68.8378 4.41992 67.3595L5.84489 65.9484L24.3696 54.6594L32.3494 52.6435L38.6193 54.6594L41.7542 65.5452L56.2889 58.0864L64.5537 66.15L68.8286 63.1261L75.0985 66.15L81.3684 55.6673L86.4983 76.2294L98.183 58.8927H108.158L114.428 68.9722L124.117 60.9086L136.087 77.2374C136.087 77.2374 146.917 71.9594 145.115 69.6137C142.257 71.725 137.797 75.0199 137.797 75.0199L124.117 59.0943L116.423 66.15L109.013 58.0864H97.043L87.6382 73.4072L80.5134 52.6435L73.6735 64.9404L71.5361 63.1261L69.3986 61.1102L66.5487 58.8927L64.2687 63.1261L56.2889 55.6673L41.7542 63.1261V52.6435L32.3494 49.6196L12.1148 60.5525L25.7945 50.5164L29.4995 47.8053L39.4743 50.5164L50.0191 42.7656L63.1286 57.7302C64.3412 47.7039 60.8793 45.6024 58.139 38.9354L68.8285 52.6905L79.6584 45.1847L89.6332 52.6435L98.183 40.7497L104.168 52.0387L108.728 39.9434L118.418 37.9275L132.382 50.426L129.247 25.6305V45.991L118.418 36.7179L108.728 38.129L104.168 48.4101L99.608 38.129L89.6332 49.6196L79.6584 42.1608L68.8285 49.6196L56.2889 36.7649C56.2889 36.7649 62.3688 50.09 60.8488 53.6514L50.0191 41.1529L38.6193 49.6196L30.0695 45.991L24.7132 49.6196L5.84489 64.1341L1 67.9643Z" fill="black"/>
<path d="M227 8.74401C225.195 8.47522 195.081 0.391552 191.661 1.03664C187.386 1.84299 191.376 18.7765 189.666 25.6305H169.431L150.907 39.7418L129.247 23.6146V25.6305L151.192 43.9751L171.711 27.4448H190.806C191.661 -9.8022 196.791 7.53447 214.46 8.74401C215.19 8.14929 226.318 8.74401 227 8.74401Z" fill="black"/>
<path d="M156.058 118.837H8.71623C8.71623 74.165 4.41992 67.9643 1 67.9643L5.84489 64.1341L24.7132 49.6196L30.0695 45.991L38.6193 49.6196L50.0191 41.1529L60.8488 53.6514C62.3688 50.09 56.2889 36.7649 56.2889 36.7649L68.8285 49.6196L79.6584 42.1608L89.6332 49.6196L99.608 38.129L104.168 48.4101L108.728 38.129L118.418 36.7179L129.247 45.991M156.058 118.837L209.616 81.1146C208.096 67.6753 203.631 9.34878 227 8.74401M156.058 118.837C155.804 118.163 155.538 117.401 155.274 116.574M150.622 65.5452L158.032 84.0914C160.882 81.6051 164.302 54.3771 159.742 50.8292L174.846 61.3118L175.986 43.572L190.806 47.6037L193.941 27.4448H204.486L201.921 16.559L207.621 13.5352C208.215 12.6095 213.239 9.74011 214.46 8.74401M150.622 65.5452L150.443 65.6774M150.622 65.5452C150.561 65.5881 150.501 65.6322 150.443 65.6774M227 8.74401C225.195 8.47522 195.081 0.391552 191.661 1.03664C187.386 1.84299 191.376 18.7765 189.666 25.6305H169.431L150.907 39.7418L129.247 23.6146M227 8.74401C226.318 8.74401 215.19 8.14929 214.46 8.74401M129.247 45.991V23.6146M129.247 45.991V25.6305M129.247 23.6146V25.6305M154.063 117.426H10.1412C11.2812 81.7851 5.3699 68.8378 4.41992 67.3595L5.84489 65.9484L24.3696 54.6594L32.3494 52.6435L38.6193 54.6594L41.7542 65.5452L56.2889 58.0864L64.5537 66.15L68.8286 63.1261L75.0985 66.15L81.3684 55.6673L86.4983 76.2294L98.183 58.8927H108.158L114.428 68.9722L124.117 60.9086L136.087 77.2374C136.087 77.2374 146.917 71.9594 145.115 69.6137M154.063 117.426L155.274 116.574M154.063 117.426C151.404 113.599 143.955 73.7985 145.115 69.6137M145.115 69.6137C142.257 71.725 137.797 75.0199 137.797 75.0199L124.117 59.0943L116.423 66.15L109.013 58.0864H97.043L87.6382 73.4072L80.5134 52.6435L73.6735 64.9404L71.5361 63.1261L69.3986 61.1102L66.5487 58.8927L64.2687 63.1261L56.2889 55.6673L41.7542 63.1261V52.6435L32.3494 49.6196L12.1148 60.5525L25.7945 50.5164L29.4995 47.8053L39.4743 50.5164L50.0191 42.7656L63.1286 57.7302C64.3412 47.7039 60.8793 45.6024 58.139 38.9354L68.8285 52.6905L79.6584 45.1847L89.6332 52.6435L98.183 40.7497L104.168 52.0387L108.728 39.9434L118.418 37.9275L132.382 50.426L129.247 25.6305M145.115 69.6137C147.196 68.0765 150.443 65.6774 150.443 65.6774M148.257 68.9722L158.032 86.3089C162.592 85.18 163.162 60.2367 163.732 55.0625L177.411 64.1341V46.3942L190.806 52.0387L195.366 28.6544L205.056 27.848L203.346 17.3654H205.911C206.823 17.0428 213.13 12.2382 213.32 12.5742C203.912 20.8394 206.956 70.3316 207.621 79.905L155.274 116.574M148.257 68.9722C146.685 73.7292 153.661 111.518 155.274 116.574M148.257 68.9722C148.707 67.6109 149.412 66.4724 150.443 65.6774M129.247 25.6305L151.192 43.9751L171.711 27.4448H190.806C191.661 -9.8022 196.791 7.53447 214.46 8.74401" stroke="black" stroke-width="0.2"/>
<defs>
<linearGradient id="paint0_linear" x1="114" y1="2.81445" x2="114" y2="107.378" gradientUnits="userSpaceOnUse">
<stop stop-color="#492F03"/>
<stop offset="1" stop-color="#402800"/>
</linearGradient>
<radialGradient id="paint1_radial" cx="0" cy="0" r="1" gradientUnits="userSpaceOnUse" gradientTransform="translate(75.3843 68.5325) rotate(85.7446) scale(49.9302 285.152)">
<stop stop-color="#3F2A02"/>
<stop offset="1" stop-color="#CB7604"/>
</radialGradient>
<radialGradient id="paint2_radial" cx="0" cy="0" r="1" gradientUnits="userSpaceOnUse" gradientTransform="translate(168.862 55.6306) rotate(125.194) scale(109.28 69.2332)">
<stop offset="0.159375" stop-color="#4B3103"/>
<stop offset="1" stop-color="#C87504"/>
</radialGradient>
</defs>
</svg>
