<svg width="168" height="168" viewBox="0 0 168 168" fill="none" xmlns="http://www.w3.org/2000/svg">
<ellipse cx="84.5" cy="83.5" rx="79.5" ry="80.5" fill="white"/>
<path d="M84 168C130.392 168 168 130.392 168 84C168 37.6081 130.392 0 84 0C86.2919 0.790308 89.1401 2.15613 92.1395 4.14402C112.217 3.95648 153.935 19.6651 160.186 84C161.814 109.678 147.553 161.731 77.4884 164.517C79.8665 165.953 82.0854 167.12 84 168Z" fill="black"/>
<path d="M95.0698 112.326C90.6192 107.022 81.0691 108.679 77.4884 114.605C75.121 118.522 74.8348 122.596 77.4884 126.326C80.8346 131.029 87.3243 131.462 92.1395 128.279C97.4237 124.786 99.1418 117.178 95.0698 112.326Z" fill="black"/>
<path fill-rule="evenodd" clip-rule="evenodd" d="M84 168C37.6081 168 0 130.392 0 84C0 37.6081 37.6081 0 84 0C86.2919 0.790308 89.1401 2.15613 92.1395 4.14402C101.497 10.3456 112.326 22.6015 112.326 42.3256C112.326 68.3721 93.4419 80.9612 84 84C71.9535 86.9302 47.8605 98.6512 47.8605 122.093C47.8605 141.809 64.9036 156.919 77.4884 164.517C79.8665 165.953 82.0854 167.12 84 168ZM77.4884 32.2326C80.2792 29.6045 86.9404 27.274 91.1628 30.6047C96.0635 34.4704 95.559 43.3813 90.1861 46.5581C85.8287 49.1345 80.4187 46.3954 77.4884 43.9535C73.972 41.0232 74.156 35.3706 77.4884 32.2326Z" fill="black"/>
</svg>
