<svg width="190" height="234" viewBox="0 0 190 234" fill="none" xmlns="http://www.w3.org/2000/svg">
<path d="M87 121V132L91 138L84 151V156L96 158.5L106 157V152L99.5 137L102.5 132L101.5 123.5L116.5 104.5L135 71.5L144 33.5L147 19.5L145.5 11.5L130.5 6L101.5 3.5C96.1667 3.5 81.3 3.8 64.5 5C47.7 6.2 43.1667 12.1667 43 15L45.5 29L51.5 59L57 78L67.5 98L87 121Z" fill="url(#paint0_radial)"/>
<path d="M44.5 188V212V214.5C43.3333 214.333 41 215.4 41 221C41 226.6 54.3333 229.333 61 230L92 231.5C101.833 231.5 124.4 231 136 229C147.6 227 149.167 223.5 148.5 222C150.5 220 146.333 214.833 144 212.5C144.167 207.167 144.6 195 145 189C145.4 183 143.5 179.167 142.5 178L141 178.5L139 174H134.5C128.667 178.333 111.5 186.4 89.5 184C67.5 181.6 58.3333 176.333 56.5 174H51.5L49 178.5L47.5 177.5L44.5 188Z" fill="url(#paint1_radial)"/>
<path d="M64.5 165.5L59 175C59 175.833 62.7 178.5 77.5 182.5C92.3 186.5 112.667 182.833 121 180.5L132 176C128 168.333 117.2 153.7 106 156.5C94.8 159.3 85.6667 157 82.5 155.5L74.5 159L64.5 165.5Z" fill="url(#paint2_radial)"/>
<path fill-rule="evenodd" clip-rule="evenodd" d="M129.743 88.9493L122.555 102.554L158.896 72.9437C215.206 12.9226 177.267 -13.0866 166.484 8.52102C157.858 25.8071 148.915 30.9289 144.921 31.3291V36.5309C148.648 37.5979 157.219 35.3305 166.484 17.7243C178.065 -4.28348 218.001 26.5274 129.743 88.9493Z" fill="black"/>
<path fill-rule="evenodd" clip-rule="evenodd" d="M60.257 88.9493L67.4455 102.554L31.1039 72.9437C-25.2056 12.9226 12.7334 -13.0866 23.5161 8.52103C32.1422 25.8071 41.0879 30.9289 45.0815 31.3291L46.2795 36.5309C42.5521 37.5979 32.7812 35.3305 23.5161 17.7243C11.9347 -4.28348 -28.0011 26.5274 60.257 88.9493Z" fill="black"/>
<path fill-rule="evenodd" clip-rule="evenodd" d="M129.743 88.9493C136.772 77.4253 143.191 49.202 144.921 36.5309V31.3291C148.515 25.0602 152.347 11.7221 143.721 8.52102C132.938 4.51962 116.167 2.51892 95.0012 2.51892C73.8352 2.51892 57.0622 4.51962 46.2795 8.52103C37.6534 11.7222 41.4873 25.0602 45.0815 31.3291L46.2795 36.5309C48.01 49.202 53.2283 77.4253 60.257 88.9493L67.4455 102.554C74.1014 107.623 86.9342 119.36 85.0172 125.762C83.1003 132.165 84.751 134.032 85.816 134.165C89.6498 137.046 88.4783 139.634 87.4134 140.567C83.6637 148.457 82.2061 152.967 81.8301 155.373C81.5653 157.067 81.8367 157.718 82.2217 157.774C82.2217 157.774 89.7791 159.863 95.4006 159.774C99.7781 159.705 107.778 157.774 107.778 157.774C108.163 157.718 108.435 157.067 108.17 155.373C107.794 152.967 106.336 148.457 102.587 140.567C101.522 139.634 100.35 137.046 104.184 134.165C105.249 134.032 106.9 132.165 104.983 125.762C103.066 119.36 115.899 107.623 122.555 102.554L129.743 88.9493ZM144.921 16.1237C146.518 6.84044 113.372 4.51962 95.0012 4.51962C76.6306 4.51962 43.4841 5.23987 45.0815 14.5231C47.0783 26.1272 52.27 88.9493 85.0172 114.558L91.0076 122.561C91.5401 123.895 92.1258 127.363 90.2089 130.564C87.8127 134.565 92.2057 134.565 92.605 137.766C93.0044 140.968 85.0172 150.971 85.0172 154.172C85.0172 157.373 90.858 156.35 95.4006 156.173C98.7065 156.044 104.983 157.373 104.983 154.172C104.983 150.971 96.9956 140.968 97.395 137.766C97.7943 134.565 102.187 134.565 99.7911 130.564C97.8742 127.363 98.4599 123.895 98.9924 122.561L104.983 114.558C142.123 70.1427 142.924 27.7278 144.921 16.1237Z" fill="black"/>
<path d="M136.931 175.38C133.737 173.139 130.808 174.98 129.743 176.18C101.443 186.034 86.3493 184.997 60.257 176.18C59.1921 174.98 56.2634 173.139 53.0686 175.38C84.9787 188.451 103.258 189.709 136.931 175.38Z" fill="black"/>
<path d="M73.043 192.586C70.8339 192.586 69.043 194.377 69.043 196.586V212.594C69.043 214.803 70.8339 216.594 73.043 216.594H118.158C120.367 216.594 122.158 214.803 122.158 212.594V196.586C122.158 194.377 120.367 192.586 118.158 192.586H73.043Z" fill="black"/>
<path d="M107.778 157.774C113.502 159.241 125.51 164.096 127.746 171.778L129.743 176.18C130.808 174.98 133.737 173.139 136.931 175.38C140.126 177.621 140.925 179.781 140.925 180.582C144.401 172.067 146.01 211.094 141.414 214.385C143.24 213.829 147.603 214.386 147.315 222.196C146.995 230.839 110.576 229.799 96.5962 229.799C77.4295 228.999 43.0048 230.839 42.6853 222.196C42.3966 214.386 46.7603 213.829 48.5862 214.385C43.9902 211.094 45.5986 172.067 49.075 180.582C49.075 179.781 49.8737 177.621 53.0686 175.38C56.2634 173.139 59.1921 174.98 60.257 176.18L62.2538 171.778C64.4902 164.096 76.4976 159.241 82.2217 157.774C81.8367 157.718 81.5653 157.067 81.8301 155.373C76.2365 156.04 63.8513 160.254 59.059 171.778C55.731 171.245 49.075 171.538 49.075 176.98C46.9451 174.446 42.6853 178.421 42.6853 214.594C34.6981 220.729 36.8522 233 96.5962 233C156.34 233 155.302 220.729 147.315 214.594C147.315 178.421 143.055 174.446 140.925 176.98C140.925 171.538 134.269 171.245 130.941 171.778C126.149 160.254 113.763 156.04 108.17 155.373C108.435 157.067 108.163 157.718 107.778 157.774Z" fill="black"/>
<path d="M144.921 36.5309C143.191 49.202 136.772 77.4253 129.743 88.9493M144.921 36.5309C148.648 37.5979 157.219 35.3305 166.484 17.7243C178.065 -4.28348 218.001 26.5274 129.743 88.9493M144.921 36.5309V31.3291M129.743 88.9493L122.555 102.554M144.921 31.3291C148.915 30.9289 157.858 25.8071 166.484 8.52102C177.267 -13.0866 215.206 12.9226 158.896 72.9437L122.555 102.554M144.921 31.3291C148.515 25.0602 152.347 11.7221 143.721 8.52102C132.938 4.51962 116.167 2.51892 95.0012 2.51892C73.8352 2.51892 57.0622 4.51962 46.2795 8.52103C37.6534 11.7222 41.4873 25.0602 45.0815 31.3291M122.555 102.554C115.899 107.623 103.066 119.36 104.983 125.762C106.9 132.165 105.249 134.032 104.184 134.165C100.35 137.046 101.522 139.634 102.587 140.567C106.336 148.457 107.794 152.967 108.17 155.373M107.778 157.774C107.778 157.774 99.7781 159.705 95.4006 159.774C89.7791 159.863 82.2217 157.774 82.2217 157.774M107.778 157.774C113.502 159.241 125.51 164.096 127.746 171.778L129.743 176.18M107.778 157.774C108.163 157.718 108.435 157.067 108.17 155.373M108.17 155.373C113.763 156.04 126.149 160.254 130.941 171.778C134.269 171.245 140.925 171.538 140.925 176.98C143.055 174.446 147.315 178.421 147.315 214.594C155.302 220.729 156.34 233 96.5962 233C36.8522 233 34.6981 220.729 42.6853 214.594C42.6853 178.421 46.9451 174.446 49.075 176.98C49.075 171.538 55.731 171.245 59.059 171.778C63.8513 160.254 76.2365 156.04 81.8301 155.373M129.743 176.18C130.808 174.98 133.737 173.139 136.931 175.38M129.743 176.18C101.443 186.034 86.3493 184.997 60.257 176.18M136.931 175.38C140.126 177.621 140.925 179.781 140.925 180.582C144.401 172.067 146.01 211.094 141.414 214.385M136.931 175.38C103.258 189.709 84.9787 188.451 53.0686 175.38M46.2795 36.5309C48.01 49.202 53.2283 77.4253 60.257 88.9493M46.2795 36.5309C42.5521 37.5979 32.7812 35.3305 23.5161 17.7243C11.9347 -4.28348 -28.0011 26.5274 60.257 88.9493M46.2795 36.5309L45.0815 31.3291M60.257 88.9493L67.4455 102.554M45.0815 31.3291C41.0879 30.9289 32.1422 25.8071 23.5161 8.52103C12.7334 -13.0866 -25.2056 12.9226 31.1039 72.9437L67.4455 102.554M67.4455 102.554C74.1014 107.623 86.9342 119.36 85.0172 125.762C83.1003 132.165 84.751 134.032 85.816 134.165C89.6498 137.046 88.4783 139.634 87.4134 140.567C83.6637 148.457 82.2061 152.967 81.8301 155.373M82.2217 157.774C76.4976 159.241 64.4902 164.096 62.2538 171.778L60.257 176.18M82.2217 157.774C81.8367 157.718 81.5653 157.067 81.8301 155.373M60.257 176.18C59.1921 174.98 56.2634 173.139 53.0686 175.38M53.0686 175.38C49.8737 177.621 49.075 179.781 49.075 180.582C45.5986 172.067 43.9902 211.094 48.5862 214.385M141.414 214.385C143.24 213.829 147.603 214.386 147.315 222.196C146.995 230.839 110.576 229.799 96.5962 229.799C77.4295 228.999 43.0048 230.839 42.6853 222.196C42.3966 214.386 46.7604 213.829 48.5862 214.385M141.414 214.385C141.258 214.497 141.095 214.567 140.925 214.594C141.053 214.516 141.219 214.445 141.414 214.385ZM48.5862 214.385C48.7809 214.445 48.9467 214.516 49.075 214.594C48.9048 214.567 48.742 214.497 48.5862 214.385ZM95.0012 4.51962C113.372 4.51962 146.518 6.84044 144.921 16.1237C142.924 27.7278 142.123 70.1427 104.983 114.558L98.9924 122.561C98.4599 123.895 97.8742 127.363 99.7911 130.564C102.187 134.565 97.7943 134.565 97.395 137.766C96.9956 140.968 104.983 150.971 104.983 154.172C104.983 157.373 98.7065 156.044 95.4006 156.173C90.858 156.35 85.0172 157.373 85.0172 154.172C85.0172 150.971 93.0044 140.968 92.605 137.766C92.2057 134.565 87.8127 134.565 90.2089 130.564C92.1258 127.363 91.5401 123.895 91.0076 122.561L85.0172 114.558C52.27 88.9493 47.0783 26.1272 45.0815 14.5231C43.4841 5.23987 76.6306 4.51962 95.0012 4.51962ZM122.158 196.586V212.594C122.158 214.803 120.367 216.594 118.158 216.594H73.043C70.8339 216.594 69.043 214.803 69.043 212.594V196.586C69.043 194.377 70.8339 192.586 73.043 192.586H118.158C120.367 192.586 122.158 194.377 122.158 196.586Z" stroke="black" stroke-width="0.2"/>
<path d="M89 205.5L95 196L94 203H100.5L93.5 212.5L96 205.5H89Z" fill="#FFEA2B"/>
<defs>
<radialGradient id="paint0_radial" cx="0" cy="0" r="1" gradientUnits="userSpaceOnUse" gradientTransform="translate(113.5 56.5) rotate(99.6974) scale(80.1452 54.3069)">
<stop stop-color="#F7F2CA"/>
<stop offset="0.315625" stop-color="#FFE600"/>
<stop offset="1" stop-color="#E1931E"/>
</radialGradient>
<radialGradient id="paint1_radial" cx="0" cy="0" r="1" gradientUnits="userSpaceOnUse" gradientTransform="translate(95.0069 206.5) rotate(1.08102) scale(79.5073 45.132)">
<stop offset="0.0135415" stop-color="#CD7F23"/>
<stop offset="0.247917" stop-color="#AD6B1E"/>
<stop offset="0.451042" stop-color="#9C5E16"/>
<stop offset="0.717566" stop-color="#703C00"/>
</radialGradient>
<radialGradient id="paint2_radial" cx="0" cy="0" r="1" gradientUnits="userSpaceOnUse" gradientTransform="translate(100 164.5) rotate(-82.875) scale(12.0934 25.1041)">
<stop offset="0.383333" stop-color="#FEE81D"/>
<stop offset="1" stop-color="#C67700"/>
</radialGradient>
</defs>
</svg>
