<svg width="190" height="244" viewBox="0 0 190 244" fill="none" xmlns="http://www.w3.org/2000/svg">
<path fill-rule="evenodd" clip-rule="evenodd" d="M94.0811 241C155.521 232.755 187.5 203.091 187.5 153C189.675 93.0848 152 57.1898 94.0811 60.1546C51.1279 62.3533 3 86.5 3 150.852C3 203 43.333 241 94.0811 241ZM94.5 230.5C151 223 172.5 194.063 172.5 148.5C174.5 94 143.5 63.5189 94.5 65.9998C55 67.9998 13.5 95 13.5 148.5C13.5 194.063 47.832 230.5 94.5 230.5Z" fill="url(#paint0_radial)"/>
<path d="M95 3.5L72 2L58 28L80 26L95 3.5Z" fill="url(#paint1_linear)" stroke="black"/>
<path d="M96.5 3H116L128.5 26H108.378L96.5 3Z" fill="url(#paint2_linear)" stroke="black"/>
<path d="M93 55L80 27.5L92 25.5L107.5 26.5L93 55Z" fill="url(#paint3_linear)" stroke="black"/>
<path d="M78.5 27L60 28.5L62 31L93 56.5L78.5 27Z" fill="url(#paint4_linear)" stroke="black"/>
<path d="M99.5 55.5L109.5 26.5H127.5L130 27L99.5 55.5Z" fill="url(#paint5_linear)" stroke="black"/>
<path d="M105.5 24.5L96 5L81.5 25.5L105.5 24.5Z" fill="#50A1FF" stroke="black"/>
<path fill-rule="evenodd" clip-rule="evenodd" d="M71.1577 1L56.6577 28L89.3849 58L92.6577 61L98.1577 61.5L103.658 55.9167L131.158 28L116.658 2L71.1577 1ZM114.158 4.5H99.6577H90.6577H74.1577L59.6577 27L62.6577 29.6197L90.6577 54.0704L95.1577 58L102.182 51.5L128.658 27L126.402 23.5L114.158 4.5Z" fill="black"/>
<path fill-rule="evenodd" clip-rule="evenodd" d="M90.6577 4.5L78.1577 25.5L59.6577 27L62.6577 29.6197L77.1872 28L81.6725 27.5L86.1577 27H105.658H110.158H128.658L126.402 23.5H107.658L99.6577 4.5H90.6577ZM84.1577 24.5C82.9577 24.5 90.991 12.8333 95.1577 7L103.658 23C97.6577 23.5 85.3577 24.5 84.1577 24.5Z" fill="black"/>
<path d="M90.6577 54.0704L95.1577 58L102.182 51.5L110.158 27H105.658L92.6577 52.5L81.6725 27.5L77.1872 28L90.6577 54.0704Z" fill="black"/>
<path fill-rule="evenodd" clip-rule="evenodd" d="M98.1577 61.5C185.315 57.5 186.5 141.5 186 154C185.5 166.5 170.658 243 89.3849 237.5C8.11217 232 -3 165.5 11 115.5C22.2 75.5 70.1051 62.5 92.6577 61L89.3849 58C61.1425 60.6667 3.95767 81.1 1.15767 141.5C-2.34233 217 53.1577 241.5 95.1577 243C137.158 244.5 190.158 206 189.658 154C189.158 102 165.158 62.8333 103.658 55.9167L98.1577 61.5ZM92.6577 67.5C66.991 69.1667 15.5577 86.9 15.1577 144.5C14.6577 216.5 68.6577 230 92.6577 229.5C116.658 229 167.158 216.5 170.658 159C174.158 101.5 154.158 67.5 92.6577 67.5ZM92.6577 64.5C64.0525 68.6667 7.67383 91.1 11 147.5C15.1577 218 62.8153 231.5 90.6577 232.5C118.5 233.5 174 212 174 159C174 106 164.315 67.5 92.6577 64.5Z" fill="black"/>
<path d="M128.658 27L126.402 23.5M128.658 27H110.158M128.658 27L102.182 51.5M59.6577 27L74.1577 4.5H90.6577M59.6577 27L78.1577 25.5L90.6577 4.5M59.6577 27L62.6577 29.6197M92.6577 61L98.1577 61.5M92.6577 61L89.3849 58M92.6577 61C70.1051 62.5 22.2 75.5 11 115.5C-3 165.5 8.11217 232 89.3849 237.5C170.658 243 185.5 166.5 186 154C186.5 141.5 185.315 57.5 98.1577 61.5M98.1577 61.5L103.658 55.9167M90.6577 4.5H99.6577M62.6577 29.6197L77.1872 28M62.6577 29.6197L90.6577 54.0704M126.402 23.5L114.158 4.5H99.6577M126.402 23.5H107.658L99.6577 4.5M77.1872 28L90.6577 54.0704M77.1872 28L81.6725 27.5M90.6577 54.0704L95.1577 58L102.182 51.5M110.158 27L102.182 51.5M110.158 27H105.658M81.6725 27.5L86.1577 27H105.658M81.6725 27.5L92.6577 52.5L105.658 27M89.3849 58L56.6577 28L71.1577 1L116.658 2L131.158 28L103.658 55.9167M89.3849 58C61.1425 60.6667 3.95767 81.1 1.15767 141.5C-2.34233 217 53.1577 241.5 95.1577 243C137.158 244.5 190.158 206 189.658 154C189.158 102 165.158 62.8333 103.658 55.9167M95.1577 7C90.991 12.8333 82.9577 24.5 84.1577 24.5C85.3577 24.5 97.6577 23.5 103.658 23L95.1577 7ZM92.6577 67.5C66.991 69.1667 15.5577 86.9 15.1577 144.5C14.6577 216.5 68.6577 230 92.6577 229.5C116.658 229 167.158 216.5 170.658 159C174.158 101.5 154.158 67.5 92.6577 67.5ZM92.6577 64.5C64.0525 68.6667 7.67383 91.1 11 147.5C15.1577 218 62.8153 231.5 90.6577 232.5C118.5 233.5 174 212 174 159C174 106 164.315 67.5 92.6577 64.5Z" stroke="black" stroke-width="0.2"/>
<defs>
<radialGradient id="paint0_radial" cx="0" cy="0" r="1" gradientUnits="userSpaceOnUse" gradientTransform="translate(95.2947 150.492) rotate(90) scale(90.508 92.2947)">
<stop offset="0.816873" stop-color="#BF4703"/>
<stop offset="1" stop-color="#FFC700"/>
</radialGradient>
<linearGradient id="paint1_linear" x1="63.5" y1="13" x2="82" y2="21" gradientUnits="userSpaceOnUse">
<stop offset="0.0447915" stop-color="#023E84"/>
<stop offset="1" stop-color="#1D85FF"/>
</linearGradient>
<linearGradient id="paint2_linear" x1="123.095" y1="13" x2="106.045" y2="19.5756" gradientUnits="userSpaceOnUse">
<stop offset="0.0447915" stop-color="#023E84"/>
<stop offset="1" stop-color="#1D85FF"/>
</linearGradient>
<linearGradient id="paint3_linear" x1="93.75" y1="25.5" x2="93.75" y2="55" gradientUnits="userSpaceOnUse">
<stop stop-color="#1B7EF3"/>
<stop offset="0.759818" stop-color="#003574"/>
</linearGradient>
<linearGradient id="paint4_linear" x1="95" y1="26.5" x2="72" y2="47" gradientUnits="userSpaceOnUse">
<stop stop-color="#0076FF"/>
<stop offset="0.707415" stop-color="#00428E"/>
<stop offset="1" stop-color="#00316A"/>
</linearGradient>
<linearGradient id="paint5_linear" x1="100" y1="33" x2="118.5" y2="46" gradientUnits="userSpaceOnUse">
<stop stop-color="#1775E3"/>
<stop offset="1" stop-color="#000F20"/>
</linearGradient>
</defs>
</svg>
