<svg width="421" height="277" viewBox="0 0 421 277" fill="none" xmlns="http://www.w3.org/2000/svg">
<path d="M52.4086 127.855C51.3083 153.237 42.5887 173.473 32.9327 173.054C23.2768 172.636 16.3412 151.721 17.4415 126.34C18.5418 100.958 27.2687 81.1789 36.9247 81.5975C50.4248 82.1828 53.509 102.474 52.4086 127.855Z" fill="url(#paint0_radial)"/>
<path d="M58.9248 174.098L35.9248 173.098C36.2581 173.112 37.2248 172.832 38.4248 171.598C39.6248 170.363 42.5915 165.416 43.9248 163.098C46.2581 157.598 51.1248 143.798 51.9248 132.598C52.7248 121.398 49.9248 104.598 48.4248 97.5975L50.9248 94.0975L56.4248 113.098L58.9248 132.598V174.098Z" fill="#3F0155"/>
<path d="M73.9248 81.5975H41.4248L47.9248 89.0975L52.9248 101.098L57.4248 116.598L58.9248 137.098V167.598L60.4248 176.598L74.4248 181.598L101.425 184.598H145.925L159.425 180.098L179.425 182.098L217.425 184.598L250.425 183.598L282.925 182.598L308.425 178.598L335.425 182.598L364.425 183.598L389.425 180.098L399.425 173.098L405.425 153.797V133.598L398.925 115.598L386.425 103.098L363.425 99.5975L325.425 97.0975L299.425 98.0975L277.425 93.0975L239.925 90.0975L173.925 89.0975H152.425L137.925 86.0975L120.425 83.5975L98.4248 82.0975L73.9248 81.5975Z" fill="url(#paint1_linear)"/>
<path d="M155.532 88.1387L146.58 87.6322C147.288 88.1263 148.02 88.6839 148.767 89.3044C162.327 100.57 180.917 132.526 158.244 179.74C157.899 180.458 157.545 181.18 157.181 181.906L163.773 181.854C164.376 180.776 164.956 179.705 165.512 178.641C187.958 135.729 172.632 104.681 159.29 91.4541C158.008 90.1825 156.743 89.0756 155.532 88.1387Z" fill="black"/>
<path d="M293.936 95.9684C296.267 96.8607 298.829 98.3492 301.336 100.505C312.638 110.223 322.826 133.499 305.814 176.851C305.31 178.136 304.782 179.439 304.229 180.76L312.465 180.695C313.163 179.607 313.828 178.523 314.46 177.443C334.536 143.139 321.561 113.266 310.325 99.7601C309.391 98.6383 308.47 97.6294 307.581 96.7403L293.936 95.9684Z" fill="black"/>
<path d="M34.4267 81.2876C21.9051 82.3764 17.7149 108.357 16.593 126.284C15.319 146.641 19.2077 168.057 30.3957 173.241C31.2932 173.657 34.3533 175.151 35.4554 174.763C36.4501 174.412 37.5026 173.678 38.5755 172.589C46.9003 164.138 56.4553 134.329 49.7849 96.8269C47.5603 92.113 43.0319 84.9668 35.3145 86.4084C26.8207 87.995 19.3798 121.055 21.6487 147.827C24.1319 177.127 37.964 171.89 41.8444 163.607C45.0834 156.693 48.6587 142.417 48.1538 128.493L48.1372 128.035C47.5948 113.053 46.7779 90.4866 38.04 91.4751C33.6414 91.9727 29.7878 102.342 27.17 129.465C24.5521 156.587 34.7148 171.171 39.5633 161.101C44.4119 151.031 49.0603 97.2157 37.4771 103.441C28.2104 108.42 31.1139 158.56 38.5191 146.225C37.8051 146.787 36.2403 147.636 35.6934 146.54C35.0097 145.17 30.4182 123.755 34.0488 114.842C37.6795 105.928 40.1331 106.27 41.4373 111.042C42.7414 115.813 44.835 152.573 37.4966 158.761C30.1582 164.948 27.1516 128.826 29.8968 113.593C32.6421 98.3607 35.7695 92.2406 39.6859 93.7902C43.6023 95.3397 55.4012 135.86 37.9239 166.553C35.0752 168.664 28.6964 170.076 25.971 158.834C22.5642 144.782 19.2451 107.241 32.9872 89.9558C46.7294 72.6702 56.5044 127.251 46.6432 153.847C36.782 180.443 30.4313 173.756 24.968 165.813C19.5047 157.871 14.5917 126.236 21.2765 102.79C27.9614 79.3435 38.4115 82.2397 38.4115 82.2397C37.1981 81.7803 35.8723 81.4506 34.4267 81.2876Z" fill="black"/>
<path d="M146.58 87.6322C143.393 84.4559 116.501 78.7401 34.4267 81.2876C35.8723 81.4506 37.1981 81.7803 38.4115 82.2397C39.9117 82.207 41.5067 82.1775 43.1853 82.1523C72.973 81.7036 129.084 82.5595 148.767 89.3044C148.02 88.6839 147.288 88.1263 146.58 87.6322Z" fill="black"/>
<path d="M49.7849 96.8269C49.7849 96.8269 53.3439 105.178 54.6214 111.023C59.2869 132.369 55.4682 159.802 57.1142 172.324C57.2848 173.621 57.514 174.759 57.8174 175.713C58.0883 176.564 58.4182 177.269 58.8183 177.812C61.282 188.358 153.09 190.052 157.181 181.906C157.545 181.18 157.899 180.458 158.244 179.74L157.741 180.041C143.33 187.022 81.4831 181.293 70.1812 179.408C61.1396 177.9 60.6527 168.253 61.5395 163.618C63.7286 113.912 50.2155 88.5968 43.1853 82.1523C41.5067 82.1775 39.9117 82.207 38.4115 82.2397C45.8713 85.0639 49.0847 92.7894 49.7849 96.8269Z" fill="black"/>
<path d="M35.4554 174.763L57.8174 175.713C57.514 174.759 57.2848 173.621 57.1142 172.324L38.5755 172.589C37.5026 173.678 36.4501 174.412 35.4554 174.763Z" fill="black"/>
<path d="M232.156 88.2807C222.034 88.3881 163.542 83.8897 155.532 88.1387C156.743 89.0756 158.008 90.1825 159.29 91.4541C198.747 90.7595 282.395 91.5971 301.336 100.505C298.829 98.3492 296.267 96.8607 293.936 95.9684C288.204 93.775 261.465 87.9697 232.156 88.2807Z" fill="black"/>
<path d="M163.773 181.854C168.251 187.858 296.037 189.787 304.229 180.76C304.782 179.439 305.31 178.136 305.814 176.851C278.243 184.619 200.792 181.281 165.512 178.641C164.956 179.705 164.376 180.776 163.773 181.854Z" fill="black"/>
<path d="M393.202 180.066C397.891 177.166 401.332 178.558 405.57 163.156C412.099 139.432 408.074 106.593 382.386 100.972C360.75 97.0909 315.499 90.8109 307.581 96.7403C308.47 97.6294 309.391 98.6383 310.325 99.7601C330.062 98.6936 373.215 98.6526 387.936 107.021C406.337 117.48 408.681 157.053 396.732 173.715C387.173 187.045 337.901 181.755 314.46 177.443C313.828 178.523 313.163 179.607 312.465 180.695C330.383 186.083 382.407 186.743 393.202 180.066Z" fill="black"/>
<path d="M34.4267 81.2876C21.9051 82.3764 17.7149 108.357 16.593 126.284C15.319 146.641 19.2077 168.057 30.3957 173.241C31.2932 173.657 34.3533 175.151 35.4554 174.763M34.4267 81.2876C116.501 78.7401 143.393 84.4559 146.58 87.6322M34.4267 81.2876C35.8723 81.4506 37.1981 81.7803 38.4115 82.2397M49.7849 96.8269C49.7849 96.8269 53.3439 105.178 54.6214 111.023C59.2869 132.369 55.4682 159.802 57.1142 172.324M49.7849 96.8269C47.5603 92.113 43.0319 84.9668 35.3145 86.4084C26.8207 87.995 19.3798 121.055 21.6487 147.827C24.1319 177.127 37.964 171.89 41.8444 163.607C45.0834 156.693 48.6587 142.417 48.1538 128.493M49.7849 96.8269C49.0847 92.7894 45.8713 85.0639 38.4115 82.2397M49.7849 96.8269C56.4553 134.329 46.9003 164.138 38.5755 172.589M35.4554 174.763L57.8174 175.713M35.4554 174.763C36.4501 174.412 37.5026 173.678 38.5755 172.589M57.9017 175.716L57.8174 175.713M48.1538 128.493L48.1372 128.035M48.1538 128.493C48.1483 128.341 48.1427 128.189 48.1372 128.035M155.532 88.1387L146.58 87.6322M155.532 88.1387C163.542 83.8897 222.034 88.3881 232.156 88.2807C261.465 87.9697 288.204 93.775 293.936 95.9684M155.532 88.1387C156.743 89.0756 158.008 90.1825 159.29 91.4541M163.773 181.854L157.181 181.906M163.773 181.854C168.251 187.858 296.037 189.787 304.229 180.76M163.773 181.854C164.376 180.776 164.956 179.705 165.512 178.641M146.58 87.6322C147.288 88.1263 148.02 88.6839 148.767 89.3044M157.181 181.906C153.09 190.052 61.282 188.358 58.8183 177.812C58.4182 177.269 58.0883 176.564 57.8174 175.713M157.181 181.906C157.545 181.18 157.899 180.458 158.244 179.74M293.936 95.9684C298.617 96.2332 303.17 96.4908 307.581 96.7403M293.936 95.9684L307.581 96.7403M293.936 95.9684C296.267 96.8607 298.829 98.3492 301.336 100.505M304.229 180.76L312.465 180.695M304.229 180.76C304.782 179.439 305.31 178.136 305.814 176.851M307.581 96.7403C315.499 90.8109 360.75 97.091 382.386 100.972C408.074 106.593 412.099 139.432 405.57 163.156C401.332 178.558 397.891 177.166 393.202 180.066C382.407 186.743 330.383 186.083 312.465 180.695M307.581 96.7403C308.47 97.6294 309.391 98.6383 310.325 99.7601M312.465 180.695C313.163 179.607 313.828 178.523 314.46 177.443M38.4115 82.2397C38.4115 82.2397 27.9614 79.3435 21.2765 102.79C14.5917 126.236 19.5047 157.871 24.968 165.813C30.4313 173.756 36.782 180.443 46.6432 153.847C56.5044 127.251 46.7294 72.6702 32.9872 89.9558C19.2451 107.241 22.5642 144.782 25.971 158.834C28.6964 170.076 35.0752 168.664 37.9239 166.553C55.4012 135.86 43.6023 95.3397 39.6859 93.7902C35.7695 92.2406 32.6421 98.3607 29.8968 113.593C27.1516 128.826 30.1582 164.948 37.4966 158.761C44.835 152.573 42.7414 115.813 41.4373 111.042C40.1331 106.27 37.6795 105.928 34.0488 114.842C30.4182 123.755 35.0097 145.17 35.6934 146.54C36.2403 147.636 37.8051 146.787 38.5191 146.225C31.1139 158.56 28.2104 108.42 37.4771 103.441C49.0603 97.2157 44.4119 151.031 39.5633 161.101C34.7148 171.171 24.5521 156.587 27.17 129.465C29.7878 102.342 33.6414 91.9727 38.04 91.4751C46.7779 90.4866 47.5948 113.053 48.1372 128.035M38.4115 82.2397C39.9117 82.207 41.5067 82.1775 43.1853 82.1523M148.767 89.3044C129.084 82.5595 72.973 81.7036 43.1853 82.1523M148.767 89.3044C162.327 100.57 180.917 132.526 158.244 179.74M43.1853 82.1523C50.2155 88.5968 63.7286 113.912 61.5395 163.618C60.6527 168.253 61.1396 177.9 70.1812 179.408C81.4831 181.293 143.33 187.022 157.741 180.041L158.244 179.74M57.8174 175.713C57.514 174.759 57.2848 173.621 57.1142 172.324M38.5755 172.589L57.1142 172.324M159.29 91.4541C198.747 90.7595 282.395 91.5971 301.336 100.505M159.29 91.4541C172.632 104.681 187.958 135.729 165.512 178.641M301.336 100.505C312.638 110.223 322.826 133.499 305.814 176.851M165.512 178.641C200.792 181.281 278.243 184.619 305.814 176.851M310.325 99.7601C330.062 98.6936 373.215 98.6526 387.936 107.021C406.337 117.48 408.681 157.053 396.732 173.715C387.173 187.045 337.901 181.755 314.46 177.443M310.325 99.7601C321.561 113.266 334.536 143.139 314.46 177.443" stroke="black" stroke-width="0.2"/>
<defs>
<radialGradient id="paint0_radial" cx="0" cy="0" r="1" gradientUnits="userSpaceOnUse" gradientTransform="translate(34.9248 127.097) rotate(92.4823) scale(46 17.5)">
<stop stop-color="#772B92"/>
<stop offset="1" stop-color="#4F006B"/>
</radialGradient>
<linearGradient id="paint1_linear" x1="226.925" y1="82.0975" x2="223.425" y2="185.098" gradientUnits="userSpaceOnUse">
<stop offset="0.0395832" stop-color="#60127C"/>
<stop offset="0.425" stop-color="#DF85FF"/>
<stop offset="0.565625" stop-color="#DF85FF"/>
<stop offset="0.961458" stop-color="#60127C"/>
</linearGradient>
</defs>
</svg>
