<svg width="216" height="216" viewBox="0 0 216 216" fill="none" xmlns="http://www.w3.org/2000/svg">
<path fill-rule="evenodd" clip-rule="evenodd" d="M91.197 1C92.7093 1 130.055 8.95113 148.539 12.9267C152.53 34.8969 159.503 81.8504 155.47 93.9026C150.429 108.968 118.923 111.479 115.772 93.9026C112.621 76.3264 125.854 65.6552 146.648 75.6987L140.977 37.4078L103.8 30.5029C106.53 43.4757 110.983 72.4346 106.95 84.4868C101.909 99.5521 67.8822 103.946 66.622 88.8809C65.3617 73.8156 71.663 59.378 98.7586 69.4215L91.197 1ZM140.977 22.3425L103.8 14.8098V22.3425L140.977 29.2474V22.3425Z" fill="black"/>
<path d="M140.977 164.835C141.817 152.49 135.558 127.297 103.8 125.289C112.411 139.726 129.383 172.619 128.375 188.688C127.114 208.775 99.3887 225.096 85.5258 207.52C71.663 189.944 90.5669 170.485 112.621 174.879L83.6355 103.318L94.3477 99.5521C96.4481 104.574 107.076 116.249 132.786 122.778C158.495 129.306 148.959 153.536 140.977 164.835Z" fill="black"/>
<path d="M162.402 37.4078L172.484 33.0137C183.826 52.4731 208.023 95.9113 214.072 113.99C221.634 136.588 180.675 142.865 174.374 126.544C168.073 110.223 177.525 95.7858 195.168 99.5521L162.402 37.4078Z" fill="black"/>
<path fill-rule="evenodd" clip-rule="evenodd" d="M38.8961 193.082C43.517 184.085 48.474 166.718 31.3345 169.229C9.91008 172.368 16.2114 200.615 35.1153 205.009C54.0192 209.403 65.3614 192.455 57.7999 161.696C67.2518 156.884 84.7694 142.865 79.2243 125.289C73.7861 108.052 58.2634 96.2239 43.3067 98.2939C39.8732 98.7691 36.4696 99.9767 33.2246 102.019C32.5882 102.42 31.9578 102.853 31.3345 103.318C17.2195 113.864 23.7728 128.636 28.8139 134.704C28.8139 130.729 30.0743 121.899 35.1153 118.384L45.1972 151.025C36.7955 153.327 18.8578 153.285 14.3209 134.704C9.78393 116.124 23.7729 99.7613 31.3345 93.9026L33.2246 102.019C36.4696 99.9767 39.8732 98.7691 43.3067 98.2939L38.8961 84.4868C51.2885 71.7232 71.7886 41.4252 54.6491 22.3425C44.357 21.924 25.2853 31.5072 31.3345 73.1879C5.28891 100.18 -28.0243 155.67 47.0875 161.696C50.5868 172.158 53.8475 193.082 38.8961 193.082ZM54.6491 147.259L47.0875 113.99C52.1285 113.99 63.0929 116.501 66.622 126.544C70.151 136.588 60.1105 144.539 54.6491 147.259Z" fill="black"/>
<path d="M33.2246 102.019C32.5882 102.42 31.9578 102.853 31.3345 103.318C17.2195 113.864 23.7728 128.636 28.8139 134.704C28.8139 130.729 30.0743 121.899 35.1153 118.384L45.1972 151.025C36.7955 153.327 18.8578 153.285 14.3209 134.704C9.78393 116.124 23.7729 99.7613 31.3345 93.9026L33.2246 102.019ZM33.2246 102.019C36.4696 99.9767 39.8732 98.7691 43.3067 98.2939M43.3067 98.2939C58.2634 96.2239 73.7861 108.052 79.2243 125.289C84.7694 142.865 67.2518 156.884 57.7999 161.696C65.3614 192.455 54.0192 209.403 35.1153 205.009C16.2114 200.615 9.91008 172.368 31.3345 169.229C48.4741 166.718 43.517 184.085 38.8961 193.082C53.8475 193.082 50.5868 172.158 47.0875 161.696C-28.0243 155.67 5.28891 100.18 31.3345 73.1878C25.2853 31.5072 44.357 21.924 54.6491 22.3425C71.7886 41.4252 51.2885 71.7232 38.8961 84.4868L43.3067 98.2939ZM140.977 164.835C141.817 152.49 135.558 127.297 103.8 125.289C112.411 139.726 129.383 172.619 128.375 188.688C127.114 208.775 99.3887 225.096 85.5258 207.52C71.663 189.944 90.5669 170.485 112.621 174.879L83.6355 103.318L94.3477 99.5521C96.4481 104.574 107.076 116.249 132.786 122.778C158.495 129.306 148.959 153.536 140.977 164.835ZM103.8 14.8098L140.977 22.3425V29.2474L103.8 22.3425V14.8098ZM91.197 1C92.7093 1 130.055 8.95113 148.539 12.9267C152.53 34.8969 159.503 81.8504 155.47 93.9026C150.429 108.968 118.923 111.479 115.772 93.9026C112.621 76.3264 125.854 65.6552 146.648 75.6987L140.977 37.4078L103.8 30.5029C106.53 43.4757 110.983 72.4346 106.95 84.4868C101.909 99.5521 67.8822 103.946 66.622 88.8809C65.3617 73.8156 71.663 59.378 98.7586 69.4215L91.197 1ZM162.402 37.4078L172.484 33.0137C183.826 52.4731 208.023 95.9113 214.072 113.99C221.634 136.588 180.675 142.865 174.374 126.544C168.073 110.223 177.525 95.7858 195.168 99.5521L162.402 37.4078ZM47.0875 113.99L54.6491 147.259C60.1105 144.539 70.151 136.588 66.622 126.544C63.0929 116.501 52.1285 113.99 47.0875 113.99Z" stroke="black" stroke-width="0.2"/>
</svg>
