<svg width="169" height="51" viewBox="0 0 169 51" fill="none" xmlns="http://www.w3.org/2000/svg">
<rect x="1" y="1" width="166.89" height="48.4282" rx="14" fill="#E7B38E" stroke="black" stroke-width="2"/>
<path d="M30.522 32V13.436H44.458V32H42.144V15.49H32.862V32H30.522ZM55.8576 17.804C57.5736 17.804 58.9516 18.402 59.9916 19.598C61.0489 20.794 61.5776 22.5967 61.5776 25.006C61.5776 27.3807 61.0489 29.1833 59.9916 30.414C58.9516 31.6447 57.5649 32.26 55.8316 32.26C54.7569 32.26 53.8642 32.0607 53.1536 31.662C52.4602 31.246 51.9142 30.7693 51.5156 30.232H51.3596C51.3942 30.5267 51.4289 30.8993 51.4636 31.35C51.4982 31.8007 51.5156 32.1907 51.5156 32.52V38.24H49.2276V18.064H51.0996L51.4116 19.962H51.5156C51.9316 19.3553 52.4776 18.844 53.1536 18.428C53.8296 18.012 54.7309 17.804 55.8576 17.804ZM55.4416 19.728C54.0202 19.728 53.0149 20.1267 52.4256 20.924C51.8536 21.7213 51.5502 22.9347 51.5156 24.564V25.006C51.5156 26.722 51.7929 28.048 52.3476 28.984C52.9196 29.9027 53.9682 30.362 55.4936 30.362C56.3429 30.362 57.0362 30.128 57.5736 29.66C58.1282 29.192 58.5356 28.5593 58.7956 27.762C59.0729 26.9473 59.2116 26.02 59.2116 24.98C59.2116 23.3853 58.8996 22.1113 58.2756 21.158C57.6689 20.2047 56.7242 19.728 55.4416 19.728ZM70.5017 17.83C72.2003 17.83 73.457 18.2027 74.2717 18.948C75.0863 19.6933 75.4937 20.8807 75.4937 22.51V32H73.8297L73.3877 30.024H73.2837C72.677 30.7867 72.0357 31.35 71.3597 31.714C70.701 32.078 69.7823 32.26 68.6037 32.26C67.3383 32.26 66.2897 31.9307 65.4577 31.272C64.6257 30.596 64.2097 29.5473 64.2097 28.126C64.2097 26.7393 64.7557 25.6733 65.8477 24.928C66.9397 24.1653 68.621 23.7493 70.8917 23.68L73.2577 23.602V22.77C73.2577 21.6087 73.0063 20.8027 72.5037 20.352C72.001 19.9013 71.2903 19.676 70.3717 19.676C69.6437 19.676 68.9503 19.7887 68.2917 20.014C67.633 20.222 67.0177 20.4647 66.4457 20.742L65.7437 19.026C66.3503 18.6967 67.0697 18.4193 67.9017 18.194C68.7337 17.9513 69.6003 17.83 70.5017 17.83ZM71.1777 25.266C69.4443 25.3353 68.2397 25.6127 67.5637 26.098C66.905 26.5833 66.5757 27.268 66.5757 28.152C66.5757 28.932 66.8097 29.504 67.2777 29.868C67.763 30.232 68.3783 30.414 69.1237 30.414C70.3023 30.414 71.2817 30.0933 72.0617 29.452C72.8417 28.7933 73.2317 27.788 73.2317 26.436V25.188L71.1777 25.266ZM91.0039 21.574C91.0039 22.4407 90.7439 23.1167 90.2239 23.602C89.7039 24.0873 89.0366 24.4167 88.2219 24.59V24.694C89.0886 24.8153 89.8426 25.1273 90.4839 25.63C91.1252 26.1153 91.4459 26.878 91.4459 27.918C91.4459 29.0967 91.0039 30.076 90.1199 30.856C89.2532 31.6187 87.8146 32 85.8039 32H79.7979V18.064H85.7779C86.7659 18.064 87.6499 18.1767 88.4299 18.402C89.2272 18.61 89.8512 18.974 90.3019 19.494C90.7699 19.9967 91.0039 20.69 91.0039 21.574ZM88.6899 21.86C88.6899 21.2013 88.4472 20.7247 87.9619 20.43C87.4939 20.118 86.7226 19.962 85.6479 19.962H82.0859V23.784H85.2319C87.5372 23.784 88.6899 23.1427 88.6899 21.86ZM89.0799 27.918C89.0799 27.1207 88.7766 26.5487 88.1699 26.202C87.5632 25.8553 86.6706 25.682 85.4919 25.682H82.0859V30.154H85.5439C86.6879 30.154 87.5632 29.9893 88.1699 29.66C88.7766 29.3133 89.0799 28.7327 89.0799 27.918ZM96.9364 26.566C96.9364 26.774 96.9277 27.086 96.9104 27.502C96.893 27.918 96.867 28.334 96.8324 28.75C96.815 29.166 96.7977 29.4953 96.7804 29.738L104.242 18.064H107.05V32H104.918V23.784C104.918 23.5067 104.918 23.1427 104.918 22.692C104.936 22.2413 104.953 21.7993 104.97 21.366C104.988 20.9153 105.005 20.5773 105.022 20.352L97.6124 32H94.7784V18.064H96.9364V26.566ZM122.093 32H119.779V19.962H115.671C115.446 22.8913 115.134 25.2573 114.735 27.06C114.337 28.8453 113.808 30.1453 113.149 30.96C112.491 31.7747 111.659 32.182 110.653 32.182C110.428 32.182 110.203 32.1647 109.977 32.13C109.769 32.1127 109.596 32.0693 109.457 32V30.284C109.561 30.3187 109.674 30.3447 109.795 30.362C109.917 30.3793 110.038 30.388 110.159 30.388C111.095 30.388 111.841 29.3913 112.395 27.398C112.967 25.4047 113.401 22.2933 113.695 18.064H122.093V32ZM131.795 17.83C133.493 17.83 134.75 18.2027 135.565 18.948C136.379 19.6933 136.787 20.8807 136.787 22.51V32H135.123L134.681 30.024H134.577C133.97 30.7867 133.329 31.35 132.653 31.714C131.994 32.078 131.075 32.26 129.897 32.26C128.631 32.26 127.583 31.9307 126.751 31.272C125.919 30.596 125.503 29.5473 125.503 28.126C125.503 26.7393 126.049 25.6733 127.141 24.928C128.233 24.1653 129.914 23.7493 132.185 23.68L134.551 23.602V22.77C134.551 21.6087 134.299 20.8027 133.797 20.352C133.294 19.9013 132.583 19.676 131.665 19.676C130.937 19.676 130.243 19.7887 129.585 20.014C128.926 20.222 128.311 20.4647 127.739 20.742L127.037 19.026C127.643 18.6967 128.363 18.4193 129.195 18.194C130.027 17.9513 130.893 17.83 131.795 17.83ZM132.471 25.266C130.737 25.3353 129.533 25.6127 128.857 26.098C128.198 26.5833 127.869 27.268 127.869 28.152C127.869 28.932 128.103 29.504 128.571 29.868C129.056 30.232 129.671 30.414 130.417 30.414C131.595 30.414 132.575 30.0933 133.355 29.452C134.135 28.7933 134.525 27.788 134.525 26.436V25.188L132.471 25.266Z" fill="black"/>
</svg>
