<svg width="340" height="226" viewBox="0 0 340 226" fill="none" xmlns="http://www.w3.org/2000/svg">
<path d="M248.43 223.042L1.30664 223.042L1.30664 72.6336L51.0338 38.2463L100.761 3.8591L337.976 3.85905L337.976 142.413L248.43 223.042Z" fill="#F5A649"/>
<path d="M1.30664 72.6336L248.43 72.6336M1.30664 72.6336L1.30664 223.042L248.43 223.042M1.30664 72.6336L51.0338 38.2463M248.43 72.6336L248.43 223.042M248.43 72.6336L293.796 40.356M248.43 223.042L337.976 142.413L337.976 3.85905M337.976 3.85905L100.761 3.8591L51.0338 38.2463M337.976 3.85905L293.796 40.356M293.796 40.356L51.0338 38.2463" stroke="black"/>
<path d="M338 4.5L248 72.5V223L338 142V4.5Z" fill="url(#paint0_linear)" stroke="black"/>
<path d="M248 72.5H1V223.5H248V72.5Z" fill="url(#paint1_linear)" stroke="black"/>
<rect x="112.25" y="80.3928" width="128.429" height="65.6607" fill="#C4C4C4" stroke="black" stroke-width="0.5"/>
<rect x="232.446" y="86.9285" width="1.69643" height="54.2857" fill="black"/>
<rect x="227.357" y="86.9285" width="3.39286" height="54.2857" fill="black"/>
<rect x="186.643" y="86.9285" width="3.39286" height="54.2857" fill="black"/>
<rect x="181.554" y="86.9285" width="3.39286" height="54.2857" fill="black"/>
<rect x="222.268" y="86.9285" width="3.39286" height="54.2857" fill="black"/>
<rect x="220.571" y="86.9285" width="3.39286" height="54.2857" fill="black"/>
<rect x="217.179" y="86.9285" width="1.69643" height="54.2857" fill="black"/>
<rect x="213.786" y="86.9285" width="1.69643" height="54.2857" fill="black"/>
<line x1="212.339" y1="86.9285" x2="212.339" y2="141.214" stroke="black" stroke-width="0.5"/>
<line x1="210.643" y1="86.9285" x2="210.643" y2="141.214" stroke="black" stroke-width="0.5"/>
<line x1="198.768" y1="86.9285" x2="198.768" y2="141.214" stroke="black" stroke-width="0.5"/>
<line x1="195.625" y1="86.9285" x2="195.625" y2="141.214" stroke="black"/>
<line x1="193.679" y1="86.9285" x2="193.679" y2="141.214" stroke="black" stroke-width="0.5"/>
<line x1="191.982" y1="86.9285" x2="191.982" y2="141.214" stroke="black" stroke-width="0.5"/>
<line x1="208.946" y1="86.9285" x2="208.946" y2="141.214" stroke="black" stroke-width="0.5"/>
<line x1="205.804" y1="86.9285" x2="205.804" y2="141.214" stroke="black"/>
<line x1="178.661" y1="86.9285" x2="178.661" y2="141.214" stroke="black"/>
<line x1="175.268" y1="86.9285" x2="175.268" y2="141.214" stroke="black"/>
<line x1="201.214" y1="86.9285" x2="201.214" y2="141.214" stroke="black" stroke-width="2"/>
<path d="M7 171H29C29 171 28.6791 195.048 18.6037 195.973L19.5 196V216H23V218H13.5V216H17V195.924C7.31244 194.414 7 171 7 171Z" fill="black"/>
<path d="M17 195.924C17.3228 195.974 17.656 196 18 196C28.6664 196 29 171 29 171H7C7 171 7.31244 194.414 17 195.924ZM17 195.924V216H19.5V196L17 195.924ZM13.5 216H23V218H13.5V216Z" stroke="black"/>
<path d="M159.29 135H130.95V127.655C135.63 124.448 139.747 120.895 143.3 116.995C146.897 113.095 148.695 109.65 148.695 106.66C148.695 104.84 148.153 103.41 147.07 102.37C145.987 101.287 144.34 100.745 142.13 100.745C138.447 100.745 134.958 102.11 131.665 104.84V95.675C133.095 94.635 134.958 93.7467 137.255 93.01C139.552 92.2733 141.805 91.905 144.015 91.905C148.435 91.905 151.945 93.075 154.545 95.415C157.188 97.7117 158.51 100.94 158.51 105.1C158.51 112.597 153.743 119.877 144.21 126.94H159.29V135Z" fill="black"/>
<defs>
<linearGradient id="paint0_linear" x1="254" y1="206" x2="337" y2="8.00003" gradientUnits="userSpaceOnUse">
<stop stop-color="#703C00"/>
<stop offset="1" stop-color="#EF9F40" stop-opacity="0.95"/>
</linearGradient>
<linearGradient id="paint1_linear" x1="183.5" y1="266" x2="3.99992" y2="69.9999" gradientUnits="userSpaceOnUse">
<stop stop-color="#B56A10"/>
<stop offset="1" stop-color="#E9993B"/>
</linearGradient>
</defs>
</svg>
