<svg width="274" height="123" viewBox="0 0 274 123" fill="none" xmlns="http://www.w3.org/2000/svg">
<path d="M200.896 121.412L2.0421 121.469L2.09666 39.2104L42.1235 20.3922L82.1503 1.574L273.032 1.51837L272.982 77.294L200.896 121.412Z" fill="#F5A649"/>
<path d="M2.09666 39.2104L200.951 39.1525M2.09666 39.2104L2.0421 121.469L200.896 121.412M2.09666 39.2104L42.1235 20.3922M200.951 39.1525L200.896 121.412M200.951 39.1525L237.468 21.4891M200.896 121.412L272.982 77.294L273.032 1.51837M273.032 1.51837L82.1503 1.574L42.1235 20.3922M273.032 1.51837L237.468 21.4891M237.468 21.4891L42.1235 20.3922" stroke="black"/>
<path d="M273.051 1.94775L200.63 39.1377V121.448L273.051 77.1481V1.94775Z" fill="url(#paint0_linear)" stroke="black"/>
<path d="M200.629 39.1377H1.875V121.721H200.629V39.1377Z" fill="url(#paint1_linear)" stroke="black"/>
<rect x="95.251" y="44.8413" width="99.9286" height="51.0357" fill="#C4C4C4" stroke="black" stroke-width="0.5"/>
<rect x="188.822" y="49.877" width="1.32143" height="42.2857" fill="black"/>
<rect x="184.858" y="49.877" width="2.64286" height="42.2857" fill="black"/>
<rect x="153.144" y="49.877" width="2.64286" height="42.2857" fill="black"/>
<rect x="149.18" y="49.877" width="2.64286" height="42.2857" fill="black"/>
<rect x="180.894" y="49.877" width="2.64286" height="42.2857" fill="black"/>
<rect x="179.572" y="49.877" width="2.64286" height="42.2857" fill="black"/>
<rect x="176.93" y="49.877" width="1.32143" height="42.2857" fill="black"/>
<rect x="174.287" y="49.877" width="1.32143" height="42.2857" fill="black"/>
<line x1="173.215" y1="49.877" x2="173.215" y2="92.1627" stroke="black" stroke-width="0.5"/>
<line x1="171.894" y1="49.877" x2="171.894" y2="92.1627" stroke="black" stroke-width="0.5"/>
<line x1="162.644" y1="49.877" x2="162.644" y2="92.1627" stroke="black" stroke-width="0.5"/>
<line x1="160.251" y1="49.877" x2="160.251" y2="92.1627" stroke="black"/>
<line x1="158.68" y1="49.877" x2="158.68" y2="92.1627" stroke="black" stroke-width="0.5"/>
<line x1="157.358" y1="49.877" x2="157.358" y2="92.1627" stroke="black" stroke-width="0.5"/>
<line x1="170.572" y1="49.877" x2="170.572" y2="92.1627" stroke="black" stroke-width="0.5"/>
<line x1="168.18" y1="49.877" x2="168.18" y2="92.1627" stroke="black"/>
<line x1="147.037" y1="49.877" x2="147.037" y2="92.1627" stroke="black"/>
<line x1="144.394" y1="49.877" x2="144.394" y2="92.1627" stroke="black"/>
<line x1="164.715" y1="49.877" x2="164.715" y2="92.1627" stroke="black" stroke-width="2"/>
<path fill-rule="evenodd" clip-rule="evenodd" d="M5 106.825C6.60842 102.095 12.2667 98.6016 19 98.6016C25.7334 98.6016 31.3918 102.096 33.0001 106.825C32.3532 105.814 31.087 105.127 29.6308 105.127C28.5054 105.127 27.4934 105.537 26.7931 106.191C25.8594 105.537 24.5101 105.127 23.0095 105.127C21.4006 105.127 19.9656 105.599 19.0303 106.336C18.095 105.599 16.66 105.127 15.0511 105.127C13.5318 105.127 12.1676 105.548 11.2328 106.215C10.5317 105.548 9.50855 105.127 8.36909 105.127C6.91304 105.127 5.64691 105.814 5 106.825Z" fill="black"/>
<path d="M14.9902 115.775C14.9902 117.004 15.8878 118 16.9949 118C18.1021 118 18.9996 117.004 18.9996 115.775V97" stroke="black" stroke-width="2" stroke-linecap="round"/>
<path d="M131.939 87H111.011V81.576C114.467 79.208 117.507 76.584 120.131 73.704C122.787 70.824 124.115 68.28 124.115 66.072C124.115 64.728 123.715 63.672 122.915 62.904C122.115 62.104 120.899 61.704 119.267 61.704C116.547 61.704 113.971 62.712 111.539 64.728V57.96C112.595 57.192 113.971 56.536 115.667 55.992C117.363 55.448 119.027 55.176 120.659 55.176C123.923 55.176 126.515 56.04 128.435 57.768C130.387 59.464 131.363 61.848 131.363 64.92C131.363 70.456 127.843 75.832 120.803 81.048H131.939V87Z" fill="black"/>
<defs>
<linearGradient id="paint0_linear" x1="205.458" y1="112.15" x2="239.009" y2="-5.60772" gradientUnits="userSpaceOnUse">
<stop stop-color="#885416"/>
<stop offset="1" stop-color="#EF9F40" stop-opacity="0.95"/>
</linearGradient>
<linearGradient id="paint1_linear" x1="148.728" y1="144.965" x2="60.3023" y2="2.90478" gradientUnits="userSpaceOnUse">
<stop stop-color="#B56A10"/>
<stop offset="1" stop-color="#E9993B"/>
</linearGradient>
</defs>
</svg>
