<svg width="162" height="144" viewBox="0 0 162 144" fill="none" xmlns="http://www.w3.org/2000/svg">
<path d="M118.923 142.132L1.62027 142.132L1.62027 45.8801L25.2245 23.8745L48.8286 1.86885L161.428 1.86882L161.428 90.5341L118.923 142.132Z" fill="#F5A649"/>
<path d="M1.62027 45.8801L118.923 45.8801M1.62027 45.8801L1.62027 142.132L118.923 142.132M1.62027 45.8801L25.2245 23.8745M118.923 45.8801L118.923 142.132M118.923 45.8801L140.457 25.2245M118.923 142.132L161.428 90.5341L161.428 1.86882M161.428 1.86882L48.8286 1.86885L25.2245 23.8745M161.428 1.86882L140.457 25.2245M140.457 25.2245L25.2245 23.8745" stroke="black"/>
<path d="M161.439 2.27881L118.719 45.7944V142.105L161.439 90.2699V2.27881Z" fill="url(#paint0_linear)" stroke="black"/>
<path d="M118.719 45.7947H1.47461V142.425H118.719V45.7947Z" fill="url(#paint1_linear)" stroke="black"/>
<rect x="28.25" y="51.5474" width="85" height="43.375" fill="#C4C4C4" stroke="black" stroke-width="0.5"/>
<rect x="107.875" y="55.7974" width="1.125" height="36" fill="black"/>
<rect x="104.5" y="55.7974" width="2.25" height="36" fill="black"/>
<rect x="77.5" y="55.7974" width="2.25" height="36" fill="black"/>
<rect x="74.125" y="55.7974" width="2.25" height="36" fill="black"/>
<rect x="101.125" y="55.7974" width="2.25" height="36" fill="black"/>
<rect x="100" y="55.7974" width="2.25" height="36" fill="black"/>
<rect x="97.75" y="55.7974" width="1.125" height="36" fill="black"/>
<rect x="95.5" y="55.7974" width="1.125" height="36" fill="black"/>
<line x1="94.625" y1="55.7974" x2="94.625" y2="91.7974" stroke="black" stroke-width="0.5"/>
<line x1="93.5" y1="55.7974" x2="93.5" y2="91.7974" stroke="black" stroke-width="0.5"/>
<line x1="85.625" y1="55.7974" x2="85.625" y2="91.7974" stroke="black" stroke-width="0.5"/>
<line x1="83.625" y1="55.7974" x2="83.625" y2="91.7974" stroke="black"/>
<line x1="82.25" y1="55.7974" x2="82.25" y2="91.7974" stroke="black" stroke-width="0.5"/>
<line x1="81.125" y1="55.7974" x2="81.125" y2="91.7974" stroke="black" stroke-width="0.5"/>
<line x1="92.375" y1="55.7974" x2="92.375" y2="91.7974" stroke="black" stroke-width="0.5"/>
<line x1="90.375" y1="55.7974" x2="90.375" y2="91.7974" stroke="black"/>
<line x1="72.375" y1="55.7974" x2="72.375" y2="91.7974" stroke="black"/>
<line x1="70.125" y1="55.7974" x2="70.125" y2="91.7974" stroke="black"/>
<line x1="87.5" y1="55.7974" x2="87.5" y2="91.7974" stroke="black" stroke-width="2"/>
<path d="M54.12 87H48.175V66.623L41.41 70.682V64.573L48.954 60.186H54.12V87Z" fill="black"/>
<defs>
<linearGradient id="paint0_linear" x1="121.567" y1="131.226" x2="185.377" y2="18.3148" gradientUnits="userSpaceOnUse">
<stop stop-color="#703C00"/>
<stop offset="1" stop-color="#EF9F40" stop-opacity="0.95"/>
</linearGradient>
<linearGradient id="paint1_linear" x1="88.1026" y1="169.622" x2="-24.6948" y2="78.2634" gradientUnits="userSpaceOnUse">
<stop stop-color="#B56A10"/>
<stop offset="1" stop-color="#E9993B"/>
</linearGradient>
</defs>
</svg>
