<svg width="159" height="225" viewBox="0 0 159 225" fill="none" xmlns="http://www.w3.org/2000/svg">
<path d="M116.726 221.116L1.60918 221.116L1.60918 71.3762L24.7735 37.1418L47.9379 2.9074L158.44 2.90735L158.44 140.845L116.726 221.116Z" fill="#F5A649"/>
<path d="M1.60918 71.3762L116.726 71.3762M1.60918 71.3762L1.60918 221.116L116.726 221.116M1.60918 71.3762L24.7735 37.1418M116.726 71.3762L116.726 221.116M116.726 71.3762L137.859 39.2421M116.726 221.116L158.44 140.845L158.439 2.90735M158.439 2.90735L47.9379 2.9074L24.7735 37.1418M158.439 2.90735L137.859 39.2421M137.859 39.2421L24.7735 37.1418" stroke="black"/>
<path d="M158.451 3.54541L116.526 71.2432V221.074L158.451 140.434V3.54541Z" fill="url(#paint0_linear)" stroke="black"/>
<path d="M116.526 71.2434H1.46582V221.572H116.526V71.2434Z" fill="url(#paint1_linear)" stroke="black"/>
<rect x="54.25" y="76.25" width="56.7116" height="30.1429" fill="#C4C4C4" stroke="black" stroke-width="0.5"/>
<rect x="107.448" y="79.1428" width="0.752785" height="25.1429" fill="black"/>
<rect x="105.189" y="79.1428" width="1.50557" height="25.1429" fill="black"/>
<rect x="87.1226" y="79.1428" width="1.50557" height="25.1429" fill="black"/>
<rect x="84.8643" y="79.1428" width="1.50557" height="25.1429" fill="black"/>
<rect x="102.931" y="79.1428" width="1.50557" height="25.1429" fill="black"/>
<rect x="102.178" y="79.1428" width="1.50557" height="25.1429" fill="black"/>
<rect x="100.673" y="79.1428" width="0.752785" height="25.1429" fill="black"/>
<rect x="99.167" y="79.1428" width="0.752785" height="25.1429" fill="black"/>
<line x1="98.6641" y1="79.1428" x2="98.6641" y2="104.286" stroke="black" stroke-width="0.5"/>
<line x1="97.9116" y1="79.1428" x2="97.9116" y2="104.286" stroke="black" stroke-width="0.5"/>
<line x1="92.6421" y1="79.1428" x2="92.6421" y2="104.286" stroke="black" stroke-width="0.5"/>
<line x1="91.3867" y1="79.1428" x2="91.3867" y2="104.286" stroke="black"/>
<line x1="90.3838" y1="79.1428" x2="90.3838" y2="104.286" stroke="black" stroke-width="0.5"/>
<line x1="89.6309" y1="79.1428" x2="89.6309" y2="104.286" stroke="black" stroke-width="0.5"/>
<line x1="97.1587" y1="79.1428" x2="97.1587" y2="104.286" stroke="black" stroke-width="0.5"/>
<line x1="95.9033" y1="79.1428" x2="95.9033" y2="104.286" stroke="black"/>
<line x1="83.8589" y1="79.1428" x2="83.8589" y2="104.286" stroke="black"/>
<line x1="82.353" y1="79.1428" x2="82.353" y2="104.286" stroke="black"/>
<line x1="94.1445" y1="79.1428" x2="94.1445" y2="104.286" stroke="black" stroke-width="2"/>
<defs>
<linearGradient id="paint0_linear" x1="119.321" y1="204.15" x2="234.503" y2="75.5816" gradientUnits="userSpaceOnUse">
<stop stop-color="#703C00"/>
<stop offset="1" stop-color="#EF9F40" stop-opacity="0.95"/>
</linearGradient>
<linearGradient id="paint1_linear" x1="86.4796" y1="263.883" x2="-58.8859" y2="189.613" gradientUnits="userSpaceOnUse">
<stop stop-color="#B56A10"/>
<stop offset="1" stop-color="#E9993B"/>
</linearGradient>
</defs>
</svg>
