<svg width="403" height="304" viewBox="0 0 403 304" fill="none" xmlns="http://www.w3.org/2000/svg">
<path d="M295.144 300.009L1.55312 300.062L1.58198 96.8601L60.6662 50.3922L119.75 3.92427L401.57 3.87339L401.543 191.06L295.144 300.009Z" fill="#F5A649"/>
<path d="M1.58198 96.8601L295.173 96.8072M1.58198 96.8601L1.55312 300.062L295.144 300.009M1.58198 96.8601L60.6662 50.3922M295.173 96.8072L295.144 300.009M295.173 96.8072L349.075 53.1904M295.144 300.009L401.543 191.06L401.57 3.87339M401.57 3.87339L119.75 3.92427L60.6662 50.3922M401.57 3.87339L349.075 53.1904M349.075 53.1904L60.6662 50.3922" stroke="black"/>
<path d="M401.597 4.81128L294.674 96.6797V300.006L401.597 190.575V4.81128Z" fill="url(#paint0_linear)" stroke="black"/>
<path d="M294.674 96.6797H1.23047V300.682H294.674V96.6797Z" fill="url(#paint1_linear)" stroke="black"/>
<rect x="170.25" y="103.25" width="117.714" height="69.3384" fill="#C4C4C4" stroke="black" stroke-width="0.5"/>
<rect x="280.437" y="110.163" width="1.55545" height="57.3033" fill="black"/>
<rect x="275.771" y="110.163" width="3.1109" height="57.3033" fill="black"/>
<rect x="238.439" y="110.163" width="3.1109" height="57.3033" fill="black"/>
<rect x="233.773" y="110.163" width="3.1109" height="57.3033" fill="black"/>
<rect x="271.104" y="110.163" width="3.1109" height="57.3033" fill="black"/>
<rect x="269.549" y="110.163" width="3.1109" height="57.3033" fill="black"/>
<rect x="266.438" y="110.163" width="1.55545" height="57.3033" fill="black"/>
<rect x="263.327" y="110.163" width="1.55545" height="57.3033" fill="black"/>
<line x1="262.021" y1="110.163" x2="262.021" y2="167.466" stroke="black" stroke-width="0.5"/>
<line x1="260.466" y1="110.163" x2="260.466" y2="167.466" stroke="black" stroke-width="0.5"/>
<line x1="249.578" y1="110.163" x2="249.578" y2="167.466" stroke="black" stroke-width="0.5"/>
<line x1="246.717" y1="110.163" x2="246.717" y2="167.466" stroke="black"/>
<line x1="244.912" y1="110.163" x2="244.912" y2="167.466" stroke="black" stroke-width="0.5"/>
<line x1="243.356" y1="110.163" x2="243.356" y2="167.466" stroke="black" stroke-width="0.5"/>
<line x1="258.91" y1="110.163" x2="258.91" y2="167.466" stroke="black" stroke-width="0.5"/>
<line x1="256.05" y1="110.163" x2="256.05" y2="167.466" stroke="black"/>
<line x1="231.163" y1="110.163" x2="231.163" y2="167.466" stroke="black"/>
<line x1="228.052" y1="110.163" x2="228.052" y2="167.466" stroke="black"/>
<line x1="251.884" y1="110.163" x2="251.884" y2="167.466" stroke="black" stroke-width="2"/>
<path d="M5.99902 249H27.999C27.999 249 27.6781 273.048 17.6028 273.973L18.499 274V294H21.999V296H12.499V294H15.999V273.924C6.31146 272.414 5.99902 249 5.99902 249Z" fill="black"/>
<path d="M15.999 273.924C16.3218 273.974 16.6551 274 16.999 274C27.6654 274 27.999 249 27.999 249H5.99902C5.99902 249 6.31146 272.414 15.999 273.924ZM15.999 273.924V294H18.499V274L15.999 273.924ZM12.499 294H21.999V296H12.499V294Z" stroke="black"/>
<path fill-rule="evenodd" clip-rule="evenodd" d="M27.999 271.123C31.2158 261.436 42.5324 254.28 55.999 254.28C69.4656 254.28 80.7821 261.436 83.999 271.122C82.7052 269.052 80.1729 267.645 77.2609 267.645C75.0099 267.645 72.9858 268.485 71.5853 269.824C69.7179 268.485 67.0192 267.645 64.0179 267.645C60.8001 267.645 57.9302 268.611 56.0596 270.121C54.1891 268.611 51.3191 267.645 48.1014 267.645C45.0628 267.645 42.3343 268.506 40.4647 269.874C39.0626 268.506 37.0162 267.645 34.7373 267.645C31.8251 267.645 29.2928 269.052 27.999 271.123Z" fill="black"/>
<path d="M47.9805 289.453C47.9805 291.97 49.7755 294.01 51.9898 294.01C54.2041 294.01 55.9992 291.97 55.9992 289.453V251" stroke="black" stroke-width="3" stroke-linecap="round"/>
<path d="M214.016 148.94C214.016 152.692 212.587 155.707 209.728 157.985C206.914 160.218 203.028 161.335 198.07 161.335C193.157 161.335 189.137 160.576 186.01 159.057V149.677C189.583 151.642 193.268 152.625 197.065 152.625C199.254 152.625 200.951 152.156 202.157 151.218C203.408 150.28 204.033 149.096 204.033 147.667C204.033 144.406 201.018 142.776 194.988 142.776H192.643V134.736H194.988C197.355 134.736 199.298 134.334 200.817 133.53C202.336 132.726 203.095 131.52 203.095 129.912C203.095 126.83 201.085 125.289 197.065 125.289C193.983 125.289 190.879 126.249 187.752 128.17V119.058C191.057 117.405 194.385 116.579 197.735 116.579C202.47 116.579 206.222 117.718 208.991 119.996C211.76 122.229 213.145 125.155 213.145 128.773C213.145 133.731 210.889 137.148 206.378 139.024C211.47 140.23 214.016 143.535 214.016 148.94Z" fill="black"/>
<defs>
<linearGradient id="paint0_linear" x1="301.802" y1="277.039" x2="423.965" y2="20.7692" gradientUnits="userSpaceOnUse">
<stop stop-color="#885416"/>
<stop offset="1" stop-color="#EF9F40" stop-opacity="0.95"/>
</linearGradient>
<linearGradient id="paint1_linear" x1="218.046" y1="358.099" x2="-25.1972" y2="124.537" gradientUnits="userSpaceOnUse">
<stop stop-color="#B56A10"/>
<stop offset="1" stop-color="#E9993B"/>
</linearGradient>
</defs>
</svg>
