<svg width="531" height="181" viewBox="0 0 531 181" fill="none" xmlns="http://www.w3.org/2000/svg">
<path d="M113.245 62.9216L103.258 71.1983L103.044 78.1592L107.827 86.1356L115.082 90.812L121.314 90.1775L125.87 84.4993L129.745 75.2805L129.692 67.6649L128.209 62.1603L122.29 60.7573L113.245 62.9216Z" fill="url(#paint0_linear)" stroke="black"/>
<path d="M20.0345 56.2863L37.9716 39.4188L49.9028 36.8403L72.7027 39.3727C79.0668 41.8668 92.0327 47.0635 92.984 47.8972C93.9353 48.731 99.6107 56.6486 102.33 60.5032L101.735 78.6938L90.8788 94.1986L75.6541 104.613L55.8668 110.398L44.1762 109.823L33.1136 105.173L23.4541 94.6048L15.8522 77.8503L20.0345 56.2863Z" fill="url(#paint1_radial)" stroke="black"/>
<path fill-rule="evenodd" clip-rule="evenodd" d="M104.897 66.2841C105.554 56.9784 97.9714 37.3394 62.384 33.229C17.8997 28.0909 12.4411 64.3049 12.4476 74.6126C12.4541 84.9204 20.6703 114.408 53.4842 112.471C79.7352 110.922 96.7642 92.5154 101.997 83.506C107.774 89.5496 117.743 97.5708 124.557 89.1914C126.291 87.0586 128.279 84.302 129.807 81.093C232.449 95.4893 247.622 93.1888 241.336 86.2077C236.307 80.6228 166.554 73.5791 132.306 70.7554C132.298 67.8729 131.671 64.8346 130.142 61.7086C126.676 54.6216 111.346 62.1246 104.897 66.2841ZM30.897 51.089C23.0118 59.5261 11.3524 80.2977 27.7964 95.8873C48.3514 115.374 91.015 104.198 98.3144 77.7984C104.154 56.6789 93.8316 50.1822 87.9405 49.5737C86.0441 50.6444 82.3725 55.0785 82.8564 64.2503C83.4613 75.7151 70.2972 70.9037 74.5595 60.763C77.9693 52.6505 81.1644 47.6296 82.3357 46.1332L74.0388 42.6459C71.2441 46.7142 65.7041 56.2817 65.9018 62.0054C66.1488 69.16 59.4401 62.0267 59.4486 59.293C59.4688 52.7931 60.7515 48.4509 67.1982 40.8555C65.4107 40.2849 61.516 39.4434 60.2373 40.6416C58.6389 42.1392 52.1204 53.501 52.1002 60.001C52.0801 66.501 40.944 60.7356 44.6251 51.9778C47.5699 44.9715 50.2613 41.1491 51.2389 40.1136C48.6759 39.7595 43.1864 39.6579 41.7327 42.0841C39.9156 45.117 38.7142 51.8465 40.133 57.5036C41.5519 63.1606 30.7097 61.8577 30.897 51.089ZM125.203 64.151C120.511 60.4983 109.506 69.6664 104.4 74.9326C105.609 81.9492 113.667 94.5185 121.288 86.3697C130.987 75.9995 129.427 67.4393 125.203 64.151Z" fill="black"/>
<path d="M143.397 65.7746L155.29 79.3691L149.758 91.2705L140.874 105.773L131.69 110.663L121.585 106.869L116.258 101.158L119.743 89.5021L110.389 79.7555L113.432 75.6035L122.182 70.1553L120.448 67.9208L116.984 59.4208L122.387 52.5426L129.828 53.4807L143.397 65.7746Z" fill="url(#paint2_angular)" stroke="black"/>
<path d="M187.951 100.118L171.436 59.2306L185.96 47.9588L190.787 57.6387L198.703 78.795L206.498 96.9124L202.521 104.474L189.931 104.399L187.951 100.118Z" fill="url(#paint3_linear)" stroke="black"/>
<path d="M212.856 66.4685L209.83 54.496L198.67 51.0732L190.358 53.0489L194.189 66.6348L198.765 78.2989L204.147 91.5763C205.674 94.1207 208.678 99.6062 208.478 101.194C208.278 102.781 212.363 102.355 214.431 101.944L227.462 94.5159L226.416 86.8247L217.558 77.1405L212.856 66.4685Z" fill="url(#paint4_linear)" stroke="black"/>
<path d="M174.588 70.2107L168.969 59.6666L161.49 59.6015L158.592 65.1705L156.229 71.9279L155.165 80.3611L159.063 89.4198C160.498 91.6485 174.37 93.6372 171.148 97.4949C170.254 98.5642 182.872 101.574 184.787 101.23L185.614 94.6762L184.588 87.9647L178.981 79.3319L174.588 70.2107Z" fill="url(#paint5_linear)" stroke="black"/>
<path d="M270.655 67.7082L279.91 54.2603L265.099 43.8256L251.884 48.711L243.871 60.2997L242.245 73.1976L262.817 89.9021L281.789 95.3178L285.77 83.7248L270.655 67.7082Z" fill="url(#paint6_angular)" stroke="black"/>
<path d="M226.508 58.1107L235.496 62.7716L239.639 73.8771L234.603 85.8411L228.771 88.1296L221.214 80.1213L214.59 68.703L214.974 57.6644L226.508 58.1107Z" fill="url(#paint7_linear)" stroke="black"/>
<path fill-rule="evenodd" clip-rule="evenodd" d="M241.387 63.2311C244.871 52.9192 256.363 34.781 274.462 44.723C297.085 57.1505 268.921 64.6867 274.682 70.9566C280.443 77.2265 295.137 80.591 286.749 95.1562C280.039 106.808 253.536 88.113 241.124 77.3088C238.735 88.2626 227.532 109.965 201.833 109.144C176.134 108.323 159.802 93.4296 154.848 86.0856C151.115 97.038 140.203 117.5 126.417 111.731C109.184 104.518 116.012 98.3238 115.337 91.6872C114.662 85.0506 107.467 86.1593 108.838 79.2768C110.21 72.3943 117.714 72.8364 118.277 68.3718C118.839 63.9071 112.824 63.6527 115.684 56.9578C118.544 50.263 125.37 40.088 153.994 72.875C153.572 61.5667 160.801 40.4719 193.093 46.5591C225.385 52.6463 238.744 60.2101 241.387 63.2311ZM267.325 49.3667C252.297 43.8436 246.623 57.6757 245.664 65.2822C245.12 69.2117 245.081 71.4367 247.885 75.6415C264.426 92.3417 285.757 95.0311 283.844 86.2226C281.931 77.4141 265.748 73.8619 267.182 66.4834C268.617 59.1048 286.109 56.2706 267.325 49.3667ZM235.675 68.5585C233.451 60.6179 223.385 59.4496 218.63 59.858C218.022 71.0701 226.008 81.2825 230.076 84.9872C232.869 82.8195 237.899 76.4991 235.675 68.5585ZM222.256 91.0566C212.391 82.959 207.296 64.4766 205.982 56.2475C203.42 55.2525 197.675 53.3859 195.194 53.8794C192.092 54.4963 202.354 85.0197 214.001 96.5674C218.07 96.274 221.2 92.7713 222.256 91.0566ZM201.037 99.4684C200.754 85.725 188.919 63.6715 183.038 54.3626C180.474 54.7113 175.246 56.2025 174.846 59.3773C174.446 62.5522 186.598 88.7447 192.724 101.444C196.693 101.944 199.92 100.335 201.037 99.4684ZM180.823 95.9119C181.523 90.3559 173.034 72.4197 168.701 64.1461C165.062 65.0312 157.768 69.3192 157.708 79.3908C157.648 89.4623 173.093 94.6014 180.823 95.9119ZM121.762 56.7162C126.781 48.8825 143.518 68.0265 151.259 78.5777C143.033 115.841 124.683 109.496 119.914 103.351C115.145 97.2066 124.758 96.9067 124.95 91.3873C125.142 85.868 113.424 82.8787 114.049 77.918C114.675 72.9572 125.713 73.3411 125.222 69.2474C124.73 65.1537 115.488 66.5083 121.762 56.7162Z" fill="black"/>
<path d="M356.245 61.9215L346.258 70.1982L346.044 77.1591L350.827 85.1355L358.082 89.8119L364.314 89.1774L368.87 83.4992L372.745 74.2804L372.692 66.6648L371.209 61.1602L365.29 59.7572L356.245 61.9215Z" fill="url(#paint8_linear)" stroke="black"/>
<path d="M263.035 55.2861L280.972 38.4187L292.903 35.8401L315.703 38.3726C322.067 40.8667 335.033 46.0634 335.984 46.8971C336.935 47.7308 342.611 55.6485 345.33 59.5031L344.735 77.6937L333.879 93.1985L318.654 103.613L298.867 109.398L287.176 108.823L276.114 104.173L266.454 93.6046L258.852 76.8502L263.035 55.2861Z" fill="url(#paint9_radial)" stroke="black"/>
<path fill-rule="evenodd" clip-rule="evenodd" d="M347.897 65.284C348.554 55.9783 340.971 36.3393 305.384 32.2288C260.9 27.0908 255.441 63.3048 255.448 73.6125C255.454 83.9203 263.67 113.407 296.484 111.471C322.735 109.922 339.764 91.5153 344.997 82.5059C350.774 88.5495 360.743 96.5707 367.557 88.1913C369.291 86.0584 371.279 83.3019 372.807 80.0929C475.449 94.4892 490.622 92.1886 484.336 85.2076C479.307 79.6227 409.554 72.579 375.306 69.7553C375.298 66.8728 374.671 63.8345 373.142 60.7085C369.676 53.6214 354.346 61.1245 347.897 65.284ZM273.897 50.0889C266.012 58.526 254.352 79.2976 270.796 94.8872C291.351 114.374 334.015 103.198 341.314 76.7982C347.154 55.6788 336.832 49.1821 330.94 48.5736C329.044 49.6442 325.372 54.0784 325.856 63.2502C326.461 74.7149 313.297 69.9036 317.56 59.7629C320.969 51.6504 324.164 46.6295 325.336 45.1331L317.039 41.6458C314.244 45.7141 308.704 55.2815 308.902 61.0053C309.149 68.1599 302.44 61.0266 302.449 58.2929C302.469 51.7929 303.751 47.4508 310.198 39.8553C308.411 39.2848 304.516 38.4433 303.237 39.6414C301.639 41.1391 295.12 52.5009 295.1 59.0009C295.08 65.5009 283.944 59.7355 287.625 50.9776C290.57 43.9714 293.261 40.1489 294.239 39.1135C291.676 38.7594 286.186 38.6577 284.733 41.084C282.916 44.1168 281.714 50.8464 283.133 56.5034C284.552 62.1605 273.71 60.8576 273.897 50.0889ZM368.203 63.1509C363.511 59.4982 352.506 68.6663 347.4 73.9325C348.609 80.9491 356.667 93.5184 364.288 85.3696C373.987 74.9994 372.427 66.4391 368.203 63.1509Z" fill="black"/>
<path d="M379.397 60.7746L391.29 74.3691L385.758 86.2705L376.874 100.773L367.69 105.663L357.585 101.869L352.258 96.1577L355.743 84.5021L346.389 74.7555L349.432 70.6035L358.182 65.1553L356.448 62.9208L352.984 54.4208L358.387 47.5426L365.828 48.4807L379.397 60.7746Z" fill="url(#paint10_angular)" stroke="black"/>
<path d="M423.951 95.1176L407.436 54.2306L421.96 42.9588L426.787 52.6387L434.703 73.795L442.498 91.9124L438.521 99.4743L425.931 99.3989L423.951 95.1176Z" fill="url(#paint11_linear)" stroke="black"/>
<path d="M448.856 61.4685L445.83 49.496L434.67 46.0732L426.358 48.0489L430.189 61.6348L434.765 73.2989L440.147 86.5763C441.674 89.1207 444.678 94.6062 444.478 96.1936C444.278 97.7811 448.363 97.3554 450.431 96.9442L463.462 89.5159L462.416 81.8247L453.558 72.1405L448.856 61.4685Z" fill="url(#paint12_linear)" stroke="black"/>
<path d="M410.588 65.2107L404.969 54.6666L397.49 54.6015L394.592 60.1705L392.229 66.9279L391.165 75.3611L395.063 84.4198C396.498 86.6485 410.37 88.6372 407.148 92.4949C406.254 93.5642 418.872 96.5741 420.787 96.2305L421.614 89.6762L420.588 82.9647L414.981 74.3319L410.588 65.2107Z" fill="url(#paint13_linear)" stroke="black"/>
<path d="M506.655 62.7082L515.91 49.2603L501.099 38.8256L487.884 43.711L479.871 55.2997L478.245 68.1976L498.817 84.9021L517.789 90.3178L521.77 78.7248L506.655 62.7082Z" fill="url(#paint14_angular)" stroke="black"/>
<path d="M462.508 53.1107L471.496 57.7716L475.639 68.8771L470.603 80.8411L464.771 83.1296L457.214 75.1213L450.59 63.703L450.974 52.6644L462.508 53.1107Z" fill="url(#paint15_linear)" stroke="black"/>
<path fill-rule="evenodd" clip-rule="evenodd" d="M477.387 58.2311C480.871 47.9192 492.363 29.781 510.462 39.723C533.085 52.1505 504.921 59.6867 510.682 65.9566C516.443 72.2265 531.137 75.591 522.749 90.1562C516.039 101.808 489.536 83.113 477.124 72.3088C474.735 83.2626 463.532 104.965 437.833 104.144C412.134 103.323 395.802 88.4296 390.848 81.0856C387.115 92.038 376.203 112.5 362.417 106.731C345.184 99.5183 352.012 93.3238 351.337 86.6872C350.662 80.0506 343.467 81.1593 344.838 74.2768C346.21 67.3943 353.714 67.8364 354.277 63.3718C354.839 58.9071 348.824 58.6527 351.684 51.9578C354.544 45.263 361.37 35.088 389.994 67.875C389.572 56.5667 396.801 35.4719 429.093 41.5591C461.385 47.6463 474.744 55.2101 477.387 58.2311ZM503.325 44.3667C488.297 38.8436 482.623 52.6757 481.664 60.2822C481.12 64.2117 481.081 66.4367 483.885 70.6415C500.426 87.3417 521.757 90.0311 519.844 81.2226C517.931 72.4141 501.748 68.8619 503.182 61.4834C504.617 54.1048 522.109 51.2706 503.325 44.3667ZM471.675 63.5585C469.451 55.6179 459.385 54.4496 454.63 54.858C454.022 66.0701 462.008 76.2825 466.076 79.9872C468.869 77.8195 473.899 71.4991 471.675 63.5585ZM458.256 86.0566C448.391 77.959 443.296 59.4766 441.982 51.2475C439.42 50.2525 433.675 48.3859 431.194 48.8794C428.092 49.4963 438.354 80.0197 450.001 91.5674C454.07 91.274 457.2 87.7713 458.256 86.0566ZM437.037 94.4684C436.754 80.725 424.919 58.6715 419.038 49.3626C416.474 49.7113 411.246 51.2025 410.846 54.3773C410.446 57.5522 422.598 83.7447 428.724 96.4441C432.693 96.9445 435.92 95.3355 437.037 94.4684ZM416.823 90.9119C417.523 85.3559 409.034 67.4197 404.701 59.1461C401.062 60.0312 393.768 64.3192 393.708 74.3908C393.648 84.4623 409.093 89.6014 416.823 90.9119ZM357.762 51.7162C362.781 43.8825 379.518 63.0265 387.259 73.5777C379.033 110.841 360.683 104.496 355.914 98.3513C351.145 92.2066 360.758 91.9067 360.95 86.3873C361.142 80.868 349.424 77.8787 350.049 72.918C350.675 67.9572 361.713 68.3411 361.222 64.2474C360.73 60.1537 351.488 61.5083 357.762 51.7162Z" fill="black"/>
<defs>
<linearGradient id="paint0_linear" x1="104.13" y1="69.1241" x2="128.098" y2="79.1985" gradientUnits="userSpaceOnUse">
<stop stop-color="#52EAF5"/>
<stop offset="1" stop-color="#400045"/>
</linearGradient>
<radialGradient id="paint1_radial" cx="0" cy="0" r="1" gradientUnits="userSpaceOnUse" gradientTransform="translate(56.3285 73.1681) rotate(23.3052) scale(44.0017 39.9268)">
<stop stop-color="#4EFFFF"/>
<stop offset="1" stop-color="#760181"/>
</radialGradient>
<radialGradient id="paint2_angular" cx="0" cy="0" r="1" gradientUnits="userSpaceOnUse" gradientTransform="translate(133.15 79.0975) rotate(178.967) scale(22.7335 28.8639)">
<stop offset="0.48954" stop-color="#FB8801"/>
<stop offset="0.992635" stop-color="#E80A0A"/>
</radialGradient>
<linearGradient id="paint3_linear" x1="198.49" y1="104.47" x2="177.706" y2="53.4696" gradientUnits="userSpaceOnUse">
<stop offset="0.0447915" stop-color="#792703"/>
<stop offset="0.51875" stop-color="#FB6C04"/>
<stop offset="0.95625" stop-color="#792703"/>
</linearGradient>
<linearGradient id="paint4_linear" x1="219.954" y1="98.105" x2="197.12" y2="51.3816" gradientUnits="userSpaceOnUse">
<stop offset="0.0916665" stop-color="#630D0D"/>
<stop offset="0.26875" stop-color="#87220C"/>
<stop offset="0.492708" stop-color="#EA400A"/>
<stop offset="0.773958" stop-color="#87400C"/>
<stop offset="1" stop-color="#630D0D"/>
</linearGradient>
<linearGradient id="paint5_linear" x1="174.866" y1="99.9796" x2="168.014" y2="55.0367" gradientUnits="userSpaceOnUse">
<stop offset="0.0916665" stop-color="#6D1B0D"/>
<stop offset="0.26875" stop-color="#9C290C"/>
<stop offset="0.451042" stop-color="#E3400B"/>
<stop offset="0.690625" stop-color="#AA400C"/>
<stop offset="1" stop-color="#6A110E"/>
</linearGradient>
<radialGradient id="paint6_angular" cx="0" cy="0" r="1" gradientUnits="userSpaceOnUse" gradientTransform="translate(260.979 68.5042) rotate(-171.223) scale(18.0069 18.1856)">
<stop stop-color="#FF0000"/>
<stop offset="0.376691" stop-color="#FB8602"/>
</radialGradient>
<linearGradient id="paint7_linear" x1="234.979" y1="82.8647" x2="222.169" y2="56.5557" gradientUnits="userSpaceOnUse">
<stop stop-color="#8A3500"/>
<stop offset="0.445833" stop-color="#FA8202"/>
<stop offset="1" stop-color="#8A3500"/>
</linearGradient>
<linearGradient id="paint8_linear" x1="347.13" y1="68.124" x2="371.098" y2="78.1984" gradientUnits="userSpaceOnUse">
<stop stop-color="#52EAF5"/>
<stop offset="1" stop-color="#400045"/>
</linearGradient>
<radialGradient id="paint9_radial" cx="0" cy="0" r="1" gradientUnits="userSpaceOnUse" gradientTransform="translate(299.329 72.168) rotate(23.3052) scale(44.0017 39.9268)">
<stop stop-color="#4EFFFF"/>
<stop offset="1" stop-color="#760181"/>
</radialGradient>
<radialGradient id="paint10_angular" cx="0" cy="0" r="1" gradientUnits="userSpaceOnUse" gradientTransform="translate(369.15 74.0975) rotate(178.967) scale(22.7335 28.8639)">
<stop offset="0.48954" stop-color="#FB8801"/>
<stop offset="0.992635" stop-color="#E80A0A"/>
</radialGradient>
<linearGradient id="paint11_linear" x1="434.49" y1="99.47" x2="413.706" y2="48.4696" gradientUnits="userSpaceOnUse">
<stop offset="0.0447915" stop-color="#792703"/>
<stop offset="0.51875" stop-color="#FB6C04"/>
<stop offset="0.95625" stop-color="#792703"/>
</linearGradient>
<linearGradient id="paint12_linear" x1="455.954" y1="93.105" x2="433.12" y2="46.3816" gradientUnits="userSpaceOnUse">
<stop offset="0.0916665" stop-color="#630D0D"/>
<stop offset="0.26875" stop-color="#87220C"/>
<stop offset="0.492708" stop-color="#EA400A"/>
<stop offset="0.773958" stop-color="#87400C"/>
<stop offset="1" stop-color="#630D0D"/>
</linearGradient>
<linearGradient id="paint13_linear" x1="410.866" y1="94.9796" x2="404.014" y2="50.0367" gradientUnits="userSpaceOnUse">
<stop offset="0.0916665" stop-color="#6D1B0D"/>
<stop offset="0.26875" stop-color="#9C290C"/>
<stop offset="0.451042" stop-color="#E3400B"/>
<stop offset="0.690625" stop-color="#AA400C"/>
<stop offset="1" stop-color="#6A110E"/>
</linearGradient>
<radialGradient id="paint14_angular" cx="0" cy="0" r="1" gradientUnits="userSpaceOnUse" gradientTransform="translate(496.979 63.5042) rotate(-171.223) scale(18.0069 18.1856)">
<stop stop-color="#FF0000"/>
<stop offset="0.376691" stop-color="#FB8602"/>
</radialGradient>
<linearGradient id="paint15_linear" x1="470.979" y1="77.8647" x2="458.169" y2="51.5557" gradientUnits="userSpaceOnUse">
<stop stop-color="#8A3500"/>
<stop offset="0.445833" stop-color="#FA8202"/>
<stop offset="1" stop-color="#8A3500"/>
</linearGradient>
</defs>
</svg>
