<svg width="361" height="129" viewBox="0 0 361 129" fill="none" xmlns="http://www.w3.org/2000/svg">
<path d="M34.3712 53.1356C30.2392 52.1912 21.594 50.1888 20.0684 49.7355L31.0338 66.4529C33.2587 74.1033 37.5178 89.5173 36.755 89.9707C35.8014 90.5374 37.2317 108.672 37.7085 112.355C38.1852 116.039 59.1627 117.455 63.9303 118.589C67.7444 119.495 85.8612 113.677 94.4429 110.655L133.537 86.8539C131.471 76.2756 126.577 52.909 123.525 44.0686C120.474 35.2281 111.13 31.1291 106.839 30.1846L109.699 44.0686L97.7802 35.0015L79.6633 60.2193L57.2556 46.3353L34.3712 53.1356Z" fill="url(#paint0_linear)" stroke="black"/>
<path d="M129.725 63.9027L131.632 82.0369V91.6707C131.632 92.8041 185.03 104.705 188.367 105.271C191.704 105.838 246.532 95.3542 249.392 93.9374C252.253 92.5207 308.034 72.6865 309.941 71.2697C311.466 70.1363 311.53 47.3742 311.371 36.1348L270.37 23.6675C268.622 24.8953 265.03 27.351 264.649 27.351C264.267 27.351 260.358 25.462 258.451 24.5175C256.703 25.0842 252.825 26.6143 251.299 28.2011C249.774 29.7878 247.485 28.2955 246.532 27.351L241.764 21.6841C238.745 24.5175 232.706 30.4112 232.706 31.3179C232.706 32.2246 226.349 27.1621 223.17 24.5175L209.344 40.6683L188.367 32.4513L158.331 43.5018L151.656 36.1348L153.087 24.5175L137.354 31.3179C133.222 34.5291 124.767 41.235 124.004 42.3684C123.242 43.5018 127.501 57.1968 129.725 63.9027Z" fill="url(#paint1_linear)" stroke="black"/>
<path d="M358.093 76.6535C329.965 93.3709 273.516 126.976 272.753 127.656L271.8 78.3535L273.23 63.0528L275.137 58.8026L271.8 55.1191L273.23 53.7024L283.719 40.9518L307.08 53.7024V17.1507L331.395 22.8176C333.683 16.4707 346.969 7.328 353.326 3.55005C351.895 6.10017 348.749 14.3172 347.605 26.7845C346.46 39.2517 354.12 65.2252 358.093 76.6535Z" fill="url(#paint2_radial)" stroke="black"/>
<path d="M219.357 84.8705C218.975 85.3239 217.608 87.8929 216.973 89.1207L194.088 78.6369C190.91 82.0371 184.458 88.8941 184.076 89.1207C183.695 89.3474 177.243 87.1373 174.064 86.0039L163.099 89.6874L154.04 74.1034L141.645 86.854L125.912 80.9037H106.364L94.4454 93.9376L80.1426 88.8374L59.1652 105.555L30.5596 98.4712L33.4201 106.688L30.5596 120.006L28.1758 127.939H114.469H271.323V82.3204L273.707 58.5193V56.5359V51.719L246.532 74.1034C242.241 72.97 233.469 70.6465 232.706 70.4198C231.752 70.1365 219.357 72.6866 219.357 73.2533C219.357 73.82 219.833 84.3038 219.357 84.8705Z" fill="url(#paint3_radial)" stroke="black"/>
<path d="M278.474 58.8027C272.814 58.8027 272.754 65.8474 272.753 126.806C272.753 127.461 272.753 128.122 272.753 128.789H26.2682C26.6937 127.841 27.1381 126.77 27.5793 125.608L29.6055 126.806H270.369C268.462 76.7101 271.164 60.0305 272.753 57.9527L270.369 55.9692L247.008 75.5202L233.659 72.6867L223.17 75.5202L217.926 90.8208L193.611 80.3371L184.553 91.6709L172.634 87.4207L162.145 91.6709L151.656 76.9369L143.074 88.8374L123.527 81.4704H106.841L96.3519 95.6377L80.1421 89.9708L60.1182 107.255L34.8499 101.305C41.7152 108.332 34.2142 121.233 29.6055 126.806L27.5793 125.608C30.2773 118.502 32.8536 107.991 30.2237 101.305C29.4283 99.2824 28.1567 97.6101 26.2682 96.4877L34.8499 98.6063L39.1408 99.6656L57.2576 104.138L80.1421 87.4207L93.0146 91.6709L105.41 80.3371H125.434L129.368 81.4704L133.301 82.6038L141.167 84.8706L154.517 72.6867L168.104 87.4207L171.68 84.5873L176.448 81.4704L180.262 87.4207L193.611 76.9369L217.926 87.4207V72.6867L233.659 68.4365L242.717 72.6867L247.008 69.6969L248.817 68.4365L270.369 53.4191L274.422 56.1109L278.474 58.8027Z" fill="black"/>
<path d="M360 76.9369L272.753 128.789L272.753 126.806L356.186 76.9369C343.218 38.4018 346.969 14.034 350.465 6.66693C346.27 8.36615 336.639 19.6533 332.348 25.0845L311.371 20.8343C315.948 29.9013 311.371 48.0355 308.51 55.9692L283.719 42.3686L274.422 56.1109L270.369 53.4191L283.719 39.2518L305.65 50.5856V38.1184V32.7348V14.884L329.488 21.6843C340.93 6.04357 354.597 1.3778 360 1C340.167 12.7873 351.736 56.536 360 76.9369Z" fill="black"/>
<path d="M34.8499 98.6063C35.1678 81.7494 28.8428 46.9021 0.999998 42.3686C6.3238 42.6519 19.093 44.692 27.5793 50.5856L57.2576 45.4854L80.1421 57.9527L96.3519 32.1681L106.841 39.2518C105.887 35.9461 104.266 29.3347 105.41 29.3347C106.255 29.3347 115.829 28.9394 123.527 39.8202C124.676 41.4444 125.784 43.3199 126.814 45.4854C130.569 53.3782 133.301 65.1245 133.301 82.6038L129.368 81.4704C126.221 41.5753 114.31 32.1681 108.748 32.4515L112.562 48.0355L97.3055 38.1184C92.5379 45.4854 82.4306 60.4461 80.1421 61.3528C77.8536 62.2595 63.9322 52.8524 57.2576 48.0355L32.4662 55.9692L26.2682 53.4191C33.8963 61.1261 38.0283 87.4613 39.1408 99.6656L34.8499 98.6063Z" fill="black"/>
<path d="M123.527 39.8202C131.553 34.0582 149.654 22.3643 157.854 21.6843C154.437 24.8956 149.654 33.5282 157.854 42.3686C159.761 41.6886 178.355 34.3404 187.413 30.7514L209.344 39.8202C213.953 33.2082 223.17 20.1542 223.17 20.8343C223.17 21.5143 228.891 26.0289 231.752 28.2013L242.717 18.5675L248.817 26.7845L258.927 20.8343L264.171 26.7845L270.369 21.6843L305.65 32.7348V38.1184L270.369 25.0845L264.171 29.3347L255.59 26.7845L250.822 30.7514L240.333 25.0845L233.659 33.8682L223.17 26.7845L209.344 42.3686L187.89 33.8682L157.854 45.4854C149.654 41.4052 148.716 31.3181 149.272 26.7845C134.779 32.4515 128.261 41.613 126.814 45.4854C125.784 43.3199 124.676 41.4444 123.527 39.8202Z" fill="black"/>
<path d="M272.753 128.789H26.2682C26.6937 127.841 27.1381 126.77 27.5793 125.608M272.753 128.789L360 76.9369C351.736 56.536 340.167 12.7873 360 1C354.597 1.3778 340.93 6.04357 329.488 21.6843L305.65 14.884V32.7348M272.753 128.789C272.753 128.122 272.753 127.461 272.753 126.806M272.753 128.789L272.753 126.806M270.369 53.4191L248.817 68.4365L247.008 69.6969L242.717 72.6867L233.659 68.4365L217.926 72.6867V87.4207L193.611 76.9369L180.262 87.4207L176.448 81.4704L171.68 84.5873L168.104 87.4207M270.369 53.4191L283.719 39.2518L305.65 50.5856V38.1184M270.369 53.4191L274.422 56.1109M164.529 89.9708L168.104 87.4207M168.104 87.4207L154.517 72.6867L141.167 84.8706L133.301 82.6038M29.6055 126.806H270.369C268.462 76.7101 271.164 60.0305 272.753 57.9527L270.369 55.9692L247.008 75.5202L233.659 72.6867L223.17 75.5202L217.926 90.8208L193.611 80.3371L184.553 91.6709L172.634 87.4207L162.145 91.6709L151.656 76.9369L143.074 88.8374L123.527 81.4704H106.841L96.3519 95.6377L80.1421 89.9708L60.1182 107.255L34.8499 101.305C41.7152 108.332 34.2142 121.233 29.6055 126.806ZM29.6055 126.806L27.5793 125.608M27.5793 125.608C30.2773 118.502 32.8536 107.991 30.2237 101.305C29.4283 99.2824 28.1567 97.6101 26.2682 96.4877L34.8499 98.6063M274.422 56.1109L278.474 58.8027C272.814 58.8027 272.754 65.8474 272.753 126.806M274.422 56.1109L283.719 42.3686L308.51 55.9692C311.371 48.0355 315.948 29.9013 311.371 20.8343L332.348 25.0845C336.639 19.6533 346.27 8.36615 350.465 6.66693C346.969 14.034 343.218 38.4018 356.186 76.9369L272.753 126.806M34.8499 98.6063C35.1678 81.7494 28.8428 46.9021 0.999998 42.3686C6.3238 42.6519 19.093 44.692 27.5793 50.5856L57.2576 45.4854L80.1421 57.9527L96.3519 32.1681L106.841 39.2518C105.887 35.9461 104.266 29.3347 105.41 29.3347C106.255 29.3347 115.829 28.9394 123.527 39.8202M34.8499 98.6063L39.1408 99.6656M133.301 82.6038L129.368 81.4704M133.301 82.6038C133.301 65.1245 130.569 53.3782 126.814 45.4854M123.527 39.8202C131.553 34.0582 149.654 22.3643 157.854 21.6843C154.437 24.8956 149.654 33.5282 157.854 42.3686C159.761 41.6886 178.355 34.3404 187.413 30.7514L209.344 39.8202C213.953 33.2082 223.17 20.1542 223.17 20.8343C223.17 21.5143 228.891 26.0289 231.752 28.2013L242.717 18.5675L248.817 26.7845L258.927 20.8343L264.171 26.7845L270.369 21.6843L305.65 32.7348M123.527 39.8202C124.676 41.4444 125.784 43.3199 126.814 45.4854M305.65 32.7348V38.1184M39.1408 99.6656L57.2576 104.138L80.1421 87.4207L93.0146 91.6709L105.41 80.3371H125.434L129.368 81.4704M39.1408 99.6656C38.0283 87.4613 33.8963 61.1261 26.2682 53.4191L32.4662 55.9692L57.2576 48.0355C63.9322 52.8524 77.8536 62.2595 80.1421 61.3528C82.4306 60.4461 92.5379 45.4854 97.3055 38.1184L112.562 48.0355L108.748 32.4515C114.31 32.1681 126.221 41.5753 129.368 81.4704M126.814 45.4854C128.261 41.613 134.779 32.4515 149.272 26.7845C148.716 31.3181 149.654 41.4052 157.854 45.4854L187.89 33.8682L209.344 42.3686L223.17 26.7845L233.659 33.8682L240.333 25.0845L250.822 30.7514L255.59 26.7845L264.171 29.3347L270.369 25.0845L305.65 38.1184" stroke="black" stroke-width="0.2"/>
<defs>
<linearGradient id="paint0_linear" x1="74.419" y1="49.1688" x2="89.7105" y2="114.888" gradientUnits="userSpaceOnUse">
<stop stop-color="#563700"/>
<stop offset="1" stop-color="#211600"/>
</linearGradient>
<linearGradient id="paint1_linear" x1="217.672" y1="21.6841" x2="217.672" y2="105.293" gradientUnits="userSpaceOnUse">
<stop stop-color="#5D3C00"/>
<stop offset="1" stop-color="#0B0700"/>
</linearGradient>
<radialGradient id="paint2_radial" cx="0" cy="0" r="1" gradientUnits="userSpaceOnUse" gradientTransform="translate(301.359 44.6353) rotate(133.003) scale(99.9608 48.5933)">
<stop stop-color="#473000"/>
<stop offset="1" stop-color="#834F03"/>
</radialGradient>
<radialGradient id="paint3_radial" cx="0" cy="0" r="1" gradientUnits="userSpaceOnUse" gradientTransform="translate(183.6 75.8034) rotate(173.315) scale(206.89 37.9527)">
<stop stop-color="#211500"/>
<stop offset="0.184529" stop-color="#563800"/>
<stop offset="1" stop-color="#834F02"/>
</radialGradient>
</defs>
</svg>
