<svg width="498" height="247" viewBox="0 0 498 247" fill="none" xmlns="http://www.w3.org/2000/svg">
<path d="M39.2309 113.712C33.1725 118.478 21.0557 128.095 21.0557 128.431C27.1141 138.104 38.1028 159.048 33.5903 165.441C27.9497 173.432 108.798 194.46 116.946 199.086C125.093 203.712 276.763 218.853 283.657 222.638C290.551 226.423 387.068 192.357 400.856 188.572C411.887 185.544 432.611 138.805 441.594 115.814L457.263 35.066L477.945 20.7669L474.811 16.5612L441.594 6.46766L422.792 4.7854L418.405 43.0568L416.525 54.8326L373.907 53.9914L332.542 86.3749L283.657 49.7858L283.03 53.9914C283.239 56.7952 283.657 62.4868 283.657 62.8233C283.657 63.1597 285.746 87.6366 286.791 99.833L259.841 77.1225C252.738 78.1038 238.407 80.1506 237.906 80.487C237.404 80.8235 231.012 96.3283 227.878 104.039L216.597 80.9076L195.914 105.721L173.979 89.3189C166.667 94.5058 151.792 105.048 150.79 105.721C149.787 106.394 148.283 104.039 147.656 102.777L127.6 80.9076L125.093 79.2253L128.854 88.4777L134.495 101.095L135.748 115.814L108.798 86.3749L85.6093 103.197L64.3003 96.889L39.2309 113.712Z" fill="url(#paint0_linear)" stroke="black"/>
<path d="M27.3241 125.487C20.0122 130.113 5.26311 139.534 4.76172 140.207L9.14886 144.413L12.2825 153.244L14.7895 164.6L16.6697 177.637L18.5499 195.721L19.8033 245.348H36.0984H64.9282H95.0114H126.348L160.192 245.769L195.916 245.348L227.879 244.928L258.589 245.348C271.541 245.208 297.321 245.012 296.82 245.348C296.318 245.685 325.858 245.208 340.691 244.928L334.424 228.946L331.29 212.124L321.262 150.721L320.636 144.833L316.875 145.674L299.953 157.871L288.672 145.254L271.75 123.805L256.082 136.842L251.695 139.366L237.907 120.861H213.464L200.929 139.786L189.648 154.927L186.515 142.31L181.501 124.646L176.487 111.609L163.325 136.001L147.03 127.59C145.15 129.553 141.39 133.646 141.39 134.319C141.39 134.992 128.855 123.384 122.588 117.497L90.6243 132.216L88.1173 121.282L89.3708 114.973L83.1035 109.926L71.8222 105.721C67.2262 106.982 57.9088 109.59 57.4074 109.926C56.906 110.263 37.143 120.44 27.3241 125.487Z" fill="url(#paint1_radial)" stroke="black"/>
<path d="M329.41 202.871L320.009 144.412L325.649 140.627L346.958 176.796L351.345 167.543L355.733 144.833V110.767L387.069 129.693L387.696 92.6829L417.779 104.879L427.18 57.3555L449.116 56.5143L444.102 34.645L452.25 32.5422L475.439 19.0841C472.932 23.4299 467.793 32.2057 467.291 32.5422C466.79 32.8786 460.397 57.3555 457.264 69.5518L456.01 97.7297V130.954L457.89 165.861L340.691 244.927L335.05 233.151L329.41 202.871Z" fill="url(#paint2_radial)" stroke="black"/>
<path d="M341.99 246.837L459.77 168.139C456.427 140.101 446.608 18.4176 498 17.1559C496.5 17.1559 472.028 15.9152 470.424 17.1559C467.737 19.234 456.69 25.2203 455.382 27.1514L442.848 33.4599L448.488 56.1704H425.299L418.405 98.2268L385.815 89.8155L383.308 126.825L350.091 104.956C360.119 112.358 352.598 169.162 346.331 174.349L330.036 135.657C329.902 135.747 329.771 135.839 329.642 135.933C327.375 137.591 325.825 139.967 324.836 142.807L346.331 178.975C356.358 176.62 357.612 124.582 358.865 113.788L388.949 132.713V95.7034L418.405 107.479L428.433 58.6937L449.742 57.0115L445.981 35.1421H451.622C453.628 34.4692 467.499 24.4457 467.917 25.1466C447.228 42.3898 453.92 145.643 455.382 165.615L340.267 242.115C340.847 243.84 341.431 245.43 341.99 246.837Z" fill="black"/>
<path d="M324.836 142.807C325.825 139.967 327.375 137.591 329.642 135.933C329.642 135.933 322.501 140.938 317.925 144.145C315.374 152.875 331.755 235.909 337.603 243.893L340.267 242.115C336.72 231.569 321.379 152.731 324.836 142.807Z" fill="black"/>
<path d="M1 140.704C8.52081 140.704 17.9689 153.64 17.9689 246.837H341.99C341.431 245.43 340.847 243.84 340.267 242.115L337.603 243.893H21.1025C23.6095 169.537 10.6099 142.526 8.52081 139.442L11.6545 136.498L52.3925 112.947L69.941 108.741L83.7292 112.947L90.6233 135.657L122.587 120.096L140.762 136.919L150.163 130.61L163.951 136.919L177.739 115.049L189.02 157.947L214.717 121.778H236.652L250.44 142.807L271.749 125.984L298.072 160.05C298.072 160.05 321.888 149.039 317.925 144.145C311.64 148.55 301.833 155.424 301.833 155.424L271.749 122.199L254.828 136.919L238.532 120.096H212.21L191.527 152.059L175.859 108.741L160.817 134.395L156.117 130.61L151.416 126.405L145.149 121.778L140.135 130.61L122.587 115.049L90.6233 130.61V108.741L69.941 102.432L25.4426 125.241L55.5258 104.303L63.6737 98.6474L85.6094 104.303L108.799 88.1333L137.628 119.353C140.295 98.4358 132.681 94.0515 126.655 80.1425L150.163 108.839L173.979 93.18L195.915 108.741L214.717 83.9276L227.878 107.479L237.906 82.2454L259.215 78.0397L289.925 104.115L283.031 52.3853V94.8623L259.215 75.5163L237.906 78.4603L227.878 99.9091L217.85 78.4603L195.915 102.432L173.979 86.8716L150.163 102.432L122.587 75.6144C122.587 75.6144 135.957 103.414 132.614 110.844L108.799 84.7687L83.7292 102.432L64.9272 94.8623L53.1479 102.432L11.6545 132.713L1 140.704Z" fill="black"/>
<path d="M498 17.1559C494.031 16.5951 427.806 -0.269372 420.285 1.07643C410.884 2.75869 419.659 38.0861 415.898 52.3853H371.4L330.662 81.8248L283.031 48.1796V52.3853L331.289 90.6566L376.414 56.1704H418.405C420.285 -21.536 431.566 14.6325 470.424 17.1559C472.028 15.9152 496.5 17.1559 498 17.1559Z" fill="black"/>
<path d="M341.99 246.837H17.9689C17.9689 153.64 8.52081 140.704 1 140.704L11.6545 132.713L53.1479 102.432L64.9272 94.8623L83.7292 102.432L108.799 84.7687L132.614 110.844C135.957 103.414 122.587 75.6144 122.587 75.6144L150.163 102.432L173.979 86.8716L195.915 102.432L217.85 78.4603L227.878 99.9091L237.906 78.4603L259.215 75.5163L283.031 94.8623M341.99 246.837L459.77 168.139C456.427 140.101 446.608 18.4176 498 17.1559M341.99 246.837C341.431 245.43 340.847 243.84 340.267 242.115M330.036 135.657L346.331 174.349C352.598 169.162 360.119 112.358 350.091 104.956L383.308 126.825L385.815 89.8155L418.405 98.2268L425.299 56.1704H448.488L442.848 33.4599L455.382 27.1514C456.69 25.2203 467.737 19.234 470.424 17.1559M330.036 135.657L329.642 135.933M330.036 135.657C329.902 135.747 329.771 135.839 329.642 135.933M498 17.1559C494.031 16.5951 427.806 -0.269372 420.285 1.07643C410.884 2.75869 419.659 38.0861 415.898 52.3853H371.4L330.662 81.8248L283.031 48.1796M498 17.1559C496.5 17.1559 472.028 15.9152 470.424 17.1559M283.031 94.8623V48.1796M283.031 94.8623V52.3853M283.031 48.1796V52.3853M337.603 243.893H21.1025C23.6095 169.537 10.6099 142.526 8.52081 139.442L11.6545 136.498L52.3925 112.947L69.941 108.741L83.7292 112.947L90.6233 135.657L122.587 120.096L140.762 136.919L150.163 130.61L163.951 136.919L177.739 115.049L189.02 157.947L214.717 121.778H236.652L250.44 142.807L271.749 125.984L298.072 160.05C298.072 160.05 321.888 149.039 317.925 144.145M337.603 243.893L340.267 242.115M337.603 243.893C331.755 235.909 315.374 152.875 317.925 144.145M317.925 144.145C311.64 148.55 301.833 155.424 301.833 155.424L271.749 122.199L254.828 136.919L238.532 120.096H212.21L191.527 152.059L175.859 108.741L160.817 134.395L156.117 130.61L151.416 126.405L145.149 121.778L140.135 130.61L122.587 115.049L90.6233 130.61V108.741L69.941 102.432L25.4426 125.241L55.5258 104.303L63.6737 98.6474L85.6094 104.303L108.799 88.1333L137.628 119.353C140.295 98.4358 132.681 94.0515 126.655 80.1425L150.163 108.839L173.979 93.18L195.915 108.741L214.717 83.9276L227.878 107.479L237.906 82.2454L259.215 78.0397L289.925 104.115L283.031 52.3853M317.925 144.145C322.501 140.938 329.642 135.933 329.642 135.933M324.836 142.807L346.331 178.975C356.358 176.62 357.612 124.582 358.865 113.788L388.949 132.713V95.7034L418.405 107.479L428.433 58.6937L449.742 57.0115L445.981 35.1421H451.622C453.628 34.4692 467.499 24.4457 467.917 25.1466C447.228 42.3898 453.92 145.643 455.382 165.615L340.267 242.115M324.836 142.807C321.379 152.731 336.72 231.569 340.267 242.115M324.836 142.807C325.825 139.967 327.375 137.591 329.642 135.933M283.031 52.3853L331.289 90.6566L376.414 56.1704H418.405C420.285 -21.536 431.566 14.6325 470.424 17.1559" stroke="black" stroke-width="0.2"/>
<defs>
<linearGradient id="paint0_linear" x1="249.5" y1="4.7854" x2="249.5" y2="222.931" gradientUnits="userSpaceOnUse">
<stop stop-color="#4B3000"/>
<stop offset="1"/>
</linearGradient>
<radialGradient id="paint1_radial" cx="0" cy="0" r="1" gradientUnits="userSpaceOnUse" gradientTransform="translate(164.579 141.889) rotate(85.5153) scale(104.198 626.891)">
<stop stop-color="#443600"/>
<stop offset="1" stop-color="#A35F04"/>
</radialGradient>
<radialGradient id="paint2_radial" cx="0" cy="0" r="1" gradientUnits="userSpaceOnUse" gradientTransform="translate(370.148 114.973) rotate(126.628) scale(232.155 149.517)">
<stop offset="0.159375" stop-color="#302500"/>
<stop offset="1" stop-color="#C56A00"/>
</radialGradient>
</defs>
</svg>
