<svg width="1440" height="196" viewBox="0 0 1440 196" fill="none" xmlns="http://www.w3.org/2000/svg">
<path d="M0 46.6587C89.8333 -11.3413 267.6 -108.641 260 -33.8413C250.5 59.6587 249 174.659 310 151.659C371 128.659 501 -53.3413 570 -3.34131C639 46.6587 459 196.159 549 192.159C639 188.159 730.636 120.109 710 154.159C690 187.159 890.927 112.006 821.5 154.159C793.5 171.159 732 172.659 793.5 135.159C854 93.1587 877.712 158.155 911 20.6587C945.5 -121.841 1008 170.159 1084.5 164.159C1161 158.159 1077.5 60.1587 1188.5 79.1587C1299.5 98.1587 1440.5 205.659 1481 178.659" stroke="#FF0099" stroke-width="7"/>
</svg>
