<svg width="521" height="117" viewBox="0 0 521 117" fill="none" xmlns="http://www.w3.org/2000/svg">
<path d="M37.902 0.135363C49.9043 0.135363 59.3347 3.29386 66.1932 9.61087C73.0516 15.9279 76.4809 24.6363 76.4809 35.7362C76.4809 46.4751 73.2772 54.9579 66.87 61.1847C60.4628 67.3212 51.6641 70.3895 40.4739 70.3895C34.9691 70.3895 29.735 69.6224 24.7717 68.0883C19.8083 66.4639 14.845 64.0273 9.8816 60.7786V95.5673H0V37.2252C0 25.4936 3.29387 16.3791 9.8816 9.8816C16.5596 3.38411 25.8997 0.135363 37.902 0.135363ZM38.9849 62.1322C47.558 62.1322 54.2811 59.8311 59.1542 55.2287C64.0273 50.536 66.4639 44.0837 66.4639 35.8716C66.4639 27.5692 63.9371 21.0266 58.8835 16.2437C53.8299 11.4608 46.9263 9.06941 38.1728 9.06941C29.2387 9.06941 22.29 11.5511 17.3266 16.5144C12.3633 21.3876 9.8816 28.2912 9.8816 37.2252V51.1677C13.8523 54.7774 18.2742 57.5299 23.1473 59.425C28.1107 61.2298 33.3899 62.1322 38.9849 62.1322Z" fill="black"/>
<path d="M162.772 0.812184V95.5673H152.891V66.87H124.6C123.336 66.87 121.531 66.7798 119.185 66.5993L99.2866 95.5673H88.5928L110.116 64.8395C103.167 62.7639 97.8427 59.1091 94.1427 53.875C90.4428 48.5507 88.5928 42.0532 88.5928 34.3826C88.5928 23.7339 91.9318 15.4767 98.6098 9.61087C105.378 3.74508 114.493 0.812184 125.953 0.812184H162.772ZM98.6098 34.1118C98.6098 41.8727 100.866 47.8739 105.378 52.1153C109.98 56.2665 116.658 58.342 125.412 58.342H152.891V9.4755H126.359C117.516 9.4755 110.657 11.5962 105.784 15.8376C101.001 19.9888 98.6098 26.0802 98.6098 34.1118Z" fill="black"/>
<path d="M286.417 86.9039V116.819H277.077V95.5673H192.88L192.745 116.819H183.405L183.54 86.9039H195.452V40.7447C195.452 27.5692 198.972 17.5071 206.011 10.5584C213.14 3.51947 222.796 0 234.979 0C247.162 0 256.772 3.51947 263.811 10.5584C270.941 17.5071 274.505 27.5692 274.505 40.7447V86.9039H286.417ZM264.488 86.9039V39.7971C264.488 29.5997 261.871 21.929 256.637 16.7852C251.493 11.5511 244.274 8.93405 234.979 8.93405C225.594 8.93405 218.284 11.5511 213.05 16.7852C207.906 21.929 205.334 29.5997 205.334 39.7971V86.9039H264.488Z" fill="black"/>
<path d="M354.316 116.413C350.695 116.697 347.548 116.413 345.179 116.413C345.179 108.63 345.179 108.118 345.179 96.1087C337.057 96.1087 328.078 92.8402 323.112 90.1527C315.531 85.9113 309.575 80.1357 305.243 72.826C301.002 65.5164 298.881 57.3043 298.881 48.1897C298.881 39.0752 301.002 30.8631 305.243 23.5534C309.575 16.2437 315.531 10.5133 323.112 6.36212C330.782 2.12071 339.31 0 348.695 0C358.081 0 366.518 2.07559 374.009 6.22676C381.589 10.3779 387.545 16.1535 391.877 23.5534C396.208 30.8631 398.374 39.0752 398.374 48.1897C398.374 57.3043 396.208 65.5615 391.877 72.9614C387.545 80.2711 381.589 86.0015 374.009 90.1527C369.223 92.8049 362.776 95.4319 354.316 96.1087C354.316 102.161 354.316 112.691 354.316 116.413Z" fill="black"/>
<path d="M520.687 0.812184V95.5673H511.077V19.7632L473.851 83.5198H469.114L431.888 20.1693V95.5673H422.278V0.812184H430.535L471.686 71.0663L512.43 0.812184H520.687Z" fill="black"/>
<circle cx="348.563" cy="48.1898" r="39.2557" fill="#FF0099"/>
<path d="M329.951 21.2819C324.762 23.8764 314.248 32.8556 313.707 48.0164C313.707 55.7999 338.749 17.221 329.951 21.2819Z" fill="white"/>
</svg>
