<svg width="235" height="471" viewBox="0 0 235 471" fill="none" xmlns="http://www.w3.org/2000/svg">
<path d="M178.968 107.414C176.867 108.466 167.007 105.515 162.34 103.907V115.306C173.279 119.251 198.308 129.86 210.91 140.732C226.663 154.322 210.91 244.63 218.787 257.343C225.088 267.514 226.955 289.93 227.101 299.867C228.122 312.434 229.551 339.848 227.101 348.967C230.601 356.858 236.727 391.929 234.539 401.573C232.351 411.218 235.414 437.959 227.101 445.412C218.787 452.865 211.348 441.467 209.598 435.768C207.847 430.068 205.659 412.533 209.598 401.573C205.747 395.611 203.617 390.906 203.034 389.298C200.992 376.731 194.895 347.388 186.844 330.554C188.244 345.284 187.427 391.344 186.844 412.533H181.155C178.238 426.123 172.141 455.758 171.091 465.578C170.041 475.398 81.9718 469.67 38.0685 465.578L33.6928 384.476L11.3765 366.064L35.8809 296.36C19.2528 280.578 4.81289 255.151 0 244.63C7.43876 183.694 30.1923 170.104 29.7547 161.775C29.4047 155.111 33.693 148.477 35.8809 145.993C34.8599 144.678 33.4305 140.995 35.8809 136.787C49.0081 111.36 99.3291 107.414 99.3291 103.907C99.3291 101.101 110.414 95.1396 115.957 92.5094C116.103 89.4407 116.307 82.7771 115.957 80.6725C99.5041 59.2792 103.267 34.6417 107.205 24.9972C131.71 -22.349 190.782 8.77721 188.157 27.1891C188.157 29.6441 184.364 30.2578 182.468 30.2578C185.531 34.2033 189.032 48.6701 188.157 51.3005C187.281 53.9308 182.468 57.8763 185.531 63.137C188.594 68.3977 192.97 74.9735 190.782 77.6038C188.594 80.2341 185.969 78.4806 185.531 80.6725C185.181 82.4261 183.343 87.8329 182.468 90.3171C182.176 95.5777 181.068 106.362 178.968 107.414Z" fill="black"/>
<path d="M178.968 107.414C176.867 108.466 167.007 105.515 162.34 103.907V115.306C173.279 119.251 198.308 129.86 210.91 140.732C226.663 154.322 210.91 244.63 218.787 257.343C225.088 267.514 226.955 289.93 227.101 299.867C228.122 312.434 229.551 339.848 227.101 348.967C230.601 356.858 236.727 391.929 234.539 401.573C232.351 411.218 235.414 437.959 227.101 445.412C218.787 452.865 211.348 441.467 209.598 435.768C207.847 430.068 205.659 412.533 209.598 401.573C205.747 395.611 203.617 390.906 203.034 389.298C200.992 376.731 194.895 347.388 186.844 330.554C188.244 345.284 187.427 391.344 186.844 412.533H181.155C178.238 426.123 172.141 455.758 171.091 465.578C170.041 475.398 81.9718 469.67 38.0685 465.578L33.6928 384.476L11.3765 366.064L35.8809 296.36C19.2528 280.578 4.81289 255.151 0 244.63C7.43876 183.694 30.1923 170.104 29.7547 161.775C29.4047 155.111 33.693 148.477 35.8809 145.993C34.8599 144.678 33.4305 140.995 35.8809 136.787C49.0081 111.36 99.3291 107.414 99.3291 103.907C99.3291 101.101 110.414 95.1396 115.957 92.5094C116.103 89.4407 116.307 82.7771 115.957 80.6725C99.5041 59.2792 103.267 34.6417 107.205 24.9972C131.71 -22.349 190.782 8.77721 188.157 27.1891C188.157 29.6441 184.364 30.2578 182.468 30.2578C185.531 34.2033 189.032 48.6701 188.157 51.3005C187.281 53.9308 182.468 57.8763 185.531 63.137C188.594 68.3977 192.97 74.9735 190.782 77.6038C188.594 80.2341 185.969 78.4806 185.531 80.6725C185.181 82.4261 183.343 87.8329 182.468 90.3171C182.176 95.5777 181.068 106.362 178.968 107.414Z" fill="url(#paint0_linear)"/>
<path d="M178.968 107.414C176.867 108.466 167.007 105.515 162.34 103.907V115.306C173.279 119.251 198.308 129.86 210.91 140.732C226.663 154.322 210.91 244.63 218.787 257.343C225.088 267.514 226.955 289.93 227.101 299.867C228.122 312.434 229.551 339.848 227.101 348.967C230.601 356.858 236.727 391.929 234.539 401.573C232.351 411.218 235.414 437.959 227.101 445.412C218.787 452.865 211.348 441.467 209.598 435.768C207.847 430.068 205.659 412.533 209.598 401.573C205.747 395.611 203.617 390.906 203.034 389.298C200.992 376.731 194.895 347.388 186.844 330.554C188.244 345.284 187.427 391.344 186.844 412.533H181.155C178.238 426.123 172.141 455.758 171.091 465.578C170.041 475.398 81.9718 469.67 38.0685 465.578L33.6928 384.476L11.3765 366.064L35.8809 296.36C19.2528 280.578 4.81289 255.151 0 244.63C7.43876 183.694 30.1923 170.104 29.7547 161.775C29.4047 155.111 33.693 148.477 35.8809 145.993C34.8599 144.678 33.4305 140.995 35.8809 136.787C49.0081 111.36 99.3291 107.414 99.3291 103.907C99.3291 101.101 110.414 95.1396 115.957 92.5094C116.103 89.4407 116.307 82.7771 115.957 80.6725C99.5041 59.2792 103.267 34.6417 107.205 24.9972C131.71 -22.349 190.782 8.77721 188.157 27.1891C188.157 29.6441 184.364 30.2578 182.468 30.2578C185.531 34.2033 189.032 48.6701 188.157 51.3005C187.281 53.9308 182.468 57.8763 185.531 63.137C188.594 68.3977 192.97 74.9735 190.782 77.6038C188.594 80.2341 185.969 78.4806 185.531 80.6725C185.181 82.4261 183.343 87.8329 182.468 90.3171C182.176 95.5777 181.068 106.362 178.968 107.414Z" fill="url(#paint1_linear)"/>
<path d="M178.968 107.414C176.867 108.466 167.007 105.515 162.34 103.907V115.306C173.279 119.251 198.308 129.86 210.91 140.732C226.663 154.322 210.91 244.63 218.787 257.343C225.088 267.514 226.955 289.93 227.101 299.867C228.122 312.434 229.551 339.848 227.101 348.967C230.601 356.858 236.727 391.929 234.539 401.573C232.351 411.218 235.414 437.959 227.101 445.412C218.787 452.865 211.348 441.467 209.598 435.768C207.847 430.068 205.659 412.533 209.598 401.573C205.747 395.611 203.617 390.906 203.034 389.298C200.992 376.731 194.895 347.388 186.844 330.554C188.244 345.284 187.427 391.344 186.844 412.533H181.155C178.238 426.123 172.141 455.758 171.091 465.578C170.041 475.398 81.9718 469.67 38.0685 465.578L33.6928 384.476L11.3765 366.064L35.8809 296.36C19.2528 280.578 4.81289 255.151 0 244.63C7.43876 183.694 30.1923 170.104 29.7547 161.775C29.4047 155.111 33.693 148.477 35.8809 145.993C34.8599 144.678 33.4305 140.995 35.8809 136.787C49.0081 111.36 99.3291 107.414 99.3291 103.907C99.3291 101.101 110.414 95.1396 115.957 92.5094C116.103 89.4407 116.307 82.7771 115.957 80.6725C99.5041 59.2792 103.267 34.6417 107.205 24.9972C131.71 -22.349 190.782 8.77721 188.157 27.1891C188.157 29.6441 184.364 30.2578 182.468 30.2578C185.531 34.2033 189.032 48.6701 188.157 51.3005C187.281 53.9308 182.468 57.8763 185.531 63.137C188.594 68.3977 192.97 74.9735 190.782 77.6038C188.594 80.2341 185.969 78.4806 185.531 80.6725C185.181 82.4261 183.343 87.8329 182.468 90.3171C182.176 95.5777 181.068 106.362 178.968 107.414Z" fill="url(#paint2_linear)"/>
<path d="M178.968 107.414C176.867 108.466 167.007 105.515 162.34 103.907V115.306C173.279 119.251 198.308 129.86 210.91 140.732C226.663 154.322 210.91 244.63 218.787 257.343C225.088 267.514 226.955 289.93 227.101 299.867C228.122 312.434 229.551 339.848 227.101 348.967C230.601 356.858 236.727 391.929 234.539 401.573C232.351 411.218 235.414 437.959 227.101 445.412C218.787 452.865 211.348 441.467 209.598 435.768C207.847 430.068 205.659 412.533 209.598 401.573C205.747 395.611 203.617 390.906 203.034 389.298C200.992 376.731 194.895 347.388 186.844 330.554C188.244 345.284 187.427 391.344 186.844 412.533H181.155C178.238 426.123 172.141 455.758 171.091 465.578C170.041 475.398 81.9718 469.67 38.0685 465.578L33.6928 384.476L11.3765 366.064L35.8809 296.36C19.2528 280.578 4.81289 255.151 0 244.63C7.43876 183.694 30.1923 170.104 29.7547 161.775C29.4047 155.111 33.693 148.477 35.8809 145.993C34.8599 144.678 33.4305 140.995 35.8809 136.787C49.0081 111.36 99.3291 107.414 99.3291 103.907C99.3291 101.101 110.414 95.1396 115.957 92.5094C116.103 89.4407 116.307 82.7771 115.957 80.6725C99.5041 59.2792 103.267 34.6417 107.205 24.9972C131.71 -22.349 190.782 8.77721 188.157 27.1891C188.157 29.6441 184.364 30.2578 182.468 30.2578C185.531 34.2033 189.032 48.6701 188.157 51.3005C187.281 53.9308 182.468 57.8763 185.531 63.137C188.594 68.3977 192.97 74.9735 190.782 77.6038C188.594 80.2341 185.969 78.4806 185.531 80.6725C185.181 82.4261 183.343 87.8329 182.468 90.3171C182.176 95.5777 181.068 106.362 178.968 107.414Z" fill="url(#paint3_linear)"/>
<path d="M178.968 107.414C176.867 108.466 167.007 105.515 162.34 103.907V115.306C173.279 119.251 198.308 129.86 210.91 140.732C226.663 154.322 210.91 244.63 218.787 257.343C225.088 267.514 226.955 289.93 227.101 299.867C228.122 312.434 229.551 339.848 227.101 348.967C230.601 356.858 236.727 391.929 234.539 401.573C232.351 411.218 235.414 437.959 227.101 445.412C218.787 452.865 211.348 441.467 209.598 435.768C207.847 430.068 205.659 412.533 209.598 401.573C205.747 395.611 203.617 390.906 203.034 389.298C200.992 376.731 194.895 347.388 186.844 330.554C188.244 345.284 187.427 391.344 186.844 412.533H181.155C178.238 426.123 172.141 455.758 171.091 465.578C170.041 475.398 81.9718 469.67 38.0685 465.578L33.6928 384.476L11.3765 366.064L35.8809 296.36C19.2528 280.578 4.81289 255.151 0 244.63C7.43876 183.694 30.1923 170.104 29.7547 161.775C29.4047 155.111 33.693 148.477 35.8809 145.993C34.8599 144.678 33.4305 140.995 35.8809 136.787C49.0081 111.36 99.3291 107.414 99.3291 103.907C99.3291 101.101 110.414 95.1396 115.957 92.5094C116.103 89.4407 116.307 82.7771 115.957 80.6725C99.5041 59.2792 103.267 34.6417 107.205 24.9972C131.71 -22.349 190.782 8.77721 188.157 27.1891C188.157 29.6441 184.364 30.2578 182.468 30.2578C185.531 34.2033 189.032 48.6701 188.157 51.3005C187.281 53.9308 182.468 57.8763 185.531 63.137C188.594 68.3977 192.97 74.9735 190.782 77.6038C188.594 80.2341 185.969 78.4806 185.531 80.6725C185.181 82.4261 183.343 87.8329 182.468 90.3171C182.176 95.5777 181.068 106.362 178.968 107.414Z" fill="url(#paint4_linear)"/>
<path d="M178.968 107.414C176.867 108.466 167.007 105.515 162.34 103.907V115.306C173.279 119.251 198.308 129.86 210.91 140.732C226.663 154.322 210.91 244.63 218.787 257.343C225.088 267.514 226.955 289.93 227.101 299.867C228.122 312.434 229.551 339.848 227.101 348.967C230.601 356.858 236.727 391.929 234.539 401.573C232.351 411.218 235.414 437.959 227.101 445.412C218.787 452.865 211.348 441.467 209.598 435.768C207.847 430.068 205.659 412.533 209.598 401.573C205.747 395.611 203.617 390.906 203.034 389.298C200.992 376.731 194.895 347.388 186.844 330.554C188.244 345.284 187.427 391.344 186.844 412.533H181.155C178.238 426.123 172.141 455.758 171.091 465.578C170.041 475.398 81.9718 469.67 38.0685 465.578L33.6928 384.476L11.3765 366.064L35.8809 296.36C19.2528 280.578 4.81289 255.151 0 244.63C7.43876 183.694 30.1923 170.104 29.7547 161.775C29.4047 155.111 33.693 148.477 35.8809 145.993C34.8599 144.678 33.4305 140.995 35.8809 136.787C49.0081 111.36 99.3291 107.414 99.3291 103.907C99.3291 101.101 110.414 95.1396 115.957 92.5094C116.103 89.4407 116.307 82.7771 115.957 80.6725C99.5041 59.2792 103.267 34.6417 107.205 24.9972C131.71 -22.349 190.782 8.77721 188.157 27.1891C188.157 29.6441 184.364 30.2578 182.468 30.2578C185.531 34.2033 189.032 48.6701 188.157 51.3005C187.281 53.9308 182.468 57.8763 185.531 63.137C188.594 68.3977 192.97 74.9735 190.782 77.6038C188.594 80.2341 185.969 78.4806 185.531 80.6725C185.181 82.4261 183.343 87.8329 182.468 90.3171C182.176 95.5777 181.068 106.362 178.968 107.414Z" fill="url(#paint5_radial)"/>
<defs>
<linearGradient id="paint0_linear" x1="162.5" y1="20.5" x2="171" y2="6.5" gradientUnits="userSpaceOnUse">
<stop offset="0.0104167" stop-opacity="0.25"/>
<stop offset="1" stop-color="#FCA27F"/>
</linearGradient>
<linearGradient id="paint1_linear" x1="68.5" y1="144" x2="33" y2="126.5" gradientUnits="userSpaceOnUse">
<stop stop-opacity="0"/>
<stop offset="1" stop-color="#FCA27F"/>
</linearGradient>
<linearGradient id="paint2_linear" x1="191" y1="250.5" x2="235" y2="246" gradientUnits="userSpaceOnUse">
<stop stop-opacity="0"/>
<stop offset="1" stop-color="#FCA27F"/>
</linearGradient>
<linearGradient id="paint3_linear" x1="121" y1="-3.5" x2="130.5" y2="21" gradientUnits="userSpaceOnUse">
<stop stop-color="#FCA27F"/>
<stop offset="1" stop-opacity="0.25"/>
</linearGradient>
<linearGradient id="paint4_linear" x1="83" y1="18" x2="120.5" y2="48" gradientUnits="userSpaceOnUse">
<stop stop-color="#FCA27F"/>
<stop offset="1" stop-opacity="0.25"/>
</linearGradient>
<radialGradient id="paint5_radial" cx="0" cy="0" r="1" gradientUnits="userSpaceOnUse" gradientTransform="translate(199 38.5) rotate(102.736) scale(74.8415 22.9269)">
<stop stop-color="#FCA27F"/>
<stop offset="0.99844" stop-opacity="0.25"/>
</radialGradient>
</defs>
</svg>
