<svg width="252" height="505" viewBox="0 0 252 505" fill="none" xmlns="http://www.w3.org/2000/svg">
<path d="M191.844 115.263C189.595 116.39 179.036 113.228 174.038 111.507V123.714C185.753 127.939 212.556 139.3 226.051 150.942C242.921 165.496 226.051 262.206 234.486 275.82C241.234 286.712 243.233 310.717 243.389 321.358C244.483 334.816 246.013 364.173 243.389 373.938C247.138 382.388 253.698 419.945 251.355 430.274C249.012 440.602 252.293 469.239 243.389 477.22C234.486 485.201 226.52 472.995 224.646 466.892C222.771 460.789 220.428 442.01 224.646 430.274C220.522 423.889 218.242 418.85 217.617 417.129C215.43 403.671 208.901 372.248 200.279 354.22C201.778 369.994 200.904 419.32 200.279 442.01H194.187C191.063 456.564 184.534 488.299 183.41 498.815C182.285 509.331 87.9729 503.197 40.9575 498.815L36.2716 411.965L12.3734 392.247L38.6148 317.602C20.808 300.702 5.34449 273.473 0.19043 262.206C8.1565 196.95 32.5229 182.397 32.0544 173.477C31.6795 166.341 36.2718 159.236 38.6148 156.576C37.5214 155.168 35.9907 151.224 38.6148 146.717C52.6725 119.488 106.561 115.263 106.561 111.507C106.561 108.503 118.432 102.118 124.367 99.3014C124.523 96.0152 124.742 88.8792 124.367 86.6255C106.748 63.7156 110.778 37.3317 114.995 27.0035C141.236 -23.6989 204.496 9.63377 201.685 29.3508C201.685 31.9798 197.624 32.6371 195.593 32.6371C198.873 36.8623 202.622 52.3546 201.685 55.1714C200.748 57.9881 195.593 62.2134 198.873 67.8469C202.153 73.4805 206.839 80.5225 204.496 83.3392C202.153 86.156 199.342 84.2782 198.873 86.6255C198.498 88.5033 196.53 94.2934 195.593 96.9537C195.281 102.587 194.094 114.136 191.844 115.263Z" fill="black"/>
</svg>
