<svg width="247" height="344" viewBox="0 0 247 344" fill="none" xmlns="http://www.w3.org/2000/svg">
<path d="M43.6945 251.548L15.0182 289.775C85.1157 330.393 228.656 403.028 242.039 368.623C258.766 325.618 222.921 268.276 210.973 256.33C191.855 148.816 152.864 94.1154 144.061 89.0866C127.334 79.5307 91.4882 91.4749 103.437 84.3073C115.385 77.1397 117.775 69.972 117.775 48.4691C151.23 29.3513 117.775 -8.87191 91.4882 7.84844C34.1357 -11.2602 18.2045 11.8305 15.0182 29.3513C11.832 35.7226 12.4204 40.3621 12.4204 49.919C8.13683 55.8089 -0.965691 62.2342 1.17595 65.9823C2.88036 67.6607 4.46419 68.4572 8.13671 69.7304L5.45949 75.6202C5.50478 77.3042 6.40279 77.1653 8.13671 78.8329C6.49718 79.0528 5.72292 80.3913 5.45949 82.0456C5.52757 83.1671 6.32399 83.6203 8.13671 84.3073C5.59053 89.0387 4.66489 91.9781 5.45949 98.6384C8.13671 100.251 27.9226 99.5992 41.3048 103.422C58.0326 108.2 58.0326 127.309 55.6429 132.087C53.2532 136.866 38.9151 144.038 31.7461 155.985C24.577 167.931 26.9667 215.715 26.9667 227.661C26.9667 237.218 31.746 239.607 43.6945 251.548Z" fill="black"/>
</svg>
