<svg width="227" height="311" viewBox="0 0 227 311" fill="none" xmlns="http://www.w3.org/2000/svg">
<path d="M104.344 57.4681C121.204 103.16 109.963 89.6049 104.344 96.0322H77.8498C7.80037 96.0322 0.785156 214.613 0.785156 264.854L203.08 310.649C216.727 272.085 237.277 189.171 210.305 166.033C176.59 137.11 159.731 115.417 171.772 113.007C193.447 117.828 218.711 113.007 217.529 108.187C215.577 100.22 215.924 98.4768 217.529 96.0322C221.388 92.188 217.529 91.439 217.529 89.5108C217.529 88.4763 221.422 87.254 220.317 84.6918C219.363 82.4785 218.274 83.1631 217.529 81.6736C220.829 78.9155 229.44 77.7556 224.754 72.0326C218.648 64.5754 211.911 56.7676 210.305 52.7504C210.305 43.1094 211.107 47.1616 210.305 40.6997C171.77 -36.3361 87.4829 11.7757 104.344 57.4681Z" fill="black"/>
</svg>
