<svg width="212" height="292" viewBox="0 0 212 292" fill="none" xmlns="http://www.w3.org/2000/svg">
<path d="M97.7035 54.5783C113.448 97.246 102.951 84.5878 97.7035 90.5897H72.9634C7.55085 90.5897 1 201.322 1 248.236L189.904 291C202.647 254.988 221.838 177.564 196.651 155.957C165.168 128.948 149.425 108.692 160.669 106.441C180.908 110.942 204.5 106.441 203.397 101.94C201.574 94.5 201.898 92.8725 203.397 90.5897C207 87 203.397 86.3006 203.397 84.5C203.397 83.5339 207.032 82.3926 206 80C205.109 77.9332 204.092 78.5725 203.397 77.1816C206.479 74.6061 214.52 73.5229 210.144 68.1787C204.442 61.2152 198.15 53.9242 196.651 50.173C196.651 41.1701 197.4 44.9541 196.651 38.9199C160.667 -33.0166 81.9589 11.9105 97.7035 54.5783Z" fill="black"/>
<path d="M97.7035 54.5783C113.448 97.246 102.951 84.5878 97.7035 90.5897H72.9634C7.55085 90.5897 1 201.322 1 248.236L189.904 291C202.647 254.988 221.838 177.564 196.651 155.957C165.168 128.948 149.425 108.692 160.669 106.441C180.908 110.942 204.5 106.441 203.397 101.94C201.574 94.5 201.898 92.8725 203.397 90.5897C207 87 203.397 86.3006 203.397 84.5C203.397 83.5339 207.032 82.3926 206 80C205.109 77.9332 204.092 78.5725 203.397 77.1816C206.479 74.6061 214.52 73.5229 210.144 68.1787C204.442 61.2152 198.15 53.9242 196.651 50.173C196.651 41.1701 197.4 44.9541 196.651 38.9199C160.667 -33.0166 81.9589 11.9105 97.7035 54.5783Z" fill="url(#paint0_linear)"/>
<path d="M97.7035 54.5783C113.448 97.246 102.951 84.5878 97.7035 90.5897H72.9634C7.55085 90.5897 1 201.322 1 248.236L189.904 291C202.647 254.988 221.838 177.564 196.651 155.957C165.168 128.948 149.425 108.692 160.669 106.441C180.908 110.942 204.5 106.441 203.397 101.94C201.574 94.5 201.898 92.8725 203.397 90.5897C207 87 203.397 86.3006 203.397 84.5C203.397 83.5339 207.032 82.3926 206 80C205.109 77.9332 204.092 78.5725 203.397 77.1816C206.479 74.6061 214.52 73.5229 210.144 68.1787C204.442 61.2152 198.15 53.9242 196.651 50.173C196.651 41.1701 197.4 44.9541 196.651 38.9199C160.667 -33.0166 81.9589 11.9105 97.7035 54.5783Z" fill="url(#paint1_linear)"/>
<path d="M97.7035 54.5783C113.448 97.246 102.951 84.5878 97.7035 90.5897H72.9634C7.55085 90.5897 1 201.322 1 248.236L189.904 291C202.647 254.988 221.838 177.564 196.651 155.957C165.168 128.948 149.425 108.692 160.669 106.441C180.908 110.942 204.5 106.441 203.397 101.94C201.574 94.5 201.898 92.8725 203.397 90.5897C207 87 203.397 86.3006 203.397 84.5C203.397 83.5339 207.032 82.3926 206 80C205.109 77.9332 204.092 78.5725 203.397 77.1816C206.479 74.6061 214.52 73.5229 210.144 68.1787C204.442 61.2152 198.15 53.9242 196.651 50.173C196.651 41.1701 197.4 44.9541 196.651 38.9199C160.667 -33.0166 81.9589 11.9105 97.7035 54.5783Z" fill="url(#paint2_radial)"/>
<path d="M97.7035 54.5783C113.448 97.246 102.951 84.5878 97.7035 90.5897H72.9634C7.55085 90.5897 1 201.322 1 248.236L189.904 291C202.647 254.988 221.838 177.564 196.651 155.957C165.168 128.948 149.425 108.692 160.669 106.441C180.908 110.942 204.5 106.441 203.397 101.94C201.574 94.5 201.898 92.8725 203.397 90.5897C207 87 203.397 86.3006 203.397 84.5C203.397 83.5339 207.032 82.3926 206 80C205.109 77.9332 204.092 78.5725 203.397 77.1816C206.479 74.6061 214.52 73.5229 210.144 68.1787C204.442 61.2152 198.15 53.9242 196.651 50.173C196.651 41.1701 197.4 44.9541 196.651 38.9199C160.667 -33.0166 81.9589 11.9105 97.7035 54.5783Z" stroke="black"/>
<defs>
<linearGradient id="paint0_linear" x1="97.5" y1="19.5" x2="114.5" y2="39" gradientUnits="userSpaceOnUse">
<stop stop-color="#FCA27F"/>
<stop offset="1" stop-opacity="0.25"/>
</linearGradient>
<linearGradient id="paint1_linear" x1="39.5" y1="63" x2="71" y2="78.5" gradientUnits="userSpaceOnUse">
<stop stop-color="#FCA27F"/>
<stop offset="1" stop-opacity="0.25"/>
</linearGradient>
<radialGradient id="paint2_radial" cx="0" cy="0" r="1" gradientUnits="userSpaceOnUse" gradientTransform="translate(57.5 68) rotate(32.25) scale(49.6614 67.2368)">
<stop stop-color="#FCA27F"/>
<stop offset="1" stop-opacity="0.25"/>
</radialGradient>
</defs>
</svg>
