<svg width="211" height="290" viewBox="0 0 211 290" fill="none" xmlns="http://www.w3.org/2000/svg">
<path d="M96.7035 53.5783C112.448 96.246 101.951 83.5878 96.7035 89.5897H71.9634C6.55085 89.5897 0 200.322 0 247.236L188.904 290C201.647 253.988 220.838 176.564 195.651 154.957C164.168 127.948 148.425 107.692 159.669 105.441C179.908 109.942 203.5 105.441 202.397 100.94C200.574 93.5 200.898 91.8725 202.397 89.5897C206 86 202.397 85.3006 202.397 83.5C202.397 82.5339 206.032 81.3926 205 79C204.109 76.9332 203.092 77.5725 202.397 76.1816C205.479 73.6061 213.52 72.5229 209.144 67.1787C203.442 60.2152 197.15 52.9242 195.651 49.173C195.651 40.1701 196.4 43.9541 195.651 37.9199C159.667 -34.0166 80.9589 10.9105 96.7035 53.5783Z" fill="black"/>
<path d="M96.7035 53.5783C112.448 96.246 101.951 83.5878 96.7035 89.5897H71.9634C6.55085 89.5897 0 200.322 0 247.236L188.904 290C201.647 253.988 220.838 176.564 195.651 154.957C164.168 127.948 148.425 107.692 159.669 105.441C179.908 109.942 203.5 105.441 202.397 100.94C200.574 93.5 200.898 91.8725 202.397 89.5897C206 86 202.397 85.3006 202.397 83.5C202.397 82.5339 206.032 81.3926 205 79C204.109 76.9332 203.092 77.5725 202.397 76.1816C205.479 73.6061 213.52 72.5229 209.144 67.1787C203.442 60.2152 197.15 52.9242 195.651 49.173C195.651 40.1701 196.4 43.9541 195.651 37.9199C159.667 -34.0166 80.9589 10.9105 96.7035 53.5783Z" fill="url(#paint0_linear)"/>
<path d="M96.7035 53.5783C112.448 96.246 101.951 83.5878 96.7035 89.5897H71.9634C6.55085 89.5897 0 200.322 0 247.236L188.904 290C201.647 253.988 220.838 176.564 195.651 154.957C164.168 127.948 148.425 107.692 159.669 105.441C179.908 109.942 203.5 105.441 202.397 100.94C200.574 93.5 200.898 91.8725 202.397 89.5897C206 86 202.397 85.3006 202.397 83.5C202.397 82.5339 206.032 81.3926 205 79C204.109 76.9332 203.092 77.5725 202.397 76.1816C205.479 73.6061 213.52 72.5229 209.144 67.1787C203.442 60.2152 197.15 52.9242 195.651 49.173C195.651 40.1701 196.4 43.9541 195.651 37.9199C159.667 -34.0166 80.9589 10.9105 96.7035 53.5783Z" fill="url(#paint1_linear)"/>
<defs>
<linearGradient id="paint0_linear" x1="84.5" y1="-4" x2="120.5" y2="45" gradientUnits="userSpaceOnUse">
<stop stop-color="#FCA27F"/>
<stop offset="1" stop-opacity="0.25"/>
</linearGradient>
<linearGradient id="paint1_linear" x1="30.5" y1="29.5" x2="94" y2="59" gradientUnits="userSpaceOnUse">
<stop stop-color="#FCA27F"/>
<stop offset="1" stop-opacity="0.25"/>
</linearGradient>
</defs>
</svg>
