<svg width="163" height="199" viewBox="0 0 163 199" fill="none" xmlns="http://www.w3.org/2000/svg">
<path d="M119.387 150.819C111.136 155.012 109.426 165.496 109.602 170.214C111.806 171.263 114.892 174.881 109.602 180.962C111.082 182.639 112.686 185.156 113.303 186.204C112.687 189.786 113.041 197.16 119.387 197.998C125.733 198.837 43.0441 197.824 0.90625 197.212C1.96411 195.377 22.3278 161.567 27.8816 156.325C30.5627 153.794 26.5592 152.655 37.1378 142.695C47.7163 132.736 47.1874 122.514 47.1874 116.223C42.7452 109.514 35.1994 97.9636 33.4359 93.1585C8.04771 72.1905 17.5675 20.2331 44.2793 10.073C119.387 -18.4961 140.544 23.4399 134.461 29.4665C138.058 33.2407 141.955 41.1737 143.453 44.6683C144.29 49.3662 143.647 55.8484 143.453 58.0354C143.027 62.8498 158.528 73.4993 161.966 78.2171C164.716 81.9913 157.999 86.6043 154.296 88.439L161.966 95.5157L158.528 100.496C159.497 101.631 161.543 104.27 161.966 105.738C162.389 107.205 157.029 109.844 154.296 110.98C162.23 115.697 159.585 127.195 147.949 128.54C116.213 132.21 123.618 145.315 119.387 150.819Z" fill="black"/>
</svg>
