<svg width="56" height="118" viewBox="0 0 56 118" fill="none" xmlns="http://www.w3.org/2000/svg">
<path d="M17.154 99.2809C17.154 103.719 19.2343 112.578 20.2745 116.453C32.3232 117.158 56.1085 118.144 54.8603 116.453C53.612 114.762 53.1266 99.3689 53.0399 91.8835C53.9934 87.3043 55.6924 75.2924 54.8603 63.8795C53.6318 49.9178 45.5069 47.6707 41.5981 48.2923C41.338 48.8207 40.2978 39.3098 31.7164 43.8011C33.7967 27.1571 20.2745 31.6483 17.154 40.1024C7.27233 20.5524 15.5937 2.30298 7.01229 0.73816C-3.1294 -1.11117 0.511211 30.3274 4.6719 51.9909C2.59156 73.6545 12.7332 93.2045 17.154 99.2809Z" fill="black"/>
</svg>
