<svg width="51" height="109" viewBox="0 0 51 109" fill="none" xmlns="http://www.w3.org/2000/svg">
<path d="M15.5817 92.0926C15.5817 96.2372 17.5243 104.51 18.4956 108.128C29.7467 108.786 51.9576 109.707 50.792 108.128C49.6264 106.549 49.1731 92.1748 49.0922 85.1849C49.9826 80.9088 51.5691 69.6921 50.792 59.0346C49.6449 45.9971 42.0578 43.8987 38.4077 44.4792C38.1649 44.9726 37.1935 36.0913 29.1802 40.2852C31.1228 24.743 18.4956 28.937 15.5817 36.8314C6.35414 18.5755 14.1247 1.53407 6.11131 0.0728407C-3.35906 -1.65407 0.040562 27.7034 3.92584 47.933C1.9832 68.1625 11.4536 86.4185 15.5817 92.0926Z" fill="black"/>
<path d="M15.5817 92.0926C15.5817 96.2372 17.5243 104.51 18.4956 108.128C29.7467 108.786 51.9576 109.707 50.792 108.128C49.6264 106.549 49.1731 92.1748 49.0922 85.1849C49.9826 80.9088 51.5691 69.6921 50.792 59.0346C49.6449 45.9971 42.0578 43.8987 38.4077 44.4792C38.1649 44.9726 37.1935 36.0913 29.1802 40.2852C31.1228 24.743 18.4956 28.937 15.5817 36.8314C6.35414 18.5755 14.1247 1.53407 6.11131 0.0728407C-3.35906 -1.65407 0.040562 27.7034 3.92584 47.933C1.9832 68.1625 11.4536 86.4185 15.5817 92.0926Z" fill="url(#paint0_linear)"/>
<path d="M15.5817 92.0926C15.5817 96.2372 17.5243 104.51 18.4956 108.128C29.7467 108.786 51.9576 109.707 50.792 108.128C49.6264 106.549 49.1731 92.1748 49.0922 85.1849C49.9826 80.9088 51.5691 69.6921 50.792 59.0346C49.6449 45.9971 42.0578 43.8987 38.4077 44.4792C38.1649 44.9726 37.1935 36.0913 29.1802 40.2852C31.1228 24.743 18.4956 28.937 15.5817 36.8314C6.35414 18.5755 14.1247 1.53407 6.11131 0.0728407C-3.35906 -1.65407 0.040562 27.7034 3.92584 47.933C1.9832 68.1625 11.4536 86.4185 15.5817 92.0926Z" fill="url(#paint1_linear)"/>
<defs>
<linearGradient id="paint0_linear" x1="21" y1="35" x2="32" y2="27" gradientUnits="userSpaceOnUse">
<stop stop-opacity="0.25"/>
<stop offset="1" stop-color="#FCA27F"/>
</linearGradient>
<linearGradient id="paint1_linear" x1="26" y1="29.5" x2="3" y2="67.5" gradientUnits="userSpaceOnUse">
<stop stop-opacity="0.25"/>
<stop offset="0.493238"/>
</linearGradient>
</defs>
</svg>
