<svg width="151" height="185" viewBox="0 0 151 185" fill="none" xmlns="http://www.w3.org/2000/svg">
<path d="M110.638 140.646C102.933 144.562 101.336 154.352 101.501 158.757C103.559 159.737 106.441 163.115 101.501 168.794C102.883 170.36 104.381 172.71 104.957 173.689C104.381 177.034 104.712 183.919 110.638 184.702C116.564 185.486 39.3486 184.539 0 183.968C0.987831 182.255 20.0036 150.682 25.1897 145.787C27.6933 143.424 23.9549 142.361 33.8332 133.06C43.7115 123.76 43.2176 114.214 43.2176 108.34C39.0694 102.075 32.0232 91.2894 30.3764 86.8023C6.66873 67.2222 15.5583 18.7041 40.502 9.21652C110.638 -17.4614 130.395 21.6986 124.715 27.3263C128.073 30.8507 131.712 38.2585 133.111 41.5219C133.892 45.9088 133.292 51.9619 133.111 54.0041C132.713 58.4998 147.188 68.4444 150.398 72.8499C152.967 76.3743 146.694 80.6819 143.237 82.3952L150.398 89.0034L147.188 93.6537C148.093 94.7143 150.003 97.1781 150.398 98.5487C150.793 99.9193 145.788 102.383 143.237 103.444C150.645 107.849 148.176 118.586 137.309 119.842C107.674 123.268 114.589 135.506 110.638 140.646Z" fill="black"/>
<path d="M110.638 140.646C102.933 144.562 101.336 154.352 101.501 158.757C103.559 159.737 106.441 163.115 101.501 168.794C102.883 170.36 104.381 172.71 104.957 173.689C104.381 177.034 104.712 183.919 110.638 184.702C116.564 185.486 39.3486 184.539 0 183.968C0.987831 182.255 20.0036 150.682 25.1897 145.787C27.6933 143.424 23.9549 142.361 33.8332 133.06C43.7115 123.76 43.2176 114.214 43.2176 108.34C39.0694 102.075 32.0232 91.2894 30.3764 86.8023C6.66873 67.2222 15.5583 18.7041 40.502 9.21652C110.638 -17.4614 130.395 21.6986 124.715 27.3263C128.073 30.8507 131.712 38.2585 133.111 41.5219C133.892 45.9088 133.292 51.9619 133.111 54.0041C132.713 58.4998 147.188 68.4444 150.398 72.8499C152.967 76.3743 146.694 80.6819 143.237 82.3952L150.398 89.0034L147.188 93.6537C148.093 94.7143 150.003 97.1781 150.398 98.5487C150.793 99.9193 145.788 102.383 143.237 103.444C150.645 107.849 148.176 118.586 137.309 119.842C107.674 123.268 114.589 135.506 110.638 140.646Z" fill="url(#paint0_linear)"/>
<path d="M110.638 140.646C102.933 144.562 101.336 154.352 101.501 158.757C103.559 159.737 106.441 163.115 101.501 168.794C102.883 170.36 104.381 172.71 104.957 173.689C104.381 177.034 104.712 183.919 110.638 184.702C116.564 185.486 39.3486 184.539 0 183.968C0.987831 182.255 20.0036 150.682 25.1897 145.787C27.6933 143.424 23.9549 142.361 33.8332 133.06C43.7115 123.76 43.2176 114.214 43.2176 108.34C39.0694 102.075 32.0232 91.2894 30.3764 86.8023C6.66873 67.2222 15.5583 18.7041 40.502 9.21652C110.638 -17.4614 130.395 21.6986 124.715 27.3263C128.073 30.8507 131.712 38.2585 133.111 41.5219C133.892 45.9088 133.292 51.9619 133.111 54.0041C132.713 58.4998 147.188 68.4444 150.398 72.8499C152.967 76.3743 146.694 80.6819 143.237 82.3952L150.398 89.0034L147.188 93.6537C148.093 94.7143 150.003 97.1781 150.398 98.5487C150.793 99.9193 145.788 102.383 143.237 103.444C150.645 107.849 148.176 118.586 137.309 119.842C107.674 123.268 114.589 135.506 110.638 140.646Z" fill="url(#paint1_linear)"/>
<path d="M110.638 140.646C102.933 144.562 101.336 154.352 101.501 158.757C103.559 159.737 106.441 163.115 101.501 168.794C102.883 170.36 104.381 172.71 104.957 173.689C104.381 177.034 104.712 183.919 110.638 184.702C116.564 185.486 39.3486 184.539 0 183.968C0.987831 182.255 20.0036 150.682 25.1897 145.787C27.6933 143.424 23.9549 142.361 33.8332 133.06C43.7115 123.76 43.2176 114.214 43.2176 108.34C39.0694 102.075 32.0232 91.2894 30.3764 86.8023C6.66873 67.2222 15.5583 18.7041 40.502 9.21652C110.638 -17.4614 130.395 21.6986 124.715 27.3263C128.073 30.8507 131.712 38.2585 133.111 41.5219C133.892 45.9088 133.292 51.9619 133.111 54.0041C132.713 58.4998 147.188 68.4444 150.398 72.8499C152.967 76.3743 146.694 80.6819 143.237 82.3952L150.398 89.0034L147.188 93.6537C148.093 94.7143 150.003 97.1781 150.398 98.5487C150.793 99.9193 145.788 102.383 143.237 103.444C150.645 107.849 148.176 118.586 137.309 119.842C107.674 123.268 114.589 135.506 110.638 140.646Z" fill="url(#paint2_linear)"/>
<path d="M110.638 140.646C102.933 144.562 101.336 154.352 101.501 158.757C103.559 159.737 106.441 163.115 101.501 168.794C102.883 170.36 104.381 172.71 104.957 173.689C104.381 177.034 104.712 183.919 110.638 184.702C116.564 185.486 39.3486 184.539 0 183.968C0.987831 182.255 20.0036 150.682 25.1897 145.787C27.6933 143.424 23.9549 142.361 33.8332 133.06C43.7115 123.76 43.2176 114.214 43.2176 108.34C39.0694 102.075 32.0232 91.2894 30.3764 86.8023C6.66873 67.2222 15.5583 18.7041 40.502 9.21652C110.638 -17.4614 130.395 21.6986 124.715 27.3263C128.073 30.8507 131.712 38.2585 133.111 41.5219C133.892 45.9088 133.292 51.9619 133.111 54.0041C132.713 58.4998 147.188 68.4444 150.398 72.8499C152.967 76.3743 146.694 80.6819 143.237 82.3952L150.398 89.0034L147.188 93.6537C148.093 94.7143 150.003 97.1781 150.398 98.5487C150.793 99.9193 145.788 102.383 143.237 103.444C150.645 107.849 148.176 118.586 137.309 119.842C107.674 123.268 114.589 135.506 110.638 140.646Z" fill="url(#paint3_linear)"/>
<defs>
<linearGradient id="paint0_linear" x1="99.5" y1="22.5" x2="104.5" y2="-8.58055e-07" gradientUnits="userSpaceOnUse">
<stop stop-opacity="0"/>
<stop offset="1" stop-color="#FCA27F"/>
</linearGradient>
<linearGradient id="paint1_linear" x1="54" y1="17.5" x2="49" y2="-8.23582e-07" gradientUnits="userSpaceOnUse">
<stop stop-opacity="0.25"/>
<stop offset="1" stop-color="#FCA27F"/>
</linearGradient>
<linearGradient id="paint2_linear" x1="144" y1="33.5" x2="131" y2="46" gradientUnits="userSpaceOnUse">
<stop stop-color="#FCA27F"/>
<stop offset="1" stop-opacity="0.25"/>
</linearGradient>
<linearGradient id="paint3_linear" x1="167" y1="106" x2="126" y2="117" gradientUnits="userSpaceOnUse">
<stop stop-color="#FCA27F"/>
<stop offset="0.730045" stop-opacity="0.25"/>
</linearGradient>
</defs>
</svg>
