<svg width="230" height="302" viewBox="0 0 230 302" fill="none" xmlns="http://www.w3.org/2000/svg">
<path d="M40.7044 234.282L13.9264 269.979C79.3838 307.909 213.423 375.735 225.919 343.608C241.54 303.449 208.067 249.904 196.91 238.748C179.058 138.351 142.648 87.2709 134.428 82.575C118.807 73.6516 85.3345 84.8052 96.492 78.112C107.65 71.4188 109.881 64.7257 109.881 44.6461C141.122 26.7938 109.881 -8.89928 85.3345 6.71428C31.7784 -11.1295 16.9017 10.4327 13.9264 26.7938C10.951 32.7433 11.5005 37.0758 11.5005 46C7.50049 51.5 -0.999502 57.5 1.00037 61C2.59196 62.5673 4.07095 63.3111 7.50037 64.5L5.00037 70C5.04266 71.5725 5.88123 71.4427 7.50037 73C5.96937 73.2054 5.24636 74.4552 5.00037 76C5.06394 77.0473 5.80764 77.4705 7.50037 78.112C5.12274 82.5303 4.25837 85.2751 5.00037 91.4945C7.50037 93 25.9765 92.3917 38.4729 95.9614C54.0935 100.423 54.0935 118.267 51.862 122.729C49.6305 127.191 36.2414 133.889 29.5469 145.045C22.8524 156.2 25.0839 200.821 25.0839 211.976C25.0839 220.901 29.5469 223.132 40.7044 234.282Z" fill="black"/>
<path d="M40.7044 234.282L13.9264 269.979C79.3838 307.909 213.423 375.735 225.919 343.608C241.54 303.449 208.067 249.904 196.91 238.748C179.058 138.351 142.648 87.2709 134.428 82.575C118.807 73.6516 85.3345 84.8052 96.492 78.112C107.65 71.4188 109.881 64.7257 109.881 44.6461C141.122 26.7938 109.881 -8.89928 85.3345 6.71428C31.7784 -11.1295 16.9017 10.4327 13.9264 26.7938C10.951 32.7433 11.5005 37.0758 11.5005 46C7.50049 51.5 -0.999502 57.5 1.00037 61C2.59196 62.5673 4.07095 63.3111 7.50037 64.5L5.00037 70C5.04266 71.5725 5.88123 71.4427 7.50037 73C5.96937 73.2054 5.24636 74.4552 5.00037 76C5.06394 77.0473 5.80764 77.4705 7.50037 78.112C5.12274 82.5303 4.25837 85.2751 5.00037 91.4945C7.50037 93 25.9765 92.3917 38.4729 95.9614C54.0935 100.423 54.0935 118.267 51.862 122.729C49.6305 127.191 36.2414 133.889 29.5469 145.045C22.8524 156.2 25.0839 200.821 25.0839 211.976C25.0839 220.901 29.5469 223.132 40.7044 234.282Z" fill="url(#paint0_linear)"/>
<path d="M40.7044 234.282L13.9264 269.979C79.3838 307.909 213.423 375.735 225.919 343.608C241.54 303.449 208.067 249.904 196.91 238.748C179.058 138.351 142.648 87.2709 134.428 82.575C118.807 73.6516 85.3345 84.8052 96.492 78.112C107.65 71.4188 109.881 64.7257 109.881 44.6461C141.122 26.7938 109.881 -8.89928 85.3345 6.71428C31.7784 -11.1295 16.9017 10.4327 13.9264 26.7938C10.951 32.7433 11.5005 37.0758 11.5005 46C7.50049 51.5 -0.999502 57.5 1.00037 61C2.59196 62.5673 4.07095 63.3111 7.50037 64.5L5.00037 70C5.04266 71.5725 5.88123 71.4427 7.50037 73C5.96937 73.2054 5.24636 74.4552 5.00037 76C5.06394 77.0473 5.80764 77.4705 7.50037 78.112C5.12274 82.5303 4.25837 85.2751 5.00037 91.4945C7.50037 93 25.9765 92.3917 38.4729 95.9614C54.0935 100.423 54.0935 118.267 51.862 122.729C49.6305 127.191 36.2414 133.889 29.5469 145.045C22.8524 156.2 25.0839 200.821 25.0839 211.976C25.0839 220.901 29.5469 223.132 40.7044 234.282Z" fill="url(#paint1_linear)"/>
<path d="M40.7044 234.282L13.9264 269.979C79.3838 307.909 213.423 375.735 225.919 343.608C241.54 303.449 208.067 249.904 196.91 238.748C179.058 138.351 142.648 87.2709 134.428 82.575C118.807 73.6516 85.3345 84.8052 96.492 78.112C107.65 71.4188 109.881 64.7257 109.881 44.6461C141.122 26.7938 109.881 -8.89928 85.3345 6.71428C31.7784 -11.1295 16.9017 10.4327 13.9264 26.7938C10.951 32.7433 11.5005 37.0758 11.5005 46C7.50049 51.5 -0.999502 57.5 1.00037 61C2.59196 62.5673 4.07095 63.3111 7.50037 64.5L5.00037 70C5.04266 71.5725 5.88123 71.4427 7.50037 73C5.96937 73.2054 5.24636 74.4552 5.00037 76C5.06394 77.0473 5.80764 77.4705 7.50037 78.112C5.12274 82.5303 4.25837 85.2751 5.00037 91.4945C7.50037 93 25.9765 92.3917 38.4729 95.9614C54.0935 100.423 54.0935 118.267 51.862 122.729C49.6305 127.191 36.2414 133.889 29.5469 145.045C22.8524 156.2 25.0839 200.821 25.0839 211.976C25.0839 220.901 29.5469 223.132 40.7044 234.282Z" fill="url(#paint2_linear)"/>
<defs>
<linearGradient id="paint0_linear" x1="11" y1="-5.5" x2="42.5" y2="30" gradientUnits="userSpaceOnUse">
<stop stop-color="#FCA27F"/>
<stop offset="1" stop-opacity="0.25"/>
</linearGradient>
<linearGradient id="paint1_linear" x1="102.5" y1="2.5" x2="99" y2="20.5" gradientUnits="userSpaceOnUse">
<stop stop-color="#FCA27F"/>
<stop offset="1" stop-opacity="0.25"/>
</linearGradient>
<linearGradient id="paint2_linear" x1="208" y1="38" x2="97.5" y2="83" gradientUnits="userSpaceOnUse">
<stop stop-color="#FCA27F"/>
<stop offset="1" stop-opacity="0.25"/>
</linearGradient>
</defs>
</svg>
