<svg width="230" height="158" viewBox="0 0 230 158" fill="none" xmlns="http://www.w3.org/2000/svg">
<path fill-rule="evenodd" clip-rule="evenodd" d="M229.416 12.2296C229.411 18.9783 223.935 24.4448 217.187 24.4393C212.22 24.4352 207.947 21.4682 206.04 17.2112L200.939 17.207L200.91 52.7489L200.906 57.7489L195.906 57.7448L180.277 57.7321V98.6687L195.871 98.6814L200.871 98.6855L200.867 103.686L200.838 139.227L203.306 139.229C205.296 134.26 210.158 130.753 215.838 130.757C223.284 130.763 229.315 136.805 229.309 144.251C229.303 151.697 223.262 157.728 215.816 157.722C210.136 157.717 205.28 154.202 203.298 149.229L195.83 149.223L190.83 149.219L190.834 144.219L190.863 108.677L180.277 108.669V150.642H86.4924L66.2147 128.486L35.4169 128.461C33.3224 134.64 27.4721 139.085 20.5863 139.079C11.9472 139.072 4.94965 132.063 4.9567 123.424C4.96375 114.785 11.9728 107.787 20.6118 107.794C27.5069 107.8 33.3565 112.266 35.4335 118.461L57.0554 118.479L49.2951 110V61.9221L32.5477 61.9084L27.5477 61.9043L27.5518 56.9043L27.5808 21.3624L21.1212 21.3572C19.4353 25.2788 15.5357 28.0236 10.9966 28.0198C4.9184 28.0149 -0.00495608 23.0835 3.74413e-06 17.0053C0.00496378 10.927 4.93636 6.00367 11.0146 6.00864C15.0208 6.0119 18.5252 8.1553 20.4476 11.3566L32.5889 11.3665L37.5889 11.3706L37.5848 16.3706L37.5558 51.9125L49.2951 51.9221V11.7393H180.277V47.7321L190.915 47.7408L190.944 12.1989L190.948 7.19888L195.948 7.20296L206.047 7.2112C207.961 2.95665 212.239 -0.00404956 217.207 4.15754e-06C223.955 0.00551129 229.422 5.48089 229.416 12.2296Z" fill="#A94F20"/>
</svg>
