<svg width="813" height="177" viewBox="0 0 813 177" fill="none" xmlns="http://www.w3.org/2000/svg">
<path d="M-34 2L232 2.00002" stroke="#D2BB83" stroke-width="3"/>
<path d="M579 2L846 1.99998" stroke="#D2BB83" stroke-width="3"/>
<path d="M579.406 2.00001C579.406 24.7433 574.913 47.264 566.184 68.2761C557.454 89.2881 544.66 108.38 528.53 124.462C512.4 140.544 493.251 153.301 472.176 162.005C451.102 170.708 428.514 175.188 405.703 175.188C382.892 175.188 360.304 170.708 339.23 162.005C318.155 153.301 299.006 140.544 282.876 124.462C266.747 108.38 253.952 89.2881 245.222 68.276C236.493 47.2639 232 24.7433 232 2" stroke="#D2BB83" stroke-width="3" stroke-linecap="square"/>
</svg>
