<svg width="1440" height="432" viewBox="0 0 1440 432" fill="none" xmlns="http://www.w3.org/2000/svg">
<path fill-rule="evenodd" clip-rule="evenodd" d="M288.519 4L-5 4.00003V3.05176e-05H288.5L290 4.72786e-06L291.5 3.05176e-05C291.5 56.2712 302.596 111.991 324.155 163.979C345.715 215.967 377.314 263.205 417.151 302.995C456.987 342.785 504.279 374.348 556.328 395.882C608.377 417.416 664.163 428.5 720.5 428.5C776.837 428.5 832.623 417.416 884.672 395.882C936.721 374.348 984.013 342.785 1023.85 302.995C1063.69 263.205 1095.29 215.967 1116.84 163.979C1138.4 111.991 1149.5 56.2712 1149.5 6.10352e-05L1151 3.05176e-05H1440V4.00003H1152.48C1151.97 59.3048 1140.81 114.009 1119.62 165.129C1097.91 217.481 1066.08 265.049 1025.97 305.117C985.854 345.186 938.231 376.97 885.819 398.654C833.406 420.339 777.231 431.5 720.5 431.5C663.769 431.5 607.594 420.339 555.181 398.654C502.769 376.97 455.145 345.186 415.03 305.117C374.915 265.049 343.094 217.481 321.384 165.128C300.185 114.008 289.032 59.3047 288.519 4Z" fill="#D2BB83"/>
</svg>
