<svg width="100" height="29" viewBox="0 0 100 29" fill="none" xmlns="http://www.w3.org/2000/svg">
<g clip-path="url(#clip0)">
<path d="M4.37744 23.9568C1.70203 21.1864 0.355469 17.9543 0.355469 14.2428C0.355469 10.5312 1.71975 7.33461 4.43059 4.61753C7.14144 1.90044 10.4015 0.550781 14.2109 0.550781C18.0202 0.550781 21.2626 1.90044 23.9557 4.59977C26.6489 7.2991 27.9954 10.5134 27.9954 14.2428C27.9954 17.9721 26.6666 21.2219 23.9912 23.9745C21.3158 26.7271 18.1266 28.1123 14.4235 28.1123H13.892C10.2244 28.1123 7.05285 26.7271 4.37744 23.9568ZM26.8261 14.3138C26.8261 10.8153 25.5858 7.83186 23.123 5.32788C20.6602 2.8239 17.6836 1.58079 14.1932 1.58079C10.7027 1.58079 7.72613 2.8239 5.24562 5.32788C2.76511 7.83186 1.52485 10.8153 1.52485 14.3138C1.52485 17.8123 2.76511 20.8135 5.24562 23.3175C7.72613 25.8214 10.7027 27.0823 14.1755 27.0823C17.6482 27.0823 20.6248 25.8214 23.1053 23.3175C25.5858 20.8135 26.8261 17.8123 26.8261 14.3138Z" fill="#D2BB83"/>
<path d="M14.4224 28.4672H13.8909C10.1524 28.4672 6.85684 27.0287 4.12828 24.2051C1.382 21.3815 0 18.0251 0 14.2425C0 10.4599 1.39972 7.13897 4.18143 4.36861C6.94543 1.59825 10.3296 0.195312 14.2098 0.195312C18.09 0.195312 21.4564 1.59825 24.2027 4.35085C26.949 7.10346 28.3487 10.4243 28.3487 14.2425C28.3487 18.0428 26.9667 21.3992 24.2381 24.2229C21.5096 27.0287 18.214 28.4672 14.4224 28.4672ZM14.2098 0.905662C10.5245 0.905662 7.31751 2.23757 4.67753 4.86586C2.03756 7.49415 0.708717 10.6552 0.708717 14.2425C0.708717 17.8297 2.01984 21.0263 4.62438 23.7079C7.22892 26.3894 10.3473 27.7569 13.8909 27.7569H14.4224C18.0191 27.7569 21.1552 26.4072 23.742 23.7256C26.3288 21.0441 27.64 17.8652 27.64 14.2425C27.64 10.6197 26.3111 7.47639 23.7066 4.8481C21.0843 2.23757 17.8951 0.905662 14.2098 0.905662ZM14.1743 27.4372C10.613 27.4372 7.53012 26.1408 4.99646 23.5658C2.46279 20.9908 1.16938 17.883 1.16938 14.3135C1.16938 10.744 2.46279 7.63622 4.99646 5.07896C7.53012 2.52171 10.6308 1.22532 14.1921 1.22532C17.7534 1.22532 20.854 2.52171 23.3699 5.07896C25.9036 7.63622 27.1793 10.744 27.1793 14.3135C27.1793 17.883 25.8859 21.0085 23.3522 23.5658C20.8186 26.1408 17.7356 27.4372 14.1743 27.4372ZM14.1921 1.93567C10.8257 1.93567 7.9022 3.16102 5.49256 5.57621C3.10064 7.99139 1.8781 10.9393 1.8781 14.3135C1.8781 17.6877 3.10064 20.6356 5.49256 23.0685C7.88448 25.5015 10.8079 26.7268 14.1743 26.7268C17.5408 26.7268 20.4465 25.5015 22.8561 23.0685C25.2658 20.6356 26.4706 17.6877 26.4706 14.3135C26.4706 10.9393 25.2658 7.99139 22.8738 5.57621C20.4819 3.16102 17.5585 1.93567 14.1921 1.93567Z" fill="#D2BB83"/>
<path d="M59.674 1.04785V27.6859H58.5046V2.43303L45.9603 28.1832L33.4869 2.43303V27.6859H32.4238V1.04785H34.1248L46.0666 25.6259L58.044 1.04785H59.674Z" fill="#D2BB83"/>
<path d="M45.9592 28.9998L33.8402 3.97775V28.0408H32.0684V0.692383H34.354L34.4426 0.887729L46.0655 24.8087L57.8125 0.692383H60.0095V28.0408H58.1314V3.95999L45.9592 28.9998ZM33.3795 1.40273L45.9592 27.366L58.6098 1.40273H58.2555L46.0478 26.4425L33.8933 1.40273H33.3795ZM58.8579 27.3305H59.3185V1.40273H58.8579V27.3305ZM32.7771 27.3305H33.1314V1.40273H32.7771V27.3305Z" fill="#D2BB83"/>
<path d="M99.6484 1.04785V2.07786H93.5889V27.6859H92.4195V2.07786H86.2891V1.04785H99.6484Z" fill="#D2BB83"/>
<path d="M93.9421 28.0408H92.064V2.43274H85.9336V0.692383H100.002V2.43274H93.9421V28.0408ZM92.7727 27.3305H93.2334V1.72239H99.2929V1.40273H86.6423V1.72239H92.7727V27.3305Z" fill="#D2BB83"/>
<path d="M72.1645 28.4852L70.942 27.757L71.3141 27.1532C75.3006 20.4582 75.9916 19.2684 77.0015 17.2261C73.9009 17.6701 68.6918 16.6223 67.2744 15.8054C66.672 15.4503 66.5834 15.0418 66.6011 14.7577C66.6365 14.4735 66.796 14.1006 67.4338 13.8875C68.2134 13.6211 69.2765 13.5856 70.499 13.5501C72.8201 13.4613 75.7967 13.3725 78.4721 11.7209C75.6195 12.0406 72.5543 11.5611 70.2155 11.0106C67.1681 10.2825 63.8194 9.0216 63.341 8.40004C63.1284 8.13366 63.1107 7.77848 63.2878 7.5121C63.6422 6.9971 64.28 7.19245 65.0065 7.42331C68.3729 8.47107 75.4246 7.28124 79.7655 4.97261C74.0426 6.37555 68.9753 5.86054 61.9413 3.37432L61.7109 2.16673C63.4296 0.674995 67.611 -0.0531125 74.1312 0.0179224C78.8796 0.0711985 83.2382 0.532925 83.2737 0.550684L83.9824 0.621719L83.8229 2.04242L83.1142 1.97138C78.9151 1.50966 68.2134 0.852582 63.8725 2.53966C72.2 5.22123 77.2496 4.56416 82.937 2.5219L83.7343 3.62294C81.2184 6.81951 74.3084 9.00384 68.993 9.21694C72.572 10.2469 77.4799 11.0638 80.9703 9.67867L81.7499 10.8152C78.2063 14.7044 73.582 14.8642 70.5168 14.9708C70.0206 14.9885 69.56 15.0063 69.1525 15.0418C69.9852 15.2904 71.19 15.539 72.6252 15.7344C75.1766 16.054 77.2496 15.9653 77.9228 15.4858L78.9682 16.3737L78.7556 16.7999C77.3204 19.7123 77.1433 20.0853 72.5012 27.8814L72.1645 28.4852Z" fill="#D2BB83"/>
</g>
<defs>
<clipPath id="clip0">
<rect width="100" height="29" fill="white"/>
</clipPath>
</defs>
</svg>
