<svg width="1439" height="324" viewBox="0 0 1439 324" fill="none" xmlns="http://www.w3.org/2000/svg">
<path d="M0 2H397" stroke="#D2BB83" stroke-width="4"/>
<path d="M1042 2L1439 2.00003" stroke="#D2BB83" stroke-width="4"/>
<path d="M1042 2.28527e-05C1042 42.2857 1033.66 84.1573 1017.45 123.224C1001.24 162.291 977.489 197.788 947.542 227.688C917.595 257.589 882.043 281.307 842.915 297.489C803.788 313.671 761.851 322 719.5 322C677.149 322 635.212 313.671 596.085 297.489C556.957 281.307 521.405 257.589 491.458 227.688C461.511 197.788 437.756 162.291 421.549 123.224C405.342 84.1572 397 42.2856 397 0" stroke="#D2BB83" stroke-width="3"/>
</svg>
