<svg width="1440" height="496" viewBox="0 0 1440 496" fill="none" xmlns="http://www.w3.org/2000/svg">
<path fill-rule="evenodd" clip-rule="evenodd" d="M358 495.5H718V441.5H358V495.5ZM355 438.5H0V441.5H355V495.5H-10V0.5H355V80H-1.5V83H355V128.5H0V131.5H355V171.5H0V174.5H355V216.5H-1V219.5H355V260.5H-1V263.5H355V308.5H-1V311.5H355V359.5H-1V362.5H355V414.5H0V417.5H355V438.5ZM358 438.5V417.5H718V438.5H358ZM358 414.5H718V362.5H358V414.5ZM358 359.5V311.5H718V359.5H358ZM358 308.5H718V263.5H358V308.5ZM358 260.5V219.5H718V260.5H358ZM358 216.5H718V174.5H358V216.5ZM358 171.5V131.5H718V171.5H358ZM358 128.5H718V83H358V128.5ZM358 80V0.5H718V80H358Z" fill="#C4C4C4"/>
<path fill-rule="evenodd" clip-rule="evenodd" d="M1081 495.5H721V441.5H1081V495.5ZM1084 438.5H1439V441.5H1084V495.5H1449V0.5H1084V80H1440.5V83H1084V128.5H1439V131.5H1084V171.5H1439V174.5H1084V216.5H1440V219.5H1084V260.5H1440V263.5H1084V308.5H1440V311.5H1084V359.5H1440V362.5H1084V414.5H1439V417.5H1084V438.5ZM1081 438.5V417.5H721V438.5H1081ZM1081 414.5H721V362.5H1081V414.5ZM1081 359.5V311.5H721V359.5H1081ZM1081 308.5H721V263.5H1081V308.5ZM1081 260.5V219.5H721V260.5H1081ZM1081 216.5H721V174.5H1081V216.5ZM1081 171.5V131.5H721V171.5H1081ZM1081 128.5H721V83H1081V128.5ZM1081 80V0.5H721V80H1081Z" fill="#C4C4C4"/>
</svg>
