<svg width="1440" height="497" viewBox="0 0 1440 497" fill="none" xmlns="http://www.w3.org/2000/svg">
<g opacity="0.5">
<path fill-rule="evenodd" clip-rule="evenodd" d="M354.5 495.5V496.5H358.5V495.5H718V442H722V495.5H1080V442H1084V495.5H1441V442H1442V438H1441V418H1442V414H1441V363H1084V359H1441V312H1084V308H1441V264H1084V260H1441V220H1084V216H1441V175H1442V171H1441V132H1442V128H1441V0.5H1084V79.5H1080V0.5H722V79.5H718V0.5H358.5V0H354.5V0.5H-10V495.5H354.5ZM354.5 442V495.5H358.5V442H718V438H722V442H1080V438H1084V442H1441V438H1084V418H1441V414H1084V363H1080V359H1084V312H1080V308H1084V264H1080V260H1084V220H1080V216H1084V175H1441V171H1084V132H1441V128H1084V83.5H1440.5V79.5H1084V83.5H1080V79.5H722V83.5H718V79.5H358.5V0.5H354.5V79.5H-1.5V83.5H354.5V128H0V132H354.5V171H0V175H354.5V216H-1V220H354.5V260H-1V264H354.5V308H-1V312H354.5V359H-1V363H354.5V414H0V418H354.5V438H0V442H354.5ZM358.5 418H354.5V414H358.5V418ZM718 418H358.5V438H354.5V442H358.5V438H718V418ZM718 414V418H722V438H1080V418H1084V414H1080V363H722V359H1080V312H722V308H1080V264H722V260H1080V220H722V216H1080V175H1084V171H1080V132H1084V128H1080V83.5H722V128H718V83.5H358.5V79.5H354.5V83.5H358.5V128H354.5V132H358.5V171H354.5V175H358.5V216H354.5V220H358.5V260H354.5V264H358.5V308H354.5V312H358.5V359H354.5V363H358.5V414H718ZM718 363H722V414H718V363ZM718 359V363H358.5V359H718ZM718 312H722V359H718V312ZM718 308V312H358.5V308H718ZM718 264H722V308H718V264ZM718 260H722V220H718V216H722V175H1080V171H722V132H1080V128H722V132H718V128H358.5V132H718V171H358.5V175H718V216H358.5V220H718V260ZM718 175V171H722V175H718ZM718 260H358.5V264H718V260ZM722 414V418H1080V414H722Z" fill="#950608"/>
</g>
</svg>
