<svg width="186" height="143" viewBox="0 0 186 143" fill="none" xmlns="http://www.w3.org/2000/svg">
<path d="M121.51 58.4731C103.006 111.601 63.8069 117.751 46.5202 114.186C36.8957 127.392 23.7949 155.448 48.3872 162.024C72.9795 168.6 105.558 141.127 118.774 126.568C119.318 125.582 119.5 123.569 115.869 123.404C138.336 107.447 145.045 88.8528 145.591 81.5504C146.135 80.5645 147.769 80.1335 149.947 86.2965C152.562 81.5643 150.395 62.5664 148.985 53.659C150.013 53.2004 153.088 53.3908 157.153 57.8205C157.299 54.1888 153.464 49.0621 151.528 46.9527C152.556 46.4942 156.103 46.2512 162.057 48.9476C161.041 44.0503 147.113 31.0867 140.276 25.217C142.031 25.5495 146.872 27.033 152.196 30.3072C145.372 19.0817 123.616 12.3313 113.591 10.3593C118.289 19.1636 126.451 41.1124 121.51 58.4731Z" fill="black"/>
<path d="M121.51 58.4731C103.006 111.601 63.8069 117.751 46.5202 114.186C36.8957 127.392 23.7949 155.448 48.3872 162.024C72.9795 168.6 105.558 141.127 118.774 126.568C119.318 125.582 119.5 123.569 115.869 123.404C138.336 107.447 145.045 88.8528 145.591 81.5504C146.135 80.5645 147.769 80.1335 149.947 86.2965C152.562 81.5643 150.395 62.5664 148.985 53.659C150.013 53.2004 153.088 53.3908 157.153 57.8205C157.299 54.1888 153.464 49.0621 151.528 46.9527C152.556 46.4942 156.103 46.2512 162.057 48.9476C161.041 44.0503 147.113 31.0867 140.276 25.217C142.031 25.5495 146.872 27.033 152.196 30.3072C145.372 19.0817 123.616 12.3313 113.591 10.3593C118.289 19.1636 126.451 41.1124 121.51 58.4731Z" fill="url(#paint0_radial)"/>
<path d="M121.51 58.4731C103.006 111.601 63.8069 117.751 46.5202 114.186C36.8957 127.392 23.7949 155.448 48.3872 162.024C72.9795 168.6 105.558 141.127 118.774 126.568C119.318 125.582 119.5 123.569 115.869 123.404C138.336 107.447 145.045 88.8528 145.591 81.5504C146.135 80.5645 147.769 80.1335 149.947 86.2965C152.562 81.5643 150.395 62.5664 148.985 53.659C150.013 53.2004 153.088 53.3908 157.153 57.8205C157.299 54.1888 153.464 49.0621 151.528 46.9527C152.556 46.4942 156.103 46.2512 162.057 48.9476C161.041 44.0503 147.113 31.0867 140.276 25.217C142.031 25.5495 146.872 27.033 152.196 30.3072C145.372 19.0817 123.616 12.3313 113.591 10.3593C118.289 19.1636 126.451 41.1124 121.51 58.4731Z" fill="url(#paint1_linear)"/>
<defs>
<radialGradient id="paint0_radial" cx="0" cy="0" r="1" gradientUnits="userSpaceOnUse" gradientTransform="translate(109.5 38.5) rotate(16.748) scale(31.3888 106.883)">
<stop stop-color="#FCA27F"/>
<stop offset="1" stop-opacity="0.25"/>
</radialGradient>
<linearGradient id="paint1_linear" x1="132.399" y1="42.3477" x2="170.447" y2="20.9726" gradientUnits="userSpaceOnUse">
<stop stop-opacity="0.25"/>
<stop offset="1" stop-color="#FCA27F"/>
</linearGradient>
</defs>
</svg>
