<svg width="260" height="179" viewBox="0 0 260 179" fill="none" xmlns="http://www.w3.org/2000/svg">
<path d="M13.3881 21.7152C11.9599 21.7152 0.892603 19.6393 0 22.3174C0 26.7819 0.891627 27.0703 1.78423 27.963C2.67683 28.8557 2.67683 36.89 2.67683 39.5681C2.67683 42.2462 11.6029 48.495 16.0659 50.2804C19.6363 51.7087 30.05 53.2561 34.8105 53.8512C36.0007 54.1488 34.4535 55.101 18.7437 56.5293C-0.000975535 63.6709 4.46204 70.8124 5.35464 70.8124C7.13985 70.8124 10.7103 69.027 12.4955 69.027C11.6029 74.3832 20.5289 78.8467 22.3141 78.8467C24.0993 78.8467 37.4883 76.1686 44.6292 76.1686C48.1996 78.8467 53.5552 82.4175 57.1256 82.4175C59.9819 87.4166 55.9355 99.9738 53.5552 105.628C53.5552 106.52 54.2693 107.77 57.1256 105.628C57.1256 112.769 51.1749 126.457 48.1996 132.408C49.6872 134.491 52.8411 140.443 53.5552 147.584C48.5566 155.44 45.5218 172.282 44.6292 179.721L48.1996 175.258V191.326C49.9848 191.029 54.2693 192.219 57.1256 199.361C59.9819 206.502 72.5974 215.429 78.5481 219L243.68 209.18C249.928 208.585 261.889 206.502 259.746 202.931C257.604 199.361 233.266 182.995 221.365 175.258C217.497 174.068 213.688 172.401 229.398 175.258C216.902 169.009 163.345 118.125 172.271 119.018C164.238 111.876 141.923 88.6664 149.064 88.6664C144.065 87.238 138.055 74.9783 135.675 69.027H141.923C138.948 64.5636 131.569 52.78 125.856 41.3535C124.071 22.6068 107.111 5.64652 99.9705 2.96843C94.6149 5.64652 68.7294 -1.49505 59.8034 0.290338C55.3414 1.78539 44.6301 18.7466 41.0597 18.7466C30.3485 18.7466 15.1733 21.7152 13.3881 21.7152Z" fill="black"/>
<path d="M13.3881 21.7152C11.9599 21.7152 0.892603 19.6393 0 22.3174C0 26.7819 0.891627 27.0703 1.78423 27.963C2.67683 28.8557 2.67683 36.89 2.67683 39.5681C2.67683 42.2462 11.6029 48.495 16.0659 50.2804C19.6363 51.7087 30.05 53.2561 34.8105 53.8512C36.0007 54.1488 34.4535 55.101 18.7437 56.5293C-0.000975535 63.6709 4.46204 70.8124 5.35464 70.8124C7.13985 70.8124 10.7103 69.027 12.4955 69.027C11.6029 74.3832 20.5289 78.8467 22.3141 78.8467C24.0993 78.8467 37.4883 76.1686 44.6292 76.1686C48.1996 78.8467 53.5552 82.4175 57.1256 82.4175C59.9819 87.4166 55.9355 99.9738 53.5552 105.628C53.5552 106.52 54.2693 107.77 57.1256 105.628C57.1256 112.769 51.1749 126.457 48.1996 132.408C49.6872 134.491 52.8411 140.443 53.5552 147.584C48.5566 155.44 45.5218 172.282 44.6292 179.721L48.1996 175.258V191.326C49.9848 191.029 54.2693 192.219 57.1256 199.361C59.9819 206.502 72.5974 215.429 78.5481 219L243.68 209.18C249.928 208.585 261.889 206.502 259.746 202.931C257.604 199.361 233.266 182.995 221.365 175.258C217.497 174.068 213.688 172.401 229.398 175.258C216.902 169.009 163.345 118.125 172.271 119.018C164.238 111.876 141.923 88.6664 149.064 88.6664C144.065 87.238 138.055 74.9783 135.675 69.027H141.923C138.948 64.5636 131.569 52.78 125.856 41.3535C124.071 22.6068 107.111 5.64652 99.9705 2.96843C94.6149 5.64652 68.7294 -1.49505 59.8034 0.290338C55.3414 1.78539 44.6301 18.7466 41.0597 18.7466C30.3485 18.7466 15.1733 21.7152 13.3881 21.7152Z" fill="url(#paint0_linear)"/>
<path d="M13.3881 21.7152C11.9599 21.7152 0.892603 19.6393 0 22.3174C0 26.7819 0.891627 27.0703 1.78423 27.963C2.67683 28.8557 2.67683 36.89 2.67683 39.5681C2.67683 42.2462 11.6029 48.495 16.0659 50.2804C19.6363 51.7087 30.05 53.2561 34.8105 53.8512C36.0007 54.1488 34.4535 55.101 18.7437 56.5293C-0.000975535 63.6709 4.46204 70.8124 5.35464 70.8124C7.13985 70.8124 10.7103 69.027 12.4955 69.027C11.6029 74.3832 20.5289 78.8467 22.3141 78.8467C24.0993 78.8467 37.4883 76.1686 44.6292 76.1686C48.1996 78.8467 53.5552 82.4175 57.1256 82.4175C59.9819 87.4166 55.9355 99.9738 53.5552 105.628C53.5552 106.52 54.2693 107.77 57.1256 105.628C57.1256 112.769 51.1749 126.457 48.1996 132.408C49.6872 134.491 52.8411 140.443 53.5552 147.584C48.5566 155.44 45.5218 172.282 44.6292 179.721L48.1996 175.258V191.326C49.9848 191.029 54.2693 192.219 57.1256 199.361C59.9819 206.502 72.5974 215.429 78.5481 219L243.68 209.18C249.928 208.585 261.889 206.502 259.746 202.931C257.604 199.361 233.266 182.995 221.365 175.258C217.497 174.068 213.688 172.401 229.398 175.258C216.902 169.009 163.345 118.125 172.271 119.018C164.238 111.876 141.923 88.6664 149.064 88.6664C144.065 87.238 138.055 74.9783 135.675 69.027H141.923C138.948 64.5636 131.569 52.78 125.856 41.3535C124.071 22.6068 107.111 5.64652 99.9705 2.96843C94.6149 5.64652 68.7294 -1.49505 59.8034 0.290338C55.3414 1.78539 44.6301 18.7466 41.0597 18.7466C30.3485 18.7466 15.1733 21.7152 13.3881 21.7152Z" fill="url(#paint1_linear)"/>
<defs>
<linearGradient id="paint0_linear" x1="140" y1="22" x2="94.5" y2="56" gradientUnits="userSpaceOnUse">
<stop stop-color="#FCA27F"/>
<stop offset="1" stop-opacity="0"/>
</linearGradient>
<linearGradient id="paint1_linear" x1="44" y1="-17.5" x2="55.5" y2="27" gradientUnits="userSpaceOnUse">
<stop stop-color="#FCA27F"/>
<stop offset="1" stop-opacity="0.25"/>
</linearGradient>
</defs>
</svg>
