<svg width="363" height="488" viewBox="0 0 363 488" fill="none" xmlns="http://www.w3.org/2000/svg">
<path d="M159.306 27.6367L178.449 20.1486C183.852 25.7337 192.423 30.9461 204.201 31.7782L340.94 381.359C338.133 383.337 335.576 385.915 333.557 389.047C329.82 394.846 328.207 402.049 329.478 410.151C322.831 413.236 316.326 415.439 311.923 416.704C294.571 406.762 271.928 401.84 251.161 406.999C229.2 412.454 210.788 428.839 203.345 458.559L181.713 467.02C179.522 464.969 176.888 462.995 173.849 461.41C169.615 459.201 164.511 457.727 158.876 457.937L20.822 104.993C23.3383 102.847 25.7338 100.137 27.6349 96.8189C30.7085 91.4551 32.2024 84.9917 31.2961 77.7077L50.9252 70.0298C64.1637 79.3913 84.5392 85.6942 104.715 82.2426C127.791 78.2946 148.938 61.9441 159.306 27.6367Z" fill="#8C2121" stroke="#BE986D" stroke-width="20"/>
<path d="M162.954 70.877L283.338 378.645" stroke="#EEC97C" stroke-width="2" stroke-dasharray="2 2 2 2"/>
<path d="M76.001 104.889L196.385 412.657" stroke="#EEC97C" stroke-width="2" stroke-dasharray="2 2 2 2"/>
<path d="M167.161 145.908L166.636 144.566C165.267 141.065 163.668 138.898 161.839 138.067C160.048 137.222 157.14 137.199 153.116 138.001L152.482 136.38L164.048 131.856L176.528 163.762L164.962 168.286L164.328 166.666C167.828 164.524 169.949 162.534 170.691 160.698C171.47 158.847 171.175 156.17 169.806 152.669L169.281 151.328L135.307 164.616C132.849 165.578 132.21 167.568 133.39 170.585L132.049 171.11L126.388 156.637L127.729 156.113C128.909 159.13 130.729 160.158 133.187 159.196L167.161 145.908ZM177.584 181.283L146.572 193.414C144.113 194.376 143.474 196.365 144.654 199.382L143.313 199.907L137.652 185.435L138.993 184.91C140.173 187.928 141.993 188.955 144.451 187.994L175.464 175.863C177.922 174.902 178.561 172.912 177.381 169.895L178.722 169.37L184.383 183.842L183.042 184.367C181.862 181.35 180.042 180.322 177.584 181.283ZM156.795 222.844C158.529 227.277 162.056 229.87 167.376 230.624L165.141 231.498C162.449 231.864 159.834 231.383 157.297 230.057C154.796 228.715 152.912 226.424 151.644 223.183C149.604 217.968 149.909 213.146 152.557 208.717C155.22 204.325 159.588 200.942 165.66 198.566C172.477 195.9 178.442 195.392 183.555 197.043C188.705 198.68 192.198 201.845 194.034 206.538C196.19 212.052 195.839 216.699 192.98 220.48L182.698 224.502L181.955 222.602C183.47 221.752 184.873 220.838 186.166 219.86C187.473 218.919 188.726 217.785 189.924 216.457C191.123 215.129 191.91 213.683 192.286 212.118C192.699 210.539 192.593 208.949 191.966 207.347C190.771 204.292 188.309 202.335 184.579 201.474C180.901 200.637 176.306 201.296 170.793 203.452C164.795 205.798 160.584 208.648 158.159 212.002C155.749 215.393 155.294 219.007 156.795 222.844ZM192.168 249.535L176.098 270.381C174.455 272.441 174.093 274.645 175.011 276.991L173.67 277.516L167.856 262.653L169.197 262.128C170.13 264.512 171.229 265.456 172.496 264.961C172.943 264.786 173.815 263.887 175.112 262.262L186.51 247.754L178.863 245.333L168.302 249.464C165.955 250.382 165.372 252.349 166.552 255.367L165.211 255.891L159.55 241.419L160.892 240.895C162.072 243.912 163.891 244.94 166.35 243.978L197.362 231.848C199.82 230.886 200.46 228.897 199.279 225.879L200.62 225.355L206.281 239.827L204.94 240.351C203.76 237.334 201.885 236.328 199.314 237.333L182.495 243.912L203.336 250.579C204.944 251.066 206.102 251.172 206.809 250.895C208.113 250.385 208.284 248.901 207.323 246.442L208.664 245.918L214.062 259.719L212.721 260.244C211.497 257.115 209.366 255.071 206.328 254.111L192.168 249.535ZM198.306 304.428L198.94 306.049L186.703 310.835L175.206 281.444L176.547 280.919C177.727 283.936 179.547 284.964 182.005 284.003L213.017 271.872C215.476 270.911 216.115 268.921 214.935 265.904L216.276 265.379L227.314 293.597L215.747 298.121L215.113 296.501C216.859 295.474 218.188 294.59 219.1 293.846C220.026 293.14 220.78 292.266 221.36 291.223C221.954 290.217 222.193 289.071 222.077 287.786C221.975 286.537 221.567 285 220.853 283.175L218.099 276.134L201.503 282.625L202.793 285.922C204.25 289.647 207.027 290.708 211.125 289.106L211.781 290.782L197.364 296.421L196.709 294.745C200.844 293.127 202.183 290.456 200.725 286.731L199.436 283.434L181.164 290.581L184.224 298.404C184.982 300.341 185.761 301.84 186.563 302.901C187.416 303.985 188.447 304.698 189.655 305.042C190.863 305.385 192.084 305.487 193.318 305.348C194.567 305.246 196.23 304.94 198.306 304.428ZM233.55 315.635L233.025 314.294C231.656 310.793 230.057 308.626 228.228 307.795C226.437 306.95 223.529 306.927 219.505 307.728L218.871 306.108L230.438 301.584L242.918 333.49L231.351 338.014L230.717 336.394C234.217 334.251 236.338 332.262 237.08 330.426C237.86 328.575 237.564 325.898 236.195 322.397L235.67 321.056L201.697 334.344C199.238 335.306 198.599 337.295 199.779 340.313L198.438 340.837L192.777 326.365L194.118 325.841C195.298 328.858 197.118 329.886 199.577 328.924L233.55 315.635Z" fill="white"/>
<path d="M191.466 94.2856L189.119 95.2036C188.299 95.5241 188.086 96.1873 188.48 97.1931L188.033 97.368L186.182 92.637L186.629 92.4621C187.022 93.4679 187.629 93.8105 188.448 93.49L190.795 92.572L188.784 87.4313L189.287 87.2346C190.883 87.7989 192.639 88.2073 194.556 88.4597C196.485 88.7072 198.413 88.712 200.338 88.4742L201.081 90.374C198.016 90.7715 194.395 90.0975 190.218 88.3522C190.068 88.2966 189.958 88.2536 189.889 88.2234L191.484 92.3024L193.701 91.4355L195.745 92.2682L195.861 92.5662L192.155 94.016L193.014 96.2139L192.325 96.4834L191.466 94.2856ZM201.029 103.857C201.457 104.949 201.391 106.027 200.834 107.09C200.276 108.153 199.339 108.942 198.023 109.457C196.582 110.02 195.266 110.077 194.073 109.627C192.898 109.185 192.06 108.324 191.56 107.045C191.186 106.089 191.123 105.233 191.372 104.477C191.637 103.729 192.108 103.158 192.785 102.765L193.809 102.364C192.57 103.479 192.23 104.75 192.789 106.178C193.133 107.06 193.746 107.6 194.626 107.8C195.511 108.012 196.493 107.907 197.573 107.485C198.579 107.091 199.273 106.541 199.655 105.833C200.036 105.125 200.094 104.43 199.827 103.747C199.603 103.176 199.223 102.752 198.685 102.476C198.16 102.194 197.567 102.068 196.905 102.098L196.665 101.483L204.614 99.4049L206.173 103.391C206.328 103.788 206.5 104.043 206.687 104.156C206.892 104.277 207.164 104.313 207.503 104.266L207.678 104.713L205.062 105.436L203.175 100.612L198.612 101.795C199.743 101.94 200.548 102.627 201.029 103.857ZM205.889 118.039C206.278 119.032 206.217 120.029 205.707 121.031C205.214 122.04 204.365 122.78 203.16 123.251C201.844 123.766 200.594 123.79 199.409 123.322C198.236 122.85 197.405 121.987 196.914 120.733C196.545 119.79 196.482 118.934 196.726 118.165C196.987 117.405 197.443 116.833 198.095 116.449L199.138 116.041C197.911 117.151 197.579 118.426 198.143 119.866C198.488 120.748 199.09 121.3 199.95 121.522C200.815 121.756 201.738 121.681 202.719 121.298C203.662 120.929 204.29 120.411 204.602 119.745C204.914 119.079 204.937 118.404 204.67 117.721C204.354 116.914 203.708 116.379 202.732 116.117L203.924 115.65L209.855 117.69L208.995 115.492C208.587 114.449 207.837 113.977 206.744 114.075L206.569 113.628L209.859 112.814L212.336 119.147L211.907 119.314L205.04 116.911C205.397 117.129 205.68 117.505 205.889 118.039ZM207.746 135.908L205.399 136.826C204.58 137.146 204.367 137.809 204.76 138.815L204.313 138.99L202.463 134.259L202.91 134.084C203.303 135.09 203.909 135.433 204.729 135.112L207.076 134.194L205.065 129.053L205.568 128.857C207.163 129.421 208.919 129.829 210.836 130.082C212.766 130.329 214.693 130.334 216.619 130.096L217.362 131.996C214.296 132.394 210.675 131.72 206.499 129.974C206.348 129.919 206.239 129.876 206.169 129.846L207.765 133.925L209.981 133.058L212.025 133.89L212.142 134.188L208.435 135.638L209.295 137.836L208.606 138.106L207.746 135.908ZM217.31 145.479C217.737 146.572 217.672 147.649 217.114 148.712C216.556 149.775 215.619 150.564 214.303 151.079C212.863 151.642 211.546 151.699 210.354 151.249C209.179 150.807 208.341 149.946 207.841 148.667C207.467 147.711 207.404 146.855 207.652 146.099C207.918 145.351 208.389 144.78 209.066 144.387L210.09 143.986C208.851 145.101 208.511 146.372 209.069 147.8C209.414 148.682 210.026 149.222 210.906 149.422C211.791 149.635 212.774 149.529 213.854 149.107C214.86 148.714 215.553 148.163 215.935 147.455C216.317 146.748 216.374 146.052 216.107 145.369C215.884 144.798 215.503 144.374 214.966 144.098C214.44 143.816 213.847 143.691 213.186 143.72L212.945 143.106L220.894 141.027L222.453 145.013C222.609 145.41 222.78 145.665 222.968 145.778C223.172 145.899 223.444 145.936 223.784 145.889L223.959 146.336L221.342 147.058L219.455 142.234L214.893 143.418C216.023 143.562 216.829 144.249 217.31 145.479ZM222.931 160.453C223.324 161.459 223.295 162.466 222.845 163.472C222.406 164.474 221.516 165.237 220.175 165.762C218.66 166.355 217.309 166.432 216.121 165.995C214.951 165.565 214.133 164.754 213.667 163.562C213.302 162.63 213.282 161.736 213.605 160.88C213.946 160.031 214.516 159.292 215.316 158.664C216.12 158.049 217.112 157.511 218.292 157.049C219.807 156.457 221.2 156.084 222.471 155.93C223.748 155.789 224.884 155.931 225.881 156.357C226.891 156.778 227.602 157.517 228.015 158.572C228.292 159.28 228.334 159.936 228.141 160.542C227.961 161.142 227.656 161.626 227.227 161.994L226.352 162.337C226.69 161.847 226.895 161.365 226.968 160.893C227.041 160.421 226.966 159.899 226.743 159.328C226.539 158.806 226.21 158.405 225.756 158.124C225.303 157.843 224.778 157.691 224.181 157.666C223.585 157.642 222.967 157.691 222.327 157.812C221.687 157.933 221.017 158.124 220.317 158.383C220.852 158.432 221.36 158.634 221.843 158.989C222.33 159.357 222.693 159.845 222.931 160.453ZM214.392 163.385C214.596 163.907 214.966 164.249 215.502 164.411C216.056 164.582 216.625 164.609 217.21 164.495C217.8 164.393 218.443 164.206 219.138 163.934C220.256 163.497 221.073 162.97 221.59 162.352C222.125 161.742 222.259 161.096 221.991 160.413C221.7 159.668 221.151 159.217 220.345 159.06C219.557 158.91 218.69 159.02 217.747 159.389C214.903 160.501 213.785 161.833 214.392 163.385ZM227.617 176.551L227.378 177.697C227.161 178.569 226.849 179.256 226.445 179.758C226.04 180.26 225.452 180.662 224.682 180.963C223.54 181.41 222.477 181.382 221.493 180.879C220.521 180.372 219.809 179.54 219.358 178.386C218.862 177.119 218.778 175.971 219.105 174.941C219.445 173.906 220.186 173.165 221.328 172.718C222.136 172.403 222.964 172.343 223.815 172.54C224.67 172.75 225.444 173.192 226.137 173.866L226.19 173.673C226.565 171.995 227.453 170.881 228.856 170.332C229.875 169.934 230.829 169.976 231.719 170.458C232.614 170.953 233.273 171.74 233.695 172.82C234.089 173.826 234.136 174.788 233.837 175.707C233.55 176.621 232.928 177.265 231.972 177.639C231.252 177.921 230.514 177.973 229.758 177.797C229.001 177.62 228.288 177.205 227.617 176.551ZM225.563 176.517L225.959 174.73C225.198 174.211 224.489 173.916 223.831 173.844C223.177 173.785 222.503 173.891 221.808 174.163C220.963 174.493 220.379 175.03 220.054 175.773C219.728 176.515 219.729 177.303 220.054 178.135C220.316 178.805 220.753 179.3 221.365 179.619C221.981 179.951 222.662 179.971 223.407 179.679C224.487 179.257 225.206 178.203 225.563 176.517ZM230.094 171.63C229.498 171.863 229.054 172.245 228.76 172.775C228.471 173.318 228.223 174.038 228.015 174.935L227.823 175.761C228.872 176.611 230.054 176.779 231.37 176.264C232.115 175.973 232.635 175.526 232.929 174.924C233.223 174.322 233.235 173.674 232.963 172.978C232.715 172.345 232.327 171.902 231.799 171.651C231.271 171.399 230.703 171.392 230.094 171.63ZM230.179 193.259L227.832 194.177C227.013 194.498 226.8 195.161 227.193 196.167L226.746 196.342L224.896 191.611L225.343 191.436C225.736 192.442 226.343 192.784 227.162 192.464L229.509 191.546L227.498 186.405L228.001 186.208C229.596 186.773 231.352 187.181 233.269 187.433C235.199 187.681 237.126 187.686 239.052 187.448L239.795 189.348C236.729 189.745 233.108 189.071 228.932 187.326C228.782 187.27 228.672 187.227 228.603 187.197L230.198 191.276L232.415 190.409L234.458 191.242L234.575 191.54L230.868 192.99L231.728 195.188L231.039 195.457L230.179 193.259ZM239.183 203.157C239.572 204.15 239.511 205.147 239.001 206.149C238.508 207.158 237.659 207.898 236.454 208.369C235.138 208.884 233.888 208.907 232.703 208.44C231.53 207.968 230.699 207.105 230.208 205.851C229.839 204.907 229.776 204.051 230.02 203.283C230.281 202.523 230.737 201.951 231.388 201.567L232.432 201.159C231.205 202.269 230.873 203.544 231.437 204.984C231.781 205.866 232.384 206.417 233.244 206.639C234.109 206.874 235.032 206.799 236.012 206.416C236.956 206.046 237.584 205.529 237.896 204.863C238.208 204.196 238.231 203.522 237.964 202.839C237.648 202.032 237.002 201.497 236.026 201.235L237.218 200.768L243.149 202.808L242.289 200.61C241.881 199.567 241.131 199.095 240.038 199.193L239.863 198.746L243.153 197.932L245.63 204.264L245.201 204.432L238.334 202.028C238.691 202.247 238.974 202.623 239.183 203.157ZM244.196 218.937L243.957 220.083C243.74 220.955 243.429 221.642 243.024 222.144C242.619 222.646 242.032 223.048 241.262 223.349C240.119 223.796 239.056 223.768 238.072 223.265C237.1 222.758 236.389 221.927 235.937 220.772C235.442 219.505 235.357 218.357 235.685 217.327C236.024 216.292 236.765 215.551 237.908 215.104C238.715 214.789 239.544 214.729 240.394 214.927C241.249 215.136 242.023 215.578 242.716 216.252L242.77 216.059C243.144 214.381 244.033 213.267 245.436 212.718C246.454 212.32 247.408 212.362 248.298 212.844C249.193 213.339 249.852 214.126 250.275 215.206C250.668 216.212 250.715 217.175 250.416 218.093C250.129 219.007 249.508 219.651 248.552 220.025C247.832 220.307 247.093 220.359 246.337 220.183C245.581 220.006 244.867 219.591 244.196 218.937ZM242.142 218.903L242.539 217.116C241.778 216.597 241.068 216.302 240.41 216.23C239.757 216.171 239.082 216.277 238.387 216.549C237.543 216.879 236.958 217.416 236.633 218.159C236.308 218.902 236.308 219.689 236.633 220.521C236.896 221.191 237.333 221.686 237.944 222.005C238.561 222.337 239.241 222.357 239.986 222.066C241.067 221.643 241.785 220.589 242.142 218.903ZM246.674 214.016C246.078 214.25 245.633 214.631 245.339 215.161C245.05 215.704 244.802 216.424 244.595 217.321L244.403 218.148C245.451 218.997 246.633 219.165 247.949 218.65C248.694 218.359 249.214 217.912 249.508 217.31C249.803 216.708 249.814 216.06 249.542 215.364C249.294 214.731 248.906 214.289 248.378 214.037C247.85 213.785 247.282 213.778 246.674 214.016ZM251.018 232.261C251.412 233.267 251.383 234.273 250.932 235.28C250.494 236.282 249.604 237.045 248.263 237.57C246.748 238.162 245.397 238.24 244.209 237.802C243.039 237.372 242.22 236.561 241.754 235.369C241.39 234.438 241.37 233.544 241.693 232.687C242.034 231.838 242.604 231.1 243.404 230.472C244.208 229.857 245.2 229.318 246.38 228.857C247.895 228.264 249.288 227.891 250.559 227.738C251.835 227.596 252.972 227.739 253.969 228.165C254.978 228.586 255.69 229.324 256.102 230.38C256.379 231.088 256.421 231.744 256.229 232.349C256.048 232.95 255.744 233.434 255.315 233.802L254.439 234.144C254.777 233.654 254.983 233.173 255.056 232.701C255.129 232.228 255.054 231.706 254.83 231.135C254.626 230.614 254.297 230.213 253.844 229.932C253.391 229.651 252.866 229.498 252.269 229.474C251.673 229.45 251.054 229.498 250.415 229.62C249.775 229.741 249.105 229.931 248.405 230.191C248.939 230.24 249.448 230.442 249.93 230.797C250.418 231.165 250.78 231.653 251.018 232.261ZM242.48 235.193C242.684 235.715 243.054 236.057 243.59 236.219C244.143 236.389 244.712 236.417 245.298 236.303C245.888 236.201 246.53 236.014 247.226 235.742C248.343 235.305 249.161 234.777 249.678 234.16C250.213 233.55 250.346 232.903 250.079 232.221C249.788 231.475 249.239 231.024 248.433 230.867C247.644 230.718 246.778 230.827 245.834 231.196C242.991 232.309 241.873 233.641 242.48 235.193ZM252.477 250.265L250.13 251.183C249.311 251.504 249.098 252.167 249.491 253.173L249.044 253.348L247.194 248.617L247.641 248.442C248.034 249.448 248.64 249.79 249.46 249.47L251.807 248.552L249.796 243.411L250.299 243.214C251.894 243.779 253.65 244.187 255.567 244.439C257.497 244.687 259.424 244.692 261.35 244.454L262.093 246.354C259.027 246.751 255.406 246.077 251.23 244.332C251.079 244.276 250.97 244.233 250.9 244.203L252.496 248.282L254.712 247.415L256.756 248.248L256.873 248.546L253.166 249.996L254.026 252.194L253.337 252.463L252.477 250.265ZM261.173 255.752L262.309 255.307C263.242 255.129 264.116 255.223 264.933 255.591C265.767 255.966 266.386 256.669 266.789 257.7C267.211 258.78 267.196 259.767 266.744 260.66C266.291 261.552 265.494 262.222 264.351 262.669C263.544 262.985 262.657 263.096 261.69 263.002C260.735 262.903 259.602 262.623 258.29 262.162L253.816 260.605L255.113 263.921C255.559 265.063 256.492 265.543 257.909 265.361L258.084 265.808L254.259 266.681L251.411 259.398L251.97 259.18L257.031 260.7C259.724 261.508 261.859 261.604 263.436 260.987C264.193 260.691 264.719 260.242 265.013 259.64C265.313 259.05 265.324 258.402 265.047 257.694C264.765 256.974 264.258 256.464 263.525 256.163C262.796 255.875 262.013 255.738 261.173 255.752ZM266.944 274.128C267.332 275.121 267.271 276.118 266.761 277.12C266.268 278.129 265.419 278.869 264.215 279.34C262.898 279.855 261.648 279.878 260.463 279.411C259.29 278.939 258.459 278.076 257.968 276.822C257.599 275.878 257.537 275.022 257.78 274.254C258.041 273.494 258.497 272.921 259.149 272.538L260.192 272.13C258.965 273.24 258.634 274.515 259.197 275.955C259.542 276.837 260.144 277.388 261.004 277.61C261.869 277.845 262.792 277.77 263.773 277.386C264.717 277.017 265.344 276.5 265.657 275.834C265.969 275.167 265.991 274.493 265.724 273.81C265.408 273.003 264.762 272.468 263.786 272.206L264.979 271.739L270.909 273.779L270.049 271.581C269.641 270.538 268.891 270.066 267.798 270.164L267.624 269.717L270.913 268.903L273.39 275.235L272.962 275.403L266.094 272.999C266.452 273.218 266.735 273.594 266.944 274.128ZM268.8 291.997L266.453 292.915C265.634 293.235 265.421 293.898 265.814 294.904L265.367 295.079L263.517 290.348L263.964 290.173C264.357 291.179 264.964 291.522 265.783 291.201L268.13 290.283L266.119 285.142L266.622 284.946C268.217 285.51 269.973 285.918 271.89 286.171C273.82 286.418 275.747 286.423 277.673 286.185L278.416 288.085C275.35 288.482 271.729 287.809 267.553 286.063C267.403 286.008 267.293 285.965 267.224 285.934L268.819 290.013L271.036 289.146L273.079 289.979L273.196 290.277L269.489 291.727L270.349 293.925L269.66 294.194L268.8 291.997ZM269.971 306.848L267.785 301.26L268.232 301.085C268.737 302.377 269.4 302.862 270.219 302.541L280.463 298.534L277.782 297.006L278.751 296.627L282.893 298.872L283.127 299.468L270.889 304.255C270.07 304.576 269.913 305.382 270.418 306.673L269.971 306.848ZM278.476 314.372C278.083 313.366 278.105 312.363 278.544 311.361C278.995 310.354 279.891 309.588 281.232 309.064C282.746 308.471 284.089 308.39 285.259 308.82C286.447 309.257 287.274 310.072 287.74 311.264C288.105 312.195 288.116 313.085 287.776 313.935C287.452 314.791 286.888 315.527 286.084 316.143C285.284 316.77 284.294 317.315 283.115 317.776C281.6 318.369 280.204 318.736 278.928 318.877C277.657 319.031 276.516 318.897 275.507 318.476C274.51 318.05 273.805 317.309 273.392 316.253C273.115 315.546 273.067 314.892 273.247 314.291C273.44 313.686 273.751 313.2 274.18 312.831L275.055 312.489C274.717 312.979 274.511 313.46 274.439 313.933C274.366 314.405 274.441 314.927 274.664 315.498C274.868 316.02 275.197 316.421 275.65 316.702C276.104 316.982 276.629 317.135 277.225 317.159C277.822 317.184 278.44 317.135 279.08 317.014C279.72 316.892 280.389 316.702 281.09 316.442C280.555 316.394 280.044 316.185 279.557 315.818C279.074 315.462 278.714 314.981 278.476 314.372ZM287.015 311.44C286.811 310.919 286.432 310.573 285.879 310.403C285.343 310.24 284.78 310.21 284.19 310.312C283.604 310.426 282.964 310.619 282.269 310.891C281.151 311.329 280.325 311.852 279.791 312.462C279.273 313.08 279.148 313.73 279.415 314.413C279.707 315.158 280.247 315.605 281.036 315.755C281.842 315.912 282.716 315.806 283.66 315.437C286.504 314.325 287.622 312.992 287.015 311.44ZM287.918 327.75C288.307 328.744 288.246 329.741 287.735 330.742C287.242 331.751 286.394 332.491 285.189 332.962C283.873 333.477 282.622 333.501 281.438 333.034C280.265 332.562 279.434 331.699 278.943 330.445C278.574 329.501 278.511 328.645 278.755 327.877C279.015 327.116 279.472 326.544 280.123 326.16L281.166 325.752C279.94 326.862 279.608 328.137 280.172 329.578C280.516 330.459 281.119 331.011 281.979 331.233C282.844 331.468 283.766 331.393 284.747 331.009C285.691 330.64 286.319 330.122 286.631 329.456C286.943 328.79 286.966 328.116 286.699 327.433C286.383 326.626 285.737 326.091 284.761 325.828L285.953 325.362L291.884 327.402L291.024 325.204C290.616 324.161 289.866 323.688 288.773 323.787L288.598 323.34L291.888 322.525L294.365 328.858L293.936 329.026L287.069 326.622C287.426 326.84 287.709 327.216 287.918 327.75ZM289.775 345.619L287.428 346.537C286.609 346.858 286.395 347.521 286.789 348.527L286.342 348.702L284.491 343.971L284.938 343.796C285.332 344.802 285.938 345.144 286.758 344.824L289.105 343.906L287.094 338.765L287.597 338.568C289.192 339.133 290.948 339.541 292.865 339.793C294.794 340.041 296.722 340.046 298.648 339.808L299.391 341.708C296.325 342.105 292.704 341.431 288.528 339.686C288.377 339.63 288.267 339.587 288.198 339.557L289.794 343.636L292.01 342.769L294.054 343.602L294.171 343.9L290.464 345.35L291.324 347.548L290.635 347.817L289.775 345.619Z" fill="white"/>
<path d="M101.298 199.335L91.0641 208.256C90.7849 208.494 90.5768 208.675 90.4397 208.801C90.3198 208.933 90.1934 209.104 90.0606 209.314C89.9402 209.518 89.8816 209.735 89.8848 209.962C89.9053 210.198 89.9738 210.465 90.0904 210.763L89.6434 210.937L87.6908 205.946L88.1379 205.771C88.5021 206.702 88.945 207.066 89.4666 206.862C89.6777 206.779 89.99 206.571 90.4036 206.238L92.0111 204.857L90.1533 200.108L88.2066 200.182C87.6419 200.202 87.223 200.266 86.9498 200.373C86.6767 200.48 86.5082 200.653 86.4445 200.893C86.398 201.14 86.4768 201.524 86.6808 202.046L86.2337 202.221L84.6965 198.29L85.1435 198.116C85.3621 198.674 85.659 199.031 86.0341 199.185C86.4217 199.334 86.9548 199.397 87.6334 199.375L101.13 198.906L101.298 199.335ZM97.8584 199.821L90.9745 200.066L92.6356 204.312L97.8584 199.821ZM91.6118 215.97L92.0588 215.795C92.4522 216.801 93.0587 217.143 93.8782 216.823L104.216 212.779C105.035 212.459 105.248 211.796 104.855 210.79L105.302 210.615L107.211 215.495C107.57 216.414 107.767 217.303 107.803 218.162C107.851 219.017 107.731 219.844 107.442 220.644C107.171 221.452 106.66 222.196 105.91 222.876C105.177 223.563 104.226 224.136 103.059 224.592C100.824 225.466 98.8699 225.558 97.1964 224.867C95.5278 224.188 94.3608 222.998 93.6954 221.297L91.6118 215.97ZM105.909 214.2L93.5977 219.016L94.0786 220.245C94.6711 221.76 95.6578 222.727 97.0387 223.146C98.4369 223.573 100.179 223.378 102.265 222.562C106.263 220.998 107.638 218.62 106.39 215.429L105.909 214.2ZM111.317 230.99L100.998 235.026C100.179 235.347 99.9658 236.01 100.359 237.015L99.9122 237.19L98.426 233.391L98.873 233.216C99.2664 234.222 99.8729 234.564 100.692 234.244L111.03 230.2C111.849 229.88 112.062 229.216 111.669 228.211L112.116 228.036L113.515 231.612L104.294 239.772L116.611 239.528L117.966 242.992L117.519 243.167C117.126 242.161 116.519 241.819 115.7 242.139L105.362 246.183C104.543 246.503 104.33 247.167 104.723 248.172L104.276 248.347L102.389 243.523L102.836 243.348C103.23 244.354 103.836 244.697 104.656 244.376L114.881 240.376L101.267 240.655L101.063 240.133L111.317 230.99ZM119.917 252.92L109.579 256.964C108.76 257.284 108.547 257.947 108.94 258.953L108.493 259.128L106.606 254.304L107.053 254.129C107.447 255.135 108.053 255.478 108.873 255.157L119.21 251.114C120.03 250.793 120.243 250.13 119.849 249.124L120.296 248.949L122.183 253.773L121.736 253.948C121.343 252.942 120.736 252.6 119.917 252.92ZM125.551 264.415L125.376 263.968C124.92 262.801 124.387 262.079 123.777 261.802C123.18 261.52 122.211 261.512 120.869 261.779L120.658 261.239L124.514 259.731L128.674 270.366L124.818 271.874L124.607 271.334C125.773 270.62 126.48 269.957 126.728 269.345C126.988 268.728 126.889 267.836 126.433 266.669L126.258 266.222L114.933 270.651C114.114 270.972 113.901 271.635 114.294 272.641L113.847 272.816L111.96 267.992L112.407 267.817C112.801 268.822 113.407 269.165 114.227 268.844L125.551 264.415ZM126.035 299.087C124.372 298.535 123.238 297.482 122.631 295.93C122.024 294.378 122.141 292.829 122.982 291.283C123.828 289.749 125.4 288.533 127.697 287.635C129.969 286.746 131.893 286.595 133.468 287.181C135.056 287.763 136.156 288.836 136.768 290.401C137.38 291.965 137.3 293.5 136.528 295.004C135.769 296.504 134.253 297.698 131.981 298.587C129.684 299.485 127.702 299.652 126.035 299.087ZM124.002 292.409C123.1 293.434 122.873 294.518 123.32 295.661C123.767 296.803 124.667 297.439 126.02 297.568C127.391 297.705 129.119 297.365 131.205 296.549C135.353 294.927 136.977 292.967 136.079 290.67C135.18 288.373 132.657 288.035 128.51 289.658C126.424 290.474 124.921 291.391 124.002 292.409ZM131.398 318.234L131.245 317.843L139.883 305.337L130.011 309.198C129.191 309.519 128.978 310.182 129.372 311.188L128.925 311.363L127.439 307.563L127.886 307.388C128.279 308.394 128.885 308.737 129.705 308.416L140.042 304.372C140.862 304.052 141.075 303.389 140.681 302.383L141.128 302.208L142.374 305.393L135.059 315.9L143.292 312.68C144.111 312.359 144.324 311.696 143.931 310.69L144.378 310.515L145.864 314.315L145.417 314.49C145.024 313.484 144.417 313.141 143.598 313.462L131.398 318.234ZM142.173 333.209L142.385 333.749L138.305 335.345L134.473 325.548L134.92 325.373C135.314 326.379 135.92 326.721 136.74 326.401L147.077 322.357C147.897 322.037 148.11 321.374 147.716 320.368L148.163 320.193L151.842 329.599L147.987 331.107L147.776 330.567C148.358 330.225 148.801 329.93 149.105 329.682C149.413 329.447 149.664 329.155 149.858 328.808C150.056 328.472 150.136 328.09 150.097 327.662C150.063 327.246 149.927 326.733 149.689 326.125L148.771 323.778L143.239 325.942L143.669 327.041C144.155 328.282 145.08 328.636 146.446 328.102L146.665 328.661L141.859 330.54L141.641 329.981C143.019 329.442 143.465 328.552 142.98 327.31L142.55 326.211L136.459 328.594L137.479 331.201C137.732 331.847 137.992 332.347 138.259 332.7C138.543 333.061 138.887 333.299 139.29 333.414C139.692 333.528 140.099 333.562 140.511 333.516C140.927 333.482 141.481 333.38 142.173 333.209Z" fill="white"/>
<path d="M76.994 124.287L69.403 130.515L72.9796 139.658L64.7115 134.363L57.1205 140.59L59.6016 131.091L51.3335 125.795L61.1349 125.219L63.616 115.72L67.1926 124.863L76.994 124.287Z" fill="#EEC97C"/>
<path d="M94.8954 170.052L87.3044 176.279L90.881 185.423L82.6129 180.128L75.0219 186.355L77.5029 176.855L69.2349 171.56L79.0363 170.984L81.5174 161.484L85.0939 170.628L94.8954 170.052Z" fill="#EEC97C"/>
<path d="M165.603 350.824L158.012 357.051L161.589 366.194L153.321 360.899L145.73 367.126L148.211 357.627L139.943 352.331L149.744 351.756L152.225 342.256L155.802 351.4L165.603 350.824Z" fill="#EEC97C"/>
<path d="M183.505 396.587L175.914 402.814L179.49 411.958L171.222 406.663L163.631 412.89L166.112 403.39L157.844 398.095L167.646 397.519L170.127 388.019L173.703 397.163L183.505 396.587Z" fill="#FCD9A8"/>
</svg>
